<svg width="286" height="251" viewBox="0 0 286 251" fill="none" xmlns="http://www.w3.org/2000/svg">
<path d="M285.933 238.616C285.933 244.076 246.002 248.497 196.738 248.497C147.474 248.497 107.551 244.076 107.551 238.616C107.551 233.156 147.482 228.73 196.738 228.73C245.994 228.73 285.933 233.155 285.933 238.616Z" fill="#757575"/>
<path d="M135.002 242.765C135.002 247.132 107.844 250.665 74.3418 250.665C40.8395 250.665 13.6816 247.129 13.6816 242.765C13.6816 238.401 40.8395 234.858 74.3418 234.858C107.844 234.858 135.002 238.398 135.002 242.765Z" fill="#757575"/>
<path d="M164.121 118.923C151.804 159.696 85.5882 176.93 87.7378 160.347C89.6856 145.355 123.052 145.906 133.773 110.395C136.189 102.405 146.085 97.0952 154.027 99.5182C161.968 101.941 166.533 110.929 164.117 118.918" fill="#B0BEC5"/>
<path d="M100.905 154.672C99.9248 153.28 98.6497 152.123 97.1715 151.286C95.3295 149.313 92.9821 147.89 90.3875 147.171C86.0196 145.837 81.943 146.538 81.2809 148.744C80.8175 150.267 82.1419 152.1 84.4387 153.534C78.9344 156.198 71.8113 159.914 76.0996 167.993C80.1762 175.666 91.1919 172.219 96.4566 169.393C98.6384 168.347 100.701 167.065 102.608 165.571C102.516 161.234 105.035 160.271 100.904 154.676" fill="#B0BEC5"/>
<path d="M102.835 167.356C102.809 167.356 102.789 167.356 102.763 167.356C102.417 167.337 102.093 167.18 101.862 166.921C101.631 166.661 101.511 166.32 101.53 165.972C101.972 157.631 99.713 154.08 95.6583 150.772C95.398 150.549 95.2346 150.233 95.2031 149.891C95.1716 149.549 95.2744 149.208 95.4896 148.941C95.7047 148.674 96.0152 148.502 96.3546 148.462C96.694 148.423 97.0354 148.518 97.3058 148.728C101.898 152.477 104.642 156.696 104.142 166.113C104.122 166.449 103.976 166.764 103.733 166.995C103.49 167.226 103.169 167.355 102.835 167.356Z" fill="#E64A19"/>
<g opacity="0.2">
<path d="M160.115 103.247C161.259 105.121 161.997 107.216 162.282 109.396C162.566 111.576 162.39 113.792 161.765 115.899C153.946 141.914 124.152 158.299 104.17 162.484C103.307 162.688 102.434 162.847 101.554 162.959C100.772 163.115 100.014 163.221 99.2785 163.3C97.6164 164.425 95.886 165.444 94.0973 166.352C89.6061 168.773 80.8942 171.639 75.9208 167.589C75.973 167.725 76.0351 167.857 76.1067 167.984C80.1833 175.668 91.1969 172.221 96.4557 169.379C98.2222 168.471 99.9349 167.461 101.585 166.353C101.647 166.625 101.795 166.869 102.006 167.05C102.218 167.23 102.482 167.336 102.758 167.353H102.838C103.17 167.347 103.488 167.217 103.73 166.988C103.971 166.76 104.12 166.449 104.147 166.116V165.958C124.078 162.643 155.932 145.991 164.118 118.926C164.91 116.192 164.957 113.293 164.252 110.535C163.548 107.776 162.119 105.259 160.115 103.247Z" fill="#212121"/>
</g>
<path d="M125.854 92.8284C115.39 100.718 107.543 121.765 107.543 158.592C107.543 177.743 118.009 242.768 125.854 242.768C133.698 242.768 172.929 179.635 172.932 161.222C172.932 148.067 179.625 135.862 175.548 111.242C172.932 95.4604 167.703 92.8244 165.084 87.5664C159.858 90.1964 131.531 94.2504 125.854 92.8284Z" fill="#B0BEC5"/>
<path d="M117.434 224.478C120.199 235.201 123.178 242.77 125.855 242.77C128.402 242.77 134.26 236.099 141.001 226.491C137.461 224.118 127.002 222.131 117.436 224.478" fill="#263238"/>
<path d="M141.005 227.838C140.727 227.838 140.456 227.747 140.233 227.578C137.17 225.296 127.606 223.293 118.325 225.623C118.158 225.668 117.984 225.679 117.812 225.655C117.641 225.631 117.476 225.573 117.328 225.485C117.179 225.397 117.049 225.28 116.945 225.14C116.842 225.001 116.767 224.843 116.725 224.674C116.683 224.506 116.675 224.33 116.701 224.158C116.726 223.987 116.786 223.822 116.876 223.673C116.966 223.525 117.084 223.396 117.224 223.293C117.364 223.191 117.522 223.118 117.691 223.078C128.341 220.399 138.372 222.915 141.788 225.462C142.009 225.628 142.172 225.859 142.255 226.123C142.338 226.387 142.336 226.671 142.249 226.934C142.162 227.197 141.996 227.425 141.772 227.588C141.549 227.75 141.281 227.837 141.005 227.837" fill="#D84315"/>
<g opacity="0.2">
<path d="M175.551 111.241C172.935 95.4614 167.704 92.8274 165.087 87.5674C163.082 88.3959 160.998 89.0138 158.867 89.4114C161.408 92.9344 164.365 97.5854 166.138 108.245C170.215 132.863 163.526 145.072 163.526 158.225C163.526 170.425 146.316 202.231 132.399 222.302C131.823 223.144 131.25 223.988 130.674 224.777C127.812 228.919 124.647 232.84 121.204 236.507C122.8 240.427 124.371 242.768 125.862 242.768C128.32 242.768 133.81 236.611 140.246 227.591C140.47 227.744 140.735 227.826 141.005 227.827C141.283 227.834 141.555 227.75 141.782 227.589C142.009 227.428 142.179 227.198 142.266 226.933C142.354 226.668 142.355 226.382 142.269 226.117C142.182 225.851 142.014 225.62 141.788 225.458C141.764 225.458 141.764 225.434 141.738 225.434C155.679 205.334 172.939 173.426 172.939 161.221C172.939 148.066 179.638 135.865 175.555 111.241" fill="#212121"/>
</g>
<path d="M125.854 92.8284C115.39 100.718 107.543 121.765 107.543 158.592C107.543 177.743 149.394 242.768 157.237 242.768C165.08 242.768 172.929 179.635 172.931 161.222C172.931 148.067 179.624 135.862 175.547 111.242C172.931 95.4604 167.702 92.8244 165.083 87.5664C159.858 90.1964 131.531 94.2504 125.854 92.8284Z" fill="#CFD8DC"/>
<path d="M141.823 226.522C148.783 236.147 154.739 242.768 157.234 242.768C159.971 242.768 162.703 235.106 165.098 224.35C155.366 222.027 145.103 224.101 141.818 226.522" fill="#263238"/>
<path d="M141.911 227.971C141.64 227.971 141.376 227.887 141.155 227.73C140.934 227.572 140.766 227.35 140.676 227.093C140.587 226.836 140.578 226.557 140.653 226.295C140.727 226.033 140.881 225.801 141.092 225.63C144.528 222.864 154.893 220.43 165.407 223.079C165.576 223.119 165.735 223.192 165.875 223.294C166.015 223.396 166.134 223.525 166.224 223.674C166.314 223.823 166.374 223.988 166.4 224.16C166.426 224.332 166.418 224.508 166.376 224.677C166.334 224.845 166.259 225.004 166.155 225.144C166.051 225.283 165.921 225.4 165.772 225.489C165.623 225.577 165.458 225.635 165.286 225.658C165.115 225.682 164.94 225.671 164.773 225.626C154.868 223.14 145.304 225.606 142.729 227.683C142.498 227.872 142.209 227.974 141.911 227.972" fill="#E64A19"/>
<g opacity="0.2">
<path d="M175.551 111.241C172.938 95.4614 167.704 92.8284 165.083 87.5674C159.852 90.1984 131.527 94.2464 125.853 92.8284C124.607 93.7905 123.45 94.8643 122.397 96.0364C133.022 95.2234 148.379 92.6514 152.086 90.7754C154.705 96.0364 159.933 98.6654 162.552 114.447C166.628 139.071 159.933 151.276 159.933 164.431C159.933 175.371 157.168 202.15 153.271 222.036C153.088 222.958 152.902 223.852 152.721 224.743C151.804 229.243 150.81 233.323 149.768 236.659C153.112 240.477 155.778 242.766 157.244 242.766C159.86 242.766 162.503 235.692 164.83 225.615C164.992 225.654 165.16 225.659 165.323 225.632C165.487 225.605 165.644 225.546 165.785 225.458C165.926 225.37 166.048 225.255 166.145 225.119C166.242 224.983 166.311 224.83 166.349 224.667C166.392 224.5 166.401 224.326 166.377 224.155C166.353 223.984 166.296 223.82 166.208 223.671C166.121 223.523 166.005 223.393 165.868 223.289C165.731 223.186 165.574 223.11 165.408 223.067H165.381C169.749 202.944 172.938 172.983 172.938 161.223C172.938 148.068 179.637 135.867 175.554 111.243" fill="#212121"/>
</g>
<path d="M186.01 50.7383C186.01 84.9383 163.491 95.4623 138.931 95.4593C112.782 95.4593 97.084 84.9353 97.084 50.7383C97.085 26.0403 112.779 0.758301 138.932 0.758301C178.161 0.758301 186.011 26.0403 186.011 50.7383" fill="#CFD8DC"/>
<g opacity="0.2">
<path d="M158.388 3.4375C170.781 12.9655 173.974 28.8925 173.972 44.6025C173.972 78.8025 151.449 89.3215 126.894 89.3195C121.124 89.4182 115.368 88.7241 109.785 87.2565C116.896 93.1355 126.764 95.4635 138.932 95.4635C163.491 95.4635 186.008 84.9375 186.011 50.7425C186.011 30.8425 180.899 10.5655 158.389 3.4425" fill="#212121"/>
</g>
<path d="M149.396 52.9245V54.6865C149.396 72.2045 149.396 88.7525 113.772 90.0925C103.045 83.9125 97.083 71.8395 97.083 50.7405C97.083 38.4015 100.983 25.9885 108.146 16.5665C108.802 16.5425 109.482 16.5425 110.163 16.5425C125.779 16.5425 136.312 19.4885 142.362 25.5695C149.445 32.7215 149.421 43.0045 149.395 52.9255" fill="#263238"/>
<path d="M146.778 54.6862C146.778 72.6532 146.878 87.2792 110.162 87.5672C102.317 87.5672 94.4681 69.2602 94.4681 50.7422C94.4681 39.5422 99.6991 21.8052 106.264 19.2282C107.522 19.2002 108.829 19.1782 110.162 19.1782C148.086 19.1762 146.778 36.5352 146.778 54.6862Z" fill="#000014"/>
<path d="M119.082 19.5403C108.367 34.4515 102.516 52.3387 102.336 70.7353C99.636 62.0738 98.9966 52.8956 100.469 43.9402C101.942 34.9847 105.485 26.5023 110.814 19.1763C113.825 19.2003 116.569 19.3043 119.082 19.5403Z" fill="#EEEEEE"/>
<path d="M154.626 34.1514C154.626 32.4444 156.347 31.8234 158.444 32.7674L164.583 35.5294C166.682 36.4774 168.403 38.6494 168.403 40.3544V58.9604C168.403 60.6604 166.682 62.8374 164.583 63.7804L158.444 66.5464C156.347 67.4924 154.626 66.8694 154.626 65.1624V34.1514Z" fill="#90A4AE"/>
<path d="M107.544 162.54C107.203 162.531 106.88 162.388 106.642 162.143C106.404 161.897 106.271 161.568 106.271 161.225C106.271 160.882 106.404 160.553 106.642 160.307C106.88 160.062 107.203 159.919 107.544 159.909C136.378 159.909 168.94 159.13 172.35 157.416C172.661 157.26 173.021 157.234 173.35 157.345C173.679 157.455 173.952 157.693 174.107 158.005C174.262 158.318 174.288 158.679 174.178 159.011C174.068 159.342 173.832 159.616 173.522 159.772C168.28 162.406 117.643 162.54 107.545 162.54" fill="#E64A19"/>
<path d="M197.785 91.3835C197.896 92.1164 197.714 92.8637 197.278 93.4615C196.842 94.0593 196.188 94.4589 195.459 94.5725L192.86 94.8285C192.124 94.8523 191.409 94.5832 190.869 94.0795C190.329 93.5759 190.008 92.8784 189.977 92.1385L187.994 71.5385C187.886 70.8068 188.069 70.0618 188.504 69.4651C188.939 68.8684 189.59 68.4682 190.316 68.3515L192.917 68.1025C193.653 68.0754 194.37 68.3429 194.91 68.8463C195.451 69.3498 195.771 70.0482 195.8 70.7885L197.785 91.3835Z" fill="#BDBDBD"/>
<g opacity="0.2">
<path d="M195.801 70.7855C195.772 70.0452 195.452 69.3469 194.911 68.8434C194.371 68.34 193.654 68.0725 192.918 68.0995L192.676 68.1165C193.092 68.5956 193.351 69.1915 193.418 69.8235L195.398 90.4235C195.509 91.1555 195.327 91.9019 194.892 92.4994C194.457 93.0969 193.804 93.4967 193.077 93.6115L190.716 93.8435C190.965 94.1728 191.292 94.435 191.666 94.6068C192.041 94.7786 192.452 94.8548 192.862 94.8285L195.461 94.5725C196.189 94.4582 196.842 94.0584 197.278 93.4607C197.713 92.8629 197.895 92.116 197.784 91.3835L195.801 70.7855Z" fill="#212121"/>
</g>
<path d="M215.951 116.34C216.062 117.074 215.881 117.822 215.445 118.422C215.01 119.021 214.357 119.423 213.628 119.54L205.824 120.295C205.088 120.322 204.371 120.055 203.831 119.552C203.291 119.049 202.97 118.351 202.94 117.611L201.526 102.901C201.469 102.538 201.484 102.167 201.57 101.809C201.656 101.452 201.811 101.115 202.027 100.818C202.242 100.52 202.514 100.269 202.826 100.077C203.138 99.8857 203.485 99.7578 203.846 99.7011L211.656 98.9401C212.393 98.9152 213.109 99.1839 213.649 99.6878C214.189 100.192 214.509 100.89 214.54 101.63L215.951 116.34Z" fill="#BDBDBD"/>
<path d="M224.268 148.197C224.38 148.931 224.199 149.679 223.764 150.279C223.329 150.879 222.676 151.281 221.947 151.397L206.328 152.909C205.592 152.935 204.876 152.666 204.335 152.163C203.795 151.659 203.475 150.961 203.444 150.221L200.61 120.8C200.497 120.067 200.679 119.319 201.114 118.72C201.55 118.122 202.204 117.721 202.932 117.607L218.551 116.086C219.287 116.061 220.004 116.33 220.544 116.834C221.084 117.339 221.404 118.037 221.434 118.778L224.268 148.197Z" fill="#BDBDBD"/>
<g opacity="0.2">
<path d="M221.438 118.775C221.41 118.034 221.091 117.334 220.55 116.829C220.009 116.324 219.292 116.056 218.555 116.083L215.954 116.339L214.539 101.629C214.508 100.889 214.188 100.19 213.648 99.6865C213.108 99.1826 212.392 98.9139 211.655 98.9391L208.649 99.2301C209.24 99.3741 209.77 99.7038 210.162 100.171C210.554 100.639 210.788 101.22 210.829 101.83L212.242 116.538L214.845 116.286C215.582 116.26 216.299 116.528 216.841 117.032C217.382 117.536 217.704 118.234 217.736 118.975L220.562 148.396C220.675 149.13 220.493 149.878 220.059 150.478C219.624 151.078 218.97 151.48 218.241 151.596L205.621 152.817C205.85 152.887 206.09 152.917 206.329 152.906L221.947 151.39C222.675 151.275 223.329 150.875 223.764 150.276C224.199 149.678 224.38 148.93 224.268 148.197L221.438 118.775Z" fill="#212121"/>
</g>
<path d="M212.653 153.33C213.121 158.202 210.004 162.498 205.693 162.916L185.443 164.886C181.131 165.307 173.858 162.029 173.39 157.154C174.222 144.189 174.118 131.181 173.08 118.231C171.788 104.562 169.54 93.0492 169.54 93.0492C169.072 88.1722 173.213 82.9272 177.528 82.5062L197.773 80.5342C202.089 80.1172 205.965 83.7272 206.431 88.6042L212.653 153.33Z" fill="#BDBDBD"/>
<path d="M199.923 125.366C200.072 126.92 199.76 128.483 199.027 129.859C198.293 131.234 197.17 132.359 195.8 133.093C194.43 133.826 192.875 134.134 191.33 133.979C189.786 133.823 188.323 133.21 187.125 132.218C185.927 131.225 185.049 129.898 184.601 128.404C184.153 126.909 184.156 125.315 184.61 123.822C185.063 122.329 185.946 121.005 187.148 120.017C188.349 119.03 189.815 118.422 191.36 118.272C193.43 118.074 195.494 118.709 197.099 120.039C198.705 121.369 199.72 123.285 199.923 125.366Z" fill="#1A237E"/>
<path d="M181.826 130.413L199.168 117.513L189.904 137.102L189.196 129.694L181.826 130.413Z" fill="#D84315"/>
<path d="M198.793 101.881L180.571 103.648L181.325 111.507L199.547 109.739L198.793 101.881Z" fill="#212121"/>
<path d="M189.929 146.35C190.004 147.126 189.848 147.908 189.481 148.596C189.114 149.284 188.552 149.846 187.867 150.213C187.182 150.579 186.404 150.733 185.632 150.655C184.859 150.577 184.128 150.27 183.529 149.773C182.93 149.276 182.492 148.612 182.268 147.865C182.045 147.117 182.047 146.32 182.275 145.574C182.502 144.827 182.945 144.166 183.546 143.672C184.148 143.179 184.881 142.876 185.654 142.803C186.166 142.753 186.683 142.805 187.176 142.956C187.668 143.107 188.126 143.355 188.523 143.684C188.92 144.014 189.249 144.419 189.49 144.876C189.731 145.333 189.88 145.834 189.929 146.35Z" fill="#212121"/>
<path d="M205.549 144.83C205.625 145.607 205.47 146.389 205.104 147.078C204.737 147.766 204.176 148.329 203.491 148.697C202.806 149.064 202.028 149.219 201.256 149.142C200.483 149.064 199.751 148.758 199.152 148.262C198.552 147.766 198.113 147.102 197.888 146.355C197.664 145.608 197.665 144.81 197.892 144.063C198.119 143.317 198.56 142.654 199.161 142.16C199.762 141.666 200.495 141.362 201.268 141.287C201.78 141.237 202.298 141.289 202.79 141.439C203.283 141.59 203.741 141.837 204.139 142.166C204.536 142.495 204.866 142.9 205.108 143.357C205.35 143.814 205.5 144.315 205.549 144.83Z" fill="#212121"/>
<g opacity="0.2">
<path d="M212.652 153.329L206.429 88.6045C206.315 86.6929 205.576 84.8727 204.328 83.4263C203.08 81.9799 201.393 80.988 199.527 80.6045C200.961 82.1375 201.844 84.1087 202.036 86.2045L208.259 150.927C208.727 155.804 205.61 160.095 201.299 160.516L181.053 162.484C179.39 162.581 177.724 162.334 176.159 161.759C178.784 163.883 182.076 164.993 185.443 164.889L205.692 162.915C210.005 162.496 213.121 158.201 212.652 153.329Z" fill="#212121"/>
</g>
<path d="M119.458 150.292C119.532 151.069 119.375 151.851 119.007 152.538C118.64 153.225 118.078 153.787 117.392 154.153C116.707 154.518 115.929 154.672 115.157 154.593C114.386 154.515 113.654 154.208 113.056 153.711C112.457 153.214 112.019 152.55 111.795 151.803C111.572 151.056 111.574 150.259 111.801 149.513C112.028 148.766 112.47 148.105 113.071 147.611C113.672 147.117 114.405 146.814 115.177 146.739C116.212 146.64 117.245 146.958 118.047 147.624C118.85 148.289 119.357 149.247 119.458 150.288" fill="#212121"/>
<path d="M150.59 158.198C138.522 158.057 126.521 156.381 114.871 153.211C114.534 153.126 114.217 152.975 113.938 152.765C113.66 152.556 113.426 152.293 113.251 151.991C113.075 151.69 112.96 151.356 112.914 151.009C112.868 150.663 112.891 150.311 112.982 149.973C113.073 149.636 113.23 149.32 113.444 149.044C113.657 148.769 113.924 148.539 114.227 148.368C114.53 148.197 114.864 148.088 115.209 148.049C115.555 148.009 115.904 148.039 116.238 148.137C123.647 150.157 161.776 159.491 184.599 144.525C184.886 144.329 185.21 144.192 185.551 144.123C185.892 144.054 186.243 144.054 186.584 144.123C186.925 144.192 187.248 144.329 187.536 144.525C187.824 144.721 188.07 144.973 188.26 145.266C188.449 145.559 188.579 145.887 188.641 146.231C188.704 146.575 188.697 146.928 188.622 147.27C188.547 147.611 188.405 147.934 188.205 148.22C188.004 148.505 187.749 148.748 187.454 148.933C176.671 156.003 163.18 158.198 150.589 158.198" fill="#78909C"/>
<g opacity="0.2">
<path d="M188.219 145.292C187.963 144.92 187.614 144.621 187.208 144.426C187.27 144.911 187.195 145.404 186.993 145.848C186.791 146.293 186.469 146.672 186.064 146.942C175.279 154.008 161.787 156.2 149.199 156.2C137.131 156.06 125.129 154.387 113.478 151.22C113.299 151.155 113.128 151.069 112.968 150.964C113.023 151.488 113.235 151.983 113.575 152.383C113.915 152.784 114.367 153.072 114.873 153.209C126.522 156.38 138.523 158.057 150.59 158.2C163.183 158.2 176.672 156 187.455 148.935C188.035 148.553 188.442 147.956 188.585 147.274C188.728 146.592 188.596 145.88 188.219 145.295" fill="#212121"/>
</g>
<path d="M137.187 96.1543C132.83 96.2021 128.474 95.9324 124.155 95.3473C123.986 95.3172 123.824 95.2539 123.679 95.1608C123.534 95.0677 123.409 94.9468 123.311 94.8049C123.212 94.6631 123.143 94.5031 123.106 94.3341C123.069 94.1651 123.066 93.9905 123.097 93.8203C123.125 93.6498 123.188 93.4869 123.28 93.341C123.372 93.1951 123.492 93.0691 123.634 92.9705C123.775 92.8719 123.934 92.8026 124.102 92.7667C124.27 92.7307 124.444 92.7289 124.613 92.7613C128.368 93.4313 151.872 95.4733 165.619 88.3333C165.772 88.254 165.938 88.2057 166.11 88.1912C166.281 88.1767 166.453 88.1962 166.617 88.2487C166.781 88.3012 166.933 88.3857 167.064 88.4972C167.195 88.6087 167.303 88.7452 167.382 88.8988C167.461 89.0524 167.509 89.2201 167.524 89.3923C167.538 89.5646 167.519 89.738 167.466 89.9027C167.414 90.0673 167.33 90.2201 167.219 90.3521C167.108 90.4842 166.973 90.593 166.82 90.6723C158.337 95.0803 146.372 96.1543 137.19 96.1543" fill="#263238"/>
<path d="M124.623 104.325L124.077 112.189L113.876 111.503C114.784 108.868 115.876 106.301 117.145 103.821L124.623 104.325Z" fill="#1A237E"/>
<g opacity="0.2">
<path d="M128.836 181.319C128.836 181.373 128.862 181.397 128.886 181.451C129.006 181.779 128.995 182.141 128.854 182.46C128.713 182.78 128.454 183.032 128.131 183.163C127.944 183.214 127.75 183.24 127.556 183.241C127.379 183.221 127.209 183.163 127.055 183.073C126.902 182.982 126.77 182.859 126.667 182.714C125.621 184.417 124.468 186.051 123.214 187.606C120.86 190.684 116.413 194.973 111.704 196.184C110.136 186.739 108.904 177.428 108.199 169.904C108.328 169.878 108.46 169.878 108.592 169.852C110.387 169.63 112.205 169.693 113.98 170.039C113.905 169.816 113.896 169.576 113.954 169.349C113.996 169.181 114.071 169.023 114.175 168.884C114.278 168.746 114.407 168.629 114.556 168.541C114.704 168.454 114.869 168.396 115.039 168.373C115.21 168.349 115.383 168.36 115.55 168.405C115.679 168.455 115.782 168.481 115.917 168.535C123.315 157.489 136.369 143.366 133.176 118.423C132.107 110.136 138.957 101.196 147.196 100.144C155.438 99.0656 163.256 105.376 164.327 113.666C167.912 141.707 145.629 170.089 128.836 181.322" fill="#212121"/>
</g>
<path d="M134.329 181.66C133.65 182.185 132.994 182.712 132.34 183.16C132.311 183.188 132.275 183.207 132.235 183.214C125.119 188.338 119.129 189.496 117.246 184.739C115.73 180.871 116.855 176.847 119.103 172.322H119.129C119.237 172.114 119.312 171.927 119.419 171.717C119.732 171.14 120.044 170.587 120.361 169.979C123.681 163.979 128.441 157.039 131.552 148.333C131.688 147.966 131.843 147.569 131.972 147.175C132.132 146.648 132.315 146.121 132.47 145.596C132.601 145.147 132.733 144.728 132.838 144.281C132.97 143.834 133.071 143.381 133.175 142.938C133.3 142.514 133.399 142.084 133.473 141.649C135.136 134.047 135.108 126.169 133.391 118.58C131.639 110.425 137.733 100.93 145.842 99.1895C153.976 97.4305 162.293 103.06 164.044 111.213C169.956 138.859 150.155 169.007 134.334 181.659" fill="#CFD8DC"/>
<path d="M126.025 173.34C124.495 172.603 122.822 172.215 121.126 172.205C118.561 171.383 115.821 171.286 113.205 171.923C108.745 172.893 105.52 175.492 106.003 177.743C106.337 179.301 108.382 180.259 111.081 180.392C107.556 185.408 103.126 192.13 110.774 197.092C118.033 201.813 126.001 193.419 129.244 188.376C130.644 186.396 131.829 184.271 132.78 182.037C130.599 178.286 132.337 176.212 126.025 173.337" fill="#CFD8DC"/>
<path d="M133.2 183.649C132.955 183.65 132.715 183.581 132.506 183.45C132.298 183.32 132.131 183.133 132.023 182.911C128.386 175.396 124.696 173.401 119.55 172.481C119.381 172.451 119.22 172.388 119.075 172.295C118.931 172.202 118.806 172.082 118.708 171.94C118.61 171.799 118.54 171.639 118.504 171.471C118.467 171.302 118.464 171.128 118.495 170.958C118.524 170.787 118.586 170.624 118.678 170.478C118.77 170.332 118.89 170.205 119.032 170.107C119.173 170.008 119.333 169.938 119.501 169.902C119.669 169.866 119.843 169.865 120.012 169.897C125.836 170.93 130.273 173.277 134.38 181.753C134.531 182.068 134.553 182.43 134.44 182.76C134.326 183.091 134.088 183.363 133.776 183.517C133.597 183.603 133.402 183.648 133.204 183.649" fill="#E64A19"/>
<g opacity="0.2">
<path d="M143.85 149.702C143.483 149.568 140.502 148.437 137.547 147.279C135.638 146.65 133.727 145.99 132.477 145.596C132.608 145.147 132.74 144.728 132.843 144.281C134.021 144.806 135.926 145.704 137.841 146.598C140.662 148.043 143.516 149.542 143.854 149.698" fill="#212121"/>
<path d="M141.759 143.704L133.177 142.943C133.3 142.52 133.398 142.088 133.468 141.652L141.759 143.704Z" fill="#212121"/>
<path d="M137.626 152.145C136.393 151.262 135.108 150.454 133.778 149.726C132.996 149.281 132.208 148.78 131.557 148.333C131.691 147.966 131.846 147.572 131.975 147.175C132.577 147.726 133.337 148.438 134.197 149.097C135.411 150.03 136.557 151.048 137.626 152.145Z" fill="#212121"/>
</g>
<g opacity="0.2">
<path d="M164.042 111.215C163.37 108.245 161.864 105.531 159.703 103.396C157.542 101.26 154.818 99.7936 151.853 99.1694C154.977 101.412 157.166 104.737 158 108.505C163.545 134.472 146.412 162.641 131.219 176.428C130.537 177.061 129.883 177.636 129.202 178.19C128.208 179.032 127.24 179.79 126.275 180.479C125.369 182.273 124.347 184.004 123.215 185.662C120.63 189.738 114.975 195.921 109.096 195.762C109.619 196.252 110.178 196.7 110.769 197.103C118.039 201.813 126.022 193.422 129.263 188.367C130.378 186.728 131.384 185.016 132.272 183.241C132.392 183.373 132.537 183.478 132.699 183.551C132.862 183.623 133.037 183.661 133.214 183.662C133.412 183.657 133.606 183.611 133.786 183.528C134.096 183.373 134.334 183.101 134.447 182.772C134.56 182.442 134.539 182.081 134.39 181.766C134.364 181.716 134.34 181.692 134.314 181.636C150.135 169.01 169.96 138.863 164.05 111.216" fill="#212121"/>
</g>
<path d="M140.927 120.456L139.713 130.303L157.866 132.567L159.08 122.719L140.927 120.456Z" fill="#D84315"/>
<path d="M68.1843 194.105C68.1843 210.811 47.2596 242.77 39.4147 242.77C31.5698 242.77 26.3369 210.811 26.3369 194.105C26.3369 177.399 35.7259 163.855 47.2596 163.855C51.9685 163.855 56.3076 166.118 59.8154 169.905C63.6076 174.005 66.4045 179.953 67.5847 186.815C67.9836 189.224 68.1832 191.662 68.1813 194.104" fill="#558B2F"/>
<path d="M68.1843 194.105C68.1843 210.811 62.9534 242.77 55.1085 242.77C47.2636 242.77 26.3369 210.811 26.3369 194.105C26.3369 177.399 35.7259 163.855 47.2596 163.855C51.7846 163.855 55.9417 165.933 59.371 169.455C63.2666 173.427 66.1699 179.321 67.4535 186.133C67.9382 188.762 68.1829 191.43 68.1843 194.103" fill="#7CB342"/>
<path d="M67.4505 186.135C66.1688 179.321 63.2655 173.429 59.3679 169.457C57.5636 167.558 55.3915 166.051 52.9856 165.029C53.4599 165.441 53.9242 165.873 54.3776 166.337C58.2752 170.309 61.1785 176.203 62.4602 183.017C62.9471 185.646 63.1927 188.315 63.1939 190.989C63.1939 207.689 57.963 239.65 50.1161 239.65C49.8708 239.647 49.6266 239.618 49.3873 239.563C51.6135 241.585 53.6041 242.769 55.1094 242.769C62.9543 242.769 68.1852 210.81 68.1852 194.104C68.1839 191.431 67.9393 188.763 67.4544 186.134" fill="#558B2F"/>
<path d="M67.5828 186.813C62.2136 190.839 56.3603 193.681 50.5805 194.185C49.2044 194.315 47.8164 194.169 46.4966 193.756C45.1769 193.343 43.9516 192.671 42.8916 191.779C41.8316 190.887 40.9579 189.792 40.3209 188.558C39.6839 187.325 39.2962 185.976 39.1804 184.591C39.0645 183.206 39.2227 181.811 39.6458 180.488C40.069 179.165 40.7486 177.939 41.6455 176.881C42.5425 175.823 43.6389 174.955 44.8715 174.326C46.104 173.697 47.4483 173.32 48.8266 173.216C52.6606 172.802 56.3855 171.679 59.8134 169.903C63.6076 174.01 66.4026 179.951 67.5828 186.813Z" fill="#558B2F"/>
<path d="M83.9207 162.444C83.4116 167.499 81.8327 171.484 80.392 171.338C78.9513 171.192 78.2046 166.969 78.7136 161.91C79.2227 156.851 80.8016 152.868 82.2384 153.01C83.6751 153.152 84.4258 157.381 83.9207 162.44" fill="#7CB342"/>
<path d="M82.2335 153.013C82.2265 153.013 82.2206 153.02 82.2116 153.013C82.8972 155.608 83.0592 158.314 82.6879 160.972C82.1828 166.003 80.6198 169.96 79.187 169.858C79.4952 170.726 79.8989 171.279 80.3881 171.331C81.8268 171.479 83.4058 167.493 83.9148 162.439C84.4239 157.385 83.6712 153.158 82.2325 153.009" fill="#558B2F"/>
<path d="M47.882 174.372C66.1768 174.992 85.3545 153.715 91.7348 155.965C99.5409 158.716 70.7028 196.2 47.1761 195.404C45.8009 195.361 44.4478 195.045 43.1942 194.474C41.9405 193.904 40.8111 193.091 39.8704 192.081C38.9297 191.071 38.1964 189.885 37.7122 188.59C37.2281 187.294 37.0028 185.916 37.0492 184.533C37.0955 183.15 37.4126 181.79 37.9824 180.53C38.5521 179.271 39.3633 178.136 40.3694 177.193C41.3756 176.249 42.5569 175.514 43.8459 175.03C45.1348 174.546 46.506 174.322 47.881 174.372" fill="#7CB342"/>
<path d="M49.3167 189.673C46.5435 189.578 43.9214 188.379 42.0268 186.34C40.1323 184.302 39.1204 181.589 39.2138 178.8C39.2138 178.694 39.2506 178.594 39.2595 178.49C38.0796 180.019 37.3432 181.846 37.1319 183.77C36.9206 185.694 37.2426 187.639 38.0623 189.39C38.8819 191.141 40.1673 192.63 41.7761 193.692C43.3849 194.754 45.2545 195.348 47.178 195.407C67.6801 196.099 92.2071 167.728 93.0065 158.599C86.5158 170.409 66.5078 190.254 49.3177 189.673" fill="#558B2F"/>
<path d="M54.3855 109.966C66.646 122.294 77.7412 149.722 65.4807 162.048C53.2202 174.374 22.2552 166.938 9.9997 154.609C7.08515 151.678 4.77319 148.198 3.1958 144.369C1.61841 140.539 0.806489 136.434 0.806396 132.289C0.80621 123.917 4.11278 115.887 9.9987 109.967C15.8846 104.047 23.8677 100.721 32.1919 100.721C40.516 100.721 48.4993 104.047 54.3855 109.966Z" fill="#7CB342"/>
<path d="M13.9749 150.089C8.69577 144.774 5.47633 137.737 4.89597 130.247C4.31561 122.756 6.41245 115.304 10.8091 109.229C10.5437 109.481 10.2593 109.7 9.9998 109.964C7.08521 112.896 4.77323 116.376 3.19587 120.206C1.6185 124.036 0.806641 128.14 0.806641 132.286C0.806641 136.431 1.6185 140.536 3.19587 144.366C4.77323 148.196 7.08521 151.676 9.9998 154.607C22.2533 166.935 53.2253 174.376 65.4808 162.046C66.4291 161.071 67.2521 159.98 67.9307 158.798C54.8191 169.229 25.7632 161.947 13.9749 150.089Z" fill="#558B2F"/>
<path d="M57.9102 126.848C65.0561 134.039 62.5326 148.24 62.5326 148.24C62.5326 148.24 48.4128 150.785 41.2669 143.593C34.121 136.401 36.6465 122.199 36.6465 122.199C36.6465 122.199 50.7653 119.665 57.9142 126.848" fill="#212121"/>
<path d="M58.1628 132.45C60.3284 134.626 59.3301 139.166 59.3301 139.166C59.3301 139.166 54.8171 140.173 52.6515 137.988C50.486 135.803 51.4842 131.274 51.4842 131.274C51.4842 131.274 55.9963 130.267 58.1618 132.445" fill="#311B92"/>
<path d="M17.6288 120.421C19.3997 122.313 19.7278 124.892 18.3646 126.187C17.0015 127.482 14.4561 126.996 12.6813 125.107C10.9065 123.218 10.5784 120.634 11.9455 119.341C13.3127 118.048 15.856 118.527 17.6288 120.421Z" fill="#33691E"/>
<path d="M52.1613 180.52C53.3803 181.82 53.6388 183.568 52.7439 184.42C51.8491 185.272 50.125 184.902 48.902 183.602C47.6791 182.302 47.4265 180.554 48.3244 179.702C49.2222 178.85 50.9383 179.212 52.1613 180.516" fill="#33691E"/>
<path d="M23.5797 116.688C24.7987 117.994 25.0552 119.736 24.1574 120.588C23.2596 121.44 21.5434 121.074 20.3205 119.777C19.0975 118.48 18.843 116.725 19.7378 115.877C20.6327 115.029 22.3568 115.387 23.5797 116.686" fill="#33691E"/>
<path d="M16.3971 114.235C17.3198 115.226 17.5127 116.548 16.8246 117.196C16.1366 117.844 14.8361 117.578 13.9153 116.591C12.9946 115.604 12.8037 114.285 13.4858 113.632C14.1679 112.979 15.4744 113.257 16.3951 114.232" fill="#33691E"/>
<path d="M46.4174 178.75C47.34 179.739 47.5329 181.06 46.8489 181.709C46.1648 182.358 44.8603 182.089 43.9346 181.104C43.009 180.119 42.824 178.796 43.5071 178.145C44.1902 177.494 45.4957 177.77 46.4164 178.75" fill="#33691E"/>
<path d="M47.009 129.074C51.4173 130.147 55.4669 132.369 58.7505 135.515C58.2782 131.762 54.836 128.226 49.967 126.998C48.374 126.553 46.7083 126.434 45.0686 126.648C43.429 126.862 41.8488 127.405 40.4219 128.245C42.643 128.253 44.855 128.533 47.009 129.078" fill="#EEEEEE"/>
</svg>
