<svg width="1913" height="245" viewBox="0 0 1913 245" fill="none" xmlns="http://www.w3.org/2000/svg">
<g opacity="0.8">
<path d="M0 244.925H1931.81V5.80033C1901.92 -1.34332 1864.88 -1.26998 1832.69 5.98443C1780.03 17.8551 1638.61 39.7833 1570.95 16.009C1503.29 -7.76528 1414.49 20.5666 1368.4 33.6701C1322.32 46.7737 1252.93 45.1491 1200.4 29.538C1138.72 11.2021 994.884 31.3092 946.071 43.35C897.258 55.3908 782.817 47.6919 683.152 29.5372C611.05 16.4029 544.9 32.3243 492.389 43.3493C439.878 54.3743 288.8 62.6657 240.2 42.3217C196.909 24.1956 63.924 35.1054 0 55.371V244.925Z" fill="#A7A7AF"/>
<path d="M80.926 160.564C80.926 164.231 70.874 167.207 58.478 167.207C46.082 167.207 36.03 164.233 36.03 160.564C36.03 156.895 46.082 153.926 58.478 153.926C70.874 153.926 80.926 156.896 80.926 160.564Z" fill="#757575"/>
<path d="M48.4661 172.84C48.4661 174.84 40.9541 176.46 31.6851 176.46C22.4161 176.46 14.9041 174.84 14.9041 172.84C14.9041 170.84 22.4191 169.218 31.6851 169.218C40.9511 169.218 48.4661 170.838 48.4661 172.84Z" fill="#757575"/>
<path d="M1050.79 219.259C1050.79 221.259 1043.27 222.879 1034.01 222.879C1024.74 222.879 1017.23 221.259 1017.23 219.259C1017.23 217.259 1024.74 215.636 1034.01 215.636C1043.27 215.636 1050.79 217.256 1050.79 219.259Z" fill="#757575"/>
<path d="M1535.88 75.1195C1535.88 77.1196 1528.37 78.7397 1519.1 78.7397C1509.84 78.7397 1502.32 77.1196 1502.32 75.1195C1502.32 73.1194 1509.84 71.4971 1519.1 71.4971C1528.37 71.4971 1535.88 73.1172 1535.88 75.1195Z" fill="#757575"/>
<path d="M1146.89 160.665C1146.89 162.665 1139.37 164.285 1130.11 164.285C1120.84 164.285 1113.33 162.665 1113.33 160.665C1113.33 158.665 1120.84 157.042 1130.11 157.042C1139.37 157.042 1146.89 158.66 1146.89 160.665Z" fill="#757575"/>
<path d="M344.364 140.474C344.364 142.474 336.849 144.094 327.583 144.094C318.317 144.094 310.802 142.474 310.802 140.474C310.802 138.474 318.317 136.852 327.583 136.852C336.849 136.852 344.364 138.472 344.364 140.474Z" fill="#757575"/>
<path d="M144.115 214.987C144.115 216.987 136.6 218.607 127.334 218.607C118.068 218.607 110.553 216.987 110.553 214.987C110.553 212.987 118.066 211.366 127.332 211.366C136.598 211.366 144.115 212.984 144.115 214.987Z" fill="#757575"/>
<path d="M283.606 183.476C283.606 185.477 276.094 187.097 266.825 187.097C257.556 187.097 250.044 185.477 250.044 183.476C250.044 181.476 257.559 179.854 266.825 179.854C276.091 179.854 283.606 181.474 283.606 183.476Z" fill="#757575"/>
<path d="M760.527 195.037C760.527 197.038 753.012 198.658 743.746 198.658C734.48 198.658 726.965 197.038 726.965 195.037C726.965 193.037 734.48 191.415 743.746 191.415C753.012 191.415 760.527 193.035 760.527 195.037Z" fill="#757575"/>
<path d="M569.146 91.3593C569.146 93.3593 561.634 94.9795 552.365 94.9795C543.096 94.9795 535.584 93.3593 535.584 91.3593C535.584 89.3592 543.099 87.7368 552.365 87.7368C561.631 87.7368 569.146 89.357 569.146 91.3593Z" fill="#757575"/>
<path d="M634.338 93.1611C634.338 94.3251 629.051 95.2697 622.528 95.2697C616.005 95.2697 610.718 94.3251 610.718 93.1611C610.718 91.9972 616.005 91.0474 622.528 91.0474C629.051 91.0474 634.338 91.9942 634.338 93.1611Z" fill="#757575"/>
<path d="M482.437 151.866C482.437 153.03 477.15 153.975 470.627 153.975C464.104 153.975 458.817 153.03 458.817 151.866C458.817 150.702 464.104 149.752 470.627 149.752C477.15 149.752 482.437 150.699 482.437 151.866Z" fill="#757575"/>
<path d="M1428.01 122.712C1428.01 123.876 1422.73 124.821 1416.2 124.821C1409.68 124.821 1404.39 123.876 1404.39 122.712C1404.39 121.548 1409.68 120.598 1416.2 120.598C1422.73 120.598 1428.01 121.545 1428.01 122.712Z" fill="#757575"/>
<path d="M883.68 107.597C883.68 108.761 878.393 109.705 871.87 109.705C865.347 109.705 860.057 108.761 860.057 107.597C860.057 106.433 865.347 105.483 871.87 105.483C878.393 105.483 883.68 106.43 883.68 107.597Z" fill="#757575"/>
<path d="M1752.22 91.0527C1752.22 92.2167 1746.93 93.1613 1740.41 93.1613C1733.89 93.1613 1728.59 92.2167 1728.59 91.0527C1728.59 89.8888 1733.89 88.939 1740.41 88.939C1746.93 88.939 1752.22 89.8858 1752.22 91.0527Z" fill="#757575"/>
<path d="M1816.33 180.376C1816.33 181.54 1811.05 182.485 1804.52 182.485C1798 182.485 1792.71 181.54 1792.71 180.376C1792.71 179.212 1798 178.263 1804.53 178.263C1811.05 178.263 1816.34 179.21 1816.34 180.376" fill="#757575"/>
<path d="M1544.29 196.315C1544.29 197.479 1539 198.424 1532.48 198.424C1525.96 198.424 1520.66 197.48 1520.66 196.315C1520.66 195.151 1525.95 194.202 1532.48 194.202C1539 194.202 1544.29 195.149 1544.29 196.315" fill="#757575"/>
<path d="M412.931 217.101C412.931 218.265 407.644 219.209 401.121 219.209C394.598 219.209 389.308 218.265 389.308 217.101C389.308 215.937 394.598 214.987 401.121 214.987C407.644 214.987 412.931 215.934 412.931 217.101Z" fill="#757575"/>
<path d="M152.803 224.922C152.803 226.086 147.516 227.03 140.993 227.03C134.47 227.03 129.18 226.086 129.18 224.922C129.18 223.758 134.47 222.808 140.993 222.808C147.516 222.808 152.803 223.755 152.803 224.922Z" fill="#757575"/>
<path d="M162.865 106.281C162.865 107.445 157.578 108.39 151.055 108.39C144.532 108.39 139.242 107.445 139.242 106.281C139.242 105.118 144.532 104.166 151.055 104.166C157.578 104.166 162.865 105.112 162.865 106.279" fill="#757575"/>
<path d="M902.123 189.259C902.123 190.423 896.836 191.368 890.313 191.368C883.79 191.368 878.5 190.423 878.5 189.259C878.5 188.095 883.79 187.146 890.313 187.146C896.836 187.146 902.123 188.092 902.123 189.259Z" fill="#757575"/>
<path d="M1253.54 139.943C1253.54 141.107 1248.25 142.052 1241.73 142.052C1235.2 142.052 1229.91 141.107 1229.91 139.943C1229.91 138.779 1235.2 137.83 1241.73 137.83C1248.25 137.83 1253.54 138.776 1253.54 139.943" fill="#757575"/>
<path d="M1594.34 105.486C1594.34 106.65 1589.05 107.594 1582.53 107.594C1576 107.594 1570.71 106.65 1570.71 105.486C1570.71 104.322 1576 103.372 1582.53 103.372C1589.05 103.372 1594.34 104.319 1594.34 105.486Z" fill="#757575"/>
<path d="M1203.92 215.757C1203.92 216.921 1198.64 217.863 1192.11 217.863C1185.59 217.863 1180.3 216.921 1180.3 215.757C1180.3 214.593 1185.59 213.643 1192.11 213.643C1198.64 213.643 1203.92 214.59 1203.92 215.757Z" fill="#757575"/>
<path d="M1208.27 162.776C1208.27 163.94 1202.98 164.884 1196.46 164.884C1189.93 164.884 1184.64 163.94 1184.64 162.776C1184.64 161.612 1189.93 160.662 1196.46 160.662C1202.98 160.662 1208.27 161.609 1208.27 162.776Z" fill="#757575"/>
<path d="M990.525 217.098C990.525 219.098 983.013 220.718 973.744 220.718C964.475 220.718 956.963 219.098 956.963 217.098C956.963 215.097 964.478 213.475 973.744 213.475C983.01 213.475 990.525 215.095 990.525 217.098Z" fill="#757575"/>
<path d="M1008.68 208.005C1008.68 211.197 999.498 213.785 988.162 213.785C976.826 213.785 967.643 211.197 967.643 208.005C967.643 204.812 976.826 202.224 988.162 202.224C999.498 202.224 1008.68 204.81 1008.68 208.005Z" fill="#757575"/>
<path d="M1300.01 104.503C1300.01 107.696 1290.82 110.284 1279.49 110.284C1268.15 110.284 1258.97 107.696 1258.97 104.503C1258.97 101.31 1268.15 98.7222 1279.49 98.7222C1290.82 98.7222 1300.01 101.308 1300.01 104.503Z" fill="#757575"/>
<path d="M1695.77 206.57C1695.77 209.762 1686.58 212.35 1675.24 212.35C1663.91 212.35 1654.73 209.762 1654.73 206.57C1654.73 203.377 1663.91 200.789 1675.24 200.789C1686.58 200.789 1695.77 203.377 1695.77 206.57Z" fill="#757575"/>
<path d="M1465.89 113.375C1465.89 116.567 1456.71 119.156 1445.37 119.156C1434.04 119.156 1424.85 116.567 1424.85 113.375C1424.85 110.182 1434.04 107.594 1445.37 107.594C1456.71 107.594 1465.89 110.182 1465.89 113.375Z" fill="#757575"/>
<path d="M248.05 189.257C248.05 192.45 238.861 195.038 227.528 195.038C216.195 195.038 207.009 192.45 207.009 189.257C207.009 186.065 216.195 183.477 227.528 183.477C238.861 183.477 248.05 186.063 248.05 189.257Z" fill="#757575"/>
<path d="M552.365 97.4304C552.365 100.623 543.176 103.211 531.843 103.211C520.51 103.211 511.324 100.623 511.324 97.4304C511.324 94.2377 520.512 91.6479 531.843 91.6479C543.174 91.6479 552.365 94.2362 552.365 97.4289" fill="#757575"/>
<path d="M697.878 183.477C697.878 186.669 688.689 189.258 677.356 189.258C666.023 189.258 656.837 186.669 656.837 183.477C656.837 180.284 666.023 177.696 677.356 177.696C688.689 177.696 697.878 180.284 697.878 183.477Z" fill="#757575"/>
<path d="M473.891 143.972C473.891 147.164 464.699 149.753 453.366 149.753C442.033 149.753 432.847 147.164 432.847 143.972C432.847 140.779 442.036 138.191 453.366 138.191C464.696 138.191 473.891 140.779 473.891 143.972Z" fill="#757575"/>
<path d="M319.373 229.918C319.373 233.111 310.184 235.699 298.851 235.699C287.518 235.699 278.332 233.111 278.332 229.918C278.332 226.725 287.521 224.137 298.851 224.137C310.181 224.137 319.373 226.723 319.373 229.918Z" fill="#757575"/>
<path d="M119.128 88.9982C119.128 92.1909 109.939 94.7792 98.6059 94.7792C87.2729 94.7792 78.0869 92.1909 78.0869 88.9982C78.0869 85.8056 87.2729 83.2173 98.6059 83.2173C109.939 83.2173 119.128 85.8034 119.128 88.9982Z" fill="#757575"/>
<path d="M1061.27 75.9948C1061.27 79.1874 1052.08 81.7757 1040.75 81.7757C1029.42 81.7757 1020.23 79.1874 1020.23 75.9948C1020.23 72.8022 1029.42 70.2139 1040.75 70.2139C1052.08 70.2139 1061.27 72.8 1061.27 75.9948Z" fill="#757575"/>
<path d="M740.662 90.3039C740.662 93.4965 731.473 96.0848 720.14 96.0848C708.807 96.0848 699.621 93.4965 699.621 90.3039C699.621 87.1112 708.807 84.5229 720.14 84.5229C731.473 84.5229 740.662 87.109 740.662 90.3039Z" fill="#757575"/>
<path d="M1431.45 80.9001C1431.45 84.0927 1422.26 86.681 1410.93 86.681C1399.6 86.681 1390.41 84.0927 1390.41 80.9001C1390.41 77.7074 1399.59 75.1191 1410.93 75.1191C1422.26 75.1191 1431.45 77.7074 1431.45 80.9001Z" fill="#757575"/>
<path d="M1669.32 104.503C1669.32 107.696 1660.13 110.284 1648.8 110.284C1637.46 110.284 1628.27 107.696 1628.27 104.503C1628.27 101.31 1637.46 98.7222 1648.8 98.7222C1660.13 98.7222 1669.32 101.308 1669.32 104.503Z" fill="#757575"/>
<path d="M1925.67 164.884C1925.67 168.077 1916.48 170.665 1905.15 170.665C1893.81 170.665 1884.62 168.077 1884.62 164.884C1884.62 161.692 1893.81 159.104 1905.15 159.104C1916.48 159.104 1925.67 161.695 1925.67 164.884Z" fill="#757575"/>
<path d="M1802.31 145.446C1802.31 148.639 1793.12 151.227 1781.78 151.227C1770.45 151.227 1761.26 148.639 1761.26 145.446C1761.26 142.253 1770.45 139.665 1781.78 139.665C1793.12 139.665 1802.31 142.251 1802.31 145.446Z" fill="#757575"/>
<path d="M1768.57 130.935C1768.57 134.127 1759.39 136.716 1748.05 136.716C1736.72 136.716 1727.53 134.127 1727.53 130.935C1727.53 127.742 1736.72 125.154 1748.05 125.154C1759.39 125.154 1768.57 127.742 1768.57 130.935Z" fill="#757575"/>
<path d="M1397.01 195.302C1397.01 198.495 1387.82 201.083 1376.49 201.083C1365.15 201.083 1355.96 198.495 1355.96 195.302C1355.96 192.11 1365.15 189.521 1376.49 189.521C1387.82 189.521 1397.01 192.11 1397.01 195.302Z" fill="#757575"/>
<path d="M936.779 158.696C936.779 161.889 927.59 164.477 916.257 164.477C904.924 164.477 895.735 161.889 895.735 158.696C895.735 155.504 904.921 152.916 916.257 152.916C927.593 152.916 936.779 155.504 936.779 158.696Z" fill="#757575"/>
<path d="M728.43 191.415C728.43 194.608 719.241 197.196 707.908 197.196C696.575 197.196 687.386 194.608 687.386 191.415C687.386 188.223 696.572 185.634 707.908 185.634C719.244 185.634 728.43 188.223 728.43 191.415Z" fill="#757575"/>
<path d="M613.941 200.791C613.941 203.983 604.752 206.572 593.419 206.572C582.086 206.572 572.897 203.983 572.897 200.791C572.897 197.598 582.083 195.01 593.419 195.01C604.755 195.01 613.941 197.597 613.941 200.791Z" fill="#757575"/>
<path d="M350.558 229.918C350.558 233.111 341.369 235.699 330.036 235.699C318.703 235.699 309.514 233.111 309.514 229.918C309.514 226.725 318.7 224.137 330.036 224.137C341.372 224.137 350.558 226.723 350.558 229.918Z" fill="#757575"/>
<path d="M1154.97 103.212C1154.97 106.404 1145.79 108.993 1134.46 108.993C1123.13 108.993 1113.94 106.404 1113.94 103.212C1113.94 100.019 1123.12 97.4307 1134.46 97.4307C1145.79 97.4307 1154.97 100.017 1154.97 103.212Z" fill="#757575"/>
<path d="M1719.83 80.8979C1719.83 84.0905 1710.64 86.6788 1699.31 86.6788C1687.98 86.6788 1678.79 84.0905 1678.79 80.8979C1678.79 77.7052 1687.97 75.1162 1699.31 75.1162C1710.64 75.1162 1719.83 77.7023 1719.83 80.8971" fill="#757575"/>
<path d="M1376.49 203.02C1376.49 206.212 1367.3 208.801 1355.97 208.801C1344.64 208.801 1335.45 206.21 1335.45 203.02C1335.45 199.829 1344.64 197.239 1355.97 197.239C1367.3 197.239 1376.49 199.827 1376.49 203.02Z" fill="#757575"/>
<path d="M1884.63 211.767C1884.63 214.959 1875.44 217.548 1864.11 217.548C1852.78 217.548 1843.59 214.962 1843.59 211.767C1843.59 208.572 1852.78 205.986 1864.11 205.986C1875.44 205.986 1884.63 208.572 1884.63 211.767Z" fill="#757575"/>
<path d="M1905.15 56.8942C1905.15 60.0869 1895.96 62.6751 1884.63 62.6751C1873.3 62.6751 1864.11 60.0869 1864.11 56.8942C1864.11 53.7016 1873.29 51.1133 1884.63 51.1133C1895.96 51.1133 1905.15 53.7016 1905.15 56.8942Z" fill="#757575"/>
<path d="M852.05 104.503C852.05 107.696 842.861 110.284 831.531 110.284C820.201 110.284 811.012 107.696 811.012 104.503C811.012 101.31 820.198 98.7222 831.531 98.7222C842.864 98.7222 852.05 101.308 852.05 104.503Z" fill="#757575"/>
<path d="M268.84 153.516C268.84 155.594 265.421 157.28 261.2 157.28C256.979 157.28 253.556 155.594 253.556 153.516C253.556 151.439 256.975 149.752 261.2 149.752C265.425 149.752 268.84 151.439 268.84 153.516Z" fill="#757575"/>
<path d="M922.002 103.211C922.002 105.289 918.583 106.975 914.358 106.975C910.133 106.975 906.718 105.288 906.718 103.211C906.718 101.134 910.14 99.4468 914.358 99.4468C918.576 99.4468 922.002 101.134 922.002 103.211Z" fill="#757575"/>
<path d="M988.159 111.597C988.159 113.674 984.74 115.36 980.519 115.36C976.298 115.36 972.876 113.674 972.876 111.597C972.876 109.519 976.298 107.833 980.519 107.833C984.74 107.833 988.159 109.519 988.159 111.597Z" fill="#757575"/>
<path d="M751.39 108.056C751.39 110.134 747.968 111.82 743.75 111.82C739.532 111.82 736.103 110.134 736.103 108.056C736.103 105.979 739.525 104.292 743.75 104.292C747.975 104.292 751.39 105.979 751.39 108.056Z" fill="#757575"/>
<path d="M1133.4 115.15C1133.4 117.228 1129.98 118.914 1125.76 118.914C1121.54 118.914 1118.11 117.227 1118.11 115.15C1118.11 113.073 1121.54 111.386 1125.76 111.386C1129.98 111.386 1133.4 113.073 1133.4 115.15Z" fill="#757575"/>
<path d="M720.765 64.4603C720.765 66.5381 717.346 68.2243 713.125 68.2243C708.904 68.2243 705.478 66.5374 705.478 64.4603C705.478 62.3832 708.904 60.6963 713.125 60.6963C717.346 60.6963 720.765 62.3832 720.765 64.4603Z" fill="#757575"/>
<path d="M642.79 118.914C642.79 120.992 639.371 122.678 635.15 122.678C630.929 122.678 627.503 120.991 627.503 118.914C627.503 116.837 630.929 115.15 635.15 115.15C639.371 115.15 642.79 116.837 642.79 118.914Z" fill="#757575"/>
<path d="M397.251 205.988C397.251 208.065 393.832 209.752 389.611 209.752C385.39 209.752 381.964 208.065 381.964 205.988C381.964 203.911 385.39 202.224 389.611 202.224C393.832 202.224 397.251 203.911 397.251 205.988Z" fill="#757575"/>
<path d="M88.57 191.032C88.57 193.11 85.151 194.796 80.93 194.796C76.709 194.796 73.283 193.109 73.283 191.032C73.283 188.955 76.709 187.268 80.93 187.268C85.151 187.268 88.57 188.955 88.57 191.032Z" fill="#757575"/>
<path d="M965.499 165.409C965.499 167.487 962.08 169.173 957.859 169.173C953.638 169.173 950.212 167.486 950.212 165.409C950.212 163.332 953.638 161.645 957.859 161.645C962.08 161.645 965.499 163.332 965.499 165.409Z" fill="#757575"/>
<path d="M847.98 162.774C847.98 164.852 844.561 166.538 840.34 166.538C836.119 166.538 832.693 164.851 832.693 162.774C832.693 160.697 836.119 159.01 840.34 159.01C844.561 159.01 847.98 160.697 847.98 162.774Z" fill="#757575"/>
<path d="M1299.92 227.03C1299.92 229.108 1296.5 230.794 1292.28 230.794C1288.06 230.794 1284.64 229.107 1284.64 227.03C1284.64 224.953 1288.06 223.266 1292.28 223.266C1296.5 223.266 1299.92 224.953 1299.92 227.03Z" fill="#757575"/>
<path d="M1233.03 187.268C1233.03 189.346 1229.61 191.032 1225.39 191.032C1221.17 191.032 1217.74 189.345 1217.74 187.268C1217.74 185.191 1221.17 183.504 1225.39 183.504C1229.61 183.504 1233.03 185.191 1233.03 187.268Z" fill="#757575"/>
<path d="M1225.39 88.2459C1225.39 90.3237 1221.97 92.0099 1217.75 92.0099C1213.52 92.0099 1210.1 90.323 1210.1 88.2459C1210.1 86.1688 1213.52 84.4819 1217.75 84.4819C1221.97 84.4819 1225.39 86.1688 1225.39 88.2459Z" fill="#757575"/>
<path d="M1453.02 171.062C1453.02 173.14 1449.6 174.826 1445.38 174.826C1441.16 174.826 1437.73 173.139 1437.73 171.062C1437.73 168.985 1441.16 167.298 1445.38 167.298C1449.6 167.298 1453.02 168.985 1453.02 171.062Z" fill="#757575"/>
<path d="M1471.83 47.2454C1471.83 49.3233 1468.42 51.0094 1464.19 51.0094C1459.97 51.0094 1456.55 49.3225 1456.55 47.2454C1456.55 45.1683 1459.97 43.4814 1464.19 43.4814C1468.42 43.4814 1471.83 45.1683 1471.83 47.2454Z" fill="#757575"/>
<path d="M1513.45 143.973C1513.45 146.051 1510.04 147.737 1505.81 147.737C1501.59 147.737 1498.17 146.051 1498.17 143.973C1498.17 141.896 1501.59 140.209 1505.81 140.209C1510.04 140.209 1513.45 141.896 1513.45 143.973Z" fill="#757575"/>
<path d="M1703.12 211.768C1703.12 213.846 1699.71 215.532 1695.48 215.532C1691.26 215.532 1687.84 213.845 1687.84 211.768C1687.84 209.691 1691.26 208.004 1695.48 208.004C1699.7 208.004 1703.12 209.691 1703.12 211.768Z" fill="#757575"/>
<path d="M1521.11 202.223C1521.11 204.301 1517.69 205.987 1513.46 205.987C1509.24 205.987 1505.81 204.301 1505.81 202.223C1505.81 200.146 1509.24 198.459 1513.46 198.459C1517.68 198.459 1521.11 200.146 1521.11 202.223Z" fill="#757575"/>
<path d="M1698.25 143.973C1698.25 146.051 1694.83 147.737 1690.61 147.737C1686.4 147.737 1682.97 146.051 1682.97 143.973C1682.97 141.896 1686.39 140.209 1690.61 140.209C1694.84 140.209 1698.25 141.893 1698.25 143.973Z" fill="#757575"/>
<path d="M1596.32 92.0081C1596.32 94.0859 1592.9 95.7721 1588.68 95.7721C1584.46 95.7721 1581.03 94.0852 1581.03 92.0081C1581.03 89.931 1584.46 88.2441 1588.68 88.2441C1592.9 88.2441 1596.32 89.931 1596.32 92.0081Z" fill="#757575"/>
<path d="M1617.8 97.4305C1617.8 99.5083 1614.38 101.194 1610.16 101.194C1605.94 101.194 1602.52 99.5076 1602.52 97.4305C1602.52 95.3534 1605.94 93.6665 1610.16 93.6665C1614.38 93.6665 1617.8 95.3534 1617.8 97.4305Z" fill="#757575"/>
<path d="M1812.16 53.2103C1812.16 55.2881 1808.74 56.9743 1804.52 56.9743C1800.3 56.9743 1796.88 55.2874 1796.88 53.2103C1796.88 51.1332 1800.3 49.4463 1804.52 49.4463C1808.74 49.4463 1812.16 51.1332 1812.16 53.2103Z" fill="#757575"/>
<path d="M1858.88 122.709C1858.88 124.787 1855.46 126.473 1851.24 126.473C1847.02 126.473 1843.59 124.786 1843.59 122.709C1843.59 120.632 1847.02 118.945 1851.24 118.945C1855.46 118.945 1858.88 120.632 1858.88 122.709Z" fill="#757575"/>
<path d="M1755.69 126.474C1755.69 128.552 1752.27 130.238 1748.05 130.238C1743.83 130.238 1740.41 128.551 1740.41 126.474C1740.41 124.397 1743.83 122.71 1748.05 122.71C1752.27 122.71 1755.69 124.397 1755.69 126.474Z" fill="#757575"/>
<path d="M526.612 189.257C526.612 191.334 523.193 193.021 518.972 193.021C514.751 193.021 511.325 191.334 511.325 189.257C511.325 187.18 514.751 185.493 518.972 185.493C523.193 185.493 526.612 187.18 526.612 189.257Z" fill="#757575"/>
<path d="M403.596 103.211C403.596 105.289 400.174 106.975 395.953 106.975C391.732 106.975 388.306 105.288 388.306 103.211C388.306 101.134 391.732 99.4468 395.953 99.4468C400.174 99.4468 403.596 101.134 403.596 103.211Z" fill="#757575"/>
<path d="M222.296 108.267C222.296 110.345 218.877 112.031 214.656 112.031C210.435 112.031 207.009 110.344 207.009 108.267C207.009 106.19 210.435 104.503 214.656 104.503C218.877 104.503 222.296 106.19 222.296 108.267Z" fill="#757575"/>
<path d="M456.464 83.262C456.464 85.3399 453.042 87.026 448.824 87.026C444.606 87.026 441.177 85.3391 441.177 83.262C441.177 81.1849 444.603 79.498 448.824 79.498C453.045 79.498 456.464 81.1849 456.464 83.262Z" fill="#757575"/>
<path d="M278.254 160.566C278.254 161.784 275.698 162.771 272.542 162.771C269.386 162.771 266.827 161.784 266.827 160.566C266.827 159.347 269.387 158.358 272.542 158.358C275.697 158.358 278.254 159.347 278.254 160.566Z" fill="#757575"/>
<path d="M630.8 171.062C630.8 172.28 628.244 173.269 625.088 173.269C621.932 173.269 619.373 172.28 619.373 171.062C619.373 169.843 621.933 168.854 625.088 168.854C628.243 168.854 630.8 169.843 630.8 171.062Z" fill="#757575"/>
<path d="M662.553 53.2111C662.553 54.4293 659.997 55.4187 656.841 55.4187C653.685 55.4187 651.126 54.4293 651.126 53.2111C651.126 51.9928 653.686 51.0034 656.841 51.0034C659.996 51.0034 662.553 51.9928 662.553 53.2111Z" fill="#757575"/>
<path d="M837.246 203.016C837.246 204.235 834.69 205.224 831.534 205.224C828.378 205.224 825.819 204.235 825.819 203.016C825.819 201.798 828.379 200.811 831.534 200.811C834.689 200.811 837.246 201.798 837.246 203.016Z" fill="#757575"/>
<path d="M1107.1 211.768C1107.1 212.986 1104.54 213.975 1101.38 213.975C1098.23 213.975 1095.67 212.986 1095.67 211.768C1095.67 210.549 1098.23 209.56 1101.38 209.56C1104.54 209.56 1107.1 210.549 1107.1 211.768Z" fill="#757575"/>
<path d="M1303.71 115.15C1303.71 116.368 1301.15 117.358 1298 117.358C1294.84 117.358 1292.28 116.368 1292.28 115.15C1292.28 113.932 1294.84 112.945 1298 112.945C1301.15 112.945 1303.71 113.932 1303.71 115.15Z" fill="#757575"/>
<path d="M1445.37 91.8339C1445.37 93.0521 1442.81 94.0415 1439.66 94.0415C1436.5 94.0415 1433.94 93.0521 1433.94 91.8339C1433.94 90.6156 1436.5 89.6284 1439.66 89.6284C1442.81 89.6284 1445.37 90.6156 1445.37 91.8339Z" fill="#757575"/>
<path d="M1634.88 178.167C1634.88 179.385 1632.32 180.375 1629.17 180.375C1626.01 180.375 1623.45 179.385 1623.45 178.167C1623.45 176.949 1626.01 175.959 1629.17 175.959C1632.32 175.959 1634.88 176.949 1634.88 178.167Z" fill="#757575"/>
<path d="M188.428 56.8914C188.428 57.8734 186.483 58.6692 184.081 58.6692C181.679 58.6692 179.731 57.8734 179.731 56.8914C179.731 55.9093 181.679 55.1157 184.081 55.1157C186.483 55.1157 188.428 55.9115 188.428 56.8914Z" fill="#757575"/>
<path d="M31.6809 69.0935C31.6809 70.0756 29.7359 70.8714 27.3339 70.8714C24.9319 70.8714 22.9839 70.0756 22.9839 69.0935C22.9839 68.1114 24.9329 67.3193 27.3349 67.3193C29.7369 67.3193 31.6819 68.1151 31.6819 69.095" fill="#757575"/>
<path d="M182.717 89.6228C182.717 90.6049 180.772 91.4007 178.367 91.4007C175.962 91.4007 174.02 90.6049 174.02 89.6228C174.02 88.6407 175.965 87.8472 178.367 87.8472C180.769 87.8472 182.717 88.6429 182.717 89.6228Z" fill="#757575"/>
<path d="M116.636 56.8914C116.636 57.8734 114.688 58.6692 112.289 58.6692C109.89 58.6692 107.939 57.8734 107.939 56.8914C107.939 55.9093 109.887 55.1157 112.289 55.1157C114.691 55.1157 116.636 55.9115 116.636 56.8914Z" fill="#757575"/>
<path d="M610.812 168.75C610.812 169.732 608.864 170.528 606.465 170.528C604.066 170.528 602.115 169.732 602.115 168.75C602.115 167.768 604.063 166.974 606.465 166.974C608.867 166.974 610.812 167.77 610.812 168.75Z" fill="#757575"/>
<path d="M511.324 85.5623C511.324 86.5443 509.376 87.3401 506.977 87.3401C504.578 87.3401 502.627 86.5443 502.627 85.5623C502.627 84.5802 504.575 83.7866 506.977 83.7866C509.379 83.7866 511.324 84.5824 511.324 85.5623Z" fill="#757575"/>
<path d="M327.583 111.596C327.583 112.579 325.638 113.374 323.236 113.374C320.834 113.374 318.886 112.579 318.886 111.596C318.886 110.614 320.834 109.821 323.236 109.821C325.638 109.821 327.583 110.617 327.583 111.596Z" fill="#757575"/>
<path d="M802.827 204.792C802.827 205.774 800.879 206.57 798.48 206.57C796.081 206.57 794.13 205.774 794.13 204.792C794.13 203.81 796.078 203.017 798.48 203.017C800.882 203.017 802.827 203.812 802.827 204.792Z" fill="#757575"/>
<path d="M1034.47 106.279C1034.47 107.261 1032.53 108.056 1030.12 108.056C1027.72 108.056 1025.78 107.261 1025.78 106.279C1025.78 105.297 1027.72 104.503 1030.12 104.503C1032.52 104.503 1034.47 105.299 1034.47 106.279Z" fill="#757575"/>
<path d="M859.69 93.6087C859.69 94.5907 857.742 95.3865 855.344 95.3865C852.946 95.3865 850.994 94.5907 850.994 93.6087C850.994 92.6266 852.942 91.833 855.344 91.833C857.746 91.833 859.69 92.6288 859.69 93.6087Z" fill="#757575"/>
<path d="M639.493 47.2454C639.493 48.2274 637.542 49.0232 635.143 49.0232C632.744 49.0232 630.797 48.2274 630.797 47.2454C630.797 46.2633 632.745 45.4697 635.143 45.4697C637.541 45.4697 639.493 46.2655 639.493 47.2454Z" fill="#757575"/>
<path d="M1279.49 113.373C1279.49 114.355 1277.54 115.151 1275.14 115.151C1272.74 115.151 1270.8 114.356 1270.8 113.373C1270.8 112.39 1272.75 111.597 1275.15 111.597C1277.54 111.597 1279.5 112.393 1279.5 113.373" fill="#757575"/>
<path d="M1433.94 88.8347C1433.94 89.8168 1431.99 90.6126 1429.59 90.6126C1427.19 90.6126 1425.25 89.8168 1425.25 88.8347C1425.25 87.8527 1427.19 87.0591 1429.59 87.0591C1431.99 87.0591 1433.94 87.8549 1433.94 88.8347Z" fill="#757575"/>
<path d="M1241.72 53.2078C1241.72 54.1898 1239.78 54.9856 1237.37 54.9856C1234.97 54.9856 1233.03 54.1898 1233.03 53.2078C1233.03 52.2257 1234.97 51.4321 1237.37 51.4321C1239.77 51.4321 1241.72 52.2279 1241.72 53.2078Z" fill="#757575"/>
<path d="M1584.49 176.389C1584.49 177.371 1582.55 178.167 1580.14 178.167C1577.74 178.167 1575.8 177.371 1575.8 176.389C1575.8 175.407 1577.75 174.614 1580.14 174.614C1582.54 174.614 1584.49 175.41 1584.49 176.389Z" fill="#757575"/>
<path d="M1625.78 91.3591C1625.78 92.3412 1623.83 93.137 1621.43 93.137C1619.03 93.137 1617.08 92.3412 1617.08 91.3591C1617.08 90.3771 1619.03 89.5835 1621.43 89.5835C1623.83 89.5835 1625.78 90.3793 1625.78 91.3591Z" fill="#757575"/>
<path d="M1748.05 75.1643C1748.05 76.1464 1746.1 76.9422 1743.7 76.9422C1741.3 76.9422 1739.35 76.1464 1739.35 75.1643C1739.35 74.1822 1741.3 73.3887 1743.7 73.3887C1746.1 73.3887 1748.05 74.1844 1748.05 75.1643Z" fill="#757575"/>
<path d="M1536.83 43.3464C1536.83 44.3285 1534.88 45.1243 1532.48 45.1243C1530.08 45.1243 1528.13 44.3285 1528.13 43.3464C1528.13 42.3644 1530.08 41.5708 1532.48 41.5708C1534.88 41.5708 1536.83 42.3666 1536.83 43.3464Z" fill="#757575"/>
<path d="M1796.88 174.611C1796.88 175.593 1794.93 176.388 1792.53 176.388C1790.13 176.388 1788.18 175.593 1788.18 174.611C1788.18 173.629 1790.13 172.835 1792.53 172.835C1794.93 172.835 1796.88 173.631 1796.88 174.611Z" fill="#757575"/>
<path d="M1110.08 189.252C1110.08 190.234 1108.13 191.03 1105.73 191.03C1103.33 191.03 1101.38 190.234 1101.38 189.252C1101.38 188.27 1103.33 187.476 1105.73 187.476C1108.13 187.476 1110.08 188.272 1110.08 189.252Z" fill="#757575"/>
<path d="M1134.46 192.808C1134.46 193.79 1132.51 194.586 1130.11 194.586C1127.71 194.586 1125.76 193.79 1125.76 192.808C1125.76 191.826 1127.71 191.033 1130.11 191.033C1132.51 191.033 1134.46 191.828 1134.46 192.808" fill="#757575"/>
<path d="M1458.05 221.032C1458.05 222.014 1456.1 222.81 1453.7 222.81C1451.31 222.81 1449.35 222.014 1449.35 221.032C1449.35 220.05 1451.3 219.256 1453.7 219.256C1456.11 219.256 1458.05 220.052 1458.05 221.032Z" fill="#757575"/>
<path d="M1482.43 224.586C1482.43 225.568 1480.48 226.364 1478.08 226.364C1475.68 226.364 1473.73 225.568 1473.73 224.586C1473.73 223.604 1475.68 222.811 1478.08 222.811C1480.48 222.811 1482.43 223.606 1482.43 224.586Z" fill="#757575"/>
<path d="M1327.61 149.361C1327.61 150.343 1325.66 151.138 1323.26 151.138C1320.86 151.138 1318.91 150.343 1318.91 149.361C1318.91 148.379 1320.86 147.585 1323.26 147.585C1325.66 147.585 1327.61 148.381 1327.61 149.361Z" fill="#757575"/>
<path d="M1351.99 152.914C1351.99 153.896 1350.04 154.692 1347.64 154.692C1345.23 154.692 1343.29 153.896 1343.29 152.914C1343.29 151.932 1345.24 151.139 1347.64 151.139C1350.04 151.139 1351.99 151.934 1351.99 152.914Z" fill="#757575"/>
<path d="M1758.9 224.586C1758.9 225.568 1756.95 226.364 1754.55 226.364C1752.15 226.364 1750.2 225.568 1750.2 224.586C1750.2 223.604 1752.15 222.811 1754.55 222.811C1756.95 222.811 1758.9 223.606 1758.9 224.586Z" fill="#757575"/>
<path d="M1783.28 228.14C1783.28 229.122 1781.33 229.918 1778.93 229.918C1776.53 229.918 1774.58 229.122 1774.58 228.14C1774.58 227.158 1776.53 226.364 1778.93 226.364C1781.33 226.364 1783.28 227.16 1783.28 228.14Z" fill="#757575"/>
<path d="M483.299 204.209C483.299 205.191 481.351 205.987 478.949 205.987C476.547 205.987 474.602 205.191 474.602 204.209C474.602 203.227 476.55 202.433 478.949 202.433C481.348 202.433 483.299 203.229 483.299 204.209Z" fill="#757575"/>
<path d="M507.679 207.763C507.679 208.746 505.731 209.541 503.329 209.541C500.927 209.541 498.982 208.746 498.982 207.763C498.982 206.781 500.93 205.988 503.329 205.988C505.728 205.988 507.679 206.784 507.679 207.763Z" fill="#757575"/>
<path d="M1173.45 119.732C1173.45 120.95 1170.89 121.937 1167.73 121.937C1164.58 121.937 1162.02 120.95 1162.02 119.732C1162.02 118.513 1164.58 117.524 1167.73 117.524C1170.89 117.524 1173.45 118.513 1173.45 119.732Z" fill="#757575"/>
<path d="M1176.43 97.2175C1176.43 98.1996 1174.48 98.9954 1172.08 98.9954C1169.68 98.9954 1167.73 98.1996 1167.73 97.2175C1167.73 96.2355 1169.68 95.4419 1172.08 95.4419C1174.48 95.4419 1176.43 96.2377 1176.43 97.2175Z" fill="#757575"/>
<path d="M1200.8 100.772C1200.8 101.754 1198.85 102.55 1196.45 102.55C1194.06 102.55 1192.11 101.754 1192.11 100.772C1192.11 99.7902 1194.06 98.9966 1196.45 98.9966C1198.85 98.9966 1200.8 99.7924 1200.8 100.772Z" fill="#757575"/>
<path d="M1387.92 220.602C1387.92 221.82 1385.36 222.81 1382.2 222.81C1379.05 222.81 1376.49 221.82 1376.49 220.602C1376.49 219.384 1379.05 218.395 1382.2 218.395C1385.36 218.395 1387.92 219.384 1387.92 220.602Z" fill="#757575"/>
<path d="M1390.9 198.089C1390.9 199.071 1388.95 199.866 1386.55 199.866C1384.15 199.866 1382.2 199.071 1382.2 198.089C1382.2 197.107 1384.15 196.313 1386.55 196.313C1388.95 196.313 1390.9 197.109 1390.9 198.089Z" fill="#757575"/>
<path d="M1415.28 201.642C1415.28 202.624 1413.33 203.42 1410.93 203.42C1408.52 203.42 1406.58 202.624 1406.58 201.642C1406.58 200.66 1408.53 199.867 1410.93 199.867C1413.32 199.867 1415.28 200.662 1415.28 201.642Z" fill="#757575"/>
<path d="M1660.45 129.586C1660.45 130.804 1657.89 131.793 1654.73 131.793C1651.58 131.793 1649.02 130.804 1649.02 129.586C1649.02 128.368 1651.57 127.38 1654.73 127.38C1657.89 127.38 1660.45 128.368 1660.45 129.586Z" fill="#757575"/>
<path d="M1772.45 200.794C1772.45 202.012 1769.89 202.999 1766.74 202.999C1763.58 202.999 1761.02 202.012 1761.02 200.794C1761.02 199.575 1763.58 198.586 1766.74 198.586C1769.89 198.586 1772.45 199.575 1772.45 200.794Z" fill="#757575"/>
<path d="M1588.24 223.143C1588.24 224.361 1585.68 225.35 1582.53 225.35C1579.37 225.35 1576.81 224.361 1576.81 223.143C1576.81 221.924 1579.37 220.935 1582.53 220.935C1585.68 220.935 1588.24 221.924 1588.24 223.143Z" fill="#757575"/>
<path d="M1761.76 69.429C1761.76 70.411 1759.81 71.2068 1757.41 71.2068C1755.01 71.2068 1753.06 70.411 1753.06 69.429C1753.06 68.4469 1755.01 67.6533 1757.41 67.6533C1759.81 67.6533 1761.76 68.4491 1761.76 69.429Z" fill="#757575"/>
<path d="M1786.13 72.9822C1786.13 73.9643 1784.19 74.76 1781.78 74.76C1779.38 74.76 1777.44 73.9643 1777.44 72.9822C1777.44 72.0001 1779.38 71.2065 1781.78 71.2065C1784.18 71.2065 1786.13 72.0023 1786.13 72.9822Z" fill="#757575"/>
<path d="M104.324 168.323C104.324 169.541 101.764 170.531 98.609 170.531C95.454 170.531 92.894 169.541 92.894 168.323C92.894 167.105 95.454 166.115 98.609 166.115C101.764 166.115 104.324 167.105 104.324 168.323Z" fill="#757575"/>
<path d="M107.305 145.806C107.305 146.788 105.357 147.584 102.955 147.584C100.553 147.584 98.6079 146.788 98.6079 145.806C98.6079 144.824 100.556 144.031 102.955 144.031C105.354 144.031 107.305 144.827 107.305 145.806Z" fill="#757575"/>
<path d="M131.681 149.361C131.681 150.343 129.733 151.138 127.331 151.138C124.929 151.138 122.987 150.343 122.987 149.361C122.987 148.378 124.935 147.585 127.334 147.585C129.733 147.585 131.684 148.381 131.684 149.361" fill="#757575"/>
<path d="M560.72 51.7839C560.72 52.766 558.772 53.5618 556.37 53.5618C553.968 53.5618 552.024 52.766 552.024 51.7839C552.024 50.8019 553.972 50.0083 556.37 50.0083C558.768 50.0083 560.72 50.8041 560.72 51.7839Z" fill="#757575"/>
<path d="M336.765 72.8035C336.765 73.7855 334.817 74.5813 332.415 74.5813C330.013 74.5813 328.068 73.7855 328.068 72.8035C328.068 71.8214 330.016 71.0278 332.415 71.0278C334.814 71.0278 336.765 71.8236 336.765 72.8035Z" fill="#757575"/>
<path d="M232.468 66.5286C232.468 67.5106 230.52 68.3064 228.118 68.3064C225.716 68.3064 223.768 67.5114 223.768 66.5286C223.768 65.5458 225.716 64.7529 228.115 64.7529C230.514 64.7529 232.468 65.5509 232.468 66.5286Z" fill="#757575"/>
<path d="M1179.17 60.6956C1179.17 61.6776 1177.22 62.4734 1174.82 62.4734C1172.42 62.4734 1170.48 61.6776 1170.48 60.6956C1170.48 59.7135 1172.42 58.9199 1174.82 58.9199C1177.22 58.9199 1179.17 59.7157 1179.17 60.6956Z" fill="#757575"/>
<path d="M1283.84 69.0935C1283.84 70.0756 1281.89 70.8714 1279.5 70.8714C1277.1 70.8714 1275.15 70.0756 1275.15 69.0935C1275.15 68.1114 1277.09 67.3179 1279.5 67.3179C1281.9 67.3179 1283.84 68.1136 1283.84 69.0935Z" fill="#757575"/>
<path d="M1401.36 42.1589C1401.36 43.141 1399.41 43.9368 1397.01 43.9368C1394.62 43.9368 1392.66 43.141 1392.66 42.1589C1392.66 41.1769 1394.61 40.3833 1397.01 40.3833C1399.42 40.3833 1401.36 41.1791 1401.36 42.1589Z" fill="#757575"/>
<path d="M1360.32 106.281C1360.32 107.263 1358.37 108.059 1355.97 108.059C1353.57 108.059 1351.63 107.263 1351.63 106.281C1351.63 105.299 1353.57 104.505 1355.97 104.505C1358.37 104.505 1360.32 105.301 1360.32 106.281Z" fill="#757575"/>
<path d="M1840.19 24.9299C1840.19 25.912 1838.23 26.7078 1835.84 26.7078C1833.44 26.7078 1831.49 25.912 1831.49 24.9299C1831.49 23.9479 1833.44 23.1572 1835.84 23.1572C1838.24 23.1572 1840.19 23.953 1840.19 24.9329" fill="#757575"/>
<path d="M1611.53 49.0232C1611.53 50.0053 1609.58 50.801 1607.18 50.801C1604.78 50.801 1602.83 50.0053 1602.83 49.0232C1602.83 48.0411 1604.78 47.2476 1607.18 47.2476C1609.58 47.2476 1611.53 48.0433 1611.53 49.0232Z" fill="#757575"/>
<path d="M1558.32 67.6526C1558.32 68.6347 1556.37 69.4304 1553.97 69.4304C1551.57 69.4304 1549.62 68.6347 1549.62 67.6526C1549.62 66.6705 1551.57 65.877 1553.97 65.877C1556.37 65.877 1558.32 66.6727 1558.32 67.6526Z" fill="#757575"/>
<path d="M823.758 213.544C823.758 214.526 821.81 215.322 819.408 215.322C817.006 215.322 815.061 214.526 815.061 213.544C815.061 212.562 817.009 211.769 819.408 211.769C821.807 211.769 823.758 212.564 823.758 213.544Z" fill="#757575"/>
<path d="M146.705 98.1647C146.705 99.3829 144.149 100.372 140.993 100.372C137.837 100.372 135.278 99.3829 135.278 98.1647C135.278 96.9464 137.838 95.957 140.993 95.957C144.148 95.957 146.705 96.9464 146.705 98.1647Z" fill="#757575"/>
<path d="M112.286 99.9407C112.286 100.923 110.338 101.719 107.939 101.719C105.54 101.719 103.589 100.923 103.589 99.9407C103.589 98.9586 105.537 98.165 107.939 98.165C110.341 98.165 112.286 98.9608 112.286 99.9407Z" fill="#757575"/>
<path d="M133.22 108.692C133.22 109.674 131.272 110.47 128.87 110.47C126.468 110.47 124.523 109.674 124.523 108.692C124.523 107.71 126.471 106.916 128.87 106.916C131.269 106.916 133.22 107.712 133.22 108.692Z" fill="#757575"/>
<path d="M742.327 133.139C742.327 134.358 739.771 135.347 736.615 135.347C733.459 135.347 730.9 134.358 730.9 133.139C730.9 131.921 733.46 130.932 736.615 130.932C739.77 130.932 742.327 131.921 742.327 133.139Z" fill="#757575"/>
<path d="M707.908 134.916C707.908 135.898 705.96 136.694 703.561 136.694C701.162 136.694 699.211 135.898 699.211 134.916C699.211 133.934 701.159 133.14 703.561 133.14C705.963 133.14 707.908 133.936 707.908 134.916Z" fill="#757575"/>
<path d="M728.839 143.668C728.839 144.65 726.891 145.446 724.489 145.446C722.087 145.446 720.142 144.65 720.142 143.668C720.142 142.686 722.09 141.892 724.489 141.892C726.888 141.892 728.839 142.688 728.839 143.668Z" fill="#757575"/>
<path d="M505.043 92.5094C505.043 93.7276 502.487 94.7148 499.331 94.7148C496.175 94.7148 493.616 93.7276 493.616 92.5094C493.616 91.2912 496.176 90.3018 499.331 90.3018C502.486 90.3018 505.043 91.2912 505.043 92.5094Z" fill="#757575"/>
<path d="M470.624 94.2844C470.624 95.2665 468.676 96.0623 466.277 96.0623C463.878 96.0623 461.927 95.2665 461.927 94.2844C461.927 93.3024 463.875 92.5088 466.277 92.5088C468.679 92.5088 470.624 93.3046 470.624 94.2844Z" fill="#757575"/>
<path d="M491.558 103.036C491.558 104.018 489.61 104.814 487.208 104.814C484.806 104.814 482.861 104.018 482.861 103.036C482.861 102.054 484.809 101.26 487.208 101.26C489.607 101.26 491.558 102.056 491.558 103.036Z" fill="#757575"/>
<path d="M602.115 172.838C602.115 173.82 600.167 174.615 597.765 174.615C595.363 174.615 593.418 173.82 593.418 172.838C593.418 171.856 595.366 171.062 597.765 171.062C600.164 171.062 602.115 171.858 602.115 172.838Z" fill="#757575"/>
<path d="M547.551 205.985C547.551 206.967 545.6 207.762 543.198 207.762C540.796 207.762 538.855 206.967 538.855 205.985C538.855 205.003 540.8 204.209 543.198 204.209C545.596 204.209 547.551 205.005 547.551 205.985Z" fill="#757575"/>
<path d="M303.2 215.32C303.2 216.302 301.252 217.098 298.85 217.098C296.448 217.098 294.503 216.302 294.503 215.32C294.503 214.338 296.451 213.544 298.85 213.544C301.249 213.544 303.2 214.34 303.2 215.32Z" fill="#757575"/>
<path d="M348.739 191.032C348.739 192.014 346.791 192.81 344.389 192.81C341.987 192.81 340.042 192.014 340.042 191.032C340.042 190.05 341.99 189.256 344.389 189.256C346.788 189.256 348.739 190.052 348.739 191.032Z" fill="#757575"/>
<path d="M36.031 213.976C36.031 214.958 34.083 215.754 31.681 215.754C29.279 215.754 27.335 214.959 27.335 213.976C27.335 212.994 29.283 212.201 31.682 212.201C34.081 212.201 36.032 212.996 36.032 213.976" fill="#757575"/>
<path d="M31.685 108.692C31.685 109.674 29.737 110.47 27.335 110.47C24.933 110.47 22.989 109.674 22.989 108.692C22.989 107.709 24.937 106.916 27.336 106.916C29.735 106.916 31.686 107.712 31.686 108.692" fill="#757575"/>
<path d="M58.479 117.526C58.479 118.508 56.531 119.304 54.129 119.304C51.727 119.304 49.782 118.508 49.782 117.526C49.782 116.544 51.73 115.75 54.129 115.75C56.528 115.75 58.479 116.546 58.479 117.526Z" fill="#757575"/>
<path d="M565.07 133.14C565.07 134.122 563.122 134.918 560.72 134.918C558.318 134.918 556.373 134.122 556.373 133.14C556.373 132.158 558.321 131.364 560.72 131.364C563.119 131.364 565.07 132.16 565.07 133.14Z" fill="#757575"/>
<path d="M318.053 230.798C318.053 231.78 316.105 232.575 313.703 232.575C311.301 232.575 309.356 231.78 309.356 230.798C309.356 229.816 311.304 229.022 313.703 229.022C316.102 229.022 318.053 229.818 318.053 230.798Z" fill="#757575"/>
<path d="M168.447 224.919C168.447 225.901 166.499 226.697 164.097 226.697C161.695 226.697 159.75 225.901 159.75 224.919C159.75 223.937 161.698 223.144 164.097 223.144C166.496 223.144 168.447 223.939 168.447 224.919Z" fill="#757575"/>
<path d="M1212.61 222.808C1212.61 223.79 1210.66 224.586 1208.27 224.586C1205.87 224.586 1203.92 223.79 1203.92 222.808C1203.92 221.826 1205.86 221.032 1208.27 221.032C1210.67 221.032 1212.61 221.828 1212.61 222.808Z" fill="#757575"/>
<path d="M1166.37 220.719C1166.37 221.701 1164.42 222.496 1162.02 222.496C1159.62 222.496 1157.67 221.701 1157.67 220.719C1157.67 219.736 1159.62 218.943 1162.02 218.943C1164.42 218.943 1166.37 219.739 1166.37 220.719Z" fill="#757575"/>
<path d="M1283.84 168.748C1283.84 169.73 1281.89 170.526 1279.5 170.526C1277.1 170.526 1275.15 169.73 1275.15 168.748C1275.15 167.766 1277.09 166.972 1279.5 166.972C1281.9 166.972 1283.84 167.768 1283.84 168.748Z" fill="#757575"/>
<path d="M1580.14 131.362C1580.14 132.344 1578.2 133.139 1575.8 133.139C1573.4 133.139 1571.45 132.344 1571.45 131.362C1571.45 130.38 1573.4 129.586 1575.8 129.586C1578.2 129.586 1580.14 130.382 1580.14 131.362Z" fill="#757575"/>
<path d="M647.487 213.976C647.487 214.958 645.539 215.754 643.137 215.754C640.735 215.754 638.79 214.958 638.79 213.976C638.79 212.994 640.738 212.201 643.137 212.201C645.536 212.201 647.487 212.996 647.487 213.976Z" fill="#757575"/>
<path d="M746.669 215.32C746.669 216.302 744.721 217.098 742.319 217.098C739.917 217.098 737.972 216.302 737.972 215.32C737.972 214.338 739.92 213.544 742.319 213.544C744.718 213.544 746.669 214.34 746.669 215.32Z" fill="#757575"/>
<path d="M184.082 176.656C184.082 177.874 181.526 178.864 178.37 178.864C175.214 178.864 172.655 177.874 172.655 176.656C172.655 175.438 175.215 174.451 178.37 174.451C181.525 174.451 184.082 175.438 184.082 176.656Z" fill="#757575"/>
<path d="M164.097 174.344C164.097 175.327 162.152 176.122 159.75 176.122C157.348 176.122 155.4 175.327 155.4 174.344C155.4 173.362 157.348 172.569 159.75 172.569C162.152 172.569 164.097 173.365 164.097 174.344Z" fill="#757575"/>
<path d="M155.404 178.432C155.404 179.414 153.456 180.21 151.054 180.21C148.652 180.21 146.707 179.414 146.707 178.432C146.707 177.45 148.656 176.656 151.055 176.656C153.454 176.656 155.405 177.452 155.405 178.432" fill="#757575"/>
<path d="M1065.09 140.474C1065.09 141.692 1062.53 142.682 1059.37 142.682C1056.22 142.682 1053.66 141.692 1053.66 140.474C1053.66 139.256 1056.22 138.267 1059.37 138.267C1062.53 138.267 1065.09 139.256 1065.09 140.474Z" fill="#757575"/>
<path d="M1045.1 138.162C1045.1 139.144 1043.16 139.94 1040.76 139.94C1038.35 139.94 1036.41 139.144 1036.41 138.162C1036.41 137.18 1038.35 136.387 1040.76 136.387C1043.16 136.387 1045.1 137.182 1045.1 138.162Z" fill="#757575"/>
<path d="M1036.41 142.251C1036.41 143.233 1034.46 144.029 1032.06 144.029C1029.66 144.029 1027.71 143.233 1027.71 142.251C1027.71 141.269 1029.66 140.475 1032.06 140.475C1034.47 140.475 1036.41 141.271 1036.41 142.251" fill="#757575"/>
<path d="M1877.56 195.303C1877.56 196.521 1875 197.51 1871.85 197.51C1868.7 197.51 1866.14 196.521 1866.14 195.303C1866.14 194.084 1868.7 193.097 1871.85 193.097C1875.01 193.097 1877.56 194.084 1877.56 195.303Z" fill="#757575"/>
<path d="M1857.58 192.992C1857.58 193.975 1855.63 194.77 1853.23 194.77C1850.83 194.77 1848.88 193.975 1848.88 192.992C1848.88 192.01 1850.83 191.217 1853.23 191.217C1855.63 191.217 1857.58 192.013 1857.58 192.992Z" fill="#757575"/>
<path d="M1848.88 197.078C1848.88 198.06 1846.93 198.856 1844.54 198.856C1842.14 198.856 1840.19 198.06 1840.19 197.078C1840.19 196.096 1842.13 195.302 1844.54 195.302C1846.94 195.302 1848.88 196.098 1848.88 197.078Z" fill="#757575"/>
<path d="M344.393 167.078C344.393 168.004 341.711 168.75 338.408 168.75C335.105 168.75 332.419 168.004 332.419 167.078C332.419 166.152 335.101 165.409 338.408 165.409C341.715 165.409 344.393 166.155 344.393 167.078Z" fill="#757575"/>
<path d="M1925.67 89.0591C1925.67 93.5646 1914.9 97.22 1901.61 97.22C1888.33 97.22 1877.56 93.5646 1877.56 89.0591C1877.56 84.5536 1888.33 80.9004 1901.61 80.9004C1914.89 80.9004 1925.66 84.5536 1925.66 89.0591" fill="#757575"/>
<path d="M1335.45 175.403C1335.45 179.313 1325.79 182.485 1313.87 182.485C1301.95 182.485 1292.28 179.313 1292.28 175.403C1292.28 171.492 1301.95 168.323 1313.87 168.323C1325.78 168.323 1335.45 171.494 1335.45 175.403Z" fill="#757575"/>
<path d="M787.434 142.553C787.434 144.151 779.095 145.445 768.808 145.445C758.521 145.445 750.186 144.151 750.186 142.553C750.186 140.954 758.525 139.662 768.809 139.662C779.093 139.662 787.435 140.956 787.435 142.553" fill="#757575"/>
<path d="M1343.29 67.9786C1343.29 68.7787 1336.7 69.4264 1328.58 69.4264C1320.46 69.4264 1313.87 68.7795 1313.87 67.9786C1313.87 67.1777 1320.45 66.5308 1328.58 66.5308C1336.71 66.5308 1343.29 67.1777 1343.29 67.9786Z" fill="#757575"/>
<path d="M1496.38 175.518C1496.38 178.201 1489.56 180.374 1481.14 180.374C1472.72 180.374 1465.89 178.201 1465.89 175.518C1465.89 172.836 1472.72 170.663 1481.14 170.663C1489.56 170.663 1496.38 172.836 1496.38 175.518Z" fill="#757575"/>
<path d="M572.897 137.731C572.897 141.011 564.545 143.672 554.239 143.672C543.933 143.672 535.584 141.013 535.584 137.731C535.584 134.449 543.937 131.791 554.237 131.791C564.537 131.791 572.895 134.449 572.895 137.731" fill="#757575"/>
<path d="M582.733 233.248C582.733 234.601 572.91 235.699 560.794 235.699C548.678 235.699 538.855 234.599 538.855 233.248C538.855 231.897 548.675 230.795 560.794 230.795C572.913 230.795 582.733 231.895 582.733 233.248Z" fill="#757575"/>
<path d="M901.687 228.027C901.687 230.91 891.31 233.248 878.512 233.248C865.714 233.248 855.34 230.911 855.34 228.027C855.34 225.143 865.714 222.811 878.512 222.811C891.31 222.811 901.687 225.146 901.687 228.027Z" fill="#757575"/>
<path d="M1588.67 230.525C1588.67 233.385 1579.93 235.698 1569.15 235.698C1558.37 235.698 1549.63 233.382 1549.63 230.525C1549.63 227.667 1558.37 225.351 1569.15 225.351C1579.93 225.351 1588.67 227.665 1588.67 230.525Z" fill="#757575"/>
<path d="M415.448 170.12C415.448 171.858 405 173.268 392.115 173.268C379.23 173.268 368.782 171.858 368.782 170.12C368.782 168.382 379.23 166.973 392.115 166.973C405 166.973 415.448 168.382 415.448 170.121" fill="#757575"/>
<path d="M80.93 229.972C80.93 231.781 73.959 233.248 65.356 233.248C56.753 233.248 49.782 231.781 49.782 229.972C49.782 228.164 56.756 226.697 65.356 226.697C73.956 226.697 80.93 228.164 80.93 229.972Z" fill="#757575"/>
<path d="M58.48 124.004C58.48 125.366 50.537 126.474 40.733 126.474C30.929 126.474 22.989 125.366 22.989 124.004C22.989 122.641 30.932 121.531 40.733 121.531C50.534 121.531 58.48 122.639 58.48 124.004Z" fill="#757575"/>
<path d="M214.653 130.035C214.653 132.734 206.533 134.916 196.51 134.916C186.487 134.916 178.368 132.734 178.368 130.035C178.368 127.336 186.494 125.154 196.511 125.154C206.528 125.154 214.654 127.338 214.654 130.035" fill="#757575"/>
<path d="M1060.73 169.338C1060.73 171.509 1055.28 173.268 1048.57 173.268C1041.85 173.268 1036.4 171.508 1036.4 169.338C1036.4 167.169 1041.85 165.409 1048.57 165.409C1055.29 165.409 1060.73 167.169 1060.73 169.338Z" fill="#757575"/>
<path d="M1126.1 59.3482C1126.1 61.5184 1120.65 63.2779 1113.94 63.2779C1107.22 63.2779 1101.77 61.5177 1101.77 59.3482C1101.77 57.1787 1107.22 55.4185 1113.94 55.4185C1120.66 55.4185 1126.1 57.1787 1126.1 59.3482Z" fill="#757575"/>
</g>
</svg>
