<svg width="53" height="83" viewBox="0 0 53 83" fill="none" xmlns="http://www.w3.org/2000/svg">
<path d="M6.6167 50.7788C7.07568 50.7788 7.39795 51.0474 7.5835 51.5845C7.59326 51.7212 7.60547 51.7896 7.62012 51.7896C7.62012 52.1704 7.354 52.5391 6.82178 52.8955C6.05029 53.6768 5.66455 54.5728 5.66455 55.5835C5.66455 56.7456 6.14062 57.7148 7.09277 58.4912C7.77148 58.999 8.51367 59.2529 9.31934 59.2529C10.418 59.2529 11.3433 58.8281 12.0952 57.9785V55.8691C12.0952 55.3955 12.3564 55.0708 12.8789 54.895C12.9814 54.8706 13.0645 54.8584 13.1279 54.8584C13.5381 54.8584 13.8481 55.0928 14.0581 55.5615C14.0972 55.6641 14.1167 55.7593 14.1167 55.8472V58.3447C14.1167 58.8379 13.5771 59.4897 12.498 60.3003C11.4922 60.9497 10.4521 61.2744 9.37793 61.2744H9.28271C7.73975 61.2744 6.375 60.6714 5.18848 59.4653C4.1582 58.3179 3.64307 57.0483 3.64307 55.6567V55.5249C3.64307 53.9478 4.29004 52.5439 5.58398 51.3135C5.96973 50.957 6.31396 50.7788 6.6167 50.7788ZM9.81006 54.8584C10.2397 54.8584 10.5522 55.105 10.7476 55.5981C10.772 55.6616 10.7915 55.7568 10.8062 55.8838C10.8062 56.2549 10.5889 56.5674 10.1543 56.8213L9.79541 56.8945C9.40479 56.8945 9.09229 56.6919 8.85791 56.2866C8.79443 56.106 8.7627 55.9595 8.7627 55.8472C8.7627 55.4028 9.03613 55.0781 9.58301 54.873L9.81006 54.8584ZM23.6089 50.7715C24.1118 50.7715 24.7637 51.3647 25.5645 52.5513C26.0967 53.5083 26.3628 54.4922 26.3628 55.5029C26.3628 57.3828 25.5278 58.9648 23.8579 60.249C22.813 60.9326 21.7095 61.2744 20.5474 61.2744C18.8433 61.2744 17.3564 60.564 16.0869 59.1431C15.2227 57.9858 14.7905 56.8237 14.7905 55.6567C14.7905 55.2661 15.0371 54.9609 15.5303 54.7412C15.6426 54.7168 15.7256 54.7046 15.7793 54.7046H15.8159C16.2993 54.7046 16.6362 54.9756 16.8267 55.5176C16.8901 56.1914 16.9805 56.6235 17.0977 56.814C17.4248 57.7124 18.0449 58.3911 18.958 58.8501C19.4609 59.0845 19.9443 59.2017 20.4082 59.2017H20.7012C21.8486 59.2017 22.8374 58.6646 23.6675 57.5903C24.0776 56.9116 24.2827 56.272 24.2827 55.6714V55.3271C24.2827 54.2578 23.7725 53.2886 22.752 52.4194C22.625 52.2046 22.5615 52.0166 22.5615 51.8555V51.7603C22.5615 51.3013 22.8398 50.979 23.3965 50.7935C23.5088 50.7788 23.5796 50.7715 23.6089 50.7715ZM35.9282 50.7715C36.4312 50.7715 37.083 51.3647 37.8838 52.5513C38.416 53.5083 38.6821 54.4922 38.6821 55.5029C38.6821 57.3828 37.8472 58.9648 36.1772 60.249C35.1323 60.9326 34.0288 61.2744 32.8667 61.2744C31.1626 61.2744 29.6758 60.564 28.4062 59.1431C27.542 57.9858 27.1099 56.8237 27.1099 55.6567C27.1099 55.2661 27.3564 54.9609 27.8496 54.7412C27.9619 54.7168 28.0449 54.7046 28.0986 54.7046H28.1353C28.6187 54.7046 28.9556 54.9756 29.146 55.5176C29.2095 56.1914 29.2998 56.6235 29.417 56.814C29.7441 57.7124 30.3643 58.3911 31.2773 58.8501C31.7803 59.0845 32.2637 59.2017 32.7275 59.2017H33.0205C34.168 59.2017 35.1567 58.6646 35.9868 57.5903C36.397 56.9116 36.6021 56.272 36.6021 55.6714V55.3271C36.6021 54.2578 36.0918 53.2886 35.0713 52.4194C34.9443 52.2046 34.8809 52.0166 34.8809 51.8555V51.7603C34.8809 51.3013 35.1592 50.979 35.7158 50.7935C35.8281 50.7788 35.8989 50.7715 35.9282 50.7715ZM40.4619 50.7788H43.2744C45.8379 50.7788 47.5225 51.9604 48.3281 54.3237C48.4893 54.939 48.5698 55.4956 48.5698 55.9937C48.5698 57.4731 48.0571 58.7598 47.0317 59.8535C46.1187 60.8008 44.8589 61.2744 43.2524 61.2744H40.4619C39.9443 61.2744 39.6123 61.0352 39.4658 60.5566C39.4414 60.4688 39.4292 60.3857 39.4292 60.3076C39.4292 59.9023 39.6685 59.6094 40.147 59.4287C40.2397 59.4092 40.3398 59.3994 40.4473 59.3994H43.5527C44.9736 59.3994 45.9575 58.6841 46.5044 57.2534C46.6313 56.8481 46.6948 56.4453 46.6948 56.0449V55.9424C46.6948 54.5654 46.1162 53.5645 44.959 52.9395C44.5098 52.749 44.0483 52.6538 43.5747 52.6538H41.3042V53.9575C41.3042 54.5337 41.0894 54.895 40.6597 55.0415C40.5327 55.0757 40.4375 55.0928 40.374 55.0928C39.9346 55.0928 39.6245 54.8486 39.4438 54.3604L39.4292 54.1479V51.7456C39.4292 51.2964 39.6685 50.9863 40.147 50.8154C40.2642 50.791 40.3691 50.7788 40.4619 50.7788Z" fill="white"/>
<path d="M1.6123 67.7637C2.00781 67.7637 2.30078 67.9932 2.49121 68.4521L2.54248 68.6938C2.54248 69.0698 2.33008 69.3701 1.90527 69.5947L1.59033 69.646C1.21436 69.646 0.928711 69.4409 0.733398 69.0308C0.68457 68.9136 0.660156 68.7964 0.660156 68.6792C0.660156 68.2935 0.882324 68.0054 1.32666 67.8149C1.47314 67.7808 1.56836 67.7637 1.6123 67.7637ZM4.30029 67.7637H4.98145C6.51465 67.7637 7.53516 68.5303 8.04297 70.0635C8.10156 70.3223 8.14307 70.6152 8.16748 70.9424C8.16748 71.9775 7.72803 72.8223 6.84912 73.4766C6.30713 73.7939 5.74316 73.9526 5.15723 73.9526H2.68164V77.2046C2.68164 77.6978 2.47168 78.0371 2.05176 78.2227C1.86133 78.2568 1.75391 78.2739 1.72949 78.2739C1.33398 78.2739 1.03613 78.0444 0.835938 77.5854C0.811523 77.4438 0.799316 77.334 0.799316 77.2559V73.0518C0.799316 72.627 1.0166 72.3242 1.45117 72.1436C1.54395 72.1045 1.63184 72.085 1.71484 72.085H4.98145C5.85059 72.085 6.28516 71.7236 6.28516 71.001V70.9277C6.28516 70.332 6.02637 69.9219 5.50879 69.6973C5.40625 69.6631 5.28906 69.646 5.15723 69.646H4.30029C3.78271 69.646 3.44824 69.4043 3.29688 68.9209C3.27246 68.833 3.26025 68.7524 3.26025 68.6792C3.26025 68.2739 3.50195 67.981 3.98535 67.8003C4.09766 67.7759 4.20264 67.7637 4.30029 67.7637ZM9.91064 67.7783H14.9863C15.4453 67.7783 15.7676 67.9834 15.9531 68.3936L16.019 68.7085C16.019 69.0747 15.8213 69.3677 15.4258 69.5874C15.2646 69.6313 15.1182 69.6533 14.9863 69.6533H9.896C9.4126 69.6533 9.08545 69.4263 8.91455 68.9722C8.89014 68.8696 8.87793 68.7769 8.87793 68.6938C8.87793 68.2886 9.11719 67.9956 9.5957 67.8149C9.71289 67.7905 9.81787 67.7783 9.91064 67.7783ZM9.80811 72.0923H12.4375C12.8477 72.0923 13.1406 72.3047 13.3164 72.7295C13.3506 72.8223 13.3677 72.9102 13.3677 72.9932V73.0591C13.3677 73.4741 13.1235 73.7671 12.6353 73.938C12.5522 73.9526 12.4863 73.96 12.4375 73.96H9.80811C9.39307 73.96 9.1001 73.7427 8.9292 73.3081C8.89502 73.2104 8.87793 73.1226 8.87793 73.0444V73.0078C8.87793 72.583 9.12451 72.2852 9.61768 72.1143C9.6958 72.0996 9.75928 72.0923 9.80811 72.0923ZM15.0596 72.0923H15.0742C15.5137 72.0923 15.8188 72.334 15.9897 72.8174L16.019 73.0225C16.019 73.4229 15.792 73.7231 15.3379 73.9233C15.2256 73.9478 15.1377 73.96 15.0742 73.96H15.0596C14.6543 73.96 14.3613 73.7256 14.1807 73.2568C14.1562 73.1445 14.144 73.0615 14.144 73.0078C14.144 72.6318 14.3613 72.3462 14.7959 72.1509C14.8887 72.1118 14.9766 72.0923 15.0596 72.0923ZM9.896 76.3989H14.9863C15.5186 76.3989 15.853 76.6504 15.9897 77.1533C15.9995 77.2412 16.0093 77.2998 16.019 77.3291C16.019 77.7051 15.814 77.9956 15.4038 78.2007C15.272 78.2495 15.1328 78.2739 14.9863 78.2739H9.91064C9.39795 78.2739 9.05859 78.0273 8.89258 77.5342C8.88281 77.4365 8.87793 77.3608 8.87793 77.3071C8.87793 76.897 9.11719 76.604 9.5957 76.4282C9.68848 76.4087 9.78857 76.3989 9.896 76.3989ZM25.5918 67.771C26.0947 67.771 26.7466 68.3643 27.5474 69.5508C28.0796 70.5078 28.3457 71.4917 28.3457 72.5024C28.3457 74.3823 27.5107 75.9644 25.8408 77.2485C24.7959 77.9321 23.6924 78.2739 22.5303 78.2739C20.8262 78.2739 19.3394 77.5635 18.0698 76.1426C17.2056 74.9854 16.7734 73.8232 16.7734 72.6562C16.7734 72.2656 17.02 71.9604 17.5132 71.7407C17.6255 71.7163 17.7085 71.7041 17.7622 71.7041H17.7988C18.2822 71.7041 18.6191 71.9751 18.8096 72.5171C18.873 73.1909 18.9634 73.623 19.0806 73.8135C19.4077 74.7119 20.0278 75.3906 20.9409 75.8496C21.4438 76.084 21.9272 76.2012 22.3911 76.2012H22.6841C23.8315 76.2012 24.8203 75.6641 25.6504 74.5898C26.0605 73.9111 26.2656 73.2715 26.2656 72.6709V72.3267C26.2656 71.2573 25.7554 70.2881 24.7349 69.4189C24.6079 69.2041 24.5444 69.0161 24.5444 68.855V68.7598C24.5444 68.3008 24.8228 67.9785 25.3794 67.793C25.4917 67.7783 25.5625 67.771 25.5918 67.771ZM30.0449 67.7637C30.4404 67.7637 30.7334 67.9932 30.9238 68.4521L30.9751 68.6938C30.9751 69.0698 30.7627 69.3701 30.3379 69.5947L30.0229 69.646C29.647 69.646 29.3613 69.4409 29.166 69.0308C29.1172 68.9136 29.0928 68.7964 29.0928 68.6792C29.0928 68.2935 29.3149 68.0054 29.7593 67.8149C29.9058 67.7808 30.001 67.7637 30.0449 67.7637ZM32.7329 67.7637H33.4141C34.9473 67.7637 35.9678 68.5303 36.4756 70.0635C36.5342 70.3223 36.5757 70.6152 36.6001 70.9424C36.6001 71.9775 36.1606 72.8223 35.2817 73.4766C34.7397 73.7939 34.1758 73.9526 33.5898 73.9526H31.1143V77.2046C31.1143 77.6978 30.9043 78.0371 30.4844 78.2227C30.2939 78.2568 30.1865 78.2739 30.1621 78.2739C29.7666 78.2739 29.4688 78.0444 29.2686 77.5854C29.2441 77.4438 29.2319 77.334 29.2319 77.2559V73.0518C29.2319 72.627 29.4492 72.3242 29.8838 72.1436C29.9766 72.1045 30.0645 72.085 30.1475 72.085H33.4141C34.2832 72.085 34.7178 71.7236 34.7178 71.001V70.9277C34.7178 70.332 34.459 69.9219 33.9414 69.6973C33.8389 69.6631 33.7217 69.646 33.5898 69.646H32.7329C32.2153 69.646 31.8809 69.4043 31.7295 68.9209C31.7051 68.833 31.6929 68.7524 31.6929 68.6792C31.6929 68.2739 31.9346 67.981 32.418 67.8003C32.5303 67.7759 32.6353 67.7637 32.7329 67.7637ZM38.2773 67.7783C38.6875 67.7783 38.9805 68.0176 39.1562 68.4961C39.1807 68.5938 39.1929 68.6938 39.1929 68.7964V77.2559C39.1929 77.7393 38.9634 78.0664 38.5044 78.2373C38.4019 78.2617 38.3262 78.2739 38.2773 78.2739H38.2261C37.8208 78.2739 37.5278 78.0347 37.3472 77.5562C37.3228 77.439 37.3105 77.3315 37.3105 77.2339V68.8184C37.3105 68.3008 37.5571 67.959 38.0503 67.793C38.1479 67.7832 38.2236 67.7783 38.2773 67.7783ZM42.5474 76.4136H42.5693C42.9111 76.4136 43.187 76.5991 43.397 76.9702C43.4556 77.1118 43.4849 77.2412 43.4849 77.3584C43.4849 77.7441 43.2676 78.0322 42.833 78.2227C42.7354 78.2568 42.6475 78.2739 42.5693 78.2739H42.5474C42.1079 78.2739 41.8027 78.0347 41.6318 77.5562L41.6025 77.3438C41.6025 76.9434 41.8296 76.6431 42.2837 76.4429C42.396 76.4233 42.4839 76.4136 42.5474 76.4136ZM45.1987 67.7783H50.2744C50.7334 67.7783 51.0557 67.9834 51.2412 68.3936L51.3071 68.7085C51.3071 69.0747 51.1094 69.3677 50.7139 69.5874C50.5527 69.6313 50.4062 69.6533 50.2744 69.6533H45.1841C44.7007 69.6533 44.3735 69.4263 44.2026 68.9722C44.1782 68.8696 44.166 68.7769 44.166 68.6938C44.166 68.2886 44.4053 67.9956 44.8838 67.8149C45.001 67.7905 45.106 67.7783 45.1987 67.7783ZM45.0962 72.0923H47.7256C48.1357 72.0923 48.4287 72.3047 48.6045 72.7295C48.6387 72.8223 48.6558 72.9102 48.6558 72.9932V73.0591C48.6558 73.4741 48.4116 73.7671 47.9233 73.938C47.8403 73.9526 47.7744 73.96 47.7256 73.96H45.0962C44.6812 73.96 44.3882 73.7427 44.2173 73.3081C44.1831 73.2104 44.166 73.1226 44.166 73.0444V73.0078C44.166 72.583 44.4126 72.2852 44.9058 72.1143C44.9839 72.0996 45.0474 72.0923 45.0962 72.0923ZM50.3477 72.0923H50.3623C50.8018 72.0923 51.1069 72.334 51.2778 72.8174L51.3071 73.0225C51.3071 73.4229 51.0801 73.7231 50.626 73.9233C50.5137 73.9478 50.4258 73.96 50.3623 73.96H50.3477C49.9424 73.96 49.6494 73.7256 49.4688 73.2568C49.4443 73.1445 49.4321 73.0615 49.4321 73.0078C49.4321 72.6318 49.6494 72.3462 50.084 72.1509C50.1768 72.1118 50.2646 72.0923 50.3477 72.0923ZM45.1841 76.3989H50.2744C50.8066 76.3989 51.1411 76.6504 51.2778 77.1533C51.2876 77.2412 51.2974 77.2998 51.3071 77.3291C51.3071 77.7051 51.1021 77.9956 50.6919 78.2007C50.5601 78.2495 50.4209 78.2739 50.2744 78.2739H45.1987C44.686 78.2739 44.3467 78.0273 44.1807 77.5342C44.1709 77.4365 44.166 77.3608 44.166 77.3071C44.166 76.897 44.4053 76.604 44.8838 76.4282C44.9766 76.4087 45.0767 76.3989 45.1841 76.3989Z" fill="white"/>
<g opacity="0.204">
<path d="M28.118 41.846C22.0552 41.657 16.897 36.2247 17.481 30.8254C17.351 29.491 17.5412 28.1447 18.0352 26.8993C16.0297 25.7937 13.7896 25.1877 11.5031 25.1321C7.64128 24.9761 5.16386 21.9816 5.49725 18.0421C5.76499 14.8541 9.1419 12.2775 12.6204 12.9991C13.983 13.2804 15.2616 14.4176 16.3699 15.3994C18.0786 16.9192 19.3844 18.9797 21.2512 20.2159C21.8502 20.614 22.4799 20.9632 23.1343 21.26C24.6696 20.3958 26.3918 19.9222 28.1508 19.8806C30.0663 19.8487 31.9573 20.3162 33.6399 21.2375C36.0808 20.1181 38.1726 18.3511 39.6902 16.1263C40.1755 15.3553 40.7673 14.6577 41.4481 14.0545C42.3247 13.3234 43.3993 12.8741 44.5329 12.7648C45.6665 12.6556 46.8066 12.8914 47.8054 13.4417C48.8691 13.9134 49.7634 14.7017 50.368 15.7003C50.9726 16.699 51.2582 17.86 51.1867 19.027C51.2089 19.8152 51.0751 20.6 50.793 21.3358C50.5109 22.0715 50.0863 22.7434 49.5435 23.3125C49.0008 23.8816 48.3508 24.3365 47.6317 24.6507C46.9125 24.9649 46.1385 25.1321 45.3545 25.1426C42.9548 25.1569 40.6002 25.8004 38.5234 27.0096C38.9424 28.1986 39.16 29.45 39.1665 30.7114C39.1993 32.1522 38.9472 33.5853 38.4251 34.9274C37.903 36.2695 37.1213 37.4941 36.125 38.53C35.1287 39.5659 33.9377 40.3925 32.6213 40.962C31.305 41.5315 29.8896 41.8325 28.4567 41.8475C28.3448 41.855 28.2314 41.8535 28.118 41.846Z" fill="#DDDDDD"/>
<path d="M28.2924 15.4534C26.6745 15.4491 25.1228 14.8068 23.9707 13.6644C22.8185 12.522 22.1578 10.9707 22.1305 9.34374C22.1335 8.51322 22.3003 7.69155 22.6212 6.92627C22.942 6.16098 23.4106 5.46729 23.9997 4.8853C24.5888 4.30332 25.2869 3.8446 26.0534 3.53568C26.8199 3.22677 27.6398 3.07379 28.4655 3.0856C30.0554 3.14523 31.5626 3.81325 32.6792 4.95313C33.7958 6.09301 34.4375 7.61872 34.473 9.21847C34.4818 10.0381 34.328 10.8514 34.0208 11.6106C33.7135 12.3698 33.2589 13.0599 32.6835 13.6404C32.1081 14.221 31.4234 14.6803 30.6694 14.9918C29.9155 15.3032 29.1074 15.4603 28.2924 15.4541" fill="#DDDDDD"/>
</g>
<path d="M24.4761 39.5641C17.4475 39.0983 11.5622 31.7517 14.3934 24.6175C12.3878 23.5117 10.1479 22.9057 7.86148 22.8502C3.99963 22.6942 1.52202 19.6998 1.8554 15.7602C2.12315 12.5722 5.50022 9.99561 8.97872 10.7172C10.3413 10.9985 11.6197 12.1357 12.7279 13.1176C14.4366 14.6373 15.7425 16.6978 17.6086 17.934C18.2077 18.3319 18.8374 18.6811 19.4918 18.9781C21.0272 18.1142 22.7493 17.6407 24.5082 17.5987C26.4237 17.567 28.3147 18.0345 29.9974 18.9556C32.4383 17.8362 34.5298 16.0692 36.0475 13.8444C36.5327 13.0734 37.1246 12.3758 37.8054 11.7726C38.682 11.0416 39.7568 10.5924 40.8904 10.4831C42.0239 10.3738 43.164 10.6096 44.1627 11.1598C45.2264 11.6316 46.1207 12.4199 46.7253 13.4185C47.3299 14.4171 47.6157 15.5781 47.5443 16.7451C47.5878 18.3212 47.0074 19.8502 45.9305 20.9961C44.8537 22.1421 43.3685 22.8111 41.8015 22.8562H41.7127C39.312 22.8729 36.9573 23.5193 34.881 24.7315C35.3 25.9205 35.5174 27.1718 35.5239 28.4333C35.5885 31.3199 34.5104 34.1142 32.5267 36.2015C30.543 38.2888 27.8161 39.498 24.946 39.5634H24.811C24.6985 39.5709 24.5856 39.5709 24.4731 39.5634" fill="white"/>
<path d="M24.6476 13.1718C23.0297 13.1675 21.478 12.5252 20.3258 11.3828C19.1736 10.2404 18.5129 8.68915 18.4856 7.06217C18.4887 6.23696 18.6535 5.42045 18.9704 4.65928C19.2873 3.89811 19.7502 3.20719 20.3327 2.62598C20.9151 2.04476 21.6057 1.58464 22.365 1.2719C23.1243 0.95916 23.9374 0.799919 24.7579 0.803275H24.8236C26.4135 0.862911 27.9207 1.53092 29.0373 2.67081C30.1539 3.81069 30.7956 5.3364 30.8311 6.93615C30.8486 8.57234 30.2192 10.1485 29.0812 11.3179C27.9432 12.4873 26.39 13.1542 24.7632 13.1718H24.6476Z" fill="white"/>
<g opacity="0.41">
<path d="M24.6475 13.1715H24.7601C25.8672 13.1586 26.95 12.8431 27.8925 12.2586C25.9988 11.4965 24.2847 10.3442 22.8605 8.87564C20.5917 6.38604 21.1615 4.20097 22.2638 1.31981V1.31006C21.1436 1.79257 20.1881 2.59414 19.5151 3.61602C18.8422 4.6379 18.4812 5.83545 18.4766 7.06113C18.5037 8.6898 19.1656 10.2426 20.3197 11.3854C21.4738 12.5282 23.0279 13.1696 24.6475 13.1715Z" fill="#ADADAD"/>
</g>
<g opacity="0.41">
<path d="M33.1163 35.5186C31.4493 35.0981 29.7478 34.8307 28.0328 34.7197C25.541 34.5637 23.3953 34.4782 21.4532 32.7095C19.8752 31.2805 18.8391 29.3452 18.5214 27.2337C18.3185 25.6817 18.4721 24.0832 17.9433 22.583C17.4026 21.0475 15.823 20.3649 14.4455 19.7551C11.8925 18.6254 9.20458 18.3719 6.98726 16.5191C5.5262 15.2987 4.66776 13.7857 3.2962 12.5908C2.47877 13.4566 1.97172 14.5718 1.85528 15.76C1.52264 19.6996 3.99951 22.694 7.86211 22.85C10.1483 22.9055 12.388 23.5116 14.3932 24.6173C11.5591 31.7516 17.4511 39.0981 24.4767 39.5639C24.5892 39.5714 24.7021 39.5714 24.8146 39.5639H24.9488C26.5209 39.5286 28.0663 39.1483 29.4771 38.4497C30.8878 37.7511 32.1298 36.751 33.1163 35.5194" fill="#ADADAD"/>
</g>
<g opacity="0.41">
<path d="M46.7491 19.9731C46.139 19.8688 45.5282 19.7631 44.9099 19.6625C43.6965 19.4317 42.4556 19.3849 41.2285 19.5238C40.0024 19.697 39.3237 20.3196 38.3705 21.0562C37.5837 21.6646 36.7521 22.2264 35.9466 22.8107C35.4033 23.3127 35.0467 23.9862 34.936 24.7198C37.0131 23.5104 39.3678 22.8669 41.7677 22.8528C41.7968 22.8528 41.8267 22.8528 41.8557 22.8528C42.8468 22.8247 43.8149 22.5461 44.6706 22.0426C45.5263 21.539 46.2422 20.8268 46.752 19.9716" fill="#ADADAD"/>
</g>
</svg>
