<svg width="19" height="21" viewBox="0 0 19 21" fill="none" xmlns="http://www.w3.org/2000/svg">
<path d="M3.11071 8.87012H4.784C4.88296 8.38882 5.05614 7.966 5.30353 7.60165C5.54643 7.2373 5.84331 6.93143 6.19416 6.68404C6.54051 6.43214 6.9251 6.24322 7.34792 6.11728C7.77074 5.99133 8.21156 5.92836 8.67037 5.92836C9.50701 5.92836 10.2649 6.13977 10.9442 6.56259C11.6189 6.98541 12.1564 7.6084 12.5567 8.43155C12.9526 9.25471 13.1505 10.2645 13.1505 11.461C13.1505 12.6575 12.9526 13.6673 12.5567 14.4905C12.1564 15.3137 11.6189 15.9366 10.9442 16.3595C10.2649 16.7823 9.50701 16.9937 8.67037 16.9937C8.21156 16.9937 7.77074 16.9307 7.34792 16.8048C6.9251 16.6788 6.54051 16.4922 6.19416 16.2448C5.84331 15.9929 5.54643 15.6847 5.30353 15.3204C5.05614 14.9516 4.88296 14.5287 4.784 14.0519H3.11071C3.23665 14.7581 3.46606 15.3901 3.79892 15.9479C4.13178 16.5057 4.5456 16.9802 5.04039 17.3715C5.53519 17.7584 6.0907 18.053 6.70694 18.2554C7.31868 18.4578 7.97316 18.559 8.67037 18.559C9.84887 18.559 10.8969 18.2712 11.8145 17.6954C12.7322 17.1196 13.4541 16.301 13.9804 15.2394C14.5067 14.1779 14.7698 12.9184 14.7698 11.461C14.7698 10.0036 14.5067 8.74417 13.9804 7.68262C13.4541 6.62106 12.7322 5.80241 11.8145 5.22665C10.8969 4.65089 9.84887 4.36301 8.67037 4.36301C7.97316 4.36301 7.31868 4.46422 6.70694 4.66664C6.0907 4.86905 5.53519 5.16593 5.04039 5.55726C4.5456 5.9441 4.13178 6.4164 3.79892 6.97417C3.46606 7.52743 3.23665 8.15942 3.11071 8.87012Z" fill="white"/>
<path d="M1.57227 11.1262H18.0747" stroke="#FBFBFB" stroke-width="1.5" stroke-linecap="round"/>
</svg>
