<svg width="334" height="305" viewBox="0 0 334 305" fill="none" xmlns="http://www.w3.org/2000/svg">
<ellipse cx="135.239" cy="116.973" rx="49.2051" ry="57.7814" transform="rotate(-62.5213 135.239 116.973)" fill="url(#paint0_radial_13_1002)" fill-opacity="0.62"/>
<ellipse cx="272.163" cy="155.988" rx="49.2051" ry="43.4915" transform="rotate(-24.9453 272.163 155.988)" fill="url(#paint1_radial_13_1002)"/>
<ellipse cx="196.685" cy="60.5551" rx="49.2051" ry="43.4915" transform="rotate(-24.9453 196.685 60.5551)" fill="url(#paint2_radial_13_1002)" fill-opacity="0.86"/>
<ellipse cx="95.287" cy="222.74" rx="49.2051" ry="81.5596" transform="rotate(-62.5213 95.287 222.74)" fill="url(#paint3_radial_13_1002)"/>
<path fill-rule="evenodd" clip-rule="evenodd" d="M137.228 132.535L79.1179 67.4253L91.9279 39.4153L184.938 11.9253L213.648 60.5553L172.408 130.415L137.228 132.535Z" fill="#0059FF"/>
<path style="mix-blend-mode:multiply" fill-rule="evenodd" clip-rule="evenodd" d="M113.118 90.2852L137.228 132.535L172.408 130.415L213.648 60.5552L113.118 90.2852Z" fill="url(#paint4_linear_13_1002)"/>
<path opacity="0.55" fill-rule="evenodd" clip-rule="evenodd" d="M172.408 130.415L170.778 105.325L184.938 11.9253L213.648 60.5553L172.408 130.415Z" fill="#00C5FF"/>
<g style="mix-blend-mode:multiply">
<path fill-rule="evenodd" clip-rule="evenodd" d="M172.408 130.415L170.778 105.325L133.848 107.805L137.228 132.535L172.408 130.415Z" fill="#12908B"/>
</g>
<path style="mix-blend-mode:multiply" fill-rule="evenodd" clip-rule="evenodd" d="M133.848 107.805L91.9279 39.4153L79.1179 67.4253L137.228 132.535L133.848 107.805Z" fill="url(#paint5_linear_13_1002)"/>
<path opacity="0.75" fill-rule="evenodd" clip-rule="evenodd" d="M79.1179 67.4253L113.118 90.2853L213.648 60.5553L184.938 11.9253L91.9279 39.4153L79.1179 67.4253Z" fill="#5CF4FF"/>
<path fill-rule="evenodd" clip-rule="evenodd" d="M182.808 73.1053L182.008 87.5053L191.028 84.6953L195.518 69.1453L182.808 73.1053Z" fill="white"/>
<path fill-rule="evenodd" clip-rule="evenodd" d="M113.118 90.2853L137.228 132.535L79.1179 67.4253L113.118 90.2853Z" fill="#5CF4FF"/>
<path style="mix-blend-mode:screen" fill-rule="evenodd" clip-rule="evenodd" d="M179.466 43.8478C198.505 59.8684 200.96 88.2886 184.939 107.328C168.919 126.367 140.498 128.821 121.459 112.8C102.42 96.7799 99.966 68.3596 115.987 49.3207C132.002 30.2817 160.422 27.8327 179.466 43.8478Z" fill="url(#paint6_radial_13_1002)"/>
<path fill-rule="evenodd" clip-rule="evenodd" d="M221.618 138.075L216.468 175.555L280.948 200.695L302.818 189.985L288.748 146.845L227.968 132.365L222.958 136.185L221.618 138.075Z" fill="#0059FF"/>
<g style="mix-blend-mode:multiply">
<path fill-rule="evenodd" clip-rule="evenodd" d="M280.948 200.695L302.818 189.985L226.278 160.635L216.468 175.555L280.948 200.695Z" fill="#12908B"/>
</g>
<path fill-rule="evenodd" clip-rule="evenodd" d="M222.958 164.355V136.185L221.618 138.075L216.468 175.555L222.958 164.355Z" fill="#5CF4FF"/>
<path style="mix-blend-mode:multiply" fill-rule="evenodd" clip-rule="evenodd" d="M265.118 175.815L288.748 146.845L302.818 189.985L280.948 200.695L265.118 175.815Z" fill="url(#paint7_linear_13_1002)"/>
<path opacity="0.53" fill-rule="evenodd" clip-rule="evenodd" d="M227.968 132.365L222.958 136.185V164.355L267.738 178.795L288.748 146.845L227.968 132.365Z" fill="#5CF4FF"/>
<path fill-rule="evenodd" clip-rule="evenodd" d="M302.818 189.985L291.798 181.165L288.748 146.845L302.818 189.985Z" fill="#5CF4FF"/>
<path fill-rule="evenodd" clip-rule="evenodd" d="M222.958 164.355L216.468 175.555L222.958 164.355Z" fill="#5CF4FF"/>
<path style="mix-blend-mode:screen" d="M295.537 178.739C300.117 166.671 287.014 150.506 266.27 142.635C245.527 134.764 224.999 138.166 220.419 150.234C215.84 162.302 228.943 178.466 249.687 186.338C270.43 194.209 290.958 190.807 295.537 178.739Z" fill="url(#paint8_radial_13_1002)"/>
<path fill-rule="evenodd" clip-rule="evenodd" d="M21.4419 151.699L59.4719 223.499L163.262 263.969L198.462 246.729L175.812 177.289L29.3519 142.389L21.4419 151.699Z" fill="#0059FF"/>
<g style="mix-blend-mode:multiply">
<path fill-rule="evenodd" clip-rule="evenodd" d="M163.262 263.969L198.462 246.729L75.2619 199.479L59.4719 223.499L163.262 263.969Z" fill="#12908B"/>
</g>
<path style="mix-blend-mode:multiply" fill-rule="evenodd" clip-rule="evenodd" d="M75.2619 199.479L29.3519 142.389L21.4419 151.699L59.4719 223.499L75.2619 199.479Z" fill="url(#paint9_linear_13_1002)"/>
<path style="mix-blend-mode:multiply" fill-rule="evenodd" clip-rule="evenodd" d="M137.782 223.919L175.812 177.289L198.462 246.729L163.262 263.969L137.782 223.919Z" fill="url(#paint10_linear_13_1002)"/>
<path opacity="0.53" fill-rule="evenodd" clip-rule="evenodd" d="M29.3519 142.389L21.4419 151.699L69.9219 205.479L142.002 228.709L175.812 177.289L29.3519 142.389Z" fill="#5CF4FF"/>
<path fill-rule="evenodd" clip-rule="evenodd" d="M198.462 246.729L180.722 232.529L175.812 177.289L198.462 246.729Z" fill="#5CF4FF"/>
<path fill-rule="evenodd" clip-rule="evenodd" d="M69.9219 205.479L59.4719 223.499L21.4419 151.699L69.9219 205.479Z" fill="#5CF4FF"/>
<path style="mix-blend-mode:screen" d="M141.299 214.135C147.125 198.782 131.147 178.48 105.61 168.789C80.0731 159.099 54.6485 163.69 48.8224 179.044C42.9962 194.397 58.9748 214.699 84.5115 224.39C110.048 234.08 135.473 229.489 141.299 214.135Z" fill="url(#paint11_radial_13_1002)"/>
<ellipse cx="141.85" cy="221.861" rx="49.2051" ry="43.4915" transform="rotate(-24.9453 141.85 221.861)" fill="url(#paint12_radial_13_1002)" fill-opacity="0.42"/>
<defs>
<radialGradient id="paint0_radial_13_1002" cx="0" cy="0" r="1" gradientUnits="userSpaceOnUse" gradientTransform="translate(135.293 119.795) rotate(-34.3925) scale(49.4802 69.0754)">
<stop offset="0.015725" stop-color="#2182F3"/>
<stop offset="0.182292" stop-color="#0A21EC"/>
<stop offset="0.770833" stop-color="#3733F4" stop-opacity="0.210191"/>
<stop offset="1" stop-color="#A655E6" stop-opacity="0"/>
</radialGradient>
<radialGradient id="paint1_radial_13_1002" cx="0" cy="0" r="1" gradientUnits="userSpaceOnUse" gradientTransform="translate(272.218 158.112) rotate(-27.259) scale(45.9313 56.0095)">
<stop offset="0.015725" stop-color="#218FF3"/>
<stop offset="0.182292" stop-color="#0A9BEC"/>
<stop offset="0.770833" stop-color="#0E73EE" stop-opacity="0.210191"/>
<stop offset="1" stop-color="#5C9FED" stop-opacity="0"/>
</radialGradient>
<radialGradient id="paint2_radial_13_1002" cx="0" cy="0" r="1" gradientUnits="userSpaceOnUse" gradientTransform="translate(196.74 62.679) rotate(-24.9698) scale(42.4651 39.1485)">
<stop offset="0.015725" stop-color="#218FF3"/>
<stop offset="0.182292" stop-color="#0A9BEC"/>
<stop offset="0.770833" stop-color="#0E73EE" stop-opacity="0.210191"/>
<stop offset="1" stop-color="#5C9FED" stop-opacity="0"/>
</radialGradient>
<radialGradient id="paint3_radial_13_1002" cx="0" cy="0" r="1" gradientUnits="userSpaceOnUse" gradientTransform="translate(95.3416 226.723) rotate(-44.0157) scale(56.776 84.9722)">
<stop offset="0.015725" stop-color="#218FF3"/>
<stop offset="0.182292" stop-color="#0A9BEC"/>
<stop offset="0.65625" stop-color="#0E73EE" stop-opacity="0.210191"/>
<stop offset="1" stop-color="#5C9FED" stop-opacity="0"/>
</radialGradient>
<linearGradient id="paint4_linear_13_1002" x1="179.765" y1="128.111" x2="163.13" y2="74.7021" gradientUnits="userSpaceOnUse">
<stop stop-color="white"/>
<stop offset="1" stop-color="#9579A7"/>
</linearGradient>
<linearGradient id="paint5_linear_13_1002" x1="121.93" y1="137.296" x2="91.4847" y2="39.5473" gradientUnits="userSpaceOnUse">
<stop stop-color="white"/>
<stop offset="1" stop-color="#9579A7"/>
</linearGradient>
<radialGradient id="paint6_radial_13_1002" cx="0" cy="0" r="1" gradientUnits="userSpaceOnUse" gradientTransform="translate(150.506 78.3077) rotate(-18.8156) scale(139.637 71.8919)">
<stop stop-color="#0036FF"/>
<stop offset="0.09" stop-color="#002DD5"/>
<stop offset="0.23" stop-color="#00219D"/>
<stop offset="0.36" stop-color="#00176D"/>
<stop offset="0.5" stop-color="#000E46"/>
<stop offset="0.63" stop-color="#000827"/>
<stop offset="0.76" stop-color="#000311"/>
<stop offset="0.89" stop-color="#000004"/>
<stop offset="1"/>
</radialGradient>
<linearGradient id="paint7_linear_13_1002" x1="266.703" y1="169.323" x2="305.532" y2="178.803" gradientUnits="userSpaceOnUse">
<stop stop-color="white"/>
<stop offset="1" stop-color="#9579A7"/>
</linearGradient>
<radialGradient id="paint8_radial_13_1002" cx="0" cy="0" r="1" gradientUnits="userSpaceOnUse" gradientTransform="translate(240.893 164.486) rotate(-8.41626) scale(59.9002 37.8646)">
<stop stop-color="#0036FF"/>
<stop offset="0.09" stop-color="#002DD5"/>
<stop offset="0.23" stop-color="#00219D"/>
<stop offset="0.36" stop-color="#00176D"/>
<stop offset="0.5" stop-color="#000E46"/>
<stop offset="0.63" stop-color="#000827"/>
<stop offset="0.76" stop-color="#000311"/>
<stop offset="0.89" stop-color="#000004"/>
<stop offset="1"/>
</radialGradient>
<linearGradient id="paint9_linear_13_1002" x1="15.5391" y1="175.872" x2="77.3438" y2="190.961" gradientUnits="userSpaceOnUse">
<stop stop-color="white"/>
<stop offset="1" stop-color="#9579A7"/>
</linearGradient>
<linearGradient id="paint10_linear_13_1002" x1="140.342" y1="213.475" x2="202.846" y2="228.735" gradientUnits="userSpaceOnUse">
<stop stop-color="white"/>
<stop offset="1" stop-color="#9579A7"/>
</linearGradient>
<radialGradient id="paint11_radial_13_1002" cx="0" cy="0" r="1" gradientUnits="userSpaceOnUse" gradientTransform="translate(95.0533 196.588) rotate(37.0588) scale(46.0914 142.772)">
<stop stop-color="#0036FF"/>
<stop offset="0.09" stop-color="#002DD5"/>
<stop offset="0.23" stop-color="#00219D"/>
<stop offset="0.36" stop-color="#00176D"/>
<stop offset="0.5" stop-color="#000E46"/>
<stop offset="0.63" stop-color="#000827"/>
<stop offset="0.76" stop-color="#000311"/>
<stop offset="0.89" stop-color="#000004"/>
<stop offset="1"/>
</radialGradient>
<radialGradient id="paint12_radial_13_1002" cx="0" cy="0" r="1" gradientUnits="userSpaceOnUse" gradientTransform="translate(141.904 223.985) rotate(-24.9698) scale(42.4651 39.1485)">
<stop offset="0.015725" stop-color="#21CDF3"/>
<stop offset="0.182292" stop-color="#0A9BEC"/>
<stop offset="0.770833" stop-color="#0ED3EE" stop-opacity="0.210191"/>
<stop offset="1" stop-color="#5CDCED" stop-opacity="0"/>
</radialGradient>
</defs>
</svg>
