<?xml version="1.0" encoding="UTF-8"?>
<svg xmlns="http://www.w3.org/2000/svg" xmlns:xlink="http://www.w3.org/1999/xlink" viewBox="0 0 172.73 166.23">
  <defs>
    <style>
      .cls-1 {
        fill: none;
      }

      .cls-2 {
        clip-path: url(#clippath);
      }

      .cls-3 {
        fill: url(#_鍊踑臇蜸馯鳺艜_404);
      }

      .cls-3, .cls-4, .cls-5, .cls-6, .cls-7, .cls-8, .cls-9, .cls-10, .cls-11, .cls-12, .cls-13, .cls-14, .cls-15, .cls-16, .cls-17, .cls-18, .cls-19, .cls-20, .cls-21, .cls-22, .cls-23, .cls-24, .cls-25, .cls-26 {
        fill-rule: evenodd;
      }

      .cls-3, .cls-4, .cls-27, .cls-28, .cls-29 {
        mix-blend-mode: screen;
      }

      .cls-4 {
        fill: url(#_鍊踑臇蜸馯鳺艜_200);
      }

      .cls-30 {
        fill: #04040a;
      }

      .cls-31 {
        fill: #04040b;
      }

      .cls-32 {
        fill: #010101;
      }

      .cls-33 {
        fill: #010102;
      }

      .cls-34 {
        fill: #010204;
      }

      .cls-35 {
        fill: #010103;
      }

      .cls-36 {
        fill: #030409;
      }

      .cls-37 {
        fill: #030307;
      }

      .cls-38 {
        fill: #030308;
      }

      .cls-39 {
        fill: #060710;
      }

      .cls-40 {
        fill: #06060f;
      }

      .cls-41 {
        fill: #06060e;
      }

      .cls-42 {
        fill: #05050c;
      }

      .cls-43 {
        fill: #05050d;
      }

      .cls-44 {
        fill: #05050e;
      }

      .cls-45 {
        fill: #020205;
      }

      .cls-46 {
        fill: #020206;
      }

      .cls-47 {
        fill: #020306;
      }

      .cls-48 {
        fill: #000001;
      }

      .cls-49 {
        fill: #fff;
      }

      .cls-50, .cls-21 {
        fill: #ff6b22;
      }

      .cls-51 {
        fill: #90ccff;
      }

      .cls-52 {
        fill: #323481;
      }

      .cls-53 {
        fill: #323480;
      }

      .cls-54 {
        fill: #333482;
      }

      .cls-55 {
        fill: #333584;
      }

      .cls-56 {
        fill: #333583;
      }

      .cls-57 {
        fill: #30317b;
      }

      .cls-58 {
        fill: #30327c;
      }

      .cls-59, .cls-20 {
        fill: #cab3da;
      }

      .cls-60 {
        fill: #12122d;
      }

      .cls-61 {
        fill: #131330;
      }

      .cls-62 {
        fill: #17183a;
      }

      .cls-63 {
        fill: #17183b;
      }

      .cls-64 {
        fill: #161637;
      }

      .cls-65 {
        fill: #161738;
      }

      .cls-66 {
        fill: #161739;
      }

      .cls-67 {
        fill: #252760;
      }

      .cls-68 {
        fill: #25265f;
      }

      .cls-69 {
        fill: #24265e;
      }

      .cls-70 {
        fill: #24255c;
      }

      .cls-71 {
        fill: #24255d;
      }

      .cls-72 {
        fill: #1f204f;
      }

      .cls-73 {
        fill: #1f2050;
      }

      .cls-74 {
        fill: #1e1f4c;
      }

      .cls-75 {
        fill: #1e1f4d;
      }

      .cls-76 {
        fill: #1e1f4e;
      }

      .cls-77 {
        fill: #131431;
      }

      .cls-78 {
        fill: #23245a;
      }

      .cls-79 {
        fill: #23255b;
      }

      .cls-80 {
        fill: #222459;
      }

      .cls-81 {
        fill: #222358;
      }

      .cls-82 {
        fill: #222356;
      }

      .cls-83 {
        fill: #212255;
      }

      .cls-84 {
        fill: #212254;
      }

      .cls-85 {
        fill: #202253;
      }

      .cls-86 {
        fill: #202151;
      }

      .cls-87 {
        fill: #202152;
      }

      .cls-88 {
        fill: #0c0c1f;
      }

      .cls-89 {
        fill: #0c0d1f;
      }

      .cls-90 {
        fill: #0b0b1c;
      }

      .cls-91 {
        fill: #0b0c1e;
      }

      .cls-92 {
        fill: #0b0c1d;
      }

      .cls-93 {
        fill: #12132e;
      }

      .cls-94 {
        fill: #12132f;
      }

      .cls-95 {
        fill: #090a18;
      }

      .cls-96 {
        fill: #090916;
      }

      .cls-97 {
        fill: #090917;
      }

      .cls-98 {
        fill: #080815;
      }

      .cls-99 {
        fill: #080814;
      }

      .cls-100 {
        fill: #151636;
      }

      .cls-101 {
        fill: #151635;
      }

      .cls-102 {
        fill: #070711;
      }

      .cls-103 {
        fill: #070712;
      }

      .cls-104 {
        fill: #070813;
      }

      .cls-105 {
        fill: #141534;
      }

      .cls-106 {
        fill: #141432;
      }

      .cls-107 {
        fill: #141533;
      }

      .cls-108 {
        fill: #0d0d21;
      }

      .cls-109 {
        fill: #0d0d20;
      }

      .cls-110 {
        fill: #0d0e22;
      }

      .cls-111 {
        fill: #11122c;
      }

      .cls-112 {
        fill: #11112b;
      }

      .cls-113 {
        fill: #101129;
      }

      .cls-114 {
        fill: #10112a;
      }

      .cls-115 {
        fill: #101028;
      }

      .cls-116 {
        fill: #1d1e4b;
      }

      .cls-117 {
        fill: #1d1e4a;
      }

      .cls-118 {
        fill: #0f0f25;
      }

      .cls-119 {
        fill: #0f0f26;
      }

      .cls-120 {
        fill: #0f1027;
      }

      .cls-121 {
        fill: #1c1d48;
      }

      .cls-122 {
        fill: #1c1d47;
      }

      .cls-123 {
        fill: #1c1d49;
      }

      .cls-124 {
        fill: #0e0e23;
      }

      .cls-125 {
        fill: #36388b;
      }

      .cls-126 {
        fill: #36388a;
      }

      .cls-127 {
        fill: #191a41;
      }

      .cls-128 {
        fill: #191a40;
      }

      .cls-129 {
        fill: #18193e;
      }

      .cls-130 {
        fill: #18193f;
      }

      .cls-131 {
        fill: #18183d;
      }

      .cls-132 {
        fill: #0a0a1a;
      }

      .cls-133 {
        fill: #0a0a19;
      }

      .cls-134 {
        fill: #0a0b1b;
      }

      .cls-135 {
        fill: #0e0f24;
      }

      .cls-136 {
        fill: #1b1c46;
      }

      .cls-137 {
        fill: #1b1c45;
      }

      .cls-138 {
        fill: #1a1b43;
      }

      .cls-139 {
        fill: #1a1b44;
      }

      .cls-140 {
        fill: #1a1a42;
      }

      .cls-141 {
        fill: #292a68;
      }

      .cls-142 {
        fill: #292b6a;
      }

      .cls-143 {
        fill: #292b6b;
      }

      .cls-144 {
        fill: #2b2c6e;
      }

      .cls-145 {
        fill: #2b2d6f;
      }

      .cls-146 {
        fill: #2b2d70;
      }

      .cls-147 {
        fill: #2d2f74;
      }

      .cls-148 {
        fill: #2d2e73;
      }

      .cls-149 {
        fill: #2a2c6d;
      }

      .cls-150 {
        fill: #2a2b6c;
      }

      .cls-151 {
        fill: #2c2e71;
      }

      .cls-152 {
        fill: #2c2e72;
      }

      .cls-153 {
        fill: #353789;
      }

      .cls-154 {
        fill: #353788;
      }

      .cls-155 {
        fill: #2f3179;
      }

      .cls-156 {
        fill: #2f317a;
      }

      .cls-157 {
        fill: #2e3077;
      }

      .cls-158 {
        fill: #2e3076;
      }

      .cls-159 {
        fill: #262862;
      }

      .cls-160 {
        fill: #262761;
      }

      .cls-161 {
        fill: #31327d;
      }

      .cls-162 {
        fill: #343686;
      }

      .cls-163 {
        fill: #343687;
      }

      .cls-164 {
        fill: #272864;
      }

      .cls-165 {
        fill: #272863;
      }

      .cls-166 {
        fill: #272965;
      }

      .cls-167 {
        fill: #2e2f75;
      }

      .cls-168 {
        fill: #4accff;
      }

      .cls-169, .cls-19, .cls-24 {
        fill: #53345f;
      }

      .cls-170 {
        fill: #31337f;
      }

      .cls-171 {
        fill: #31337e;
      }

      .cls-172 {
        fill: #282966;
      }

      .cls-173 {
        fill: #282a67;
      }

      .cls-5 {
        fill: url(#_鍊踑臇蜸馯鳺艜_94-2);
      }

      .cls-5, .cls-6, .cls-7, .cls-8, .cls-9, .cls-24, .cls-25, .cls-26 {
        mix-blend-mode: multiply;
      }

      .cls-6 {
        fill: url(#_鍊踑臇蜸馯鳺艜_36-4);
      }

      .cls-7 {
        fill: url(#_鍊踑臇蜸馯鳺艜_36-5);
      }

      .cls-8 {
        fill: url(#_鍊踑臇蜸馯鳺艜_36-2);
      }

      .cls-9 {
        fill: url(#_鍊踑臇蜸馯鳺艜_36-3);
      }

      .cls-10 {
        fill: url(#_鍊踑臇蜸馯鳺艜_20);
      }

      .cls-11 {
        fill: url(#_鍊踑臇蜸馯鳺艜_25);
      }

      .cls-174 {
        clip-path: url(#clippath-1);
      }

      .cls-27 {
        fill: url(#_鍊踑臇蜸馯鳺艜_217);
      }

      .cls-12, .cls-175 {
        opacity: .61;
      }

      .cls-12, .cls-18 {
        fill: #5baeff;
      }

      .cls-13 {
        fill: url(#_鍊踑臇蜸馯鳺艜_25-2);
      }

      .cls-14 {
        fill: url(#_鍊踑臇蜸馯鳺艜_436);
      }

      .cls-15 {
        fill: url(#_鍊踑臇蜸馯鳺艜_519);
      }

      .cls-16 {
        fill: url(#_鍊踑臇蜸馯鳺艜_198);
      }

      .cls-17 {
        fill: #311745;
      }

      .cls-22 {
        fill: #684d73;
      }

      .cls-23 {
        fill: url(#_鍊踑臇蜸馯鳺艜_436-2);
      }

      .cls-24 {
        opacity: .5;
      }

      .cls-176 {
        isolation: isolate;
      }

      .cls-29 {
        fill: url(#_鍊踑臇蜸馯鳺艜_75);
      }

      .cls-177 {
        fill: url(#_鍊踑臇蜸馯鳺艜_198-2);
      }

      .cls-178 {
        fill: url(#_鍊踑臇蜸馯鳺艜_198-3);
      }

      .cls-25 {
        fill: url(#_鍊踑臇蜸馯鳺艜_94);
      }

      .cls-26 {
        fill: url(#_鍊踑臇蜸馯鳺艜_36);
      }

      .cls-179 {
        fill: url(#_鍊踑臇蜸馯鳺艜_93);
      }
    </style>
    <radialGradient id="_鍊踑臇蜸馯鳺艜_75" data-name="鍊踑臇蜸馯鳺艜 75" cx="305.27" cy="55.67" fx="305.27" fy="55.67" r="15.42" gradientTransform="translate(-191.89 -15.85) scale(1.14)" gradientUnits="userSpaceOnUse">
      <stop offset="0" stop-color="#2c6aff"/>
      <stop offset="0" stop-color="#2b69fc"/>
      <stop offset=".29" stop-color="#1c44a4"/>
      <stop offset=".55" stop-color="#10275d"/>
      <stop offset=".76" stop-color="#07112b"/>
      <stop offset=".91" stop-color="#02040b"/>
      <stop offset="1" stop-color="#000"/>
    </radialGradient>
    <radialGradient id="_鍊踑臇蜸馯鳺艜_200" data-name="鍊踑臇蜸馯鳺艜 200" cx="151.33" cy="41.7" fx="151.33" fy="41.7" r="8.79" gradientUnits="userSpaceOnUse">
      <stop offset="0" stop-color="#2c6aff"/>
      <stop offset=".11" stop-color="#2b67fa"/>
      <stop offset=".23" stop-color="#2862eb"/>
      <stop offset=".36" stop-color="#2458d4"/>
      <stop offset=".5" stop-color="#1e4ab3"/>
      <stop offset=".65" stop-color="#173888"/>
      <stop offset=".79" stop-color="#0e2354"/>
      <stop offset=".94" stop-color="#040a18"/>
      <stop offset="1" stop-color="#000"/>
    </radialGradient>
    <radialGradient id="_鍊踑臇蜸馯鳺艜_198" data-name="鍊踑臇蜸馯鳺艜 198" cx="153.78" cy="43.75" fx="153.78" fy="43.75" r="10.04" gradientUnits="userSpaceOnUse">
      <stop offset="0" stop-color="#5ea4ea"/>
      <stop offset=".77" stop-color="#75fff6"/>
      <stop offset="1" stop-color="#f2f4ff"/>
    </radialGradient>
    <radialGradient id="_鍊踑臇蜸馯鳺艜_198-2" data-name="鍊踑臇蜸馯鳺艜 198" cx="154.9" cy="45.47" fx="154.9" fy="45.47" r="9.92" xlink:href="#_鍊踑臇蜸馯鳺艜_198"/>
    <radialGradient id="_鍊踑臇蜸馯鳺艜_198-3" data-name="鍊踑臇蜸馯鳺艜 198" cx="156.35" cy="44.8" fx="156.35" fy="44.8" r="9.22" xlink:href="#_鍊踑臇蜸馯鳺艜_198"/>
    <radialGradient id="_鍊踑臇蜸馯鳺艜_404" data-name="鍊踑臇蜸馯鳺艜 404" cx="224.96" cy="515.35" fx="224.96" fy="515.35" r="2.95" gradientTransform="translate(142.5 -839.03) rotate(15.19) scale(1.14 1.65)" gradientUnits="userSpaceOnUse">
      <stop offset="0" stop-color="#2c6aff"/>
      <stop offset=".09" stop-color="#2458d5"/>
      <stop offset=".23" stop-color="#1b419d"/>
      <stop offset=".36" stop-color="#122d6d"/>
      <stop offset=".5" stop-color="#0c1d46"/>
      <stop offset=".63" stop-color="#061027"/>
      <stop offset=".76" stop-color="#030711"/>
      <stop offset=".89" stop-color="#000104"/>
      <stop offset="1" stop-color="#000"/>
    </radialGradient>
    <clipPath id="clippath">
      <rect class="cls-1" x="86.13" y="108.81" width="86.6" height="57.42"/>
    </clipPath>
    <radialGradient id="_鍊踑臇蜸馯鳺艜_25" data-name="鍊踑臇蜸馯鳺艜 25" cx="142.41" cy="164.11" fx="142.41" fy="164.11" r="17.29" gradientTransform="translate(39.71 -126.95) rotate(20.3)" gradientUnits="userSpaceOnUse">
      <stop offset="0" stop-color="#f4dbee"/>
      <stop offset="1" stop-color="#d1bde5"/>
    </radialGradient>
    <linearGradient id="_鍊踑臇蜸馯鳺艜_94" data-name="鍊踑臇蜸馯鳺艜 94" x1="122.53" y1="168.83" x2="143.04" y2="168.83" gradientTransform="translate(39.71 -126.95) rotate(20.3)" gradientUnits="userSpaceOnUse">
      <stop offset="0" stop-color="#9579a7"/>
      <stop offset="1" stop-color="#fff"/>
    </linearGradient>
    <radialGradient id="_鍊踑臇蜸馯鳺艜_436" data-name="鍊踑臇蜸馯鳺艜 436" cx="150.12" cy="224.22" fx="150.12" fy="224.22" r="18.43" gradientTransform="translate(39.71 -126.95) rotate(20.3)" gradientUnits="userSpaceOnUse">
      <stop offset="0" stop-color="#f4f1ff"/>
      <stop offset="1" stop-color="#d1bde5"/>
    </radialGradient>
    <radialGradient id="_鍊踑臇蜸馯鳺艜_25-2" data-name="鍊踑臇蜸馯鳺艜 25" cx="91.25" cy="180.72" fx="91.25" fy="180.72" r="18.87" xlink:href="#_鍊踑臇蜸馯鳺艜_25"/>
    <radialGradient id="_鍊踑臇蜸馯鳺艜_436-2" data-name="鍊踑臇蜸馯鳺艜 436" cx="104.14" cy="227.55" fx="104.14" fy="227.55" r="22.22" xlink:href="#_鍊踑臇蜸馯鳺艜_436"/>
    <linearGradient id="_鍊踑臇蜸馯鳺艜_36" data-name="鍊踑臇蜸馯鳺艜 36" x1="76.14" y1="207.86" x2="141.36" y2="207.86" gradientTransform="translate(39.71 -126.95) rotate(20.3)" gradientUnits="userSpaceOnUse">
      <stop offset="0" stop-color="#fff"/>
      <stop offset="1" stop-color="#9579a7"/>
    </linearGradient>
    <linearGradient id="_鍊踑臇蜸馯鳺艜_519" data-name="鍊踑臇蜸馯鳺艜 519" x1="110.13" y1="161.42" x2="110.13" y2="95.48" gradientTransform="translate(39.71 -126.95) rotate(20.3)" gradientUnits="userSpaceOnUse">
      <stop offset="0" stop-color="#d1bde5"/>
      <stop offset="1" stop-color="#fff"/>
    </linearGradient>
    <linearGradient id="_鍊踑臇蜸馯鳺艜_93" data-name="鍊踑臇蜸馯鳺艜 93" x1="116.72" y1="149.89" x2="116.72" y2="97.22" gradientTransform="translate(39.71 -126.95) rotate(20.3)" gradientUnits="userSpaceOnUse">
      <stop offset="0" stop-color="#007c7e"/>
      <stop offset="1" stop-color="#0f183b"/>
    </linearGradient>
    <linearGradient id="_鍊踑臇蜸馯鳺艜_36-2" data-name="鍊踑臇蜸馯鳺艜 36" x1="74.69" y1="141.94" x2="141.93" y2="141.94" xlink:href="#_鍊踑臇蜸馯鳺艜_36"/>
    <linearGradient id="_鍊踑臇蜸馯鳺艜_20" data-name="鍊踑臇蜸馯鳺艜 20" x1="90.69" y1="157.99" x2="90.69" y2="123" gradientTransform="translate(39.71 -126.95) rotate(20.3)" gradientUnits="userSpaceOnUse">
      <stop offset="0" stop-color="#d1bde5"/>
      <stop offset="1" stop-color="#f4dbee"/>
    </linearGradient>
    <linearGradient id="_鍊踑臇蜸馯鳺艜_36-3" data-name="鍊踑臇蜸馯鳺艜 36" x1="134.18" y1="247.34" x2="149.52" y2="247.34" xlink:href="#_鍊踑臇蜸馯鳺艜_36"/>
    <linearGradient id="_鍊踑臇蜸馯鳺艜_36-4" data-name="鍊踑臇蜸馯鳺艜 36" x1="89.66" y1="251.5" x2="104.11" y2="251.5" xlink:href="#_鍊踑臇蜸馯鳺艜_36"/>
    <clipPath id="clippath-1">
      <path class="cls-1" d="M127.98,53.11c-.06,.1-.12,.21-.19,.31-2.31,2.26-10.26,8.14-23.49,4.96-16.27-3.91-18.31-17.96-18.31-17.96l-3.17-.56c.09-2.07,.08-3.97,0-5.71h.01s27.03-25.59,50.48-4.99c.1,9.9-2.8,19.54-5.31,23.94Z"/>
    </clipPath>
    <radialGradient id="_鍊踑臇蜸馯鳺艜_217" data-name="鍊踑臇蜸馯鳺艜 217" cx="545.86" cy="-523.75" fx="545.86" fy="-523.75" r="5.6" gradientTransform="translate(-688.39 380.09) rotate(-.88) scale(1.47 .66)" gradientUnits="userSpaceOnUse">
      <stop offset="0" stop-color="#003cee"/>
      <stop offset=".06" stop-color="#0035d5"/>
      <stop offset=".2" stop-color="#00279d"/>
      <stop offset=".34" stop-color="#001b6d"/>
      <stop offset=".48" stop-color="#001146"/>
      <stop offset=".62" stop-color="#000927"/>
      <stop offset=".75" stop-color="#000411"/>
      <stop offset=".88" stop-color="#000104"/>
      <stop offset="1" stop-color="#000"/>
    </radialGradient>
    <linearGradient id="_鍊踑臇蜸馯鳺艜_36-5" data-name="鍊踑臇蜸馯鳺艜 36" x1="65.53" y1="188.03" x2="75.49" y2="188.03" xlink:href="#_鍊踑臇蜸馯鳺艜_36"/>
    <linearGradient id="_鍊踑臇蜸馯鳺艜_94-2" data-name="鍊踑臇蜸馯鳺艜 94" x1="158.09" y1="154.49" x2="164.15" y2="154.49" xlink:href="#_鍊踑臇蜸馯鳺艜_94"/>
  </defs>
  <g class="cls-176">
    <g id="_圖層_2" data-name="圖層 2">
      <g id="space">
        <g>
          <g>
            <ellipse class="cls-29" cx="154.85" cy="47.26" rx="17.52" ry="17.48" transform="translate(-1.04 90.97) rotate(-32.64)"/>
            <path class="cls-4" d="M156.68,54.18c-5.18,2.02-10.82-2.83-10.62-9.85,.2-7.02,11.74-7.82,16-5.01,4.26,2.81,2.64,11.73-5.39,14.86Z"/>
            <path class="cls-12" d="M156.68,54.18c-5.18,2.02-10.82-2.83-10.62-9.85,.2-7.02,11.74-7.82,16-5.01,4.26,2.81,2.64,11.73-5.39,14.86Z"/>
            <path class="cls-16" d="M162.64,46.14c0,4.03-3.27,7.3-7.3,7.3-1.11,0-2.16-.25-3.11-.69-.19-.09-.37-.18-.54-.28-.71-.41-1.34-.94-1.87-1.55-.19-.22-.37-.46-.54-.71-.22-.33-.42-.69-.59-1.06-.42-.92-.65-1.94-.65-3.01s.23-2.1,.65-3.01c.13-.29,.29-.58,.46-.85,.37-.59,.82-1.12,1.34-1.58h0c1.29-1.15,2.99-1.85,4.86-1.85,.6,0,1.18,.07,1.73,.21,.77,.19,1.5,.5,2.15,.91h0c.13,.08,.25,.16,.37,.25,.1,.07,.2,.15,.3,.23,.48,.38,.91,.82,1.28,1.31,.77,1.02,1.28,2.25,1.42,3.58,.03,.27,.05,.54,.05,.81Z"/>
            <g class="cls-175">
              <path class="cls-51" d="M155.8,37.81v.1c2.47,0,4.79,.56,6.21,1.5,1.64,1.08,2.46,3.17,2.2,5.58-.31,2.96-2.49,7.13-7.57,9.11-.77,.3-1.58,.45-2.39,.45-1.9,0-3.77-.84-5.25-2.37-1.9-1.95-2.94-4.81-2.85-7.85,.13-4.44,4.94-6.43,9.64-6.43v-.1h0Zm0,0c-4.62,0-9.6,1.93-9.74,6.53-.17,5.93,3.82,10.31,8.19,10.31,.8,0,1.62-.15,2.42-.46,8.03-3.13,9.65-12.05,5.39-14.86-1.47-.97-3.82-1.51-6.27-1.51h0Z"/>
            </g>
            <path class="cls-168" d="M151.37,38.22c-.99,.78-1.98,1.57-2.87,2.46-.88,.89-1.71,1.85-2.28,2.94-.57,1.09-.75,2.3-.54,3.48,.23,1.17,.74,2.32,1.34,3.39,1.19,2.13,3.24,3.82,5.61,4.61,1.18,.4,2.45,.57,3.69,.48,1.24-.07,2.46-.46,3.5-1.11,1.05-.66,1.9-1.57,2.54-2.61,.64-1.04,1.03-2.22,1.25-3.42,.22-1.21,.25-2.45,.16-3.68-.1-1.23-.29-2.46-.6-3.66-.27-1.18-.79-2.29-1.62-3.13-.83-.84-1.94-1.39-3.14-1.61-2.42-.42-5.04,.35-7.04,1.86Zm-.05-.06c1.01-.77,2.14-1.38,3.35-1.8,1.2-.42,2.5-.63,3.81-.51,1.3,.12,2.61,.64,3.59,1.58,.99,.93,1.59,2.2,1.9,3.46,.63,2.48,.86,5.12,.35,7.68-.25,1.27-.73,2.52-1.45,3.61-.72,1.1-1.71,2.01-2.84,2.64-1.13,.65-2.43,.95-3.7,1.02-1.28,.06-2.56-.14-3.78-.52-1.22-.38-2.39-.94-3.43-1.7-1.04-.76-1.96-1.71-2.65-2.82-.19-.27-.33-.56-.48-.84-.16-.28-.29-.58-.41-.88-.26-.59-.45-1.23-.57-1.88-.23-1.32,.09-2.73,.79-3.83,.7-1.11,1.62-2.01,2.57-2.85,.96-.83,1.96-1.6,2.96-2.38Z"/>
            <path class="cls-177" d="M162.49,51.99c.24-1.25,.56-2.49,.9-3.72,.33-1.23,.71-2.46,.83-3.72,.03-.31,.02-.63-.02-.94-.06-.3-.15-.61-.26-.9-.21-.6-.61-1.09-.95-1.64-.17-.28-.32-.56-.45-.85-.13-.29-.24-.6-.37-.88-.26-.57-.62-1.1-1.02-1.58-.81-.96-1.83-1.79-3.01-2.23-.59-.22-1.23-.33-1.85-.22-.31,.06-.61,.15-.9,.28-.29,.12-.57,.27-.83,.45-.52,.36-.85,.93-1.25,1.43-.39,.5-.86,.95-1.36,1.35-.49,.41-1.03,.76-1.57,1.1-.53,.34-1.03,.74-1.49,1.18-.91,.88-1.68,1.91-2.26,3.04-.57,1.13-.96,2.36-1.02,3.62-.06,1.26,.25,2.53,.92,3.59,.68,1.06,1.65,1.91,2.74,2.56,1.07,.67,2.23,1.21,3.46,1.5,1.23,.29,2.52,.29,3.76,.05,1.25-.23,2.43-.73,3.59-1.26,.58-.27,1.18-.49,1.75-.76,.27-.15,.59-.28,.76-.54,.05-.06,.05-.14,.05-.22-.02-.08-.05-.15-.08-.22-.07-.14-.13-.3-.1-.47Zm.02,0c-.03,.16,.03,.31,.1,.45,.04,.07,.07,.15,.09,.23,0,.08,0,.17-.05,.24-.18,.28-.49,.41-.77,.56-.58,.28-1.17,.5-1.75,.78-1.15,.54-2.33,1.06-3.59,1.31-1.25,.27-2.57,.29-3.83,.01-1.26-.27-2.44-.83-3.52-1.51-1.1-.66-2.1-1.53-2.79-2.62-.69-1.09-1.01-2.41-.94-3.7,.06-1.29,.47-2.54,1.06-3.68,.6-1.14,1.39-2.17,2.32-3.05,.47-.44,.97-.84,1.51-1.18,.54-.34,1.07-.69,1.57-1.09,.5-.39,.96-.83,1.36-1.33,.4-.49,.71-1.07,1.25-1.45,.26-.19,.55-.34,.84-.47,.29-.13,.6-.23,.92-.3,.64-.12,1.3-.01,1.91,.2,1.21,.44,2.25,1.27,3.08,2.24,.42,.49,.79,1.02,1.06,1.61,.26,.59,.48,1.18,.81,1.72,.32,.54,.73,1.06,.94,1.68,.11,.3,.2,.61,.26,.93,.03,.32,.04,.65,0,.97-.14,1.28-.54,2.5-.88,3.73-.35,1.22-.69,2.45-.95,3.7Z"/>
            <path class="cls-12" d="M156.81,54.25c-5.18,2.02-10.82-2.83-10.62-9.85s11.74-7.82,16-5.01c4.26,2.81,2.64,11.73-5.39,14.86Z"/>
            <path class="cls-18" d="M160.3,48.45c-.19,.22-.35,.43-.48,.7-.08,.17-.22,.41-.06,.57,.19,.18,.61-.1,.77-.26,.08-.07,.16-.15,.23-.23,.08-.09,.14-.18,.19-.29,.11-.26,.09-.53,.09-.81,0-.17,.03-.37,0-.53-.03-.15-.17-.38-.27-.5-.23-.28-.34,.02-.38,.24-.05,.26-.05,.51-.14,.76-.02,.06-.02,.12-.04,.18-.01,.04-.06,.07-.07,.1-.04,.1,0,.25,0,.36l.18-.28Z"/>
            <path class="cls-18" d="M161.36,46.01c-.03-.06-.17-.25-.05-.28,.05-.01,.14,.02,.18,.06,.11,.11,.1,.35,.1,.49,0,.13-.02,.2-.13,.09-.06-.06-.14-.18-.15-.27l.05-.09Z"/>
            <path class="cls-18" d="M159.05,49.56c-.09-.11-.14-.2-.27-.23-.07-.02-.17-.02-.24-.04-.29-.06-.57,.11-.83,.23-.23,.1-.49,.18-.73,.27-.29,.11-.53,.34-.7,.6-.21,.31-.38,.67-.51,1.02-.08,.2-.19,.53-.13,.75,.07,.23,.28,.35,.51,.36,.23,0,.47,.02,.7-.01,.12-.02,.24-.06,.36-.08,.1-.01,.2,0,.3,0,.1,0,.2-.04,.3-.05,.2-.01,.36-.09,.53-.18,.16-.09,.3-.25,.44-.37,.18-.16,.39-.32,.48-.54,.08-.18,.07-.36,.07-.56,0-.16,.02-.34,0-.49-.01-.07-.04-.13-.04-.2,0-.07,.01-.14,0-.2-.01-.12-.11-.2-.23-.26Z"/>
            <path class="cls-18" d="M158.87,48.5c.09-.11,.23-.29,.38-.15,.08,.07,.09,.25,.03,.32-.1,.14-.39-.01-.42-.17h0Z"/>
            <path class="cls-18" d="M151.83,43.68c.29-.22,.56-.49,.83-.75,.21-.2,.45-.39,.66-.59,.19-.18,.37-.44,.42-.7,.05-.25,.05-.47,0-.72-.05-.2-.08-.35-.24-.48-.16-.14-.32-.13-.53-.12-.27,0-.47,.1-.7,.22-.37,.2-.66,.47-1.01,.71-.31,.21-.47,.5-.33,.69-.18,.17-.3,.29-.4,.51-.15,.31-.24,.67-.24,1.01,0,.23,0,.47,.16,.65,.25,.27,.79-.04,1.03-.19,.1-.06,.19-.13,.29-.21,.13-.1,.28-.22,.46-.18,.2,.05,.36,.26,.26,.47-.14,.29-.44,.1-.58-.07l-.07-.24Z"/>
            <path class="cls-18" d="M154.85,39.82c-.07,.13-.13,.2-.04,.32,.09,.12,.22,.26,.36,.32,.13,.06,.32,.07,.46,.09,.25,.03,.5,0,.75,0,.22,0,.44,0,.66,0,.16,0,.33,.02,.48-.05,.27-.13,.42-.31,.3-.59-.28-.67-1.13-.84-1.77-.83-.26,0-.53-.02-.77,.09-.28,.12-.66,.34-.41,.65Z"/>
            <path class="cls-18" d="M158.55,41.16c.1-.17,.24-.3,.44-.19,.13,.08,.24,.24,.21,.4-.02,.1-.13,.18-.23,.2-.18,.03-.34-.15-.46-.27l.05-.14Z"/>
            <path class="cls-18" d="M159.52,47.34c-.12,.2-.14,.21-.14,.44,0,.11-.04,.33,.09,.39,.08,.04,.14,0,.2-.04,.09-.05,.16-.11,.2-.21,.06-.14,.1-.31,.07-.46-.04-.26-.26-.16-.42-.02v-.09Z"/>
            <path class="cls-18" d="M153.61,51.5c-.16,.01-.52-.04-.65,.13-.05,.08-.09,.13-.1,.22-.03,.27,.17,.5,.37,.65,.32,.23,.83,.37,1.18,.12,.26-.19,.29-.58,.04-.78-.19-.15-.66-.46-.9-.3l.05-.05Z"/>
            <path class="cls-18" d="M154.76,51.08c.15,.19,.18,.23,.37,.13,.07-.04,.12-.04,.14-.13,0-.03,0-.14,0-.16-.05-.07-.17-.08-.25-.07-.11,0-.19,.06-.21,.19l-.05,.05Z"/>
            <path class="cls-178" d="M156.31,37.3c-2.38,.32-4.82,.49-7.1,1.23-.56,.19-1.11,.43-1.59,.76-.48,.32-.89,.76-1.09,1.29-.11,.26-.16,.54-.18,.83-.03,.29-.05,.59-.04,.88,0,.59,.08,1.17,.26,1.73,.34,1.13,1.06,2.11,1.74,3.1,.35,.49,.69,.99,1.02,1.5,.17,.25,.32,.52,.5,.75l.26,.36c.1,.11,.2,.22,.3,.33,.82,.86,1.9,1.47,3.04,1.83,1.14,.38,2.34,.52,3.54,.52,2.4-.03,4.74-.72,6.86-1.82,.27-.13,.52-.29,.78-.43,.26-.15,.49-.32,.73-.49,.45-.36,.86-.79,.96-1.31,.11-.52-.09-1.09-.29-1.65-.21-.56-.42-1.13-.6-1.72-.35-1.19-.43-2.4-.66-3.57-.12-.58-.26-1.16-.51-1.69-.05-.14-.14-.26-.2-.39-.07-.13-.14-.26-.23-.37-.09-.11-.17-.23-.27-.34l-.32-.3c-.1-.11-.23-.18-.35-.26-.13-.07-.24-.17-.37-.23l-.4-.18-.2-.09-.21-.06c-.57-.18-1.16-.27-1.76-.33-.3-.02-.6-.04-.9-.05l-.9,.02c-.6,.01-1.2,.09-1.8,.14Zm0-.04c1.2-.13,2.4-.26,3.61-.18,.6,.03,1.21,.1,1.8,.26l.22,.05,.21,.08,.43,.17c.14,.06,.27,.15,.41,.22,.13,.08,.27,.15,.39,.26l.36,.3c.11,.11,.2,.24,.3,.36,.11,.12,.19,.25,.27,.38,.07,.14,.17,.26,.23,.41,.27,.56,.43,1.16,.57,1.75,.27,1.19,.34,2.4,.68,3.53,.17,.57,.39,1.12,.6,1.69,.2,.56,.44,1.19,.3,1.87-.14,.68-.64,1.16-1.12,1.54-.26,.17-.51,.36-.78,.5-.27,.14-.53,.31-.81,.43-2.17,1.1-4.59,1.73-7.02,1.71-1.22-.02-2.43-.21-3.58-.6-1.15-.38-2.23-1-3.09-1.87-.1-.11-.22-.22-.32-.33l-.27-.37c-.19-.24-.34-.5-.51-.74-.35-.49-.7-.98-1.06-1.46-.71-.97-1.48-1.94-1.87-3.13-.19-.59-.28-1.21-.29-1.83,0-.31,0-.62,.04-.92,.02-.31,.09-.63,.21-.92,.12-.3,.3-.57,.51-.81,.21-.23,.46-.43,.72-.6,.52-.34,1.1-.56,1.69-.74,1.17-.34,2.37-.5,3.57-.64l3.59-.39Z"/>
            <path class="cls-18" d="M166.67,49.72c-.09,.04-.15,.05-.2,.12-.04,.05-.06,.11-.06,.18,0,.06,0,.14,.04,.18,.05,.05,.16,.07,.22,.08,.35,.07,.78-.09,.94-.42,.04-.07,.07-.16,.08-.24,.01-.07,0-.1-.03-.16-.05-.08-.11-.14-.12-.24-.02-.25,.2-.52,.12-.77-.05-.14-.1-.28-.27-.24-.18,.04-.32,.21-.42,.36-.07,.11-.13,.22-.17,.35-.03,.11-.05,.22-.09,.32-.04,.1-.08,.19-.12,.28-.07,.16-.11,.28,.07,.2Z"/>
            <path class="cls-18" d="M167.2,47.69c-.02-.06-.07-.24,.05-.23,.09,0,.16,.15,.18,.24,.03,.15-.21,.15-.2,.05l-.02-.05Z"/>
            <path class="cls-18" d="M167.25,51.37c.11,0,.22,0,.33,.02,0,.03,0,.06,.01,.09,.02,.08,0,.17-.03,.25-.04,.13-.14,.26-.26,.33-.21,.12-.43,.02-.6-.11-.13-.11-.26-.32-.1-.46,.12-.1,.26-.16,.41-.21,.07-.02,.24-.09,.3-.02l-.07,.12Z"/>
            <path class="cls-18" d="M145.13,40.97c-.11,.05-.17,.05-.21,.16-.05,.15-.07,.33-.07,.49,0,.28,.06,.55,.21,.79,.02,.04,.07,.11,.12,.12,.06,.01,.15-.08,.19-.11,.15-.13,.26-.27,.36-.44,.1-.17,.11-.35,.09-.54-.02-.12-.05-.24-.07-.36-.01-.08-.03-.16-.06-.23-.04-.09-.1-.21-.22-.18-.1,.02-.22,.11-.29,.16-.12,.09-.17,.21-.03,.16Z"/>
            <path class="cls-18" d="M145.06,43.37s-.02-.08-.02-.12c.08-.05,.13-.06,.22,0,.07,.04,.14,.13,.09,.21-.04,.07-.12,.12-.2,.09-.08-.03-.18-.11-.16-.22l.07,.05Z"/>
            <path class="cls-18" d="M144.42,45.68c-.04,.07-.09,.21,0,.28,.02,.02,.07,.03,.1,.02,.04,0,.05-.04,.07-.07,.07-.09,.17-.2,.16-.32,0-.08-.03-.27-.15-.24-.14,.03-.17,.32-.17,.41v-.09Z"/>
            <path class="cls-18" d="M145.69,51.57c.07,.12,.17,.21,.27,.31,.05,.05,.15,.15,.23,.11,.06-.03,.08-.17,.07-.23-.01-.09-.08-.21-.14-.28-.07-.08-.22-.17-.32-.13-.07,.03-.12,.06-.12,.15v.07Z"/>
            <path class="cls-18" d="M147.16,50.6c.15,.29,.38,.56,.65,.74,.05,.03,.13,.08,.18,.02,.07-.07-.01-.19-.04-.26-.11-.24-.25-.46-.39-.68-.07-.12-.16-.23-.21-.35-.06-.13-.14-.25-.2-.38-.06-.11-.12-.22-.18-.33-.02-.04-.08-.13-.13-.15-.06-.02-.12,.05-.13,.1-.04,.1-.03,.21-.01,.31,.02,.12,.06,.23,.11,.35,.05,.12,.08,.24,.14,.35,.07,.11,.13,.24,.21,.34,.05,.07,.11,.15,.17,.22,.07,.07,.15,.13,.23,.2l-.39-.48Z"/>
            <path class="cls-18" d="M161.66,53.99c.11-.02,.28-.11,.36,.02,.05,.1,.03,.18-.01,.28-.07,.19-.19,.37-.41,.37-.15,0-.38-.07-.38-.25,0-.11,.07-.18,.16-.24,.1-.06,.23-.14,.35-.16l-.07-.02Z"/>
            <path class="cls-3" d="M169.64,49.08c-.7,2.59-2.72,4.3-4.5,3.81-1.78-.48-2.66-2.98-1.96-5.56,.7-2.59,2.72-4.3,4.5-3.81,1.78,.48,2.66,2.98,1.96,5.56Z"/>
          </g>
          <g id="Group_5010" data-name="Group 5010">
            <g class="cls-2">
              <g id="Group_1066" data-name="Group 1066">
                <path id="Path_1084" data-name="Path 1084" class="cls-59" d="M88.24,112.46c4.06-.85,8.07,.28,11.89,1.64,3.22,1.14,6.43,2.38,9.56,3.77,5.65,2.51,11.35,5.65,15.29,10.54,4.53,5.64,4.63,13.17,8.15,19.33,3.17,5.55,8.18,10.01,13.81,12.96,7.43,3.9,15.84,5.32,24.16,5.52,2.17,.05,2.17-3.32,0-3.38-14.15-.34-30.41-5.27-36.38-19.48-1.53-3.63-2.11-7.59-3.64-11.22-1.21-2.85-2.93-5.45-5.08-7.67-4.27-4.47-9.85-7.47-15.46-9.9-7.11-3.07-15.29-7.03-23.19-5.37-2.13,.45-1.23,3.7,.9,3.26"/>
              </g>
            </g>
          </g>
          <g>
            <path class="cls-59" d="M18.74,123.46c-3.58,0-7.34-1-11.34-3.63-8.92-5.85-9.1-18.06-4.16-26,5.05-8.12,16.79-14.16,33.24-4.47,27.87,16.42,37.26,7.66,37.35,7.57l2.15,2.09c-.43,.45-10.82,10.71-41.02-7.08-14.57-8.59-24.63-3.84-29.17,3.47-4.2,6.75-4.15,17.05,3.25,21.91,9.19,6.03,16.94,2.12,25.15-2.02,3.3-1.67,6.72-3.39,10.25-4.45,12.64-3.79,21.76,2.77,22.15,3.05l-1.77,2.42c-.08-.06-8.34-5.94-19.51-2.6-3.28,.98-6.58,2.64-9.76,4.25-5.37,2.71-10.86,5.48-16.81,5.48Z"/>
            <path class="cls-20" d="M41.12,148.58s-6.46,7.67-12.52,5.23l12.52-5.23Z"/>
            <path class="cls-11" d="M135.58,79.22c-2.17,5.85-15.52,13-22.97,11.94-.33-.04-.66-.12-.99-.2-4.48-1.19-7.77-5.81-9.5-8.87-.92-1.62-1.41-2.8-1.41-2.8l-.23-14.87s.19,.04,.53,.12c1.03,.26,3.43,.94,5.71,2.18,3.01,1.64,13.33,3.73,18.67,2.53,5.34-1.19,7.26-2.9,8.55-2.72,1.3,.18,2.3,2.35,2.3,2.35,0,0,1.63,4.15-.65,10.32Z"/>
            <path class="cls-22" d="M136.23,68.9s-2.26-.83-3.15,.57c-.9,1.4-2.09,9.94,2.5,9.75,4.59-.19,.65-10.32,.65-10.32h0Z"/>
            <path class="cls-19" d="M135.06,69.41s-.72,4.57,1.9,8.43c0,0,2.23-5.62-1.9-8.43Z"/>
            <path class="cls-21" d="M145.79,69.04c-1.44,3.03-3.85,5.02-5.86,6.25-1.94,1.19-3.5,1.66-3.5,1.66,0,0-1.8-2.47-1.44-5.74,0,0,.24-.56,.64-1.37,.88-1.8,2.52-4.86,3.99-5.91l.1,2.11s1.71-2.98,6.32-2.79c0,0,2.25,.58-.23,5.8Z"/>
            <path class="cls-50" d="M119.52,69.54s-2.66,3.79-2.95,11.72c-.29,7.93,5.12,8.46,5.12,8.46,0,0-3.18,1.26-5.48,1.4,0,0-12.87-3.19-1.65-22.17l4.96,.59Z"/>
            <path class="cls-25" d="M102.12,82.09c-.19,1.16-.43,2.37-.73,3.64l-4.55-8.1,2.77-13.3,1.34,.07s.04,.09,.06,.14c1.03,.26,3.43,.94,5.71,2.18,0,0-9.98,9.81,4.89,24.22t.01,.01c-4.48-1.19-7.77-5.81-9.5-8.87Z"/>
            <path class="cls-17" d="M95.46,153.34s-2.6-4.83-15.02-3.6c0,0,4.87,6.08,15.02,3.6Z"/>
            <path class="cls-17" d="M38.21,135.59s7.99-.01,12.1,9c0,0-3.47,1.43-7.81-1.11-4.34-2.55-4.3-7.89-4.3-7.89Z"/>
            <path class="cls-14" d="M86.64,156.28l-5.78-2.14s.09-1.49,.15-3.87c.16-6.01,.15-17.62-1.87-24.81h0s21.14-12.93,21.14-12.93c0,0,.1,1.42,.21,3.66,.32,6.51,2.72,19.63,1.3,24.84-1.91,6.98-15.15,15.25-15.15,15.25Z"/>
            <path class="cls-20" d="M100.28,112.54s-7.12,9.59-20.17,13.05l-.97-.12-5.22-.66s0-.02,0-.05c0-.02,0-.05,0-.09,0-.02,0-.05,0-.08,0-.03,0-.06,0-.1-.04-2.32-.76-16.86-11.39-29.66,0,0,.97-1.03,3-4,.18-.28,.38-.57,.59-.87,.94-1.41,2.06-3.19,3.38-5.39,2.89-4.82,7.73-12.66,11.07-18.04h0c1-1.63,1.87-3.02,2.52-4.05,.24-.39,.45-.73,.63-1,.34-.56,.53-.86,.53-.86,0,0,10.62,5.14,16.46,3.22,0,0,.1,.19,.25,.58,.02,.05,.04,.09,.06,.14,.78,2.01,2.65,8.13,1.11,17.54-.19,1.16-.43,2.37-.73,3.64-.11,.45-.22,.9-.34,1.36,0,0,1.72,10.55-.09,21.93-.19,1.17-.41,2.35-.67,3.52Z"/>
            <path class="cls-13" d="M80.77,75.79h0c-.2,.36-.42,.71-.64,1.08-3.49,5.67-8.9,11.23-14.6,13.96-3.49,1.68-7.09,2.29-10.42,1.23-7.44-2.37-10.61-8.53-11.39-10.34-.02-.06-.05-.12-.07-.17-.02-.06-.04-.11-.06-.15-.05-.12-.07-.19-.07-.19,0,0-2.41-1.65-1.47-4.39,.94-2.75,3.44-6.65,3.44-6.65l1.46-.07s.91-1.84,2.91-1.79c2,.06,6.29,1.8,12.44,.45,5.4-1.18,13.52-4.45,16.26-5.87,.38-.2,.66-.36,.81-.48,1.21-.96,2.97-1.38,2.97-1.38l.83,.26,.55,.17,1.69,.53s1.04,4.19-4.63,13.8Z"/>
            <path class="cls-23" d="M73.92,124.81s-11.82,10.34-14.66,13.13c-2.84,2.79-11.17,6.95-15.47,7.55-.11,.02-.22,.03-.32,.03-4.07,.42-5.74-2.27-5.74-2.27,0,0,.1-.82,.28-2.12,.24-1.72,.6-4.27,1.02-6.81,.55-3.39,1.21-6.75,1.77-8.11,.97-2.32,12.36-18.35,18.24-26.56,2.08-2.9,3.47-4.83,3.47-4.83,11.49,8.7,11.47,27.06,11.39,29.66,0,.04,0,.07,0,.1,0,.03,0,.06,0,.08,0,.04,0,.06,0,.09,0,.03,0,.05,0,.05Z"/>
            <path class="cls-19" d="M86.34,62.24s5.37,4.06,7.55,4.72c2.17,.65,6.82-3.13,6.82-3.13,0,0-5.1,.67-14.36-1.58Z"/>
            <path class="cls-19" d="M82.32,61.04s.09,17.54-13.82,28.45c0,0,12.63-7.63,17.83-27.24l-4.01-1.21Z"/>
            <path class="cls-19" d="M99.61,64.33s2.46,13.19,1.44,22.76c0,0,3.72-10.6,1.29-22.17l-1.63-1.09-1.09,.5Z"/>
            <path class="cls-19" d="M60.4,97.79s7.96,5.73,11.61,28.69l1.91-1.67s1.16-22.3-11.38-29.98l-2.13,2.96Z"/>
            <path class="cls-19" d="M100.95,109.04s-10.16,14.2-21.81,16.43l.36,1.4s11.92-.62,20.94-11.71l.52-6.12Z"/>
            <path class="cls-22" d="M43.51,81.21s-2.41-1.65-1.47-4.39c.94-2.75,3.44-6.65,3.44-6.65l1.46-.07s4.86,6.85-3.43,11.1Z"/>
            <path class="cls-19" d="M42.8,78.76s4.79-4.49,2.68-8.59c0,0-4.49,6.75-2.68,8.59Z"/>
            <path class="cls-21" d="M45.89,73.19s.27-3.98-2.88-5.95l-.64,1.72s-3.87-4.38-8.1-2.52c0,0-.57,7.9,9.21,11.66,0,0,1.95-1.68,2.41-4.92Z"/>
            <path class="cls-50" d="M44.14,120.92s-1.91,5.37,4.76,10.77c6.67,5.41,12.95,3.83,12.95,3.83,0,0-3.12,3.18-5.3,4.49-2.17,1.31-13.15-3.03-16.74-9.94,0,0,.41-2.95,1.3-4.43,.89-1.48,3.03-4.72,3.03-4.72Z"/>
            <path class="cls-50" d="M80.62,134.42s4.36,4.84,9.92,7.5c5.56,2.66,10.65,.86,10.65,.86,0,0-1.97,3.59-4.37,5.52,0,0-6.74-.45-10.19-2.63s-5.67-6.09-5.67-6.09l-.33-5.16Z"/>
            <path class="cls-50" d="M63.89,68.38s9.18,12.52-3.83,24.11c0,0,2.65-.19,5.11-1.49,3.75-1.79,13.59-18.51,3.01-23.98l-4.28,1.36Z"/>
            <path class="cls-169" d="M79.24,125.55l-.19-.16c.08-.1,8.5-10.08,11.45-18.05,2.55-6.91,2.78-10.68,3.1-15.9,.12-1.97,.26-4.21,.54-6.87,1.01-9.35,.59-17.16,.59-17.23h.25c0,.06,.43,7.89-.59,17.26-.29,2.65-.42,4.89-.54,6.86-.32,5.24-.55,9.03-3.11,15.97-2.96,8.02-11.41,18.03-11.5,18.13Z"/>
            <path class="cls-26" d="M81.48,150.45l-.47-.17c.16-6.01,.15-17.62-1.87-24.81l-5.22-.66s-11.82,10.34-14.66,13.13c-2.84,2.79-11.17,6.95-15.47,7.55-.11,.02-.22,.03-.32,.03l-5.45-4.39c.24-1.72,.6-4.27,1.02-6.81l.5-.13s5.62,6.77,12.25,6.38c6.63-.38,17.84-15.83,17.7-18.68-.54-10.67-6.9-18.62-10.43-22.24,2.08-2.9,3.47-4.83,3.47-4.83,0,0,.97-1.03,3-4-3.49,1.68-7.09,2.29-10.42,1.23-7.44-2.37-10.61-8.53-11.39-10.34,.89,1.91,4.86,8.91,15.91,9.67,2.34,.17,4.52-.39,6.49-1.44,8.84-4.64,13.94-18.96,14.38-22.03,.07-.52,.09-.98,.06-1.4h0c-.17-2.67-2.02-3.62-2.02-3.62,.38-.2,.66-.36,.81-.48,1.21-.96,2.97-1.38,2.97-1.38l.83,.26c-.02,.29-.04,.69-.08,1.17-.2,2.65-.76,7.88-2.31,13.32h0c-.94,3.36-2.26,6.8-4.09,9.77-6.08,9.89-8.05,11.53-8.05,11.53,0,0,4.52,16.48,8.98,20.57,4.47,4.09,16.98-2.27,20.16-5.44,1.51-1.5,2.52-2.54,3.18-3.2-.19,1.17-.41,2.35-.67,3.52,0,0,.1,1.42,.21,3.66-3.14,3.35-13.85,14.97-15.89,19.68-2.4,5.54-3.12,14.57-3.12,14.57Z"/>
            <path class="cls-24" d="M82.32,61.03s2.27,9.55,11.03,15.3c8.76,5.75,11.53-10.52,11.53-10.52l-2.56-.9-1.39-.52-18.62-3.37Z"/>
            <path class="cls-15" d="M127.98,53.11c-.06,.1-.12,.21-.19,.31-.91,1.4-2.59,2.95-4.8,4.39,0,0-.13,.09-.38,.24-4.1,2.6-9.91,4.85-15.99,5.48-9.86,1.01-24.38-.45-33.52-7.41-9.13-6.95-12.11-26.59-9.35-32.72,.74-1.64,1.78-3.82,3.22-6.19,3.89-6.45,10.61-14.3,21.59-16.49,8.3-1.66,19.35-.27,27.71,2.48,2.61,.86,4.94,1.85,6.86,2.93,1.3,.73,2.41,1.5,3.26,2.29l.35,.34c.25,.24,.46,.49,.65,.73,10.28,13.28,4.87,36.1,.58,43.62Z"/>
            <path class="cls-179" d="M126.63,51.64c-.06,.1-.11,.2-.18,.29-2.17,2.12-9.62,7.63-22.03,4.65-15.26-3.67-17.18-16.85-17.18-16.85l-2.98-.52c.08-1.94,.07-3.72,0-5.35-.41-9.15-2.92-13.58-2.82-14.9,.12-1.56,3.82-10.29,14.95-13.83,7.38-2.34,14.33-1.57,19.27-.31,2.45,.81,4.64,1.74,6.43,2.75,1.22,.68,2.26,1.41,3.06,2.15l.33,.32c.23,.22,.43,.46,.61,.68,4,5.17,5.46,11.88,5.52,18.46,.09,9.29-2.63,18.32-4.98,22.45Z"/>
            <path class="cls-8" d="M122.61,58.05c-4.1,2.6-9.91,4.85-15.99,5.48-9.86,1.01-24.38-.45-33.52-7.41-9.13-6.95-12.11-26.59-9.35-32.72,.74-1.64,1.78-3.82,3.22-6.19,1.34-1.29,2.98-2.03,4.98-1.61,7.35,1.52,8.54,25.54,8.54,25.54l3.6-.19s1.88,13.81,16.33,18.83c12.64,4.39,20.42-.71,22.19-1.73Z"/>
            <path class="cls-10" d="M69.13,51.78c3.47,3.21,9.92,2.09,10.97-10.15,1.04-12.29-5.55-24.37-5.55-24.37,10.14,1.35,8.26,22.61,8.26,22.61-.21,.9-.43,1.74-.66,2.52l-.02,.09c-4.78,16.65-12.34,9.92-13,9.31Z"/>
            <path class="cls-19" d="M63.2,25.15c1.15-4.16,3.83-6.93,6.22-6.81,2.39,.13,8.51,10.98,6.86,23.07s-9.27,8-10.7,3.37l-.85-2.53s5.69,7.79,8.92,.47c3.69-8.36-3.01-19.32-6.66-17.96-3.65,1.36-4.07,8.22-4.07,8.22,0,0-.48-5.07,.28-7.83Z"/>
            <path class="cls-22" d="M79.46,155.52l.92-1.55,.05-4.22s8.72,4.23,15.03,3.59c0,0-3.13,2.97-8.16,3.82,0,0,4.93,2.43,4.58,7.73l-12.42-9.37Z"/>
            <path class="cls-22" d="M50.28,144.59l-8.54,2.31-.62,1.68s-5.13,5.49-12.52,5.22c0,0,1.29-6.2,8.43-9.19l1.17-9.03s.9,3.58,4.05,6.58c3.01,2.86,7.61,2.47,8.02,2.42Z"/>
            <polygon class="cls-20" points="79.45 155.52 78.58 156.25 91.37 165.71 91.88 164.89 79.45 155.52"/>
            <path class="cls-9" d="M95.46,153.34s-3.13,2.97-8.16,3.82c0,0-5.42-1.66-7.84-1.64l.92-1.55,.05-4.22s8.72,4.23,15.03,3.59Z"/>
            <path class="cls-6" d="M50.28,144.59l-8.54,2.31c-2.8-.57-4.71-2.28-4.71-2.28l1.17-9.03s.9,3.58,4.05,6.58c3.01,2.86,7.61,2.47,8.02,2.42Z"/>
            <path class="cls-49" d="M86.66,18.97s.13-3.61,.52-4.69c0,0,2.36-1.97,5.28-2.72l1.99,6.43s-6.1,.49-7.79,.98Z"/>
            <path class="cls-49" d="M89.79,42.22s.72,3.09,2.09,4.95l1.8-.97s-1.31-2.8-1.88-4.48l-2.02,.51Z"/>
            <g class="cls-28">
              <g class="cls-174">
                <rect x="82.8" y="8.58" width="50.59" height="52.99"/>
                <ellipse cx="111.72" cy="21.42" rx="27.67" ry="19.51" transform="translate(-.48 2.67) rotate(-1.37)"/>
                <ellipse class="cls-48" cx="111.72" cy="21.42" rx="27.47" ry="19.37" transform="translate(-.48 2.67) rotate(-1.37)"/>
                <ellipse class="cls-32" cx="111.72" cy="21.42" rx="27.28" ry="19.23" transform="translate(-.48 2.67) rotate(-1.37)"/>
                <ellipse class="cls-33" cx="111.72" cy="21.42" rx="27.08" ry="19.09" transform="translate(-.48 2.67) rotate(-1.37)"/>
                <ellipse class="cls-35" cx="111.72" cy="21.42" rx="26.88" ry="18.95" transform="translate(-.48 2.67) rotate(-1.37)"/>
                <ellipse class="cls-34" cx="111.72" cy="21.42" rx="26.68" ry="18.81" transform="translate(-.48 2.67) rotate(-1.37)"/>
                <ellipse class="cls-45" cx="111.72" cy="21.42" rx="26.48" ry="18.67" transform="translate(-.48 2.67) rotate(-1.37)"/>
                <ellipse class="cls-46" cx="111.72" cy="21.42" rx="26.28" ry="18.53" transform="translate(-.48 2.67) rotate(-1.37)"/>
                <ellipse class="cls-47" cx="111.72" cy="21.42" rx="26.08" ry="18.39" transform="translate(-.48 2.67) rotate(-1.37)"/>
                <ellipse class="cls-37" cx="111.72" cy="21.42" rx="25.88" ry="18.25" transform="translate(-.48 2.67) rotate(-1.37)"/>
                <ellipse class="cls-38" cx="111.72" cy="21.42" rx="25.68" ry="18.11" transform="translate(-.48 2.67) rotate(-1.37)"/>
                <ellipse class="cls-36" cx="111.72" cy="21.42" rx="25.48" ry="17.97" transform="translate(-.48 2.67) rotate(-1.37)"/>
                <ellipse class="cls-30" cx="111.72" cy="21.42" rx="25.28" ry="17.83" transform="translate(-.48 2.67) rotate(-1.37)"/>
                <ellipse class="cls-31" cx="111.72" cy="21.42" rx="25.09" ry="17.69" transform="translate(-.48 2.67) rotate(-1.37)"/>
                <path class="cls-42" d="M136.6,20.82c.23,9.69-10.72,17.81-24.46,18.13-13.74,.33-25.07-7.26-25.3-16.95S97.56,4.21,111.3,3.88s25.07,7.26,25.3,16.95Z"/>
                <ellipse class="cls-43" cx="111.72" cy="21.42" rx="24.69" ry="17.4" transform="translate(-.48 2.67) rotate(-1.37)"/>
                <ellipse class="cls-44" cx="111.72" cy="21.42" rx="24.49" ry="17.26" transform="translate(-.48 2.67) rotate(-1.37)"/>
                <ellipse class="cls-41" cx="111.72" cy="21.42" rx="24.29" ry="17.12" transform="translate(-.48 2.67) rotate(-1.37)"/>
                <ellipse class="cls-40" cx="111.72" cy="21.42" rx="24.09" ry="16.98" transform="translate(-.48 2.67) rotate(-1.37)"/>
                <ellipse class="cls-39" cx="111.72" cy="21.42" rx="23.89" ry="16.84" transform="translate(-.48 2.67) rotate(-1.37)"/>
                <ellipse class="cls-102" cx="111.72" cy="21.42" rx="23.69" ry="16.7" transform="translate(-.48 2.67) rotate(-1.37)"/>
                <path class="cls-103" d="M135.21,20.86c.22,9.14-10.12,16.81-23.09,17.12-12.97,.31-23.66-6.85-23.88-16-.22-9.14,10.12-16.81,23.09-17.12,12.97-.31,23.66,6.85,23.88,16Z"/>
                <ellipse class="cls-104" cx="111.72" cy="21.42" rx="23.29" ry="16.42" transform="translate(-.48 2.67) rotate(-1.37)"/>
                <ellipse class="cls-99" cx="111.72" cy="21.42" rx="23.09" ry="16.28" transform="translate(-.48 2.67) rotate(-1.37)"/>
                <ellipse class="cls-98" cx="111.72" cy="21.42" rx="22.9" ry="16.14" transform="translate(-.48 2.67) rotate(-1.37)"/>
                <ellipse class="cls-96" cx="111.72" cy="21.42" rx="22.7" ry="16" transform="translate(-.48 2.67) rotate(-1.37)"/>
                <ellipse class="cls-97" cx="111.72" cy="21.42" rx="22.5" ry="15.86" transform="translate(-.48 2.67) rotate(-1.37)"/>
                <ellipse class="cls-95" cx="111.72" cy="21.42" rx="22.3" ry="15.72" transform="translate(-.48 2.67) rotate(-1.37)"/>
                <ellipse class="cls-133" cx="111.72" cy="21.42" rx="22.1" ry="15.58" transform="translate(-.48 2.67) rotate(-1.37)"/>
                <ellipse class="cls-132" cx="111.72" cy="21.42" rx="21.9" ry="15.44" transform="translate(-.48 2.67) rotate(-1.37)"/>
                <ellipse class="cls-134" cx="111.72" cy="21.42" rx="21.7" ry="15.3" transform="translate(-.48 2.67) rotate(-1.37)"/>
                <ellipse class="cls-90" cx="111.72" cy="21.42" rx="21.5" ry="15.16" transform="translate(-.48 2.67) rotate(-1.37)"/>
                <path class="cls-92" d="M133.02,20.91c.2,8.29-9.18,15.24-20.94,15.52-11.76,.28-21.46-6.21-21.66-14.51-.2-8.29,9.18-15.24,20.94-15.52,11.76-.28,21.46,6.21,21.66,14.51Z"/>
                <ellipse class="cls-91" cx="111.72" cy="21.42" rx="21.1" ry="14.88" transform="translate(-.48 2.67) rotate(-1.37)"/>
                <path class="cls-88" d="M132.62,20.92c.19,8.14-9.01,14.96-20.55,15.23-11.54,.28-21.06-6.1-21.25-14.24-.19-8.14,9.01-14.96,20.55-15.23,11.54-.28,21.06,6.1,21.25,14.24Z"/>
                <path class="cls-89" d="M132.42,20.92c.19,8.06-8.92,14.81-20.35,15.09-11.43,.27-20.86-6.04-21.05-14.1-.19-8.06,8.92-14.81,20.35-15.09,11.43-.27,20.86,6.04,21.05,14.1Z"/>
                <ellipse class="cls-109" cx="111.72" cy="21.42" rx="20.51" ry="14.46" transform="translate(-.48 2.67) rotate(-1.37)"/>
                <ellipse class="cls-108" cx="111.72" cy="21.42" rx="20.31" ry="14.32" transform="translate(-.48 2.67) rotate(-1.37)"/>
                <ellipse class="cls-110" cx="111.72" cy="21.42" rx="20.11" ry="14.18" transform="translate(-.48 2.67) rotate(-1.37)"/>
                <ellipse class="cls-124" cx="111.72" cy="21.42" rx="19.91" ry="14.04" transform="translate(-.48 2.67) rotate(-1.37)"/>
                <ellipse class="cls-135" cx="111.72" cy="21.42" rx="19.71" ry="13.9" transform="translate(-.48 2.67) rotate(-1.37)"/>
                <ellipse class="cls-118" cx="111.72" cy="21.42" rx="19.51" ry="13.76" transform="translate(-.48 2.67) rotate(-1.37)"/>
                <path class="cls-119" d="M131.03,20.96c.18,7.52-8.32,13.82-18.98,14.07s-19.45-5.63-19.63-13.15c-.18-7.52,8.32-13.82,18.98-14.07,10.66-.25,19.45,5.63,19.63,13.15Z"/>
                <ellipse class="cls-120" cx="111.72" cy="21.42" rx="19.11" ry="13.47" transform="translate(-.48 2.67) rotate(-1.37)"/>
                <ellipse class="cls-115" cx="111.72" cy="21.42" rx="18.91" ry="13.33" transform="translate(-.48 2.67) rotate(-1.37)"/>
                <path class="cls-113" d="M130.43,20.97c.17,7.28-8.06,13.39-18.39,13.64-10.33,.25-18.85-5.46-19.02-12.74s8.06-13.39,18.39-13.64c10.33-.25,18.85,5.46,19.02,12.74Z"/>
                <path class="cls-114" d="M130.23,20.98c.17,7.21-7.98,13.25-18.2,13.49s-18.65-5.4-18.82-12.61c-.17-7.21,7.98-13.25,18.2-13.49,10.22-.24,18.65,5.4,18.82,12.61Z"/>
                <ellipse class="cls-112" cx="111.72" cy="21.42" rx="18.32" ry="12.91" transform="translate(-.48 2.67) rotate(-1.37)"/>
                <ellipse class="cls-111" cx="111.72" cy="21.42" rx="18.12" ry="12.77" transform="translate(-.48 2.67) rotate(-1.37)"/>
                <ellipse class="cls-60" cx="111.72" cy="21.42" rx="17.92" ry="12.63" transform="translate(-.48 2.67) rotate(-1.37)"/>
                <ellipse class="cls-93" cx="111.72" cy="21.42" rx="17.72" ry="12.49" transform="translate(-.48 2.67) rotate(-1.37)"/>
                <ellipse class="cls-94" cx="111.72" cy="21.42" rx="17.52" ry="12.35" transform="translate(-.48 2.67) rotate(-1.37)"/>
                <ellipse class="cls-61" cx="111.72" cy="21.42" rx="17.32" ry="12.21" transform="translate(-.48 2.67) rotate(-1.37)"/>
                <ellipse class="cls-77" cx="111.72" cy="21.42" rx="17.12" ry="12.07" transform="translate(-.48 2.67) rotate(-1.37)"/>
                <ellipse class="cls-106" cx="111.72" cy="21.42" rx="16.92" ry="11.93" transform="translate(-.48 2.67) rotate(-1.37)"/>
                <ellipse class="cls-107" cx="111.72" cy="21.42" rx="16.72" ry="11.79" transform="translate(-.48 2.67) rotate(-1.37)"/>
                <path class="cls-105" d="M128.24,21.02c.15,6.43-7.12,11.82-16.24,12.04s-16.64-4.82-16.8-11.25c-.15-6.43,7.12-11.82,16.24-12.04,9.12-.22,16.64,4.82,16.8,11.25Z"/>
                <path class="cls-101" d="M128.04,21.03c.15,6.35-7.03,11.68-16.05,11.9-9.01,.22-16.44-4.76-16.6-11.12s7.03-11.68,16.05-11.9c9.01-.22,16.44,4.76,16.6,11.12Z"/>
                <path class="cls-100" d="M127.84,21.03c.15,6.28-6.95,11.54-15.85,11.75-8.9,.21-16.24-4.7-16.39-10.98-.15-6.28,6.95-11.54,15.85-11.75s16.24,4.7,16.39,10.98Z"/>
                <path class="cls-64" d="M127.65,21.04c.15,6.2-6.86,11.4-15.66,11.61-8.79,.21-16.04-4.65-16.19-10.85-.15-6.2,6.86-11.4,15.66-11.61,8.79-.21,16.04,4.65,16.19,10.85Z"/>
                <path class="cls-65" d="M127.45,21.04c.15,6.12-6.78,11.25-15.46,11.46s-15.84-4.59-15.99-10.71c-.15-6.12,6.78-11.25,15.46-11.46,8.68-.21,15.84,4.59,15.99,10.71Z"/>
                <path class="cls-66" d="M127.25,21.05c.14,6.04-6.69,11.11-15.26,11.32-8.57,.2-15.64-4.53-15.79-10.57-.14-6.04,6.69-11.11,15.26-11.32,8.57-.2,15.64,4.53,15.79,10.57Z"/>
                <path class="cls-62" d="M127.05,21.05c.14,5.97-6.6,10.97-15.07,11.17-8.46,.2-15.44-4.47-15.58-10.44-.14-5.97,6.6-10.97,15.07-11.17,8.46-.2,15.44,4.47,15.58,10.44Z"/>
                <path class="cls-63" d="M126.85,21.06c.14,5.89-6.52,10.83-14.87,11.03s-15.24-4.41-15.38-10.3c-.14-5.89,6.52-10.83,14.87-11.03,8.35-.2,15.24,4.41,15.38,10.3Z"/>
                <path class="cls-131" d="M126.65,21.06c.14,5.81-6.43,10.68-14.68,10.88-8.24,.2-15.04-4.36-15.18-10.17-.14-5.81,6.43-10.68,14.68-10.88s15.04,4.36,15.18,10.17Z"/>
                <path class="cls-129" d="M126.45,21.07c.14,5.73-6.35,10.54-14.48,10.74-8.13,.19-14.84-4.3-14.98-10.03-.14-5.73,6.35-10.54,14.48-10.74,8.13-.19,14.84,4.3,14.98,10.03Z"/>
                <path class="cls-130" d="M126.25,21.07c.14,5.66-6.26,10.4-14.29,10.59-8.02,.19-14.64-4.24-14.77-9.9-.13-5.66,6.26-10.4,14.29-10.59,8.02-.19,14.64,4.24,14.77,9.9Z"/>
                <path class="cls-128" d="M126.05,21.08c.13,5.58-6.18,10.26-14.09,10.44s-14.44-4.18-14.57-9.76c-.13-5.58,6.18-10.26,14.09-10.44,7.91-.19,14.44,4.18,14.57,9.76Z"/>
                <path class="cls-127" d="M125.85,21.08c.13,5.5-6.09,10.11-13.89,10.3-7.8,.19-14.24-4.12-14.37-9.63-.13-5.5,6.09-10.11,13.89-10.3s14.24,4.12,14.37,9.63Z"/>
                <path class="cls-140" d="M125.65,21.09c.13,5.42-6,9.97-13.7,10.15-7.69,.18-14.04-4.07-14.17-9.49-.13-5.42,6-9.97,13.7-10.15s14.04,4.07,14.17,9.49Z"/>
                <path class="cls-138" d="M125.46,21.09c.13,5.35-5.92,9.83-13.5,10.01-7.58,.18-13.84-4.01-13.96-9.35-.13-5.35,5.92-9.83,13.5-10.01,7.58-.18,13.84,4.01,13.96,9.35Z"/>
                <path class="cls-139" d="M125.26,21.09c.13,5.27-5.83,9.69-13.31,9.86s-13.64-3.95-13.76-9.22c-.13-5.27,5.83-9.69,13.31-9.86,7.47-.18,13.64,3.95,13.76,9.22Z"/>
                <path class="cls-137" d="M125.06,21.1c.12,5.19-5.75,9.54-13.11,9.72s-13.44-3.89-13.56-9.08c-.12-5.19,5.75-9.54,13.11-9.72s13.44,3.89,13.56,9.08Z"/>
                <path class="cls-136" d="M124.86,21.1c.12,5.11-5.66,9.4-12.92,9.57s-13.24-3.83-13.36-8.95c-.12-5.11,5.66-9.4,12.92-9.57s13.24,3.83,13.36,8.95Z"/>
                <ellipse class="cls-122" cx="111.72" cy="21.42" rx="12.94" ry="9.12" transform="translate(-.48 2.67) rotate(-1.37)"/>
                <path class="cls-121" d="M124.46,21.11c.12,4.96-5.49,9.12-12.52,9.28-7.04,.17-12.83-3.72-12.95-8.68-.12-4.96,5.49-9.12,12.52-9.28,7.04-.17,12.83,3.72,12.95,8.68Z"/>
                <path class="cls-123" d="M124.26,21.12c.12,4.88-5.4,8.97-12.33,9.14s-12.63-3.66-12.75-8.54,5.4-8.97,12.33-9.14c6.93-.17,12.63,3.66,12.75,8.54Z"/>
                <path class="cls-117" d="M124.06,21.12c.11,4.8-5.32,8.83-12.13,8.99s-12.43-3.6-12.55-8.41c-.11-4.8,5.32-8.83,12.13-8.99s12.43,3.6,12.55,8.41Z"/>
                <path class="cls-116" d="M123.86,21.13c.11,4.73-5.23,8.69-11.94,8.85-6.71,.16-12.23-3.54-12.35-8.27s5.23-8.69,11.94-8.85c6.71-.16,12.23,3.54,12.35,8.27Z"/>
                <ellipse class="cls-74" cx="111.72" cy="21.42" rx="11.95" ry="8.42" transform="translate(-.48 2.67) rotate(-1.37)"/>
                <path class="cls-75" d="M123.47,21.14c.11,4.57-5.06,8.4-11.55,8.56-6.49,.15-11.83-3.43-11.94-8-.11-4.57,5.06-8.4,11.55-8.56,6.49-.15,11.83,3.43,11.94,8Z"/>
                <path class="cls-76" d="M123.27,21.14c.11,4.49-4.97,8.26-11.35,8.41-6.38,.15-11.63-3.37-11.74-7.86-.11-4.49,4.97-8.26,11.35-8.41s11.63,3.37,11.74,7.86Z"/>
                <ellipse class="cls-72" cx="111.72" cy="21.42" rx="11.35" ry="8" transform="translate(-.48 2.67) rotate(-1.37)"/>
                <path class="cls-73" d="M122.87,21.15c.1,4.34-4.8,7.98-10.96,8.12-6.16,.15-11.23-3.25-11.33-7.59-.1-4.34,4.8-7.98,10.96-8.12s11.23,3.25,11.33,7.59Z"/>
                <path class="cls-86" d="M122.67,21.16c.1,4.26-4.72,7.83-10.76,7.98-6.05,.14-11.03-3.19-11.13-7.46s4.72-7.83,10.76-7.98c6.05-.14,11.03,3.19,11.13,7.46Z"/>
                <path class="cls-87" d="M122.47,21.16c.1,4.18-4.63,7.69-10.57,7.83-5.94,.14-10.83-3.14-10.93-7.32-.1-4.18,4.63-7.69,10.57-7.83,5.94-.14,10.83,3.14,10.93,7.32Z"/>
                <path class="cls-85" d="M122.27,21.17c.1,4.11-4.55,7.55-10.37,7.69-5.83,.14-10.63-3.08-10.73-7.19s4.55-7.55,10.37-7.69c5.83-.14,10.63,3.08,10.73,7.19Z"/>
                <path class="cls-84" d="M122.07,21.17c.1,4.03-4.46,7.41-10.18,7.54-5.72,.14-10.43-3.02-10.52-7.05-.1-4.03,4.46-7.41,10.18-7.54s10.43,3.02,10.52,7.05Z"/>
                <path class="cls-83" d="M121.87,21.18c.09,3.95-4.37,7.26-9.98,7.4-5.61,.13-10.23-2.96-10.32-6.91-.09-3.95,4.37-7.26,9.98-7.4,5.61-.13,10.23,2.96,10.32,6.91Z"/>
                <path class="cls-82" d="M121.67,21.18c.09,3.87-4.29,7.12-9.78,7.25-5.5,.13-10.03-2.9-10.12-6.78-.09-3.87,4.29-7.12,9.78-7.25s10.03,2.9,10.12,6.78Z"/>
                <path class="cls-81" d="M121.47,21.18c.09,3.8-4.2,6.98-9.59,7.11s-9.83-2.85-9.92-6.64,4.2-6.98,9.59-7.11c5.39-.13,9.83,2.85,9.92,6.64Z"/>
                <path class="cls-80" d="M121.28,21.19c.09,3.72-4.12,6.84-9.39,6.96-5.28,.13-9.63-2.79-9.71-6.51-.09-3.72,4.12-6.84,9.39-6.96,5.28-.13,9.63,2.79,9.71,6.51Z"/>
                <path class="cls-78" d="M121.08,21.19c.09,3.64-4.03,6.69-9.2,6.82-5.17,.12-9.43-2.73-9.51-6.37-.09-3.64,4.03-6.69,9.2-6.82,5.17-.12,9.43,2.73,9.51,6.37Z"/>
                <path class="cls-79" d="M120.88,21.2c.09,3.56-3.95,6.55-9,6.67-5.06,.12-9.22-2.67-9.31-6.24-.09-3.56,3.95-6.55,9-6.67,5.06-.12,9.22,2.67,9.31,6.24Z"/>
                <path class="cls-70" d="M120.68,21.2c.08,3.49-3.86,6.41-8.81,6.53-4.95,.12-9.02-2.61-9.11-6.1-.08-3.49,3.86-6.41,8.81-6.53,4.95-.12,9.02,2.61,9.11,6.1Z"/>
                <path class="cls-71" d="M120.48,21.21c.08,3.41-3.77,6.27-8.61,6.38-4.84,.12-8.82-2.56-8.9-5.97-.08-3.41,3.77-6.27,8.61-6.38,4.84-.12,8.82,2.56,8.9,5.97Z"/>
                <path class="cls-69" d="M120.28,21.21c.08,3.33-3.69,6.13-8.41,6.24s-8.62-2.5-8.7-5.83c-.08-3.33,3.69-6.13,8.41-6.24,4.73-.11,8.62,2.5,8.7,5.83Z"/>
                <path class="cls-68" d="M120.08,21.22c.08,3.25-3.6,5.98-8.22,6.09-4.62,.11-8.42-2.44-8.5-5.69-.08-3.25,3.6-5.98,8.22-6.09,4.62-.11,8.42,2.44,8.5,5.69Z"/>
                <path class="cls-67" d="M119.88,21.22c.08,3.18-3.52,5.84-8.02,5.95-4.51,.11-8.22-2.38-8.3-5.56-.08-3.18,3.52-5.84,8.02-5.95,4.51-.11,8.22,2.38,8.3,5.56Z"/>
                <path class="cls-160" d="M119.68,21.23c.07,3.1-3.43,5.7-7.83,5.8s-8.02-2.32-8.1-5.42c-.07-3.1,3.43-5.7,7.83-5.8,4.4-.1,8.02,2.32,8.1,5.42Z"/>
                <path class="cls-159" d="M119.48,21.23c.07,3.02-3.34,5.56-7.63,5.66s-7.82-2.26-7.89-5.29c-.07-3.02,3.34-5.56,7.63-5.66,4.29-.1,7.82,2.26,7.89,5.29Z"/>
                <path class="cls-165" d="M119.29,21.24c.07,2.94-3.26,5.41-7.44,5.51-4.18,.1-7.62-2.21-7.69-5.15-.07-2.94,3.26-5.41,7.44-5.51,4.18-.1,7.62,2.21,7.69,5.15Z"/>
                <path class="cls-164" d="M119.09,21.24c.07,2.87-3.17,5.27-7.24,5.37-4.07,.1-7.42-2.15-7.49-5.02s3.17-5.27,7.24-5.37,7.42,2.15,7.49,5.02Z"/>
                <path class="cls-166" d="M118.89,21.25c.07,2.79-3.09,5.13-7.04,5.22-3.96,.09-7.22-2.09-7.29-4.88-.07-2.79,3.09-5.13,7.04-5.22,3.96-.09,7.22,2.09,7.29,4.88Z"/>
                <path class="cls-172" d="M118.69,21.25c.06,2.71-3,4.99-6.85,5.08-3.85,.09-7.02-2.03-7.08-4.74-.06-2.71,3-4.99,6.85-5.08s7.02,2.03,7.08,4.74Z"/>
                <path class="cls-173" d="M118.49,21.26c.06,2.63-2.92,4.84-6.65,4.93-3.74,.09-6.82-1.97-6.88-4.61-.06-2.63,2.92-4.84,6.65-4.93,3.74-.09,6.82,1.97,6.88,4.61Z"/>
                <path class="cls-141" d="M118.29,21.26c.06,2.56-2.83,4.7-6.46,4.79-3.63,.09-6.62-1.92-6.68-4.47s2.83-4.7,6.46-4.79c3.63-.09,6.62,1.92,6.68,4.47Z"/>
                <path class="cls-142" d="M118.09,21.27c.06,2.48-2.74,4.56-6.26,4.64s-6.42-1.86-6.48-4.34c-.06-2.48,2.74-4.56,6.26-4.64,3.52-.08,6.42,1.86,6.48,4.34Z"/>
                <path class="cls-143" d="M117.89,21.27c.06,2.4-2.66,4.42-6.07,4.5-3.41,.08-6.22-1.8-6.27-4.2s2.66-4.42,6.07-4.5,6.22,1.8,6.27,4.2Z"/>
                <path class="cls-150" d="M117.69,21.28c.06,2.32-2.57,4.27-5.87,4.35-3.3,.08-6.02-1.74-6.07-4.07-.06-2.32,2.57-4.27,5.87-4.35,3.3-.08,6.02,1.74,6.07,4.07Z"/>
                <path class="cls-149" d="M117.49,21.28c.05,2.25-2.49,4.13-5.68,4.21-3.19,.08-5.82-1.68-5.87-3.93s2.49-4.13,5.68-4.21c3.19-.08,5.82,1.68,5.87,3.93Z"/>
                <path class="cls-144" d="M117.3,21.28c.05,2.17-2.4,3.99-5.48,4.06s-5.61-1.63-5.67-3.8,2.4-3.99,5.48-4.06c3.08-.07,5.62,1.63,5.67,3.8Z"/>
                <path class="cls-145" d="M117.1,21.29c.05,2.09-2.32,3.85-5.28,3.92-2.97,.07-5.41-1.57-5.46-3.66-.05-2.09,2.32-3.85,5.28-3.92s5.41,1.57,5.46,3.66Z"/>
                <path class="cls-146" d="M116.9,21.29c.05,2.01-2.23,3.7-5.09,3.77-2.86,.07-5.21-1.51-5.26-3.52s2.23-3.7,5.09-3.77c2.86-.07,5.21,1.51,5.26,3.52Z"/>
                <path class="cls-151" d="M116.7,21.3c.05,1.94-2.14,3.56-4.89,3.63-2.75,.07-5.01-1.45-5.06-3.39-.05-1.94,2.14-3.56,4.89-3.63,2.75-.07,5.01,1.45,5.06,3.39Z"/>
                <path class="cls-152" d="M116.5,21.3c.04,1.86-2.06,3.42-4.7,3.48-2.64,.06-4.81-1.39-4.86-3.25-.04-1.86,2.06-3.42,4.7-3.48,2.64-.06,4.81,1.39,4.86,3.25Z"/>
                <path class="cls-148" d="M116.3,21.31c.04,1.78-1.97,3.28-4.5,3.34-2.53,.06-4.61-1.34-4.65-3.12-.04-1.78,1.97-3.28,4.5-3.34,2.53-.06,4.61,1.34,4.65,3.12Z"/>
                <path class="cls-147" d="M116.1,21.31c.04,1.7-1.89,3.13-4.31,3.19-2.42,.06-4.41-1.28-4.45-2.98-.04-1.7,1.89-3.13,4.31-3.19,2.42-.06,4.41,1.28,4.45,2.98Z"/>
                <path class="cls-167" d="M115.9,21.32c.04,1.63-1.8,2.99-4.11,3.05-2.31,.06-4.21-1.22-4.25-2.85-.04-1.63,1.8-2.99,4.11-3.05,2.31-.06,4.21,1.22,4.25,2.85Z"/>
                <path class="cls-158" d="M115.7,21.32c.04,1.55-1.72,2.85-3.91,2.9-2.2,.05-4.01-1.16-4.05-2.71s1.72-2.85,3.91-2.9c2.2-.05,4.01,1.16,4.05,2.71Z"/>
                <path class="cls-157" d="M115.5,21.33c.04,1.47-1.63,2.71-3.72,2.76s-3.81-1.1-3.85-2.58c-.04-1.47,1.63-2.71,3.72-2.76,2.09-.05,3.81,1.1,3.85,2.58Z"/>
                <path class="cls-155" d="M115.3,21.33c.03,1.39-1.54,2.56-3.52,2.61-1.98,.05-3.61-1.05-3.64-2.44s1.54-2.56,3.52-2.61,3.61,1.05,3.64,2.44Z"/>
                <path class="cls-156" d="M115.11,21.34c.03,1.32-1.46,2.42-3.33,2.47-1.87,.04-3.41-.99-3.44-2.3-.03-1.32,1.46-2.42,3.33-2.47,1.87-.04,3.41,.99,3.44,2.3Z"/>
                <path class="cls-57" d="M114.91,21.34c.03,1.24-1.37,2.28-3.13,2.32-1.76,.04-3.21-.93-3.24-2.17-.03-1.24,1.37-2.28,3.13-2.32s3.21,.93,3.24,2.17Z"/>
                <path class="cls-58" d="M114.71,21.35c.03,1.16-1.29,2.14-2.94,2.18-1.65,.04-3.01-.87-3.04-2.03-.03-1.16,1.29-2.14,2.94-2.18,1.65-.04,3.01,.87,3.04,2.03Z"/>
                <path class="cls-161" d="M114.51,21.35c.03,1.08-1.2,1.99-2.74,2.03-1.54,.04-2.81-.81-2.83-1.9-.03-1.08,1.2-1.99,2.74-2.03,1.54-.04,2.81,.81,2.83,1.9Z"/>
                <path class="cls-171" d="M114.31,21.36c.02,1.01-1.11,1.85-2.54,1.89s-2.61-.76-2.63-1.76c-.02-1.01,1.11-1.85,2.54-1.89,1.43-.03,2.61,.75,2.63,1.76Z"/>
                <path class="cls-170" d="M114.11,21.36c.02,.93-1.03,1.71-2.35,1.74-1.32,.03-2.41-.7-2.43-1.63-.02-.93,1.03-1.71,2.35-1.74s2.41,.7,2.43,1.63Z"/>
                <path class="cls-53" d="M113.91,21.37c.02,.85-.94,1.57-2.15,1.6-1.21,.03-2.21-.64-2.23-1.49-.02-.85,.94-1.57,2.15-1.6,1.21-.03,2.21,.64,2.23,1.49Z"/>
                <path class="cls-52" d="M113.71,21.37c.02,.78-.86,1.42-1.96,1.45-1.1,.03-2.01-.58-2.02-1.36-.02-.77,.86-1.42,1.96-1.45,1.1-.03,2.01,.58,2.02,1.36Z"/>
                <path class="cls-54" d="M113.51,21.37c.02,.7-.77,1.28-1.76,1.31s-1.8-.52-1.82-1.22c-.02-.7,.77-1.28,1.76-1.31,.99-.02,1.8,.52,1.82,1.22Z"/>
                <path class="cls-56" d="M113.31,21.38c.01,.62-.69,1.14-1.57,1.16s-1.6-.46-1.62-1.08,.69-1.14,1.57-1.16,1.6,.46,1.62,1.08Z"/>
                <path class="cls-55" d="M113.12,21.38c.01,.54-.6,1-1.37,1.02-.77,.02-1.4-.41-1.42-.95-.01-.54,.6-1,1.37-1.02,.77-.02,1.4,.41,1.42,.95Z"/>
                <path class="cls-162" d="M112.92,21.39c.01,.47-.51,.85-1.17,.87-.66,.02-1.2-.35-1.21-.81s.51-.85,1.17-.87c.66-.02,1.2,.35,1.21,.81Z"/>
                <path class="cls-163" d="M112.72,21.39c0,.39-.43,.71-.98,.73s-1-.29-1.01-.68c0-.39,.43-.71,.98-.73,.55-.01,1,.29,1.01,.68Z"/>
                <path class="cls-154" d="M112.52,21.4c0,.31-.34,.57-.78,.58s-.8-.23-.81-.54,.34-.57,.78-.58c.44-.01,.8,.23,.81,.54Z"/>
                <path class="cls-153" d="M112.32,21.4c0,.23-.26,.43-.59,.44s-.6-.17-.61-.41c0-.23,.26-.43,.59-.44,.33,0,.6,.17,.61,.41Z"/>
                <path class="cls-126" d="M112.12,21.41c0,.15-.17,.28-.39,.29-.22,0-.4-.12-.4-.27s.17-.28,.39-.29c.22,0,.4,.12,.4,.27Z"/>
                <path class="cls-125" d="M111.92,21.41c0,.08-.09,.14-.2,.15-.11,0-.2-.06-.2-.14,0-.08,.09-.14,.2-.15s.2,.06,.2,.14Z"/>
              </g>
            </g>
            <path class="cls-27" d="M117.36,21.73c.03,2.04-3.63,3.76-8.18,3.83s-8.27-1.53-8.3-3.57,3.63-3.76,8.18-3.83c4.55-.07,8.27,1.53,8.3,3.57Z"/>
            <path class="cls-7" d="M35.91,72.21s2.98,3.29,6.08,3.45c3.1,.16,3.89-3.03,3.89-3.03,0,0,.35,2.61-2.41,5.47,0,0-5.54-2.01-7.57-5.89Z"/>
            <path class="cls-5" d="M139.92,75.29c-1.94,1.19-3.5,1.66-3.5,1.66,0,0-1.8-2.47-1.44-5.74,0,0,.24-.56,.64-1.37,0,0-.13,3.33,4.31,5.46Z"/>
            <path class="cls-22" d="M90.74,80.79c-.94,2.54-3.76,3.83-6.29,2.89-2.54-.94-3.83-3.76-2.9-6.29,.94-2.54,3.76-3.83,6.29-2.9,2.54,.94,3.83,3.76,2.9,6.29Z"/>
            <path class="cls-21" d="M89.04,80.16c-.59,1.59-2.36,2.41-3.96,1.82s-2.41-2.36-1.82-3.96,2.36-2.41,3.96-1.82,2.41,2.36,1.82,3.96Z"/>
            <path class="cls-22" d="M70.11,66.41s4.58,5.16,7.64-3.11c0,0-5.52,2.33-7.64,3.11Z"/>
            <path class="cls-169" d="M90.17,131.52c-5.02,0-9.65-.7-10.01-.76l.04-.25c.17,.03,16.66,2.52,21.48-1.86l.17,.19c-2.32,2.11-7.16,2.68-11.67,2.68Z"/>
            <path class="cls-169" d="M67.92,130.59l-.25-.02s.38-4.17-.82-8.86c-1.9-7.38-11.61-16.51-11.7-16.6l.17-.18c.1,.09,9.86,9.27,11.77,16.72,1.22,4.73,.83,8.91,.83,8.95Z"/>
            <path class="cls-169" d="M48.5,88.24l-.22-.12c8.53-14.72,1.56-19.65,1.49-19.69l.14-.21c.08,.05,1.86,1.28,2.59,4.38,.66,2.84,.51,7.86-4,15.65Z"/>
            <path class="cls-169" d="M127.14,87.21c-6.1-8.84,3.11-19.49,3.2-19.59l.19,.16c-.09,.11-9.17,10.61-3.18,19.29l-.21,.14Z"/>
            <path class="cls-49" d="M82.44,93.19s-.4,1.19-1.61,2.92l-2.09-1.03s.62-1.73,2.08-2.66l1.62,.77Z"/>
            <path class="cls-49" d="M54.34,69.98s1.21,.41,2.41,.15l.86,1.06s-1.77,1.02-3.03,.05l-.24-1.26Z"/>
            <path class="cls-49" d="M48.69,122.1s-1.44,1.12-2.01,2.67l1.42,1.27,1.78-2.71-1.18-1.23Z"/>
            <path class="cls-49" d="M133.59,66.69s-1.03,.43-1.74,1.75l-1.58,.3s.4-.62,.98-1.13c.58-.5,2.34-.93,2.34-.93Z"/>
            <path class="cls-49" d="M99.53,133.45s.88,3.91,.49,5.77l1.67-.04s.66-2.87-.23-5.62l-1.93-.12Z"/>
            <path class="cls-49" d="M90.32,4.89s9.37-3.44,15.36-3.22c0,0-21.17-2.85-15.36,3.22Z"/>
            <polygon class="cls-49" points="78.03 25.82 81.58 24.88 82.43 28.75 79.01 29.36 78.03 25.82"/>
          </g>
        </g>
      </g>
    </g>
  </g>
</svg>