<svg width="308" height="578" viewBox="0 0 308 578" fill="none" xmlns="http://www.w3.org/2000/svg">
<g clip-path="url(#clip0_1_10426)">
<g style="mix-blend-mode:multiply">
<path fill-rule="evenodd" clip-rule="evenodd" d="M246.474 298.786L160.034 279.906L170.314 280.036L228.444 293.686L246.474 298.786Z" fill="#A67C4C"/>
</g>
<path d="M247.194 174.956L244.824 191.936C244.824 191.936 246.354 195.276 250.104 200.496C253.314 204.946 256.554 206.136 256.554 206.136C268.834 205.316 278.854 185.496 278.854 185.496C278.854 185.496 281.514 185.436 282.014 184.776C282.204 184.516 282.394 184.046 282.564 183.326C282.824 182.196 283.034 180.456 283.094 178.066C283.184 174.146 285.334 168.396 285.334 168.396C282.054 167.906 279.794 172.606 279.794 172.606C279.154 170.406 278.864 168.546 278.734 167.116C278.704 166.946 278.704 166.776 278.704 166.606C278.574 164.536 278.804 163.426 278.804 163.426C278.804 163.426 278.794 163.426 278.774 163.456C278.484 163.626 275.894 165.316 274.684 168.036C273.434 170.856 274.174 176.026 274.204 176.306L271.344 172.736C271.344 172.736 270.114 175.266 270.424 178.186C270.724 181.106 272.794 184.066 272.794 184.066C270.094 189.246 258.354 192.296 258.354 192.296C253.774 189.656 251.614 180.896 250.824 179.076C250.014 177.266 247.184 174.976 247.184 174.976L247.194 174.956Z" fill="url(#paint0_linear_1_10426)"/>
<path d="M213.314 64.9058C211.744 71.6858 214.614 76.8258 214.614 76.8258C227.674 83.8358 227.804 97.3058 226.654 103.566C226.584 103.956 226.464 104.406 226.294 104.896C223.704 112.376 210.534 131.126 212.324 139.476C214.244 148.376 233.764 163.916 245.544 166.736C246.614 166.996 247.714 167.186 248.834 167.306C260.044 168.606 273.094 163.786 274.614 160.426C275.574 158.306 274.924 155.566 274.234 153.186C273.734 151.446 273.214 149.886 273.314 148.916C273.544 146.626 280.404 128.456 281.654 125.346C281.964 124.606 282.224 123.736 282.424 122.876C282.474 122.656 282.514 122.426 282.564 122.206C283.084 119.746 283.224 117.416 283.224 117.416C289.904 111.486 301.284 112.776 301.284 112.776C308.244 103.246 302.224 98.7358 302.224 98.7358C295.024 110.506 282.924 113.146 282.924 113.146C261.384 90.0058 234.784 93.6958 234.784 93.6958C231.884 92.4858 225.314 84.7758 223.894 75.3558C222.474 65.9158 224.434 55.1658 221.884 54.1658C219.334 53.1658 214.884 58.1458 213.314 64.9158V64.9058Z" fill="url(#paint1_linear_1_10426)"/>
<path d="M240.474 164.956L239.704 169.706C239.704 169.706 235.564 170.636 231.864 166.816L231.814 160.176C231.814 160.176 237.604 163.836 240.474 164.956Z" fill="#556313"/>
<path d="M273.304 148.916C273.304 148.916 269.464 153.136 268.264 152.696C267.064 152.256 266.734 149.936 266.734 149.936L272.564 148.736L273.304 148.906V148.916Z" fill="#485237"/>
<path opacity="0.3" fill-rule="evenodd" clip-rule="evenodd" d="M212.324 139.466C214.244 148.366 233.764 163.906 245.544 166.726C246.614 166.986 247.714 167.176 248.834 167.296C243.764 165.876 234.144 163.196 223.534 152.266C204.984 133.156 222.574 131.956 222.574 131.956C222.574 131.956 230.364 144.596 247.004 141.226C247.004 141.226 258.134 135.716 262.824 137.486C267.514 139.256 264.994 149.326 266.214 152.236C267.424 155.136 273.844 153.216 273.844 153.216L274.234 153.186C273.734 151.446 273.214 149.886 273.314 148.916C273.544 146.626 280.404 128.456 281.654 125.346C281.964 124.606 282.224 123.736 282.424 122.876C281.964 123.666 280.114 124.656 273.034 122.806C262.764 120.146 238.034 100.276 234.794 93.6858C234.794 93.6858 230.434 103.786 226.304 104.886C223.714 112.366 210.544 131.116 212.334 139.466H212.324Z" fill="#3A4013"/>
<path d="M195.574 264.056C194.204 272.296 195.814 284.086 195.814 284.086L199.814 285.016C199.814 285.016 202.964 276.776 207.554 267.436L207.574 267.406C211.054 260.326 215.374 252.616 219.804 247.396L224.534 248.086C224.534 248.086 228.124 263.006 229.144 272.646C229.284 273.966 229.384 275.186 229.414 276.256C229.664 285.146 228.814 291.736 228.814 291.736L232.044 292.486C232.044 292.486 241.694 269.586 243.174 263.826C244.404 258.966 243.934 246.586 243.114 235.036L242.854 231.526C242.774 230.556 242.694 229.596 242.624 228.656C241.564 215.646 241.044 207.366 241.474 204.886C241.494 204.746 241.544 204.596 241.594 204.416C242.414 201.346 246.624 192.236 247.264 187.846V187.816C247.754 184.426 247.494 179.116 247.324 176.516C247.254 175.566 247.194 174.966 247.194 174.966C247.194 174.966 240.474 169.486 239.984 167.996C239.984 167.996 233.264 167.256 231.854 165.496C231.854 165.496 223.644 169.306 222.644 171.856C222.004 173.496 219.664 182.446 217.344 191.006C217.204 191.506 217.084 191.996 216.944 192.496C215.794 196.696 214.684 200.686 213.804 203.556C212.394 208.146 211.114 212.906 209.884 217.276C208.704 221.496 207.584 225.376 206.484 228.426C206.194 229.216 205.824 230.266 205.394 231.496C202.454 239.846 196.764 256.886 195.574 264.066V264.056Z" fill="url(#paint2_linear_1_10426)"/>
<path fill-rule="evenodd" clip-rule="evenodd" d="M207.554 267.436C207.554 267.436 203.784 256.946 197.304 253.056C197.304 253.056 195.214 260.316 194.744 265.856C194.274 271.406 195.814 284.086 195.814 284.086C195.814 284.086 190.554 281.946 186.134 284.546L199.724 287.696L199.674 285.696L207.554 267.436Z" fill="#CAB3DA"/>
<path fill-rule="evenodd" clip-rule="evenodd" d="M245.074 260.866C245.074 260.866 240.044 258.816 228.124 273.916L228.814 291.736L228.414 292.666L241.774 296.116C241.774 296.116 240.454 292.346 233.014 291.286C233.014 291.286 242.014 273.466 245.074 260.866Z" fill="#CAB3DA"/>
<path fill-rule="evenodd" clip-rule="evenodd" d="M278.854 185.486C278.854 185.486 275.704 186.046 272.804 184.046C272.804 184.046 264.424 191.186 258.364 192.266C258.364 192.266 252.284 201.086 255.264 211.666C255.264 211.666 269.574 204.996 278.854 185.486Z" fill="#CAB3DA"/>
<path fill-rule="evenodd" clip-rule="evenodd" d="M246.464 140.546C246.464 140.546 237.924 141.116 232.684 137.356C227.444 133.596 225.584 127.226 225.864 124.156C226.364 118.466 233.754 105.506 239.204 106.156C244.654 106.806 260.154 120.326 246.464 140.546Z" fill="url(#paint3_linear_1_10426)"/>
<path fill-rule="evenodd" clip-rule="evenodd" d="M273.304 148.916C273.304 148.916 269.444 151.796 266.734 149.936C266.734 149.936 269.844 134.566 280.994 127.006C280.994 127.006 282.824 142.966 273.304 148.906V148.916Z" fill="url(#paint4_linear_1_10426)"/>
<path fill-rule="evenodd" clip-rule="evenodd" d="M216.944 221.396C216.354 228.066 217.554 234.526 222.624 238.336C228.984 243.136 239.404 238.486 242.624 228.636C241.564 215.626 241.044 207.346 241.474 204.866C241.494 204.726 241.544 204.576 241.594 204.396C242.414 201.326 246.624 192.216 247.264 187.826V187.796C247.754 184.406 247.494 179.096 247.324 176.496C245.174 175.416 238.984 172.766 233.864 173.086C233.554 173.116 233.264 173.136 232.964 173.186C231.894 173.326 230.894 173.616 229.994 174.116C225.434 176.626 225.804 194.266 221.704 203.766C219.694 208.416 217.494 214.996 216.944 221.386V221.396Z" fill="#93C000"/>
<path fill-rule="evenodd" clip-rule="evenodd" d="M242.324 224.916C242.324 224.916 231.104 230.306 209.844 217.386L205.874 230.086C205.874 230.086 206.724 229.066 209.554 230.936C212.384 232.806 219.794 247.396 219.794 247.396L224.524 248.086C224.524 248.086 237.544 243.426 242.844 231.506L242.314 224.906L242.324 224.916Z" fill="#CAB3DA"/>
<path fill-rule="evenodd" clip-rule="evenodd" d="M263.354 152.146C263.354 152.146 260.954 151.656 257.634 150.146C254.314 148.626 251.964 146.766 251.964 146.766L250.424 146.976C250.424 146.976 253.904 149.826 254.524 152.136C254.524 152.136 255.024 152.926 257.424 153.696C259.824 154.456 263.354 152.146 263.354 152.146Z" fill="#556313"/>
<path fill-rule="evenodd" clip-rule="evenodd" d="M254.034 150.996C254.034 150.996 253.704 148.056 251.714 148.146L254.034 150.996Z" fill="#464013"/>
<path fill-rule="evenodd" clip-rule="evenodd" d="M260.754 158.226C260.754 158.226 260.004 159.236 258.644 159.536C257.284 159.836 253.594 160.026 247.484 156.776C241.374 153.526 237.794 146.036 237.794 146.036L236.444 145.726C236.444 145.726 237.864 145.126 240.014 146.556L238.474 146.466C238.474 146.466 241.514 153.036 249.114 156.686C258.404 161.146 260.744 158.226 260.744 158.226H260.754Z" fill="#464013"/>
<path d="M240.034 114.756C240.034 114.756 238.134 115.506 236.684 117.186L234.574 114.406C234.574 114.406 236.964 111.856 238.754 112.056L240.034 114.756Z" fill="white"/>
<path d="M277.244 133.216L275.524 135.266L274.754 134.606L276.764 132.356L277.244 133.216Z" fill="white"/>
<path d="M250.954 131.606C250.954 131.606 258.454 109.486 234.924 107.866C234.924 107.866 237.814 104.376 241.734 105.626C245.654 106.876 255.354 115.366 250.954 131.606Z" fill="#78952E"/>
<path d="M281.124 131.196C281.124 131.196 277.524 126.666 271.884 137.066C271.884 137.066 276.594 127.556 281.844 124.856L281.124 131.196Z" fill="#78952E"/>
<path d="M243.664 140.536C243.664 140.536 238.594 140.866 233.604 139.096C228.614 137.326 226.344 128.086 226.344 128.086C226.344 128.086 229.914 139.926 243.674 140.536H243.664Z" fill="#485237"/>
<path fill-rule="evenodd" clip-rule="evenodd" d="M220.984 55.3757C222.704 55.4057 222.064 62.4157 220.064 67.8657C218.054 73.3057 216.194 74.6057 214.964 74.6357C213.734 74.6657 212.814 68.3357 214.274 63.7357C215.964 58.3957 219.164 55.3557 220.994 55.3857L220.984 55.3757Z" fill="#3A4013"/>
<path d="M246.064 192.556L246.014 192.276C245.914 192.296 236.234 193.866 226.364 183.046L226.154 183.236C236.144 194.186 245.974 192.576 246.074 192.556H246.064Z" fill="#53345F"/>
<path d="M240.304 205.466C241.104 205.236 241.534 205.016 241.554 205.006L241.414 204.756C241.344 204.796 234.194 208.526 222.944 200.446L222.774 200.676C231.464 206.906 237.764 206.186 240.304 205.466Z" fill="#53345F"/>
<path d="M238.884 216.826C240.774 216.296 241.644 215.536 241.734 215.456L241.544 215.246C241.484 215.306 235.304 220.626 218.574 212.606L218.454 212.866C229.204 218.016 235.594 217.766 238.884 216.826Z" fill="#53345F"/>
<path d="M194.594 216.696C194.594 216.696 197.944 225.486 194.924 229.066L192.784 224.546L194.294 216.626L194.604 216.696H194.594Z" fill="#556313"/>
<path d="M223.094 171.106C224.564 172.356 225.404 176.626 222.074 184.546C218.744 192.466 212.034 197.096 207.034 201.366C202.034 205.646 195.164 213.896 194.584 216.686C194.004 219.476 193.254 225.076 192.044 227.646C190.834 230.216 188.824 233.626 188.824 233.626C188.824 233.626 184.674 228.386 187.774 223.196L179.504 227.526C179.504 227.526 180.114 222.846 182.914 219.826C185.724 216.806 189.184 214.146 190.054 212.176C190.914 210.206 194.064 194.286 198.614 189.906C203.164 185.526 209.294 182.806 213.304 180.476C217.304 178.146 223.094 171.106 223.094 171.106Z" fill="url(#paint5_linear_1_10426)"/>
<path fill-rule="evenodd" clip-rule="evenodd" d="M194.594 216.696C194.594 216.696 192.734 213.006 190.074 212.186C190.074 212.186 192.924 194.306 196.704 188.866C200.474 183.426 201.984 182.206 201.984 182.206C201.984 182.206 209.994 191.666 207.774 200.766C207.774 200.766 199.014 209.366 194.594 216.696Z" fill="#CAB3DA"/>
<g style="mix-blend-mode:multiply" opacity="0.5">
<path fill-rule="evenodd" clip-rule="evenodd" d="M207.764 200.766C207.764 200.766 197.304 207.476 194.584 216.696C194.584 216.696 198.794 209.826 207.764 200.766Z" fill="#53345F"/>
</g>
<path style="mix-blend-mode:multiply" fill-rule="evenodd" clip-rule="evenodd" d="M217.504 244.996C211.864 254.386 207.544 267.436 207.544 267.436L207.564 267.406C211.044 260.326 215.364 252.616 219.794 247.396L224.524 248.086C224.524 248.086 228.114 263.006 229.134 272.646L230.434 271.096C230.434 271.096 228.324 256.776 230.724 251.226C233.134 245.666 243.104 235.026 243.104 235.026L242.844 231.516C242.844 231.516 232.084 247.606 223.794 244.656C215.504 241.716 210.734 227.296 214.404 214.426C216.914 205.596 224.004 183.326 224.004 183.326C221.134 189.286 216.944 192.486 216.944 192.486C215.794 196.686 214.684 200.676 213.804 203.546C212.394 208.136 211.114 212.896 209.884 217.266C208.704 221.486 207.584 225.366 206.484 228.416C206.194 229.206 205.824 230.256 205.394 231.486C213.454 232.046 217.514 244.996 217.514 244.996H217.504Z" fill="url(#paint6_linear_1_10426)"/>
<g style="mix-blend-mode:multiply" opacity="0.5">
<path fill-rule="evenodd" clip-rule="evenodd" d="M277.704 187.796C277.704 187.796 274.934 186.056 272.804 184.056C272.804 184.056 275.704 186.216 278.854 185.496L277.704 187.806V187.796Z" fill="#53345F"/>
</g>
<path fill-rule="evenodd" clip-rule="evenodd" d="M274.224 176.286C274.224 176.286 275.884 181.236 278.144 182.626C278.144 182.626 279.754 183.276 281.814 183.476C282.054 183.496 282.304 183.436 282.564 183.306C282.824 182.176 283.034 180.436 283.094 178.046C283.184 174.126 285.334 168.376 285.334 168.376C285.334 168.376 281.934 170.046 280.084 174.246C280.084 174.246 278.944 171.216 278.744 167.096C278.714 166.926 278.714 166.756 278.714 166.586C278.674 165.576 278.704 164.506 278.814 163.406C278.814 163.406 278.804 163.406 278.784 163.436C278.354 163.786 274.054 167.606 274.224 176.296V176.286Z" fill="#939513"/>
<path fill-rule="evenodd" clip-rule="evenodd" d="M279.444 182.936C279.444 182.936 277.704 182.906 275.044 183.146C272.384 183.386 269.504 178.236 271.354 172.706L274.224 176.286L279.444 182.936Z" fill="#939513"/>
<path fill-rule="evenodd" clip-rule="evenodd" d="M251.844 127.486C251.844 127.486 254.834 111.356 234.914 107.866L233.274 105.556C233.274 105.556 254.474 107.006 251.844 127.486Z" fill="#464013"/>
<path fill-rule="evenodd" clip-rule="evenodd" d="M281.054 132.766L284.254 129.906C284.254 129.906 276.184 125.376 271.094 138.466C271.094 138.466 275.534 127.836 281.124 131.196L281.044 132.766H281.054Z" fill="#464013"/>
<path fill-rule="evenodd" clip-rule="evenodd" d="M235.894 266.166L234.684 271.386L233.504 271.856L233.444 268.246L235.894 266.166Z" fill="white"/>
<path fill-rule="evenodd" clip-rule="evenodd" d="M241.784 296.116L241.484 297.376L228.444 293.686L228.414 292.666L241.784 296.116Z" fill="#684D73"/>
<path d="M186.12 284.536L185.962 285.218L199.552 288.368L199.71 287.686L186.12 284.536Z" fill="#684D73"/>
<path fill-rule="evenodd" clip-rule="evenodd" d="M203.144 261.236L201.994 264.026L200.834 263.756L202.194 259.846L203.144 261.236Z" fill="white"/>
<path fill-rule="evenodd" clip-rule="evenodd" d="M217.764 222.736L216.914 226.416L215.494 226.086L215.944 221.776L217.764 222.736Z" fill="white"/>
<path fill-rule="evenodd" clip-rule="evenodd" d="M205.664 189.396L204.224 191.166L204.474 192.306L206.284 191.976C206.284 191.976 206.374 190.776 205.664 189.386V189.396Z" fill="white"/>
<path fill-rule="evenodd" clip-rule="evenodd" d="M263.824 191.846L261.634 192.356L261.334 193.646L263.604 192.806L263.824 191.846Z" fill="white"/>
<path fill-rule="evenodd" clip-rule="evenodd" d="M226.004 136.936C226.004 136.936 223.044 137.616 223.134 134.486L226.004 136.936Z" fill="#B5D13D"/>
<path fill-rule="evenodd" clip-rule="evenodd" d="M256.524 147.816C256.524 147.816 256.854 145.656 256.134 144.936C255.414 144.216 253.004 145.386 253.004 145.386C253.004 145.386 253.824 147.576 256.514 147.816H256.524Z" fill="#B5D13D"/>
<path fill-rule="evenodd" clip-rule="evenodd" d="M225.364 218.576C225.364 218.576 225.694 216.416 224.974 215.696C224.254 214.976 221.844 216.146 221.844 216.146C221.844 216.146 222.664 218.336 225.354 218.576H225.364Z" fill="#B5D13D"/>
<path fill-rule="evenodd" clip-rule="evenodd" d="M233.934 185.936C233.934 185.936 233.684 185.016 232.974 184.296C232.264 183.576 230.444 183.526 230.444 183.526C230.444 183.526 231.254 185.706 233.934 185.936Z" fill="#B5D13D"/>
<path fill-rule="evenodd" clip-rule="evenodd" d="M256.404 108.376C256.404 108.376 255.574 105.126 253.314 103.586C251.044 102.046 249.154 103.026 249.154 103.026C249.154 103.026 251.404 106.396 256.414 108.376H256.404Z" fill="#B5D13D"/>
<path opacity="0.3" fill-rule="evenodd" clip-rule="evenodd" d="M282.924 113.146C283.264 115.246 283.224 117.416 283.224 117.416C289.904 111.486 301.284 112.776 301.284 112.776C308.244 103.246 302.224 98.7358 302.224 98.7358C295.024 110.506 282.924 113.146 282.924 113.146Z" fill="#3A4013"/>
<path fill-rule="evenodd" clip-rule="evenodd" d="M221.824 60.4958C221.824 60.4958 214.844 66.5259 217.144 73.3559C217.144 73.3559 221.304 69.5559 221.824 60.4958Z" fill="#F4E600"/>
<g style="mix-blend-mode:multiply" opacity="0.5">
<path fill-rule="evenodd" clip-rule="evenodd" d="M247.194 174.966C247.194 174.966 247.544 180.906 239.704 180.106C231.864 179.306 225.294 169.196 225.294 169.196C225.294 169.196 228.664 166.426 231.854 165.496L231.814 160.186C231.814 160.186 236.334 163.176 240.774 165.096L239.984 167.996C239.984 167.996 243.354 171.956 247.194 174.966Z" fill="#53345F"/>
</g>
<path d="M274.754 105.496C274.864 105.136 286.294 69.4558 304.374 67.0658L304.224 65.9258C285.424 68.4358 274.134 103.656 273.664 105.146L274.754 105.486V105.496Z" fill="url(#paint7_linear_1_10426)"/>
<path d="M255.614 95.9757C256.124 94.2057 267.934 52.5557 250.724 40.6257L250.074 41.5657C266.604 53.0257 254.634 95.2357 254.514 95.6557L255.614 95.9757Z" fill="url(#paint8_linear_1_10426)"/>
<path fill-rule="evenodd" clip-rule="evenodd" d="M255.694 47.2158C255.694 47.2158 247.604 45.3358 248.954 37.9058C248.954 37.9058 253.714 42.3058 255.694 47.2158Z" fill="#F4E600"/>
<path fill-rule="evenodd" clip-rule="evenodd" d="M307.664 67.2757C307.664 67.2757 300.334 70.0357 297.394 69.0257C297.394 69.0257 302.064 62.7157 307.664 67.2757Z" fill="#F4E600"/>
<path d="M239.594 237.406C239.614 237.106 240.054 230.076 237.534 225.816L237.044 226.106C239.474 230.206 239.024 237.286 239.024 237.356L239.594 237.396V237.406Z" fill="#00FFFF"/>
<path d="M213.474 235.716C215.884 228.946 220.954 223.146 221.014 223.096L220.584 222.716C220.534 222.776 215.394 228.656 212.934 235.526L213.474 235.716Z" fill="#00FFFF"/>
<path d="M204.874 274.256C204.874 274.186 203.934 267.646 194.804 265.576L194.674 266.136C203.394 268.106 204.294 274.266 204.304 274.326L204.874 274.256Z" fill="#00FFFF"/>
<path d="M228.484 278.386C235.704 272.176 240.584 274.206 240.634 274.226L240.864 273.706C240.654 273.616 235.624 271.496 228.104 277.956L228.474 278.386H228.484Z" fill="#00FFFF"/>
<path d="M232.989 290.992L228.793 291.441L228.854 292.008L233.05 291.559L232.989 290.992Z" fill="#00FFFF"/>
<path d="M199.564 285.966L199.784 285.436L195.924 283.826L195.704 284.356L199.564 285.966Z" fill="#00FFFF"/>
<path d="M204.984 203.636C204.914 203.196 203.104 192.826 195.954 190.046L195.744 190.576C202.584 193.236 204.394 203.626 204.414 203.726L204.984 203.636Z" fill="#00FFFF"/>
<path d="M260.874 208.086L261.324 207.736C261.324 207.736 257.624 202.726 261.244 191.556L260.694 191.376C256.974 202.866 260.694 207.876 260.864 208.076L260.874 208.086Z" fill="#00FFFF"/>
<path style="mix-blend-mode:screen" d="M146.694 415.296L204.644 577.456L269.604 549.766L219.834 392.246C219.834 392.246 165.274 405.336 146.694 415.296Z" fill="url(#paint9_linear_1_10426)"/>
<path fill-rule="evenodd" clip-rule="evenodd" d="M219.904 300.376L246.234 286.086C246.234 286.086 267.684 336.746 253.014 405.916L250.364 406.776L227.084 328.046L221.414 329.666L219.904 300.366V300.376Z" fill="url(#paint10_linear_1_10426)"/>
<path fill-rule="evenodd" clip-rule="evenodd" d="M92.0141 342.156L61.5042 346.206C61.5042 346.206 73.9842 399.796 126.554 447.066L129.204 446.206L101.674 368.856L107.214 366.836L92.0042 342.156H92.0141Z" fill="url(#paint11_linear_1_10426)"/>
<path fill-rule="evenodd" clip-rule="evenodd" d="M57.284 18.5257C21.014 30.3357 -7.32604 136.276 23.744 216.116C54.814 295.956 131.124 403.276 131.124 403.276L177.734 388.616L224.044 373.036C224.044 373.036 222.564 241.366 200.684 158.526C178.814 75.6857 93.304 6.80569 57.284 18.5257Z" fill="url(#paint12_radial_1_10426)"/>
<path fill-rule="evenodd" clip-rule="evenodd" d="M131.124 403.276C131.124 403.276 182.484 381.356 224.054 373.026C224.054 373.026 173.834 395.056 131.124 403.276Z" fill="#31165F"/>
<path fill-rule="evenodd" clip-rule="evenodd" d="M20.5439 71.2059C20.5439 71.2059 66.6339 38.1959 122.194 42.8159C122.194 42.8159 83.6839 10.1959 57.2839 18.5259C33.5339 26.0159 20.5439 71.2059 20.5439 71.2059Z" fill="url(#paint13_radial_1_10426)"/>
<path d="M122.134 43.4959C70.364 38.6859 21.4141 71.4359 20.9241 71.7759L20.1541 70.6359C20.6441 70.3059 69.9941 37.2659 122.254 42.1259L122.124 43.4959H122.134Z" fill="#53345F"/>
<path fill-rule="evenodd" clip-rule="evenodd" d="M46.0142 25.3758L73.6242 17.9058C73.6242 17.9058 56.6442 12.5458 46.0142 25.3758Z" fill="#53345F"/>
<path fill-rule="evenodd" clip-rule="evenodd" d="M49.364 22.8359C49.364 22.8359 56.224 19.1159 64.524 17.4659C64.524 17.4659 57.334 5.51586 52.534 6.58586C47.734 7.65586 49.374 22.8359 49.374 22.8359H49.364Z" fill="url(#paint14_linear_1_10426)"/>
<path style="mix-blend-mode:multiply" opacity="0.5" fill-rule="evenodd" clip-rule="evenodd" d="M83.9341 331.296C83.9341 331.296 153.954 280.066 219.174 278.826C222.504 315.316 224.064 373.026 224.064 373.026C224.064 373.026 186.934 379.596 131.134 403.276C131.134 403.276 103.934 368.746 83.9341 331.296Z" fill="url(#paint15_radial_1_10426)"/>
<path style="mix-blend-mode:multiply" opacity="0.5" fill-rule="evenodd" clip-rule="evenodd" d="M73.3941 78.3158C41.4841 91.5158 30.8841 138.126 40.4641 172.656C50.0441 207.186 87.9241 217.856 120.794 206.116C153.664 194.376 173.714 162.606 157.784 126.566C143.384 93.9858 108.794 63.6558 73.3941 78.3158Z" fill="url(#paint16_radial_1_10426)"/>
<path fill-rule="evenodd" clip-rule="evenodd" d="M71.6341 72.8959C39.7241 86.0959 29.1241 132.706 38.7041 167.236C48.2841 201.766 86.1641 212.436 119.034 200.696C151.904 188.956 171.954 157.186 156.024 121.146C141.624 88.5659 107.034 58.2359 71.6341 72.8959Z" fill="#31165F"/>
<path fill-rule="evenodd" clip-rule="evenodd" d="M70.4041 69.1158C38.4941 82.3158 27.8941 128.926 37.4741 163.456C47.0541 197.986 84.9341 208.656 117.804 196.916C150.674 185.176 170.724 153.406 154.794 117.366C140.394 84.7858 105.804 54.4558 70.4041 69.1158Z" fill="url(#paint17_radial_1_10426)"/>
<path fill-rule="evenodd" clip-rule="evenodd" d="M76.5041 80.5058C47.7641 91.8458 43.0341 127.286 50.5041 154.246C57.9741 181.206 87.7041 189.476 113.534 180.256C139.364 171.036 155.154 146.196 142.704 118.066C131.444 92.6358 106.534 68.6458 76.5041 80.5058Z" fill="#A6345F"/>
<path fill-rule="evenodd" clip-rule="evenodd" d="M137.874 161.796V161.816L137.834 161.866C132.154 169.886 123.554 176.176 113.254 179.856C88.6641 188.626 57.624 179.906 50.504 154.246C48.124 145.616 47.214 136.316 48.174 127.286C49.994 109.456 59.034 92.7858 77.994 84.8858C106.004 73.2258 130.294 96.4458 141.014 120.646C147.894 136.186 145.714 150.666 137.874 161.786V161.796Z" fill="url(#paint18_linear_1_10426)"/>
<path d="M119.121 200.669L118.465 200.883L149.231 295.401L149.887 295.188L119.121 200.669Z" fill="#53345F"/>
<path d="M84.1241 331.586L83.7341 331.016C164.974 275.856 218.654 278.456 219.184 278.486L219.144 279.166C218.604 279.136 165.144 276.556 84.1241 331.576V331.586Z" fill="#53345F"/>
<path d="M66.8239 302.346L66.2839 301.916C66.5039 301.646 88.3639 274.616 136.724 255.936L136.974 256.576C88.7939 275.186 67.0439 302.076 66.8339 302.346H66.8239Z" fill="#53345F"/>
<path fill-rule="evenodd" clip-rule="evenodd" d="M182.494 359.786L167.914 319.416L178.144 312.956L191.244 356.936L182.494 359.786Z" fill="#31165F"/>
<path fill-rule="evenodd" clip-rule="evenodd" d="M139.084 401.616C139.084 401.616 178.174 384.586 218.874 375.236L222.434 394.296L146.484 416.786L139.084 401.616Z" fill="url(#paint19_radial_1_10426)"/>
<path opacity="0.5" fill-rule="evenodd" clip-rule="evenodd" d="M142.824 409.276C142.824 409.276 154.064 397.436 172.304 391.926C190.554 386.416 221.604 389.876 221.604 389.876L218.874 375.236C218.874 375.236 174.404 385.066 139.084 401.616L142.824 409.286V409.276Z" fill="#31165F"/>
<path d="M99.634 90.2057C99.634 90.2057 108.574 94.2257 118.544 104.096L123.654 98.3857C123.654 98.3857 115.014 88.3057 104.654 87.1257L99.634 90.1957V90.2057Z" fill="white"/>
<path d="M62.334 159.526L70.514 167.006L66.314 171.776L60.074 165.336L62.334 159.526Z" fill="white"/>
<path style="mix-blend-mode:multiply" opacity="0.5" fill-rule="evenodd" clip-rule="evenodd" d="M15.4041 91.1357C15.4041 91.1357 58.2041 47.8857 133.694 52.5257L122.194 42.8057C122.194 42.8057 77.6441 37.2657 20.5441 71.1957L15.4041 91.1257V91.1357Z" fill="url(#paint20_radial_1_10426)"/>
<path fill-rule="evenodd" clip-rule="evenodd" d="M136.454 263.166C136.974 264.776 136.094 266.496 134.494 267.016C132.894 267.536 131.164 266.656 130.644 265.056C130.124 263.456 131.004 261.726 132.604 261.206C134.204 260.686 135.934 261.566 136.454 263.166Z" fill="url(#paint21_linear_1_10426)"/>
<path d="M133.544 266.516C134.875 266.516 135.954 265.437 135.954 264.106C135.954 262.775 134.875 261.696 133.544 261.696C132.213 261.696 131.134 262.775 131.134 264.106C131.134 265.437 132.213 266.516 133.544 266.516Z" fill="url(#paint22_radial_1_10426)"/>
<path fill-rule="evenodd" clip-rule="evenodd" d="M131.784 248.816C132.304 250.426 131.424 252.146 129.824 252.666C128.224 253.186 126.494 252.306 125.974 250.706C125.454 249.106 126.334 247.376 127.934 246.856C129.534 246.336 131.264 247.216 131.784 248.816Z" fill="url(#paint23_linear_1_10426)"/>
<path d="M128.874 252.176C130.205 252.176 131.284 251.097 131.284 249.766C131.284 248.435 130.205 247.356 128.874 247.356C127.543 247.356 126.464 248.435 126.464 249.766C126.464 251.097 127.543 252.176 128.874 252.176Z" fill="url(#paint24_radial_1_10426)"/>
<path d="M49.164 170.616C50.854 170.616 52.224 169.246 52.224 167.556C52.224 165.866 50.854 164.496 49.164 164.496C47.474 164.496 46.104 165.866 46.104 167.556C46.104 169.246 47.474 170.616 49.164 170.616Z" fill="#31165F"/>
<path d="M49.1639 169.966C50.4949 169.966 51.5739 168.887 51.5739 167.556C51.5739 166.225 50.4949 165.146 49.1639 165.146C47.8329 165.146 46.7539 166.225 46.7539 167.556C46.7539 168.887 47.8329 169.966 49.1639 169.966Z" fill="url(#paint25_radial_1_10426)"/>
<path fill-rule="evenodd" clip-rule="evenodd" d="M43.774 123.796C44.294 125.406 43.414 127.126 41.814 127.646C40.214 128.166 38.484 127.286 37.964 125.686C37.444 124.086 38.324 122.356 39.924 121.836C41.524 121.316 43.254 122.196 43.774 123.796Z" fill="#31165F"/>
<path d="M40.8641 127.146C42.1951 127.146 43.2741 126.067 43.2741 124.736C43.2741 123.405 42.1951 122.326 40.8641 122.326C39.5331 122.326 38.4541 123.405 38.4541 124.736C38.4541 126.067 39.5331 127.146 40.8641 127.146Z" fill="url(#paint26_radial_1_10426)"/>
<path fill-rule="evenodd" clip-rule="evenodd" d="M89.8641 190.266C90.3841 191.876 89.5041 193.596 87.9041 194.116C86.3041 194.636 84.5741 193.756 84.0541 192.156C83.5341 190.556 84.4141 188.826 86.0141 188.306C87.6141 187.786 89.3441 188.666 89.8641 190.266Z" fill="#31165F"/>
<path d="M86.9642 193.616C88.2952 193.616 89.3742 192.537 89.3742 191.206C89.3742 189.875 88.2952 188.796 86.9642 188.796C85.6332 188.796 84.5542 189.875 84.5542 191.206C84.5542 192.537 85.6332 193.616 86.9642 193.616Z" fill="url(#paint27_radial_1_10426)"/>
<path d="M134.085 182.954C135.692 182.431 136.571 180.704 136.048 179.097C135.525 177.49 133.798 176.612 132.191 177.135C130.584 177.658 129.705 179.385 130.228 180.992C130.751 182.599 132.478 183.477 134.085 182.954Z" fill="#31165F"/>
<path d="M133.134 182.456C134.465 182.456 135.544 181.377 135.544 180.046C135.544 178.715 134.465 177.636 133.134 177.636C131.803 177.636 130.724 178.715 130.724 180.046C130.724 181.377 131.803 182.456 133.134 182.456Z" fill="url(#paint28_radial_1_10426)"/>
<path d="M154.794 146.036C156.484 146.036 157.854 144.666 157.854 142.976C157.854 141.286 156.484 139.916 154.794 139.916C153.104 139.916 151.734 141.286 151.734 142.976C151.734 144.666 153.104 146.036 154.794 146.036Z" fill="#31165F"/>
<path d="M154.794 145.386C156.125 145.386 157.204 144.307 157.204 142.976C157.204 141.645 156.125 140.566 154.794 140.566C153.463 140.566 152.384 141.645 152.384 142.976C152.384 144.307 153.463 145.386 154.794 145.386Z" fill="url(#paint29_radial_1_10426)"/>
<path d="M133.354 96.0258C135.044 96.0258 136.414 94.6558 136.414 92.9658C136.414 91.2758 135.044 89.9058 133.354 89.9058C131.664 89.9058 130.294 91.2758 130.294 92.9658C130.294 94.6558 131.664 96.0258 133.354 96.0258Z" fill="#31165F"/>
<path d="M134.1 95.2539C135.366 94.8419 136.058 93.482 135.646 92.2163C135.234 90.9507 133.874 90.2586 132.609 90.6706C131.343 91.0825 130.651 92.4425 131.063 93.7082C131.475 94.9738 132.835 95.6659 134.1 95.2539Z" fill="url(#paint30_radial_1_10426)"/>
<path fill-rule="evenodd" clip-rule="evenodd" d="M104.694 72.8957C105.214 74.5057 104.334 76.2257 102.734 76.7457C101.134 77.2657 99.4042 76.3857 98.8842 74.7857C98.3642 73.1857 99.2442 71.4557 100.844 70.9357C102.444 70.4157 104.174 71.2957 104.694 72.8957Z" fill="#31165F"/>
<path d="M101.794 76.2555C103.125 76.2555 104.204 75.1765 104.204 73.8455C104.204 72.5145 103.125 71.4355 101.794 71.4355C100.463 71.4355 99.3843 72.5145 99.3843 73.8455C99.3843 75.1765 100.463 76.2555 101.794 76.2555Z" fill="url(#paint31_radial_1_10426)"/>
<path fill-rule="evenodd" clip-rule="evenodd" d="M64.754 81.2958C65.274 82.9058 64.394 84.6258 62.794 85.1458C61.194 85.6658 59.464 84.7858 58.944 83.1858C58.424 81.5858 59.304 79.8558 60.904 79.3358C62.504 78.8158 64.234 79.6958 64.754 81.2958Z" fill="#31165F"/>
<path d="M61.8441 84.6559C63.1751 84.6559 64.2541 83.5769 64.2541 82.2459C64.2541 80.9149 63.1751 79.8359 61.8441 79.8359C60.5131 79.8359 59.4341 80.9149 59.4341 82.2459C59.4341 83.5769 60.5131 84.6559 61.8441 84.6559Z" fill="url(#paint32_radial_1_10426)"/>
<path fill-rule="evenodd" clip-rule="evenodd" d="M129.214 446.206L131.354 445.516L103.784 368.096L101.684 368.856L129.214 446.206Z" fill="#6F2561"/>
<path fill-rule="evenodd" clip-rule="evenodd" d="M227.074 328.046L224.924 328.666L248.914 407.256L250.354 406.786L227.074 328.046Z" fill="#6F2561"/>
<path fill-rule="evenodd" clip-rule="evenodd" d="M170.424 297.196L178.084 294.706L210.334 419.806L205.004 421.546L170.424 297.196Z" fill="url(#paint33_linear_1_10426)"/>
<path fill-rule="evenodd" clip-rule="evenodd" d="M170.424 297.196L173.934 326.076L205.004 421.546L170.424 297.196Z" fill="#FF4C61"/>
<path opacity="0.5" fill-rule="evenodd" clip-rule="evenodd" d="M179.084 298.556L224.054 373.036L205.214 378.046L211.314 397.586L205.124 399.596L179.084 298.556Z" fill="#31165F"/>
<path d="M17.1939 116.456C17.1939 116.456 13.6939 108.266 17.3439 101.336L21.7739 100.126C21.7739 100.126 20.9039 109.006 19.3639 115.746L17.1939 116.456Z" fill="white"/>
<g style="mix-blend-mode:soft-light">
<path d="M212.434 258.136L208.564 219.066L210.804 218.336L215.064 257.276L212.434 258.136Z" fill="white"/>
</g>
<path fill-rule="evenodd" clip-rule="evenodd" d="M168.604 91.9457C168.604 91.9457 181.224 84.7457 176.524 103.826L168.604 91.9457Z" fill="url(#paint34_linear_1_10426)"/>
<path fill-rule="evenodd" clip-rule="evenodd" d="M10.434 141.416C10.434 141.416 -0.89604 149.216 10.894 155.136L10.434 141.416Z" fill="url(#paint35_linear_1_10426)"/>
<g style="mix-blend-mode:soft-light" opacity="0.5">
<path fill-rule="evenodd" clip-rule="evenodd" d="M143.814 397.676C143.814 397.676 73.7241 301.026 33.8141 224.836L30.9541 227.636C30.9541 227.636 87.6341 346.006 132.934 402.516L143.814 397.676Z" fill="white"/>
</g>
<g style="mix-blend-mode:soft-light">
<path fill-rule="evenodd" clip-rule="evenodd" d="M207.104 210.386L203.814 186.596L205.934 185.896L209.224 209.696L207.104 210.386Z" fill="white"/>
</g>
<g style="mix-blend-mode:soft-light">
<path fill-rule="evenodd" clip-rule="evenodd" d="M78.064 292.736C78.064 292.736 97.854 274.856 119.224 265.546C119.224 265.546 98.844 277.616 78.064 292.736Z" fill="white"/>
</g>
<g style="mix-blend-mode:soft-light">
<path fill-rule="evenodd" clip-rule="evenodd" d="M122.724 209.236L150.254 291.906C150.254 291.906 141.904 261.386 122.724 209.236Z" fill="white"/>
</g>
<g style="mix-blend-mode:soft-light">
<path fill-rule="evenodd" clip-rule="evenodd" d="M99.564 322.416C99.564 322.416 149.454 288.256 205.714 281.436C205.714 281.436 163.374 284.576 99.564 322.416Z" fill="white"/>
</g>
<path fill-rule="evenodd" clip-rule="evenodd" d="M41.074 100.846C41.074 100.846 49.574 101.426 49.404 85.9558C49.404 85.9558 43.684 93.6458 41.074 100.846Z" fill="white"/>
<g style="mix-blend-mode:soft-light">
<path fill-rule="evenodd" clip-rule="evenodd" d="M124.234 194.296C124.234 194.296 141.974 187.476 156.964 160.956C156.964 160.956 149.954 182.976 124.234 194.296Z" fill="white"/>
</g>
<g style="mix-blend-mode:soft-light">
<path fill-rule="evenodd" clip-rule="evenodd" d="M112.254 180.706C112.254 180.706 130.774 184.046 136.494 165.016C136.494 165.016 130.564 175.216 112.254 180.706Z" fill="white"/>
</g>
<g style="mix-blend-mode:soft-light" opacity="0.36">
<path fill-rule="evenodd" clip-rule="evenodd" d="M120.734 217.186C120.004 218.126 118.504 219.606 119.264 220.926C119.614 221.546 120.194 221.976 120.604 222.546C120.964 223.046 121.274 223.596 121.514 224.166C121.844 224.946 122.664 226.036 123.434 226.466C124.024 226.796 124.314 226.156 124.464 225.626C124.624 225.036 124.794 224.436 124.634 223.836C124.424 223.066 124.214 222.306 124.164 221.506C124.144 221.196 124.284 220.866 124.254 220.546C124.214 220.126 124.044 219.696 123.904 219.296C123.594 218.436 122.404 216.996 120.734 217.176V217.186Z" fill="white"/>
<path fill-rule="evenodd" clip-rule="evenodd" d="M120.784 230.276C120.534 229.926 120.504 229.576 120.684 229.236C122.084 228.816 123.474 231.416 122.344 232.376C121.034 233.486 120.174 231.466 120.344 230.416L120.794 230.266L120.784 230.276Z" fill="white"/>
<path fill-rule="evenodd" clip-rule="evenodd" d="M100.814 256.326C101.434 255.736 101.874 255.056 102.744 254.976C103.484 254.906 104.154 255.136 104.784 255.506C105.564 255.976 106.064 256.716 106.574 257.446C106.824 257.806 107.134 258.116 107.164 258.566C107.264 260.356 105.764 262.126 104.424 263.076C103.644 263.636 102.954 264.206 102.074 264.576C101.474 264.826 100.884 265.126 100.304 265.426C99.814 265.686 99.414 266.046 98.844 266.076C98.434 266.106 97.824 265.936 97.444 265.796C96.204 265.356 95.224 264.466 94.874 263.216C94.254 261.046 96.254 258.506 97.714 257.066C98.914 255.886 100.894 254.266 100.814 256.306V256.326Z" fill="white"/>
<path fill-rule="evenodd" clip-rule="evenodd" d="M106.584 251.236C106.584 251.916 106.464 252.156 107.064 252.336C107.504 252.466 107.994 252.286 108.344 252.036C109.014 251.536 109.584 250.106 108.774 249.516C108.364 249.216 107.474 248.746 106.994 248.846C106.044 249.056 105.324 250.736 105.694 251.526L106.594 251.236H106.584Z" fill="white"/>
<path fill-rule="evenodd" clip-rule="evenodd" d="M141.354 263.046C141.354 263.436 141.444 263.686 141.564 264.056C141.834 264.886 142.104 265.716 142.384 266.546C142.904 268.106 143.174 269.746 143.684 271.316C144.054 272.456 144.614 273.526 145.154 274.586C145.424 275.136 145.744 275.706 146.054 276.226C146.174 276.136 146.104 275.856 146.124 275.706C146.174 275.206 146.134 274.686 146.224 274.196C146.434 273.096 146.624 271.946 146.754 270.836C146.774 270.626 146.734 270.406 146.804 270.206C146.894 269.956 147.054 269.686 147.154 269.446C147.344 269.006 147.494 268.536 147.534 268.056C147.624 266.946 147.244 265.756 146.854 264.716C146.724 264.366 146.514 264.056 146.384 263.696C146.244 263.306 146.114 262.946 145.934 262.576C145.554 261.796 144.904 261.156 144.264 260.586C143.514 259.916 142.484 258.636 141.344 258.756C140.784 258.806 140.774 259.446 140.834 259.896C140.904 260.466 141.084 261.006 141.184 261.576C141.314 262.316 141.344 263.256 141.354 263.056V263.046Z" fill="white"/>
<path fill-rule="evenodd" clip-rule="evenodd" d="M140.064 255.306C140.174 254.836 140.254 254.006 140.894 253.936C141.524 253.876 141.804 254.696 141.894 255.176C142.094 256.316 140.334 255.636 140.184 254.896L140.074 255.306H140.064Z" fill="white"/>
<path fill-rule="evenodd" clip-rule="evenodd" d="M152.914 258.666C152.854 259.156 152.794 259.606 153.044 260.036C153.394 260.666 153.994 260.766 154.654 260.576C155.664 260.286 156.264 259.816 156.134 258.726C156.054 258.056 155.314 257.236 154.714 256.956C154.424 256.826 154.104 256.806 153.784 256.886C153.154 257.036 153.024 257.616 152.874 258.176L152.904 258.656L152.914 258.666Z" fill="white"/>
<path fill-rule="evenodd" clip-rule="evenodd" d="M185.444 282.596C186.724 281.416 188.014 280.246 189.544 279.396C190.884 278.646 192.364 278.306 193.764 277.696C195.734 276.846 197.384 275.556 199.204 274.426C200.804 273.436 202.394 272.646 204.304 272.506C205.744 272.396 207.444 272.806 208.484 273.856C209.124 274.506 209.624 275.306 210.014 276.126C210.204 276.516 210.354 276.886 210.534 277.276C210.654 277.526 210.804 277.666 210.884 277.966C210.994 278.356 210.854 278.416 210.484 278.526C209.784 278.746 209.264 278.836 208.534 278.666C207.424 278.406 206.194 278.526 205.084 278.676C203.984 278.826 202.884 278.906 201.794 279.126C200.714 279.336 199.644 279.556 198.554 279.746C197.624 279.916 196.684 280.046 195.754 280.216C194.834 280.376 193.944 280.666 193.034 280.896C192.274 281.076 191.564 281.396 190.804 281.566C190.324 281.676 189.874 281.766 189.404 281.926C189.034 282.056 188.694 282.126 188.304 282.186C187.934 282.236 187.614 282.416 187.254 282.506C187.024 282.566 186.184 282.636 185.434 282.596H185.444Z" fill="white"/>
<path fill-rule="evenodd" clip-rule="evenodd" d="M192.834 273.006C192.664 273.276 192.424 273.536 192.454 273.846C192.464 273.966 192.564 274.186 192.634 274.296C193.004 274.906 194.114 274.586 194.654 274.416C196.154 273.936 197.714 272.916 198.454 271.486C198.924 270.566 199.164 269.146 198.634 268.216C197.894 266.926 196.144 266.626 194.764 266.746C193.474 266.866 191.764 267.346 191.144 268.606C190.924 269.046 190.774 269.566 190.884 270.056C190.974 270.436 191.224 270.746 191.354 271.116C191.524 271.606 191.404 272.126 191.804 272.526C192.084 272.816 192.454 272.946 192.834 273.006Z" fill="white"/>
<path fill-rule="evenodd" clip-rule="evenodd" d="M201.824 270.206C201.604 269.816 201.624 269.756 201.754 269.366C201.874 269.006 202.074 268.806 202.474 268.776C203.094 268.726 203.654 269.286 203.584 269.896C203.534 270.276 203.144 270.616 202.794 270.766C202.374 270.946 201.904 270.766 201.634 270.396L201.824 270.216V270.206Z" fill="white"/>
<path fill-rule="evenodd" clip-rule="evenodd" d="M202.784 234.026C202.264 234.506 202.074 234.676 201.924 235.316C201.844 235.636 201.834 235.866 202.074 236.126C202.654 236.776 203.854 237.226 204.704 237.246C205.324 237.266 206.034 236.976 206.454 236.526C206.824 236.126 207.024 235.456 207.234 234.956C207.434 234.496 207.594 234.026 207.744 233.546C208.004 232.716 208.134 231.836 207.384 231.216C206.724 230.666 205.614 230.426 204.804 230.756C204.144 231.016 203.814 231.376 203.344 231.866C202.904 232.326 202.474 232.676 202.784 234.026Z" fill="white"/>
<path fill-rule="evenodd" clip-rule="evenodd" d="M200.854 238.356C201.324 238.246 201.784 238.216 202.254 238.286C202.304 238.496 202.594 238.516 202.584 238.786C202.584 239.166 201.984 239.246 201.724 239.316C201.394 239.406 200.994 239.376 200.694 239.216C200.584 239.156 200.084 238.896 200.374 238.766L200.864 238.356H200.854Z" fill="white"/>
<path fill-rule="evenodd" clip-rule="evenodd" d="M168.994 277.676C168.884 278.286 168.754 278.946 169.424 279.346C170.054 279.716 170.894 279.316 171.364 278.886C171.614 278.656 171.904 278.396 171.844 278.046C171.774 277.686 171.594 277.326 171.484 276.966C171.234 276.116 171.884 275.246 170.854 274.686C170.434 274.456 169.674 274.406 169.254 274.646C168.464 275.086 168.324 276.116 168.264 276.936L169.004 277.686L168.994 277.676Z" fill="white"/>
<path fill-rule="evenodd" clip-rule="evenodd" d="M111.294 330.726C110.394 331.276 109.704 332.006 109.234 332.906C109.284 333.026 109.334 333.146 109.384 333.266C109.374 333.996 109.534 334.676 110.074 335.206C111.694 336.786 113.604 335.906 115.414 335.316C117.344 334.676 119.884 334.086 118.114 331.696C117.314 330.606 116.094 328.786 114.714 328.386C113.984 328.176 113.734 328.466 113.224 328.876C112.574 329.386 111.694 329.976 111.294 330.716V330.726Z" fill="white"/>
<path fill-rule="evenodd" clip-rule="evenodd" d="M134.424 326.536C134.554 325.916 134.654 324.756 135.384 324.426C135.974 324.156 136.304 324.446 136.854 324.626C138.064 325.006 139.294 325.626 138.734 327.196C138.484 327.886 137.564 328.596 136.794 328.706C136.114 328.806 134.784 328.366 134.744 327.546L134.414 326.536H134.424Z" fill="white"/>
<path fill-rule="evenodd" clip-rule="evenodd" d="M171.994 127.266C171.754 128.966 171.724 129.076 172.624 130.426C173.304 131.436 173.924 132.636 175.044 133.226C176.534 134.016 177.954 133.246 179.454 133.086C180.624 132.966 181.274 132.836 181.984 131.786C182.664 130.776 183.214 129.356 183.464 128.146C184.264 124.216 182.594 119.386 179.964 116.466C178.244 114.556 175.924 112.476 173.164 112.586C170.844 112.676 168.564 113.956 167.584 116.086C166.594 118.226 166.994 120.766 168.144 122.756C168.454 123.216 168.754 123.676 169.064 124.136C169.364 124.766 169.584 125.416 169.754 126.096C170.044 126.776 170.644 127.286 172.004 127.256L171.994 127.266Z" fill="white"/>
<path fill-rule="evenodd" clip-rule="evenodd" d="M169.824 134.286C171.594 134.946 171.324 134.826 171.994 136.176C172.294 136.766 172.584 136.826 172.644 137.456C172.714 138.226 171.894 139.286 171.124 139.466C170.504 139.606 169.224 138.776 168.834 138.406C168.234 137.836 168.254 137.406 168.364 136.626L169.834 134.296L169.824 134.286Z" fill="white"/>
<path fill-rule="evenodd" clip-rule="evenodd" d="M28.4441 179.926C28.5441 181.246 28.6141 182.826 30.2341 183.216C31.3341 183.486 32.5641 182.446 33.1641 181.566C34.0241 180.306 34.5341 177.686 34.2541 176.176C33.9541 174.556 31.5441 173.506 30.0641 173.796C27.0541 174.376 26.9941 179.486 27.5341 181.706L28.4441 179.926Z" fill="white"/>
<path fill-rule="evenodd" clip-rule="evenodd" d="M30.804 194.006C30.524 193.716 29.504 192.956 29.484 192.486C29.474 192.266 29.704 192.156 29.744 191.966C29.914 191.266 30.144 190.616 30.784 190.276C32.134 189.566 33.454 189.716 34.574 190.736C35.314 191.406 35.594 192.246 35.134 193.156C34.624 194.146 33.104 195.026 32.024 194.346L30.794 194.006H30.804Z" fill="white"/>
<path fill-rule="evenodd" clip-rule="evenodd" d="M210.004 307.876C209.694 310.246 210.554 312.496 211.714 314.596C212.454 315.936 213.274 317.756 215.004 317.886C219.074 318.206 219.324 309.606 219.204 306.926C219.104 304.716 218.524 302.206 217.474 300.226C216.834 299.016 214.984 296.776 213.514 296.526C211.614 296.206 210.124 297.836 209.554 299.446C208.244 303.136 210.064 306.746 210.094 310.446L210.004 307.876Z" fill="white"/>
<path fill-rule="evenodd" clip-rule="evenodd" d="M207.994 307.976C207.644 308.166 206.044 308.826 205.614 309.376C205.304 309.766 204.804 310.376 204.844 310.886C204.904 311.586 205.584 312.106 206.164 312.376C206.544 312.556 207.204 312.656 207.564 312.356C207.844 312.126 207.964 311.576 208.084 311.236C208.294 310.626 208.364 309.976 208.434 309.306C208.464 309.006 208.554 308.686 208.504 308.366C208.434 307.866 208.074 307.806 207.834 307.476L207.994 307.976Z" fill="white"/>
<path fill-rule="evenodd" clip-rule="evenodd" d="M212.094 327.416C212.564 327.466 213.024 327.526 213.484 327.586C213.554 328.086 213.914 328.576 213.554 329.036C213.304 329.346 212.464 329.636 212.064 329.616C211.474 329.586 211.004 329.296 210.854 328.746C210.674 328.096 211.154 327.656 211.704 327.356L212.094 327.416Z" fill="white"/>
<path fill-rule="evenodd" clip-rule="evenodd" d="M164.634 370.886C164.634 371.536 164.714 372.006 165.344 372.336C166.254 372.806 167.314 372.626 167.884 371.786C168.674 370.626 169.234 368.406 168.474 367.086C167.994 366.256 166.504 365.596 165.774 366.426C165.414 366.836 164.904 367.416 164.674 367.906C164.274 368.766 164.354 369.826 164.574 370.726L164.624 370.896L164.634 370.886Z" fill="white"/>
<path fill-rule="evenodd" clip-rule="evenodd" d="M112.654 60.106C112.364 60.636 112.194 60.836 112.264 61.406C112.344 62.056 112.484 62.666 113.014 63.116C114.064 63.986 116.034 64.156 117.364 64.036C118.574 63.926 119.414 63.496 120.134 62.516C120.944 61.416 121.294 60.256 121.054 58.906C120.804 57.496 120.224 56.606 118.794 56.166C117.654 55.806 116.154 55.486 114.954 55.676C113.834 55.856 113.204 56.386 112.624 57.326C112.104 58.166 111.524 59.556 112.654 60.116V60.106Z" fill="white"/>
<path fill-rule="evenodd" clip-rule="evenodd" d="M123.414 61.2459C123.324 60.8859 123.114 60.5059 123.474 60.2759C123.924 59.9859 124.964 60.1659 125.404 60.3959C125.754 60.5859 126.254 61.1459 126.324 61.5659C126.384 61.8959 126.154 62.2659 125.964 62.5259C125.634 62.9759 125.154 63.1959 124.644 63.0659C124.284 62.9759 123.434 62.8359 123.404 62.3459V61.2259L123.414 61.2459Z" fill="white"/>
<path fill-rule="evenodd" clip-rule="evenodd" d="M80.2541 26.1259C80.4441 26.7759 80.5741 27.0859 81.0741 27.5259C81.8141 28.1659 82.7841 28.6259 83.7241 28.8759C84.9441 29.1959 86.4041 29.2859 87.6041 28.7759C88.4541 28.4159 88.9741 27.1559 88.8341 26.2859C88.6741 25.2459 87.8241 23.9359 86.9641 23.3259C85.3041 22.1559 82.8241 21.5659 80.8841 22.3859C78.6541 23.3259 79.6841 26.7659 80.2541 26.1259Z" fill="white"/>
<path fill-rule="evenodd" clip-rule="evenodd" d="M92.7741 30.9559C92.4441 30.8059 92.1841 30.5859 91.9841 30.2959C92.2641 30.0359 92.2541 29.6259 92.5741 29.3759C92.8841 29.1359 93.3541 29.0859 93.7241 29.1459C94.2741 29.2459 94.7041 29.5559 94.9041 30.0759C95.1241 30.6559 94.9441 30.8559 94.5441 31.2559C94.2541 31.5459 94.2041 31.6459 93.7641 31.5759C93.5341 31.5359 93.1041 31.3959 92.8841 31.2959L92.7741 30.9559Z" fill="white"/>
</g>
<path fill-rule="evenodd" clip-rule="evenodd" d="M103.684 318.536C104.284 320.396 103.684 322.256 102.344 322.686C101.004 323.116 99.4241 321.976 98.8141 320.116C98.2141 318.256 98.8141 316.396 100.154 315.966C101.494 315.536 103.074 316.676 103.684 318.536Z" fill="url(#paint36_linear_1_10426)"/>
<path fill-rule="evenodd" clip-rule="evenodd" d="M103.164 318.706C103.644 320.166 103.164 321.636 102.114 321.976C101.054 322.316 99.8141 321.416 99.3341 319.956C98.8541 318.496 99.3341 317.026 100.384 316.686C101.434 316.346 102.684 317.246 103.164 318.706Z" fill="white"/>
<path d="M196.871 284.183C198.352 283.701 199.063 281.808 198.46 279.954C197.856 278.1 196.166 276.988 194.685 277.47C193.204 277.952 192.493 279.846 193.096 281.7C193.7 283.554 195.39 284.666 196.871 284.183Z" fill="url(#paint37_linear_1_10426)"/>
<path fill-rule="evenodd" clip-rule="evenodd" d="M197.884 280.146C198.364 281.606 197.804 283.096 196.634 283.476C195.464 283.856 194.134 282.976 193.654 281.516C193.174 280.056 193.744 278.566 194.904 278.186C196.064 277.806 197.404 278.686 197.874 280.146H197.884Z" fill="white"/>
<path d="M149.554 298.826C151.503 298.826 153.084 297.245 153.084 295.296C153.084 293.346 151.503 291.766 149.554 291.766C147.604 291.766 146.024 293.346 146.024 295.296C146.024 297.245 147.604 298.826 149.554 298.826Z" fill="url(#paint38_linear_1_10426)"/>
<path fill-rule="evenodd" clip-rule="evenodd" d="M152.194 294.436C152.674 295.896 151.874 297.466 150.414 297.946C148.954 298.426 147.384 297.626 146.904 296.156C146.424 294.686 147.224 293.126 148.694 292.646C150.154 292.166 151.724 292.966 152.204 294.436H152.194Z" fill="white"/>
<path style="mix-blend-mode:screen" d="M166.554 281.956C173.734 290.756 172.414 303.706 163.624 310.876C154.824 318.056 141.874 316.736 134.704 307.946C127.524 299.146 128.844 286.196 137.634 279.026C146.434 271.846 159.384 273.166 166.554 281.956Z" fill="url(#paint39_radial_1_10426)"/>
<path style="mix-blend-mode:screen" d="M185.794 85.0358C191.524 92.0558 190.474 102.396 183.454 108.126C176.434 113.856 166.094 112.806 160.364 105.786C154.634 98.7658 155.684 88.4258 162.704 82.6958C169.724 76.9658 180.064 78.0158 185.794 85.0358Z" fill="url(#paint40_radial_1_10426)"/>
<path style="mix-blend-mode:screen" d="M68.074 6.31579C73.804 13.3358 72.754 23.6758 65.734 29.4058C58.714 35.1358 48.374 34.0858 42.644 27.0658C36.914 20.0458 37.964 9.70579 44.984 3.97579C52.004 -1.75421 62.344 -0.704212 68.074 6.31579Z" fill="url(#paint41_radial_1_10426)"/>
<path style="mix-blend-mode:screen" d="M15.254 142.266C18.214 145.896 17.674 151.236 14.044 154.196C10.414 157.156 5.07404 156.616 2.11404 152.986C-0.845956 149.356 -0.305956 144.016 3.32404 141.056C6.95404 138.096 12.294 138.636 15.254 142.266Z" fill="url(#paint42_radial_1_10426)"/>
<path style="mix-blend-mode:screen" d="M200.354 276.336C203.124 279.726 202.614 284.726 199.224 287.486C195.834 290.256 190.834 289.746 188.074 286.356C185.304 282.966 185.814 277.966 189.204 275.206C192.594 272.436 197.594 272.946 200.354 276.336Z" fill="url(#paint43_radial_1_10426)"/>
<path style="mix-blend-mode:screen" d="M105.824 314.826C108.594 318.216 108.084 323.216 104.694 325.976C101.304 328.746 96.3141 328.236 93.5441 324.846C90.7741 321.456 91.2841 316.456 94.6741 313.696C98.0641 310.926 103.064 311.436 105.824 314.826Z" fill="url(#paint44_radial_1_10426)"/>
</g>
<defs>
<linearGradient id="paint0_linear_1_10426" x1="281.488" y1="187.977" x2="246.077" y2="179.769" gradientUnits="userSpaceOnUse">
<stop stop-color="#486600"/>
<stop offset="1" stop-color="#819F00"/>
</linearGradient>
<linearGradient id="paint1_linear_1_10426" x1="240.345" y1="165.527" x2="263.905" y2="63.8817" gradientUnits="userSpaceOnUse">
<stop stop-color="#81AB00"/>
<stop offset="1" stop-color="#637500"/>
</linearGradient>
<linearGradient id="paint2_linear_1_10426" x1="213.696" y1="288.249" x2="241.623" y2="167.763" gradientUnits="userSpaceOnUse">
<stop stop-color="#486600"/>
<stop offset="1" stop-color="#819F00"/>
</linearGradient>
<linearGradient id="paint3_linear_1_10426" x1="235.729" y1="139.205" x2="243.181" y2="107.057" gradientUnits="userSpaceOnUse">
<stop stop-color="#FFFF29"/>
<stop offset="1" stop-color="#FF7E59"/>
</linearGradient>
<linearGradient id="paint4_linear_1_10426" x1="271.795" y1="151.363" x2="277.621" y2="126.229" gradientUnits="userSpaceOnUse">
<stop stop-color="#FFFF29"/>
<stop offset="1" stop-color="#FF7E59"/>
</linearGradient>
<linearGradient id="paint5_linear_1_10426" x1="194.357" y1="234.925" x2="209.858" y2="168.048" gradientUnits="userSpaceOnUse">
<stop stop-color="#486600"/>
<stop offset="1" stop-color="#819F00"/>
</linearGradient>
<linearGradient id="paint6_linear_1_10426" x1="243.825" y1="231.999" x2="207.235" y2="223.518" gradientUnits="userSpaceOnUse">
<stop stop-color="white"/>
<stop offset="1" stop-color="#9579A7"/>
</linearGradient>
<linearGradient id="paint7_linear_1_10426" x1="284.023" y1="107.645" x2="294.229" y2="63.6119" gradientUnits="userSpaceOnUse">
<stop stop-color="#818300"/>
<stop offset="1" stop-color="#486618"/>
</linearGradient>
<linearGradient id="paint8_linear_1_10426" x1="247.06" y1="93.9957" x2="258.987" y2="42.5399" gradientUnits="userSpaceOnUse">
<stop stop-color="#818300"/>
<stop offset="1" stop-color="#486618"/>
</linearGradient>
<linearGradient id="paint9_linear_1_10426" x1="235.976" y1="566.082" x2="182.909" y2="401.094" gradientUnits="userSpaceOnUse">
<stop stop-opacity="0"/>
<stop offset="0.15" stop-color="#000304"/>
<stop offset="0.32" stop-color="#010D11"/>
<stop offset="0.5" stop-color="#041D27"/>
<stop offset="0.68" stop-color="#073445"/>
<stop offset="0.86" stop-color="#0C526C"/>
<stop offset="1" stop-color="#106D90"/>
</linearGradient>
<linearGradient id="paint10_linear_1_10426" x1="264.619" y1="402.135" x2="228.703" y2="291.793" gradientUnits="userSpaceOnUse">
<stop stop-color="#A43440"/>
<stop offset="1" stop-color="#C73634"/>
</linearGradient>
<linearGradient id="paint11_linear_1_10426" x1="114.968" y1="450.846" x2="79.0516" y2="340.504" gradientUnits="userSpaceOnUse">
<stop stop-color="#A43440"/>
<stop offset="1" stop-color="#C73634"/>
</linearGradient>
<radialGradient id="paint12_radial_1_10426" cx="0" cy="0" r="1" gradientUnits="userSpaceOnUse" gradientTransform="translate(116.215 135.643) rotate(-18.03) scale(129.637 237.496)">
<stop stop-color="#F4BAB3"/>
<stop offset="0.77" stop-color="#8D6FC7"/>
<stop offset="0.96" stop-color="#B695E5"/>
</radialGradient>
<radialGradient id="paint13_radial_1_10426" cx="0" cy="0" r="1" gradientUnits="userSpaceOnUse" gradientTransform="translate(58.2648 21.147) rotate(-18.03) scale(34.98 31.8318)">
<stop offset="0.02" stop-color="#AB5E75"/>
<stop offset="0.25" stop-color="#9E577B"/>
<stop offset="0.67" stop-color="#7E448C"/>
<stop offset="0.99" stop-color="#61349C"/>
</radialGradient>
<linearGradient id="paint14_linear_1_10426" x1="57.0053" y1="20.3465" x2="52.5235" y2="6.57754" gradientUnits="userSpaceOnUse">
<stop stop-color="#FFFF18"/>
<stop offset="1" stop-color="#FF7400"/>
</linearGradient>
<radialGradient id="paint15_radial_1_10426" cx="0" cy="0" r="1" gradientUnits="userSpaceOnUse" gradientTransform="translate(148.563 302.344) rotate(-18.03) scale(61.8 113.712)">
<stop offset="0.02" stop-color="#8881BC"/>
<stop offset="0.29" stop-color="#8274B7"/>
<stop offset="0.77" stop-color="#7454AA"/>
<stop offset="0.99" stop-color="#6D43A3"/>
</radialGradient>
<radialGradient id="paint16_radial_1_10426" cx="0" cy="0" r="1" gradientUnits="userSpaceOnUse" gradientTransform="translate(96.8941 142.215) rotate(-18.03) scale(65.71 65.71)">
<stop offset="0.02" stop-color="#8881BC"/>
<stop offset="0.29" stop-color="#8274B7"/>
<stop offset="0.77" stop-color="#7454AA"/>
<stop offset="0.99" stop-color="#6D43A3"/>
</radialGradient>
<radialGradient id="paint17_radial_1_10426" cx="0" cy="0" r="1" gradientUnits="userSpaceOnUse" gradientTransform="translate(74.0751 76.3906) rotate(-18.03) scale(81.906 137.006)">
<stop offset="0.02" stop-color="#725EB0"/>
<stop offset="0.38" stop-color="#6D51AA"/>
<stop offset="0.99" stop-color="#61349C"/>
</radialGradient>
<linearGradient id="paint18_linear_1_10426" x1="110.042" y1="180.926" x2="78.666" y2="84.5341" gradientUnits="userSpaceOnUse">
<stop stop-color="#FFFF29"/>
<stop offset="1" stop-color="#FF7E59"/>
</linearGradient>
<radialGradient id="paint19_radial_1_10426" cx="0" cy="0" r="1" gradientUnits="userSpaceOnUse" gradientTransform="translate(179.063 392.592) rotate(-18.03) scale(24.28 44.6752)">
<stop offset="0.02" stop-color="#725EB0"/>
<stop offset="0.38" stop-color="#6D51AA"/>
<stop offset="0.99" stop-color="#61349C"/>
</radialGradient>
<radialGradient id="paint20_radial_1_10426" cx="0" cy="0" r="1" gradientUnits="userSpaceOnUse" gradientTransform="translate(71.0307 61.0122) rotate(-18.03) scale(44.73 44.73)">
<stop offset="0.02" stop-color="#8881BC"/>
<stop offset="0.29" stop-color="#8274B7"/>
<stop offset="0.77" stop-color="#7454AA"/>
<stop offset="0.99" stop-color="#6D43A3"/>
</radialGradient>
<linearGradient id="paint21_linear_1_10426" x1="134.498" y1="267.014" x2="132.604" y2="261.194" gradientUnits="userSpaceOnUse">
<stop stop-color="#8DC7FF"/>
<stop offset="0.32" stop-color="#5C4D86"/>
</linearGradient>
<radialGradient id="paint22_radial_1_10426" cx="0" cy="0" r="1" gradientUnits="userSpaceOnUse" gradientTransform="translate(133.592 262.84) rotate(-18.0299) scale(2.41 2.40999)">
<stop offset="0.02" stop-color="#8881BC"/>
<stop offset="0.29" stop-color="#8274B7"/>
<stop offset="0.77" stop-color="#7454AA"/>
<stop offset="1" stop-color="#6D43A3"/>
</radialGradient>
<linearGradient id="paint23_linear_1_10426" x1="129.827" y1="252.665" x2="127.936" y2="246.855" gradientUnits="userSpaceOnUse">
<stop stop-color="#8DC7FF"/>
<stop offset="0.32" stop-color="#5C4D86"/>
</linearGradient>
<radialGradient id="paint24_radial_1_10426" cx="0" cy="0" r="1" gradientUnits="userSpaceOnUse" gradientTransform="translate(128.921 248.491) rotate(-18.03) scale(2.41 2.41)">
<stop offset="0.02" stop-color="#8881BC"/>
<stop offset="0.29" stop-color="#8274B7"/>
<stop offset="0.77" stop-color="#7454AA"/>
<stop offset="1" stop-color="#6D43A3"/>
</radialGradient>
<radialGradient id="paint25_radial_1_10426" cx="0" cy="0" r="1" gradientUnits="userSpaceOnUse" gradientTransform="translate(49.2062 166.297) rotate(-18.03) scale(2.41 2.41)">
<stop stop-color="#F4BAB3"/>
<stop offset="1" stop-color="#8D6FC7"/>
</radialGradient>
<radialGradient id="paint26_radial_1_10426" cx="0" cy="0" r="1" gradientUnits="userSpaceOnUse" gradientTransform="translate(40.9137 123.471) rotate(-18.03) scale(2.41)">
<stop stop-color="#F4BAB3"/>
<stop offset="1" stop-color="#8D6FC7"/>
</radialGradient>
<radialGradient id="paint27_radial_1_10426" cx="0" cy="0" r="1" gradientUnits="userSpaceOnUse" gradientTransform="translate(87.0098 189.938) rotate(-18.03) scale(2.41 2.41)">
<stop stop-color="#F4BAB3"/>
<stop offset="1" stop-color="#8D6FC7"/>
</radialGradient>
<radialGradient id="paint28_radial_1_10426" cx="0" cy="0" r="1" gradientUnits="userSpaceOnUse" gradientTransform="translate(133.183 178.778) rotate(-18.03) scale(2.41)">
<stop stop-color="#F4BAB3"/>
<stop offset="1" stop-color="#8D6FC7"/>
</radialGradient>
<radialGradient id="paint29_radial_1_10426" cx="0" cy="0" r="1" gradientUnits="userSpaceOnUse" gradientTransform="translate(154.845 141.713) rotate(-18.03) scale(2.41)">
<stop stop-color="#F4BAB3"/>
<stop offset="1" stop-color="#8D6FC7"/>
</radialGradient>
<radialGradient id="paint30_radial_1_10426" cx="0" cy="0" r="1" gradientUnits="userSpaceOnUse" gradientTransform="translate(133.395 91.6976) rotate(-18.03) scale(2.41 2.41)">
<stop stop-color="#F4BAB3"/>
<stop offset="1" stop-color="#8D6FC7"/>
</radialGradient>
<radialGradient id="paint31_radial_1_10426" cx="0" cy="0" r="1" gradientUnits="userSpaceOnUse" gradientTransform="translate(101.833 72.5763) rotate(-18.03) scale(2.41)">
<stop stop-color="#F4BAB3"/>
<stop offset="1" stop-color="#8D6FC7"/>
</radialGradient>
<radialGradient id="paint32_radial_1_10426" cx="0" cy="0" r="1" gradientUnits="userSpaceOnUse" gradientTransform="translate(61.8896 80.9718) rotate(-18.03) scale(0.5)">
<stop stop-color="#F4BAB3"/>
<stop offset="1" stop-color="#8D6FC7"/>
</radialGradient>
<linearGradient id="paint33_linear_1_10426" x1="211.512" y1="419.421" x2="171.603" y2="296.813" gradientUnits="userSpaceOnUse">
<stop stop-color="#A43411"/>
<stop offset="1" stop-color="#C73634"/>
</linearGradient>
<linearGradient id="paint34_linear_1_10426" x1="170.7" y1="98.3778" x2="177.965" y2="96.0131" gradientUnits="userSpaceOnUse">
<stop stop-color="#FFFF18"/>
<stop offset="1" stop-color="#FF7400"/>
</linearGradient>
<linearGradient id="paint35_linear_1_10426" x1="5.6531" y1="149.903" x2="12.4805" y2="147.68" gradientUnits="userSpaceOnUse">
<stop stop-color="#FFFF18"/>
<stop offset="1" stop-color="#FF7400"/>
</linearGradient>
<linearGradient id="paint36_linear_1_10426" x1="102.351" y1="322.688" x2="100.163" y2="315.965" gradientUnits="userSpaceOnUse">
<stop stop-color="#8DC7FF"/>
<stop offset="0.32" stop-color="#5C4D86"/>
</linearGradient>
<linearGradient id="paint37_linear_1_10426" x1="196.871" y1="284.183" x2="194.682" y2="277.461" gradientUnits="userSpaceOnUse">
<stop stop-color="#8DC7FF"/>
<stop offset="0.32" stop-color="#5C4D86"/>
</linearGradient>
<linearGradient id="paint38_linear_1_10426" x1="150.655" y1="298.657" x2="148.467" y2="291.934" gradientUnits="userSpaceOnUse">
<stop stop-color="#8DC7FF"/>
<stop offset="0.32" stop-color="#5C4D86"/>
</linearGradient>
<radialGradient id="paint39_radial_1_10426" cx="0" cy="0" r="1" gradientUnits="userSpaceOnUse" gradientTransform="translate(150.653 295.282) rotate(-39.21) scale(20.5506)">
<stop stop-color="#003CEE"/>
<stop offset="0.06" stop-color="#0035D5"/>
<stop offset="0.2" stop-color="#00279D"/>
<stop offset="0.34" stop-color="#001B6D"/>
<stop offset="0.48" stop-color="#001146"/>
<stop offset="0.62" stop-color="#000927"/>
<stop offset="0.75" stop-color="#000411"/>
<stop offset="0.88" stop-color="#000104"/>
<stop offset="1"/>
</radialGradient>
<radialGradient id="paint40_radial_1_10426" cx="0" cy="0" r="1" gradientUnits="userSpaceOnUse" gradientTransform="translate(173.1 95.8636) rotate(-39.21) scale(16.4052)">
<stop stop-color="#FF9A00"/>
<stop offset="0.09" stop-color="#D58100"/>
<stop offset="0.23" stop-color="#9D5F00"/>
<stop offset="0.36" stop-color="#6D4200"/>
<stop offset="0.5" stop-color="#462A00"/>
<stop offset="0.63" stop-color="#271700"/>
<stop offset="0.76" stop-color="#110A00"/>
<stop offset="0.89" stop-color="#040200"/>
<stop offset="1"/>
</radialGradient>
<radialGradient id="paint41_radial_1_10426" cx="0" cy="0" r="1" gradientUnits="userSpaceOnUse" gradientTransform="translate(55.4323 17.1918) rotate(-39.21) scale(16.4052)">
<stop stop-color="#FF9A00"/>
<stop offset="0.09" stop-color="#D58100"/>
<stop offset="0.23" stop-color="#9D5F00"/>
<stop offset="0.36" stop-color="#6D4200"/>
<stop offset="0.5" stop-color="#462A00"/>
<stop offset="0.63" stop-color="#271700"/>
<stop offset="0.76" stop-color="#110A00"/>
<stop offset="0.89" stop-color="#040200"/>
<stop offset="1"/>
</radialGradient>
<radialGradient id="paint42_radial_1_10426" cx="0" cy="0" r="1" gradientUnits="userSpaceOnUse" gradientTransform="translate(8.79274 148.054) rotate(-39.21) scale(8.4819)">
<stop stop-color="#FF9A00"/>
<stop offset="0.09" stop-color="#D58100"/>
<stop offset="0.23" stop-color="#9D5F00"/>
<stop offset="0.36" stop-color="#6D4200"/>
<stop offset="0.5" stop-color="#462A00"/>
<stop offset="0.63" stop-color="#271700"/>
<stop offset="0.76" stop-color="#110A00"/>
<stop offset="0.89" stop-color="#040200"/>
<stop offset="1"/>
</radialGradient>
<radialGradient id="paint43_radial_1_10426" cx="0" cy="0" r="1" gradientUnits="userSpaceOnUse" gradientTransform="translate(194.22 281.687) rotate(-39.21) scale(7.9233)">
<stop stop-color="#003CEE"/>
<stop offset="0.06" stop-color="#0035D5"/>
<stop offset="0.2" stop-color="#00279D"/>
<stop offset="0.34" stop-color="#001B6D"/>
<stop offset="0.48" stop-color="#001146"/>
<stop offset="0.62" stop-color="#000927"/>
<stop offset="0.75" stop-color="#000411"/>
<stop offset="0.88" stop-color="#000104"/>
<stop offset="1"/>
</radialGradient>
<radialGradient id="paint44_radial_1_10426" cx="0" cy="0" r="1" gradientUnits="userSpaceOnUse" gradientTransform="translate(99.7476 320.157) rotate(-39.21) scale(7.9233)">
<stop stop-color="#003CEE"/>
<stop offset="0.06" stop-color="#0035D5"/>
<stop offset="0.2" stop-color="#00279D"/>
<stop offset="0.34" stop-color="#001B6D"/>
<stop offset="0.48" stop-color="#001146"/>
<stop offset="0.62" stop-color="#000927"/>
<stop offset="0.75" stop-color="#000411"/>
<stop offset="0.88" stop-color="#000104"/>
<stop offset="1"/>
</radialGradient>
<clipPath id="clip0_1_10426">
<rect width="307.46" height="577.18" fill="white" transform="translate(0.204102 0.275879)"/>
</clipPath>
</defs>
</svg>
