<svg width="60" height="60" viewBox="0 0 60 60" fill="none" xmlns="http://www.w3.org/2000/svg">
<path d="M58.9298 27.4848C58.7397 25.5315 58.3591 23.634 57.8068 21.8111L57.3283 21.9561C56.7727 20.1223 56.0404 18.3653 55.151 16.7048L55.5917 16.4688C54.6759 14.759 53.5966 13.1499 52.3745 11.6625L51.9882 11.98C50.7823 10.5122 49.435 9.165 47.9673 7.95908L48.2847 7.57276C46.7973 6.3507 45.1883 5.27132 43.4785 4.35552L43.2424 4.79628C41.582 3.9069 39.8249 3.17453 37.9911 2.61895L38.1361 2.14043C36.3132 1.58815 34.4157 1.20755 32.4624 1.01746L32.414 1.51511C31.4784 1.42405 30.5296 1.37744 29.5698 1.37744C28.61 1.37744 27.6612 1.42405 26.7256 1.51511L26.6772 1.01746C24.7239 1.20756 22.8264 1.58815 21.0035 2.14043L21.1485 2.61895C19.3147 3.17454 17.5577 3.9069 15.8972 4.79628L15.6611 4.35552C13.9514 5.27132 12.3423 6.35071 10.8549 7.57276L11.1723 7.95909C9.70462 9.165 8.35738 10.5122 7.15147 11.98L6.76514 11.6626C5.54309 13.1499 4.4637 14.759 3.5479 16.4688L3.98866 16.7048C3.09929 18.3653 2.36692 20.1223 1.81133 21.9561L1.33281 21.8111C0.780533 23.634 0.399937 25.5315 0.209841 27.4848L0.70749 27.5333C0.616435 28.4689 0.569824 29.4176 0.569824 30.3774C0.569824 31.3372 0.616435 32.286 0.70749 33.2216L0.209841 33.2701C0.399938 35.2234 0.780535 37.1209 1.33281 38.9437L1.81133 38.7988C2.36692 40.6325 3.09929 42.3896 3.98866 44.05L3.54791 44.2861C4.4637 45.9959 5.54309 47.605 6.76514 49.0923L7.15147 48.7749C8.35738 50.2426 9.70462 51.5899 11.1723 52.7958L10.8549 53.1821C12.3423 54.4042 13.9514 55.4836 15.6611 56.3994L15.8972 55.9586C17.5577 56.848 19.3147 57.5803 21.1485 58.1359L21.0035 58.6145C22.8264 59.1667 24.7239 59.5473 26.6772 59.7374L26.7256 59.2398C27.6612 59.3308 28.61 59.3774 29.5698 59.3774C30.5296 59.3774 31.4784 59.3308 32.414 59.2398L32.4624 59.7374C34.4157 59.5473 36.3132 59.1667 38.1361 58.6145L37.9911 58.1359C39.8249 57.5803 41.582 56.848 43.2424 55.9586L43.4785 56.3994C45.1883 55.4836 46.7973 54.4042 48.2847 53.1821L47.9673 52.7958C49.435 51.5899 50.7823 50.2426 51.9882 48.7749L52.3745 49.0923C53.5966 47.605 54.6759 45.9959 55.5917 44.2861L55.151 44.05C56.0404 42.3896 56.7727 40.6325 57.3283 38.7988L57.8068 38.9437C58.3591 37.1209 58.7397 35.2234 58.9298 33.2701L58.4322 33.2216C58.5232 32.286 58.5698 31.3372 58.5698 30.3774C58.5698 29.4176 58.5232 28.4689 58.4322 27.5332L58.9298 27.4848Z" stroke="white" stroke-dasharray="6 6"/>
</svg>
