<svg width="324" height="325" viewBox="0 0 324 325" fill="none" xmlns="http://www.w3.org/2000/svg">
<mask id="mask0_124_1049" style="mask-type:alpha" maskUnits="userSpaceOnUse" x="0" y="0" width="324" height="325">
<circle cx="162.222" cy="162.59" r="161.648" fill="#D9D9D9"/>
</mask>
<g mask="url(#mask0_124_1049)">
<path fill-rule="evenodd" clip-rule="evenodd" d="M308.41 160.853C308.41 174.847 306.432 188.41 302.693 201.204C295.278 226.946 280.91 249.735 261.722 267.511C248.004 280.244 231.813 290.362 213.985 297.098C197.825 303.218 180.336 306.539 162.014 306.539C159.418 306.539 156.792 306.478 154.227 306.324C150.396 306.139 146.595 305.77 142.857 305.309C114.585 301.619 88.9083 289.932 68.0829 272.524C60.2656 266.035 53.159 258.715 46.8867 250.719C42.1283 244.722 37.8335 238.356 34.0639 231.62C33.1678 230.021 32.3027 228.391 31.4375 226.761C31.4375 226.7 31.4375 226.669 31.3757 226.607C30.4797 224.854 29.6454 223.101 28.8421 221.318C26.3084 215.751 24.0837 210 22.2916 204.095C20.9321 199.851 19.7889 195.483 18.8619 191.055C18.8619 191.024 18.8619 190.962 18.8619 190.932C18.2131 187.825 17.6569 184.688 17.2243 181.521C16.2356 174.755 15.7412 167.866 15.7412 160.853C15.7412 156.825 15.8957 152.796 16.2665 148.859C16.4519 146.337 16.73 143.846 17.0698 141.355C18.9546 127.023 22.9714 113.368 28.7803 100.666C31.6229 94.4228 34.8981 88.4256 38.575 82.6745C44.6929 73.0789 51.9231 64.283 60.0802 56.379C86.4364 30.8525 122.433 15.1367 162.106 15.1367C163.651 15.1367 165.196 15.1367 166.71 15.1982C168.348 15.2597 169.985 15.3212 171.623 15.4443C180.027 15.9979 188.246 17.228 196.187 19.1349C200.822 20.242 205.364 21.5337 209.813 23.0715C212.841 24.0864 215.808 25.2243 218.743 26.4545C220.937 27.3772 223.069 28.3306 225.201 29.3455C225.571 29.53 225.942 29.6838 226.313 29.8683C240.526 36.7882 253.411 45.8916 264.596 56.8096C266.203 58.3473 267.747 59.9466 269.292 61.5766C270.312 62.6838 271.332 63.8217 272.32 64.9596C274.02 66.8664 275.657 68.8655 277.264 70.8646C283.104 78.2458 288.233 86.1805 292.528 94.6074C297.564 104.387 301.519 114.813 304.207 125.731C307.019 136.988 308.502 148.736 308.502 160.853H308.41Z" fill="url(#paint0_radial_124_1049)"/>
<g style="mix-blend-mode:multiply" opacity="0.4">
<path fill-rule="evenodd" clip-rule="evenodd" d="M15.6484 160.853C15.6484 160.853 50.1618 221.81 83.5319 231.282C116.902 240.755 155 234.727 168.039 239.555C181.047 244.384 188.153 264.19 188.153 264.19L193.005 266.958C193.005 266.958 204.128 249.766 210.956 259.915C210.956 259.915 208.237 245.522 216.425 227.961C224.613 210.43 230.082 191.578 240.248 185.55C250.413 179.522 268.952 176.723 283.691 182.536C298.398 188.348 306.03 187.241 306.03 187.241L307.143 180.352L308.255 174.263C308.255 174.263 294.165 176.477 282.826 169.28C282.826 169.28 284.371 171.987 293.146 155.656C301.921 139.325 300.901 124.624 300.901 124.624L299.634 111.061C299.634 111.061 294.907 158.085 275.008 171.741C275.008 171.741 230.577 162.576 211.791 214.767C211.791 214.767 208.577 249.674 189.976 248.689C171.376 247.705 177.803 224.885 150.859 224.67C123.916 224.424 107.602 235.465 80.9365 220.333C54.2713 205.202 15.6484 160.853 15.6484 160.853V160.853Z" fill="#7D72B3"/>
</g>
<g style="mix-blend-mode:multiply" opacity="0.4">
<path fill-rule="evenodd" clip-rule="evenodd" d="M154.227 306.324C154.227 306.324 172.704 278.891 193.004 279.045C213.305 279.198 222.667 286.518 238.672 277.23C254.677 267.942 261.32 262.129 268.705 257.147C276.09 252.165 277.326 250.596 277.326 250.596L280.663 246.229C280.663 246.229 269.447 240.816 259.559 248.782C249.672 256.747 231.782 274.77 217.599 274.677C203.417 274.585 204.097 266.466 188.153 272.832C172.21 279.198 138.654 301.742 138.654 301.742C138.654 301.742 144.741 306.17 154.258 306.355L154.227 306.324Z" fill="#7D72B3"/>
</g>
<g style="mix-blend-mode:multiply" opacity="0.4">
<path fill-rule="evenodd" clip-rule="evenodd" d="M23.6816 208.585L25.4428 213.383C25.4428 213.383 53.9928 229.068 72.0065 250.904C90.0202 272.74 93.2336 287.533 93.2336 287.533C93.2336 287.533 96.4471 274.523 80.9052 250.073C65.3634 225.623 31.9315 212.183 23.6816 208.616V208.585Z" fill="#7D72B3"/>
</g>
<path fill-rule="evenodd" clip-rule="evenodd" d="M226.22 29.8991C225.725 29.9606 225.262 29.9914 224.768 30.1144C223.13 30.4219 221.832 30.2681 220.195 29.8068C219.02 29.4685 218.186 29.0072 216.95 28.7919C215.158 28.5151 213.521 27.7462 211.759 27.531C209.875 27.2849 208.268 26.5468 206.476 25.901C205.085 25.4089 204.344 25.5627 202.984 25.901C201.625 26.27 200.698 25.6857 199.493 25.1936C198.133 24.6092 196.805 24.517 195.383 24.2402C191.676 23.4713 187.999 22.3026 184.322 21.3492C182.035 20.7649 179.934 20.7649 177.586 20.7341C175.763 20.7341 174.094 21.2262 172.271 21.2262C171.066 21.2262 170.016 21.0109 168.78 20.8571C167.544 20.6419 166.277 20.8572 165.01 20.7034C163.156 20.4266 162.168 20.1498 160.283 20.7034C158.892 21.1647 157.78 21.1032 156.39 21.1955C154.845 21.257 153.084 21.6875 151.57 22.0258C148.82 22.6717 145.822 23.1638 143.011 23.1023C141.28 23.1023 138.747 22.6102 137.109 23.1945C136.028 23.5636 135.502 24.7015 134.761 25.4704C133.34 26.9466 131.578 28.2383 130.404 29.8991C129.199 31.5291 127.871 33.2206 127.963 35.312C128.056 37.0957 128.89 39.2178 129.694 40.8478C130.497 42.6009 130.775 44.1694 128.983 45.338C126.727 46.8143 124.101 48.1983 121.506 48.9364C119.775 49.4284 118.23 49.736 116.778 48.5058C116.253 48.0445 115.913 47.1526 115.264 46.8143C114.584 46.4452 113.874 46.8143 113.132 47.0296C111.309 47.5524 109.517 48.1675 107.663 48.475C106.52 48.6596 105.531 49.2439 104.419 49.4592C103.059 49.7052 102.101 48.7211 100.711 49.0594C98.7644 49.5207 96.7869 50.3203 94.7785 50.4126C93.3263 50.4741 91.5033 49.859 90.2983 49.1209C89.5876 48.7211 89.4022 48.3213 88.5989 48.5366C87.95 48.6903 86.9613 49.49 86.5905 50.0128C86.0961 50.6894 85.9417 51.5813 85.4473 52.2887C84.9529 53.0575 84.4585 53.8264 83.9951 54.6568C83.1608 56.2868 82.1721 57.7938 81.0906 59.2393C80.3182 60.2542 79.7929 61.6074 78.9586 62.5608C78.5261 63.0529 77.5991 63.4219 77.0429 63.791C75.5289 64.8674 73.9222 65.8208 72.4391 66.9587C69.5965 69.1731 66.9083 71.6335 64.0039 73.7863C61.8101 75.4163 58.6894 76.4005 56.1866 77.4154C54.6108 78.0612 52.9732 78.4918 51.4283 79.1684C50.9339 79.3837 49.9761 79.599 49.5435 79.9681C48.9873 80.4601 48.6783 81.3213 48.184 81.9979C46.8244 83.6586 45.3722 85.3194 44.3217 87.257C43.6728 88.3641 43.302 89.5021 42.9004 90.7323C42.3442 92.3623 41.4481 93.9 40.892 95.53C39.7487 98.9746 39.5324 102.542 38.2656 105.956C37.5241 107.955 36.4735 109.77 35.5466 111.584C33.9708 114.66 33.7545 118.319 33.291 121.733C33.0438 123.732 33.1365 126.039 33.5073 127.976C33.8781 130.068 33.7854 132.251 33.7545 134.404C33.7545 136.68 32.2714 138.894 30.8191 140.617C29.4905 142.216 27.4821 142.8 26.0299 144.246C24.794 145.445 23.28 146.86 22.7547 148.582C22.5384 149.351 22.7547 150.212 22.6002 151.012C22.2603 152.796 21.8277 154.487 21.5497 156.332C21.2716 158.578 21.2098 160.7 21.2098 162.976C21.2098 164.113 21.148 165.282 21.2098 166.42C21.2716 167.496 21.6733 168.511 21.735 169.619C21.7968 170.387 21.6424 171.126 21.735 171.894C21.8895 172.756 22.2294 173.647 22.4148 174.478C22.9092 176.508 23.3109 178.476 23.6816 180.506C24.0215 182.382 24.7631 184.227 25.3501 186.042C26.1535 188.533 26.7097 191.085 27.1731 193.638C27.5439 195.545 27.5439 197.544 27.822 199.512C28.0383 201.081 28.4091 202.68 28.4709 204.249C28.5327 206.617 27.9765 208.985 27.9456 211.414C27.9456 215.443 29.5523 219.503 30.4793 223.409C30.7573 224.485 31.0354 225.592 31.3444 226.7C21.3025 206.924 15.6172 184.596 15.6172 160.946C15.6172 132.19 23.9906 105.372 38.451 82.7668C44.5998 73.1712 51.7991 64.3753 59.9562 56.4713C86.3433 30.9448 122.309 15.229 162.013 15.229C165.227 15.229 168.347 15.3213 171.499 15.5366C191.027 16.7667 209.504 21.8413 226.189 29.9606L226.22 29.8991Z" fill="url(#paint1_linear_124_1049)"/>
<g style="mix-blend-mode:multiply" opacity="0.4">
<path fill-rule="evenodd" clip-rule="evenodd" d="M51.4594 79.1992C51.4594 79.1992 84.3969 108.509 127.871 109.37C171.345 110.2 187.504 107.309 201.965 91.2858C216.425 75.2625 231.998 48.106 231.998 48.106C231.998 48.106 213.428 56.9941 200.574 74.4014C187.721 91.8087 127.037 121.456 51.4285 79.1992H51.4594Z" fill="#7D72B3"/>
</g>
<g opacity="0.7">
<g style="mix-blend-mode:multiply" opacity="0.4">
<path fill-rule="evenodd" clip-rule="evenodd" d="M54.0549 80.0297C49.7291 85.1042 45.9904 90.3018 43.086 96.299C40.5215 101.65 39.5636 107.617 38.6367 113.399C38.0805 116.843 37.5861 120.288 37.0917 123.732C36.6283 126.777 35.7322 130.006 36.2884 133.082C36.9991 137.265 37.2153 141.878 39.2237 145.691C41.3866 149.782 43.6113 153.349 46.4848 156.978C49.2966 160.515 52.6645 162.084 57.2065 162.422C59.6475 162.607 62.0884 162.207 64.5603 162.545C67.9591 163.006 71.3888 163.621 74.7876 164.144C81.6162 165.251 89.3098 165.282 94.2535 159.716C98.2394 155.195 100.124 149.536 102.658 144.154C105.377 138.402 108.776 133.635 113.843 129.73C117.551 126.869 120.826 123.64 124.41 120.595C126.017 119.211 127.006 117.735 128.86 116.72C130.652 115.705 131.64 114.598 133.216 113.153C134.638 111.861 136.368 110.969 137.635 109.493C139.643 107.125 141.281 103.957 142.362 101.066C143.505 98.052 144.062 94.8535 144.494 91.655C144.927 88.5488 144 85.4118 143.011 82.4593C141.157 76.8312 136.337 73.2636 131.764 69.7883C126.141 65.4519 119.497 63.5451 112.545 62.1918C106.242 60.9616 98.6411 60.7156 92.307 61.8228C85.602 62.9915 78.7117 63.9756 72.4703 66.8666C67.8973 68.9887 65.1474 71.9104 61.4705 75.0166C59.5857 76.6159 57.3301 77.6923 55.6307 79.4761C53.2824 81.9365 51.0887 84.6429 54.0858 80.0912L54.0549 80.0297Z" fill="#7D72B3"/>
</g>
<g style="mix-blend-mode:multiply" opacity="0.4">
<path fill-rule="evenodd" clip-rule="evenodd" d="M120.424 52.8424C121.32 51.2739 122.371 48.998 123.638 47.491C124.317 46.6914 125.183 46.0763 126.017 45.3997C128.458 43.3699 131.146 41.6169 134.236 40.725C135.935 40.2329 137.82 40.2021 139.55 40.6327C141.281 41.0633 144.463 42.2627 145.792 43.5237C148.295 45.8918 146.626 49.9207 145.884 52.6579C145.143 55.4258 144.247 58.0707 141.775 59.8238C140.137 60.9617 138.222 61.8843 136.275 62.3149C135.194 62.5609 134.112 62.4994 133 62.6224C132.104 62.7147 131.27 62.9608 130.374 62.9608C128.365 62.9608 125.275 61.5153 124.41 59.547C123.978 58.5013 123.7 57.4556 123.236 56.41C122.896 55.6103 122.618 54.8107 122.278 54.0111C121.66 52.5348 121.104 51.0586 120.424 52.8424V52.8424Z" fill="#7D72B3"/>
</g>
<g style="mix-blend-mode:multiply" opacity="0.4">
<path fill-rule="evenodd" clip-rule="evenodd" d="M144.618 68.3735C144.031 69.9728 143.691 71.6336 143.629 73.3251C144.37 73.7556 144.649 74.6783 145.39 75.1089C146.101 75.5394 146.966 75.3549 147.769 75.3549C149.222 75.3549 150.643 75.3549 150.89 73.5711C151.106 72.0026 149.716 70.8647 148.542 70.0035C147.677 69.3884 146.008 67.943 145.019 69.1424L144.618 68.3735Z" fill="#7D72B3"/>
</g>
<g style="mix-blend-mode:multiply" opacity="0.4">
<path fill-rule="evenodd" clip-rule="evenodd" d="M164.918 92.0855C163.033 93.4388 160.963 94.6382 159.14 96.0837C156.822 97.8982 155.03 100.236 153.238 102.542C151.014 105.402 148.387 108.416 148.943 112.261C149.5 116.074 150.797 119.211 153.702 121.764C157.101 124.716 162.322 124.686 166.277 126.623C169.645 128.253 171.808 131.636 173.508 134.866C176.072 139.756 181.448 140.617 186.361 141.539C189.544 142.124 192.726 142.585 195.94 142.985C200.265 143.508 204.56 144.338 208.917 144.769C216.889 145.538 224.922 147.352 232.956 146.706C241.453 146.03 249.177 143.016 256.191 138.156C262.155 134.035 267.5 126.839 269.076 119.734C270.744 112.261 268.273 103.926 264.627 97.4061C259.899 88.9178 254.337 80.983 248.25 73.3866C244.883 69.2039 240.989 65.4518 237.56 61.2999C234.593 57.7016 231.473 54.4723 227.919 51.4583C219.979 44.6615 210.091 39.0334 199.431 38.4798C195.353 38.2645 191.243 38.8488 187.443 40.3251C184.106 41.6168 181.665 43.5236 179.193 46.0762C172.89 52.5348 169.583 60.7771 166.834 69.2654C165.567 73.1405 164.423 77.5385 164.856 81.6596C165.011 82.9206 165.659 83.9047 165.659 85.1042C165.659 86.2114 165.659 87.3493 165.659 88.4565C165.659 89.1023 165.721 89.6252 165.474 90.1787C165.103 91.0706 164.176 92.024 164.856 92.1163L164.918 92.0855Z" fill="#7D72B3"/>
</g>
<g style="mix-blend-mode:multiply" opacity="0.4">
<path fill-rule="evenodd" clip-rule="evenodd" d="M131.331 120.811C127.191 123.209 122.958 125.085 119.93 128.93C119.405 129.606 118.601 130.375 118.879 131.298C119.188 132.313 120.332 132.897 121.228 133.266C124.287 134.527 128.025 135.204 131.331 134.558C134.298 133.974 138.16 131.975 139.767 129.33C141.775 125.947 139.519 120.534 135.225 120.811C134.576 120.841 134.081 121.149 133.463 121.241C132.969 121.303 132.413 121.21 131.888 121.241C131.301 121.241 131.177 121.395 130.683 121.579C130.157 121.795 129.508 122.379 131.301 120.841L131.331 120.811Z" fill="#7D72B3"/>
</g>
<g style="mix-blend-mode:multiply" opacity="0.4">
<path fill-rule="evenodd" clip-rule="evenodd" d="M46.6394 177.153C44.9709 178.66 43.3023 179.829 42.3136 181.828C41.4176 183.704 40.7687 185.519 40.3361 187.549C39.9653 189.302 39.471 191.208 39.9035 192.992C40.3052 194.591 41.0777 196.221 41.6338 197.79C42.3445 199.851 43.0243 201.788 43.4568 203.91C44.013 206.555 45.0017 208.8 46.1759 211.23C47.35 213.629 48.6477 215.905 50.0691 218.15C51.5522 220.456 53.2516 222.271 55.1673 224.27C61.8413 231.19 69.9984 238.509 79.9477 239.77C84.9841 240.386 90.2059 239.125 93.8828 235.526C97.8996 231.62 100.464 225.961 101.329 220.456C102.071 215.782 101.576 210.922 99.0428 206.832C97.0035 203.572 94.8098 200.097 92.1525 197.267C90.3913 195.36 88.352 193.73 86.4054 192.008C84.4897 190.286 82.6358 188.471 80.5657 186.934C76.8888 184.258 73.3355 181.459 69.6586 178.783C66.3216 176.385 62.7065 173.77 58.6279 172.817C55.8161 172.14 52.7263 171.587 49.9455 172.663C48.7404 173.125 47.8444 173.524 47.2264 174.601C46.9174 175.124 46.2068 176.046 46.1759 176.661C46.0832 176.661 45.9596 176.723 46.6394 177.123V177.153Z" fill="#7D72B3"/>
</g>
<g style="mix-blend-mode:multiply" opacity="0.4">
<path fill-rule="evenodd" clip-rule="evenodd" d="M72.8101 170.541C72.9337 171.71 73.0882 172.879 73.2118 174.047C73.3044 174.416 73.3662 174.816 73.4589 175.185C73.7061 175.431 74.5713 175.524 74.8803 175.554C76.0853 175.677 77.3521 175.062 78.31 174.324C79.7313 173.217 80.3801 170.634 79.0515 169.311C78.001 168.265 76.6106 167.896 75.1275 168.173C74.355 168.327 71.1107 170.049 72.4084 171.249L72.8101 170.48V170.541Z" fill="#7D72B3"/>
</g>
<g style="mix-blend-mode:multiply" opacity="0.4">
<path fill-rule="evenodd" clip-rule="evenodd" d="M268.736 138.71C269.261 136.096 269.292 134.435 270.899 132.497C272.289 130.806 273.834 129.237 275.194 127.484C277.666 124.286 279.18 120.534 280.107 116.628C280.91 113.183 280.076 109.831 281.621 106.51C281.991 105.71 282.424 104.234 283.258 103.834C284.031 103.496 285.576 103.772 286.286 104.203C286.997 104.634 287.708 105.525 288.326 106.048C289.407 107.002 290.334 108.047 291.292 109.093C296.174 114.383 298.862 122.256 298.831 129.391C298.831 133.574 298.368 137.449 296.946 141.355C296.39 142.954 295.803 144.369 294.938 145.845C293.887 147.629 292.559 148.705 290.828 149.812C285.761 153.042 278.438 151.842 274.205 147.844C272.629 146.368 271.919 144.338 270.899 142.616C270.096 141.263 269.354 140.032 269.045 138.402C268.952 138.402 268.829 138.372 268.736 138.71V138.71Z" fill="#7D72B3"/>
</g>
<g style="mix-blend-mode:multiply" opacity="0.4">
<path fill-rule="evenodd" clip-rule="evenodd" d="M268.736 83.9047C269.57 86.7341 270.003 89.8403 272.907 91.3166C273.402 91.5626 274.483 91.9932 275.07 91.9932C275.812 92.0239 276.337 91.6241 276.924 91.1936C279.983 88.9485 278.222 83.7816 276.152 81.475C274.916 80.091 273.525 79.6605 271.826 79.1684C271.053 78.9531 271.239 78.8916 270.59 79.1684C270.096 79.3837 269.756 79.6297 269.509 80.0295C269.23 80.4601 269.138 81.106 269.107 81.598C269.107 82.1516 268.891 82.4284 268.829 82.859C268.613 83.8431 268.705 84.6428 269.138 85.5039L268.736 83.9354V83.9047Z" fill="#7D72B3"/>
</g>
<g style="mix-blend-mode:multiply" opacity="0.4">
<path fill-rule="evenodd" clip-rule="evenodd" d="M245.717 202.403C244.975 204.341 244.357 206.371 243.523 208.247C242.596 210.246 241.7 212.276 240.835 214.305C238.579 219.657 237.313 225.223 235.86 230.851C234.315 236.756 233.358 242.754 232.74 248.812C232.431 251.919 231.936 254.933 232.029 258.07C232.091 260.315 232.091 263.021 232.863 265.174C233.358 266.496 234.594 268.526 235.984 269.111C237.807 269.879 240.093 268.372 241.607 267.634C247.571 264.682 252.638 260.222 257.396 255.609C262.062 251.088 266.82 246.783 270.683 241.523C272.444 239.125 274.391 236.756 275.874 234.173C277.11 232.02 277.944 229.652 279.056 227.438C280.107 225.377 280.879 223.163 281.868 221.071C283.073 218.519 284.185 215.874 285.02 213.198C286.626 208.031 288.048 202.742 286.225 197.421C284.68 192.9 280.879 189.394 276.183 188.41C273.618 187.856 270.775 187.118 268.149 187.303C265.554 187.518 262.804 188.194 260.424 189.179C258.354 190.04 256.222 191.024 254.338 192.223C253.256 192.9 252.545 193.823 251.68 194.745C250.259 196.283 248.838 197.913 247.756 199.697C247.2 200.619 246.706 201.142 245.995 201.911C245.037 202.988 244.635 204.587 245.717 202.403Z" fill="#7D72B3"/>
</g>
<g style="mix-blend-mode:multiply" opacity="0.4">
<path fill-rule="evenodd" clip-rule="evenodd" d="M222.667 269.603C219.577 270.771 216.981 271.879 214.355 273.847C211.203 276.184 208.237 278.583 205.982 281.812C205.147 282.981 203.51 285.011 204.746 286.426C205.827 287.625 207.557 287.533 209.041 287.502C211.173 287.471 213.305 287.072 215.282 286.241C217.136 285.472 218.774 284.457 220.689 283.812C222.512 283.196 224.984 281.966 226.22 280.428C226.931 279.537 227.332 278.306 227.981 277.353C228.507 276.584 228.692 276 228.568 275.016C228.445 273.939 227.765 272.401 226.9 271.602C226.127 270.925 224.675 270.218 223.655 270.341C223.13 270.402 222.42 270.587 221.925 270.802C220.689 271.325 219.67 272.863 222.667 269.572V269.603Z" fill="#7D72B3"/>
</g>
<g style="mix-blend-mode:multiply" opacity="0.4">
<path fill-rule="evenodd" clip-rule="evenodd" d="M218.774 251.734C218.156 249.428 217.414 247.582 217.63 245.276C217.816 243.184 217.785 241.401 218.897 239.494C219.361 238.694 220.72 236.172 221.616 235.834C221.925 235.711 222.883 235.772 223.161 235.834C224.737 236.049 225.695 237.987 226.004 239.371C226.498 241.554 226.158 244.107 226.189 246.352C226.189 248.105 225.973 249.704 225.293 251.334C224.768 252.657 223.717 252.626 222.358 252.565C221.029 252.503 220.504 252.134 219.515 251.396C219.175 251.119 218.65 251.027 218.31 250.75C217.878 250.381 218.032 249.858 218.743 251.796L218.774 251.734Z" fill="#7D72B3"/>
</g>
<g style="mix-blend-mode:multiply" opacity="0.4">
<path fill-rule="evenodd" clip-rule="evenodd" d="M216.055 159.685C215.777 161.315 215.684 162.914 215.715 164.544C216.302 164.544 216.92 165.621 217.692 165.836C218.774 166.113 219.886 165.436 220.72 164.759C222.574 163.283 223.069 160.515 222.667 158.332C222.265 156.179 219.762 155.964 218.001 156.179C217.414 156.24 216.518 156.517 216.024 156.948C214.942 157.901 214.85 159.07 214.88 160.454L216.055 159.685V159.685Z" fill="#7D72B3"/>
</g>
<g style="mix-blend-mode:multiply" opacity="0.4">
<path fill-rule="evenodd" clip-rule="evenodd" d="M76.3015 259.915C77.2903 258.193 78.1554 256.348 79.4532 254.81C80.8745 253.118 82.5121 251.273 84.1497 249.797C86.189 247.951 88.5682 246.229 90.7619 244.538C92.8012 242.969 94.8714 241.431 97.0652 240.078C100.866 237.71 104.821 236.142 109.054 234.665C112.483 233.497 116.129 233.097 119.714 233.835C123.391 234.573 126.975 236.664 129.694 239.217C132.289 241.677 135.039 244.63 136.615 247.859C139.89 254.441 138.623 261.576 136.368 268.28C135.379 271.264 133.278 274.831 130.775 276.769C129.354 277.876 127.624 278.583 125.893 278.983C123.916 279.414 121.66 280.09 119.652 280.367C110.846 281.474 101.793 280.828 93.4192 277.784C90.1131 276.553 86.8379 275.077 83.6553 273.54C81.1217 272.309 79.0206 270.772 77.3521 268.526C76.1162 266.866 75.0347 264.867 75.0965 262.745C75.0965 261.791 75.4364 260.93 75.56 260.007C75.9617 260.007 76.3325 259.731 76.2707 259.946L76.3015 259.915Z" fill="#7D72B3"/>
</g>
<g style="mix-blend-mode:multiply" opacity="0.4">
<path fill-rule="evenodd" clip-rule="evenodd" d="M142.671 263.79C142.053 265.389 141.652 267.05 141.497 268.742C142.084 269.08 142.053 270.064 142.517 270.587C143.011 271.202 143.567 271.51 144.309 271.54C145.081 271.571 146.039 271.633 146.812 271.51C148.017 271.325 148.295 270.895 148.913 270.003C149.623 269.019 149.809 268.588 149.716 267.266C149.654 266.374 149.407 265.389 148.851 264.651C148.511 264.19 147.862 263.452 147.399 263.083C146.255 262.252 145.39 262.714 144.278 263.39L142.702 263.79H142.671Z" fill="#7D72B3"/>
</g>
<g style="mix-blend-mode:multiply" opacity="0.4">
<path fill-rule="evenodd" clip-rule="evenodd" d="M287.059 188.041C285.699 186.995 284.587 185.765 283.722 184.32C283.845 183.735 283.814 183.151 283.66 182.567C283.444 181.06 283.165 179.86 283.474 178.353C284.216 174.816 287.306 172.171 290.89 171.772C293.269 171.495 296.699 173.402 297.966 175.308C299.294 177.338 299.82 180.075 299.943 182.443C300.036 184.412 299.603 186.749 298.398 188.379C297.564 189.517 295.896 189.548 294.567 189.609C293.053 189.671 291.539 189.425 290.087 188.933C289.005 188.564 287.8 187.764 287.059 188.041V188.041Z" fill="#7D72B3"/>
</g>
</g>
<path style="mix-blend-mode:screen" fill-rule="evenodd" clip-rule="evenodd" d="M75.2202 274.646C60.08 262.037 47.5353 246.414 38.5439 228.729C32.8895 217.596 28.6256 205.694 25.9683 193.177C25.9683 193.177 25.9683 193.115 25.9683 193.054C23.929 183.335 22.8476 173.278 22.8476 162.975C22.8476 134.22 31.221 107.401 45.6814 84.7965C51.8302 75.201 59.0295 66.4051 67.1866 58.5011C93.5738 32.9746 129.539 17.2588 169.244 17.2588C172.457 17.2588 175.578 17.3511 178.729 17.5664C188.648 18.2122 198.288 19.8422 207.588 22.3334C196.156 18.612 184.075 16.2439 171.561 15.4443C168.409 15.229 165.258 15.1367 162.075 15.1367C122.402 15.1367 86.4053 30.8525 60.0182 56.379C51.8611 64.2523 44.6618 73.0482 38.513 82.6745C24.0526 105.279 15.6792 132.098 15.6792 160.853C15.6792 171.156 16.7606 181.213 18.7999 190.932C18.7999 190.993 18.7999 191.024 18.7999 191.055C21.4263 203.572 25.7211 215.505 31.3755 226.607C40.3978 244.291 52.9425 259.915 68.0518 272.524C84.088 285.903 103.029 295.929 123.792 301.496C105.84 295.652 89.4025 286.456 75.2202 274.646V274.646Z" fill="url(#paint2_radial_124_1049)"/>
<g style="mix-blend-mode:multiply" opacity="0.4">
<path fill-rule="evenodd" clip-rule="evenodd" d="M32.6422 145.168C32.6422 145.168 114.615 178.445 159.078 175.8C203.541 173.125 222.481 147.783 240.248 124.624C258.014 101.466 264.657 73.6018 264.657 73.6018C264.657 73.6018 230.978 138.31 189.142 155.441L165.103 160.269C165.103 160.269 177.617 150.95 186.392 141.509C195.136 132.067 228.846 118.319 231.998 107.248C235.149 96.2066 234.779 78.0613 240.248 66.4359C245.717 54.8106 251.155 45.2458 251.155 45.2458L236.694 42.7546L229.897 58.6549C229.897 58.6549 227.981 85.0426 222.79 99.3744C217.599 113.675 166.864 152.888 155.432 159.439C144 165.989 42.9314 152.15 32.6113 145.168H32.6422Z" fill="#7D72B3"/>
</g>
<g style="mix-blend-mode:soft-light">
<g style="mix-blend-mode:multiply" opacity="0.4">
<path fill-rule="evenodd" clip-rule="evenodd" d="M178.853 284.703C179.162 284.58 184.446 282.212 185.99 282.304C186.639 282.366 187.319 282.858 187.783 283.135C189.204 283.934 190.1 285.103 189.945 286.733C189.729 289.07 187.134 292.146 184.322 293.161C180.83 294.422 177.154 292.823 175.918 290.547C174.651 288.209 177.864 283.934 181.356 283.873L178.853 284.734V284.703Z" fill="#7D72B3"/>
</g>
<path fill-rule="evenodd" clip-rule="evenodd" d="M110.259 139.725C108.343 143.015 103.492 149.013 104.944 153.718C105.562 155.717 107.014 157.809 107.91 159.715C110.382 164.944 115.388 170.172 121.567 166.389C128.52 162.145 125.492 154.456 122.556 148.828C121.475 146.737 119.868 144.153 117.674 142.985C116.5 142.339 114.554 141.662 113.225 141.416C110.908 140.955 112.545 139.479 110.228 139.725H110.259Z" fill="#FF9F84"/>
<path fill-rule="evenodd" clip-rule="evenodd" d="M157.101 32.5132C156.822 34.2047 156.792 35.8962 156.946 37.5878C157.502 37.4647 157.904 37.9876 158.46 37.9568C159.109 37.9568 160.005 37.5263 160.53 37.1572C161.612 36.4191 162.168 34.8813 162.168 33.6511C162.168 32.3594 162.044 31.2523 160.808 30.5141C159.325 29.653 157.873 30.2681 157.101 31.6828V32.4517V32.5132Z" fill="#FFEF84"/>
<path fill-rule="evenodd" clip-rule="evenodd" d="M126.264 191.024C126.542 189.948 126.975 187.026 127.84 185.734C128.581 184.658 129.91 184.073 131.084 183.674C133.649 182.843 136.306 182.935 138.345 184.781C141.93 188.01 141.806 192.808 138.376 196.099C136.831 197.606 134.699 199.112 132.444 199.205C131.331 199.236 129.91 199.389 128.952 198.836C127.809 198.159 126.882 196.96 126.511 195.699C125.862 193.638 126.264 192.07 127.407 190.255L126.233 191.024H126.264Z" fill="#FF9F84"/>
<path fill-rule="evenodd" clip-rule="evenodd" d="M99.3515 189.455C99.3515 191.085 98.3937 194.899 100.742 195.637C101.885 196.006 103.059 194.499 103.245 193.546C103.43 192.592 103.337 191.085 102.936 190.224C102.349 188.902 101.205 188.01 100.093 189.455H99.3206H99.3515Z" fill="#FF9F84"/>
<path fill-rule="evenodd" clip-rule="evenodd" d="M36.9062 161.1C37.0916 163.652 37.0916 167.435 38.6675 169.772C39.3163 170.757 39.9652 171.771 41.2011 171.987C42.2825 172.171 42.9314 171.525 43.5494 170.726C44.6617 169.311 44.7853 168.327 44.7235 166.543C44.6617 164.944 44.1673 163.191 43.4567 161.776C42.9314 160.73 42.0354 159.962 41.2011 159.162C40.4595 158.424 39.9034 158.27 38.8528 158.393C37.4315 158.547 37.5242 160.238 37.3079 161.499L36.9062 161.1V161.1Z" fill="#FF9F84"/>
<path fill-rule="evenodd" clip-rule="evenodd" d="M253.905 149.044C253.936 148.797 254.245 144.492 255.048 143.508C255.388 143.108 256.16 142.831 256.624 142.616C257.983 141.939 259.466 141.755 260.857 142.4C262.865 143.354 264.441 146.091 264.039 148.305C263.576 151.043 260.424 152.919 257.798 152.98C255.11 153.011 252.761 149.443 254.306 147.106L253.905 149.044V149.044Z" fill="#FF9F84"/>
<path fill-rule="evenodd" clip-rule="evenodd" d="M103.399 183.643C103.399 183.643 103.554 181.367 103.956 180.875C104.11 180.659 104.512 180.536 104.759 180.413C105.439 180.075 106.18 179.983 106.86 180.321C107.849 180.782 108.652 182.166 108.467 183.274C108.219 184.658 106.675 185.58 105.346 185.611C104.017 185.611 102.812 183.858 103.585 182.689L103.399 183.673V183.643Z" fill="#FF9F84"/>
<path fill-rule="evenodd" clip-rule="evenodd" d="M170.078 210.276C170.078 210.276 170.232 208.001 170.634 207.509C170.788 207.293 171.19 207.17 171.437 207.047C172.117 206.709 172.859 206.617 173.538 206.955C174.527 207.416 175.331 208.8 175.145 209.907C174.898 211.291 173.353 212.214 172.024 212.245C170.696 212.245 169.491 210.492 170.263 209.323L170.078 210.307V210.276Z" fill="#FF9F84"/>
<path fill-rule="evenodd" clip-rule="evenodd" d="M215.066 92.7928C215.066 92.7928 215.22 90.517 215.622 90.0249C215.776 89.8096 216.178 89.6866 216.425 89.5636C217.105 89.2252 217.846 89.133 218.526 89.4713C219.515 89.9326 220.318 91.3166 220.133 92.4238C219.886 93.8077 218.341 94.7304 217.012 94.7611C215.684 94.7611 214.479 93.0081 215.251 91.8394L215.066 92.8236V92.7928Z" fill="#FF9F84"/>
<path fill-rule="evenodd" clip-rule="evenodd" d="M123.329 263.267C123.329 263.267 123.483 260.991 123.885 260.499C124.039 260.284 124.441 260.161 124.688 260.038C125.368 259.7 126.11 259.607 126.789 259.946C127.778 260.407 128.581 261.791 128.396 262.898C128.149 264.282 126.604 265.205 125.275 265.235C123.947 265.235 122.742 263.482 123.514 262.314L123.329 263.298V263.267Z" fill="#FF9F84"/>
<path fill-rule="evenodd" clip-rule="evenodd" d="M244.141 185.58C241.916 186.964 240.557 187.579 239.228 189.609C238.239 191.116 237.158 192.531 236.386 194.161C235.768 195.453 235.026 197.421 235.15 198.897C235.459 202.711 240.217 199.359 241.607 198.19C243.461 196.621 245.192 194.499 245.346 192.008C245.408 191.024 245.439 189.948 245.037 189.025C244.883 188.625 244.666 188.164 244.45 187.795C243.987 186.934 243.616 186.934 244.141 185.55V185.58Z" fill="#FF9F84"/>
<path fill-rule="evenodd" clip-rule="evenodd" d="M290.983 202.28C291.137 200.589 290.303 206.678 290.643 206.955C291.199 206.955 291.817 207.047 292.342 206.955C293.115 206.832 293.3 206.463 293.918 206.002C295.123 205.079 296.019 204.525 296.081 202.865C296.112 201.481 295.865 200.65 294.505 200.25C293.918 200.066 293.64 199.82 292.96 200.004C291.632 200.373 290.735 201.481 290.21 202.649L290.983 202.249V202.28Z" fill="#FF9F84"/>
<path fill-rule="evenodd" clip-rule="evenodd" d="M166.586 33.313C166.71 32.175 166.123 36.2962 166.37 36.4807C166.741 36.4807 167.173 36.5422 167.513 36.4807C168.038 36.4192 168.162 36.1424 168.564 35.8349C169.398 35.189 169.985 34.8199 170.016 33.7128C170.016 32.7901 169.861 32.2058 168.965 31.929C168.564 31.806 168.378 31.6522 167.915 31.7752C167.019 32.0212 166.401 32.7901 166.03 33.5897L166.555 33.313H166.586Z" fill="#FFEF84"/>
<path fill-rule="evenodd" clip-rule="evenodd" d="M245.902 152.181C246.026 151.043 245.439 155.164 245.686 155.348C246.057 155.348 246.489 155.41 246.829 155.348C247.354 155.287 247.478 155.01 247.88 154.703C248.714 154.057 249.301 153.688 249.332 152.58C249.332 151.658 249.177 151.073 248.281 150.797C247.88 150.674 247.694 150.52 247.231 150.643C246.335 150.889 245.717 151.658 245.346 152.457L245.871 152.181H245.902Z" fill="#FFEF84"/>
<path fill-rule="evenodd" clip-rule="evenodd" d="M162.261 265.605C163.404 265.605 159.233 265.451 159.078 265.697C159.109 266.066 159.078 266.497 159.202 266.835C159.325 267.327 159.603 267.45 159.943 267.819C160.654 268.557 161.087 269.111 162.23 269.049C163.157 268.988 163.713 268.742 163.898 267.819C163.991 267.419 164.115 267.204 163.96 266.773C163.62 265.912 162.786 265.389 161.983 265.113L162.292 265.605H162.261Z" fill="#FFEF84"/>
<path fill-rule="evenodd" clip-rule="evenodd" d="M95.7056 140.617C95.8292 139.479 95.2421 143.6 95.4893 143.784C95.8601 143.784 96.2926 143.846 96.6325 143.784C97.1578 143.723 97.2814 143.446 97.6831 143.139C98.5173 142.493 99.1044 142.124 99.1353 141.016C99.1353 140.094 98.9808 139.509 98.0848 139.233C97.6831 139.11 97.4977 138.956 97.0342 139.079C96.1382 139.325 95.5202 140.094 95.1494 140.893L95.6747 140.617H95.7056Z" fill="#FFEF84"/>
<path fill-rule="evenodd" clip-rule="evenodd" d="M160.036 253.241C160.221 251.55 159.356 257.639 159.696 257.916C160.252 257.916 160.87 258.008 161.395 257.916C162.168 257.793 162.353 257.424 162.971 256.962C164.176 256.04 165.072 255.486 165.134 253.825C165.165 252.441 164.918 251.611 163.558 251.211C162.971 251.027 162.693 250.781 162.013 250.965C160.685 251.334 159.789 252.441 159.263 253.61L160.036 253.21V253.241Z" fill="#FF9F84"/>
</g>
<path fill-rule="evenodd" clip-rule="evenodd" d="M78.2789 157.286C125.708 164.759 122.772 177.215 177.802 162.299C232.832 147.383 272.258 64.9903 272.258 64.9903C272.258 64.9903 275.008 58.9008 272.691 55.3025C271.764 53.8878 264.534 56.8402 264.534 56.8402C265.77 83.2895 228.599 137.91 186.608 153.626C182.128 155.317 177.586 155.902 173.384 156.824C171.406 155.84 166.555 151.381 189.544 135.85C216.61 117.581 228.753 110.784 226.251 91.8086C223.748 72.8328 247.818 42.7545 247.818 42.7545C247.818 42.7545 249.548 34.7582 245.006 29.7759C239.166 23.3789 226.251 29.8682 226.251 29.8682C226.251 29.8682 222.914 67.0816 175.485 87.1646C128.056 107.278 101.731 97.2829 83.5625 91.7778C65.4252 86.2727 60.018 56.3789 60.018 56.3789C60.018 56.3789 44.6616 53.2112 39.069 62.9605C34.9595 70.1264 40.9229 79.0453 40.9229 79.0453C40.9229 79.0453 69.5038 89.3482 95.2729 99.1897C121.042 109.031 170.201 100.205 187.782 91.8086C205.333 83.3817 205.333 69.9726 219.391 57.7321C225.2 52.6883 231.04 49.2745 235.922 46.9679C235.922 46.9679 220.565 70.5569 222.327 87.1646C224.088 103.772 213.552 103.188 187.782 132.313C169.707 152.765 153.918 159.223 146.101 161.284C126.264 163.068 108.25 160.853 83.5625 154.179C43.7655 143.446 19.8503 126.193 19.8503 126.193C19.8503 126.193 16.3897 124.563 15.061 128.345C14.5049 129.945 18.0582 134.466 18.0582 134.466C18.0582 134.466 30.8809 149.751 78.2789 157.224V157.286Z" fill="url(#paint3_linear_124_1049)"/>
<path fill-rule="evenodd" clip-rule="evenodd" d="M111.587 296.944C111.587 296.944 99.9079 289.716 91.1328 267.265C82.3577 244.814 83.5318 246.29 67.1248 232.143C50.7179 217.996 22.2297 204.095 22.2297 204.095C22.2297 204.095 20.314 204.741 20.314 205.325C20.314 208.247 23.7128 208.585 23.7128 208.585C23.7128 208.585 50.3162 219.933 66.9395 238.202C83.5627 256.47 101.515 288.886 88.7227 286.948C88.7227 286.948 91.5963 295.068 98.3321 296.944C105.068 298.82 111.618 296.944 111.618 296.944H111.587Z" fill="url(#paint4_radial_124_1049)"/>
<path d="M228.136 188.379C233.574 182.597 240.155 174.816 266.789 174.662C293.424 174.478 307.112 180.352 307.112 180.352C307.112 180.352 312.581 178.814 313.168 171.71C313.755 164.698 308.379 161.13 308.379 161.13C308.1 163.344 305.412 177.922 282.795 169.28C282.795 169.065 290.797 161.837 292.528 147.137C294.289 132.221 299.634 111.061 299.634 111.061C299.634 111.061 302.786 105.833 300.747 101.619C300.067 100.235 294.876 99.5896 294.876 99.5896C299.356 129.33 288.047 165.159 275.75 169.28C260.826 169.465 242.627 172.048 234.377 177.461C224.243 184.135 214.077 214.305 207.558 235.526C205.92 240.785 202.583 246.506 198.319 252.226C182.005 256.132 187.165 236.664 180.12 230.667C173.106 224.701 159.634 227.899 150.859 224.67C142.084 221.44 139.736 214.521 130.374 213.413C121.011 212.306 106.242 229.652 89.4025 222.486C72.5629 215.32 16.1736 148.859 16.1736 148.859C16.1736 148.859 11.0754 147.629 10.0557 151.135C9.28329 153.81 15.6483 160.853 15.6483 160.853C15.6483 160.853 54.8582 219.749 92.3069 227.407C129.787 235.065 163.744 227.899 175.454 238.017C187.103 248.105 187.999 264.221 187.999 264.344C175.825 277.199 161.519 288.271 154.752 291.654C143.042 297.528 123.792 301.526 123.792 301.526C126.419 304.54 131.702 306.97 137.388 308.477C145.606 310.66 150.859 306.539 150.859 306.539C150.859 306.539 146.101 302.418 152.311 297.251C168.131 284.15 179.347 278.429 195.754 274.554C205.704 272.217 208.67 276.707 210.091 275.262C225.386 280.121 237.498 268.711 250.661 258.223C263.792 247.767 280.663 246.229 280.663 246.229C280.663 246.229 289.407 244.753 291.663 240.939C293.733 237.433 288.851 233.619 288.851 233.619C288.851 233.619 281.404 236.664 267.377 243.738C253.318 250.811 238.27 271.386 221.122 270.741C211.667 270.402 213.644 260.868 212.748 259.515C212.748 258.838 212.748 258.162 212.748 257.485C212.47 250.535 211.018 244.261 211.018 239.248C211.018 237.956 211.111 236.756 211.358 235.649C212.934 228.237 222.698 194.161 228.136 188.379V188.379ZM198.288 252.288C195.291 256.317 191.83 260.315 188.153 264.19L198.288 252.288ZM211.42 262.591C211.636 264.19 211.945 265.758 211.698 267.358C211.605 268.188 211.451 268.865 210.647 269.141C210.184 269.295 209.659 269.357 209.195 269.48C208.454 269.664 207.743 269.941 207.001 270.033C205.858 270.187 204.591 270.064 203.448 270.064C202.212 270.064 200.883 270.187 199.648 270.033C199.06 269.941 198.473 269.818 197.886 269.726C197.299 269.633 196.496 269.603 195.971 269.295C194.704 268.588 193.962 267.265 193.004 266.958C193.097 265.851 193.004 264.866 193.499 263.882C193.622 263.513 193.746 263.144 193.839 262.775C194.055 262.129 194.302 261.545 194.58 260.93C195.26 259.361 195.94 257.854 196.928 256.47C197.392 255.763 197.855 255.056 198.288 254.317C198.813 253.518 199.524 252.903 200.204 252.226C201.192 251.242 202.15 250.35 203.386 249.673C204.344 249.151 205.889 248.413 206.97 248.812C208.083 249.181 208.546 250.627 208.979 251.611C209.288 252.318 209.38 253.087 209.597 253.856C209.844 254.81 210.277 255.671 210.493 256.655C210.74 257.731 210.74 258.838 210.956 259.915C211.142 260.807 211.265 261.699 211.42 262.591V262.591Z" fill="url(#paint5_linear_124_1049)"/>
<path fill-rule="evenodd" clip-rule="evenodd" d="M44.7235 59.7927C44.7235 59.7927 51.3358 73.2941 68.2989 85.5038C68.2989 85.5038 62.6754 65.8822 58.5968 57.7629C58.5968 57.7629 53.0352 52.5346 44.6926 59.8235L44.7235 59.7927Z" fill="#FFFF0E"/>
<path fill-rule="evenodd" clip-rule="evenodd" d="M133.741 101.035C133.741 101.035 145.297 96.3912 148.882 98.1442C148.882 98.1442 137.82 101.189 133.741 101.035Z" fill="#FFFF0E"/>
<path fill-rule="evenodd" clip-rule="evenodd" d="M172.364 90.3939C174.435 89.7173 176.567 89.133 178.575 88.3333C180.367 87.626 182.097 86.8263 183.766 85.8729C185.898 84.6735 187.999 83.3818 189.915 81.9056C190.409 81.5058 190.996 81.2597 191.521 80.9214C192.108 80.5216 192.726 80.0295 193.313 79.599C193.839 79.1991 194.24 78.6763 194.735 78.2457C195.229 77.8152 195.754 77.4154 196.249 77.0155C197.114 76.3389 198.041 75.6008 198.844 74.8319C199.246 74.4629 199.617 74.0631 200.018 73.7248C200.296 73.4787 200.544 73.4172 200.853 73.2942C200.976 73.571 200.667 74.1861 200.544 74.4321C200.296 74.9857 199.926 75.4163 199.617 75.9391C198.937 77.1078 197.794 77.8767 196.959 78.9223C196.403 79.6297 195.631 80.1833 194.889 80.6754C193.839 81.3827 192.634 81.9978 191.521 82.5822C190.378 83.1665 189.142 83.5356 188.03 84.1814C186.979 84.7965 185.898 85.2886 184.816 85.7807C184.075 86.119 183.426 86.6111 182.715 87.0416C182.128 87.3799 181.541 87.749 180.954 88.0873C180.089 88.6101 179.224 89.1022 178.328 89.5943C177.864 89.8403 177.37 90.0556 176.876 90.3017C175.794 90.886 174.558 91.3473 173.322 91.3166C172.859 91.3166 172.457 91.3473 172.055 91.1628C171.87 91.0705 171.499 90.9783 171.499 90.763C171.808 90.763 172.055 90.3632 172.364 90.4247V90.3939Z" fill="#FFFF0E"/>
<path fill-rule="evenodd" clip-rule="evenodd" d="M203.541 70.4339C202.985 70.7107 202.521 71.0798 202.12 71.5104C202.12 71.8179 201.934 72.187 202.49 72.187C203.077 72.187 203.51 71.7871 203.881 71.3873C204.066 71.172 204.468 70.5262 204.221 70.2186C203.943 69.8496 203.139 70.3724 202.923 70.5877L203.51 70.4339H203.541Z" fill="#FFFF0E"/>
<path fill-rule="evenodd" clip-rule="evenodd" d="M228.29 30.8217C227.858 31.3753 227.24 32.0212 226.962 32.7286C226.745 33.2514 226.56 33.7742 226.375 34.3278C225.973 35.3735 225.757 36.4191 225.417 37.4648C224.83 39.3716 224.366 41.3092 223.594 43.1852C223.254 44.0156 222.821 44.846 222.42 45.6456C222.203 46.0762 221.863 46.476 221.678 46.9373C221.493 47.3371 221.276 47.6754 221.091 48.0445C220.936 48.4135 220.875 48.7826 220.627 49.1209C220.349 49.5207 220.164 49.8898 219.917 50.3204C219.731 50.6587 218.99 51.489 219.206 51.9504C219.422 51.9811 219.67 51.6428 219.793 51.489C220.226 51.0585 220.689 50.7202 221.122 50.3204C221.925 49.5515 222.667 48.6903 223.439 47.8907C223.779 47.5524 223.995 47.1218 224.304 46.7528C224.737 46.2299 225.262 45.7994 225.664 45.2458C226.344 44.3539 227.085 43.4928 227.827 42.6624C228.198 42.2318 228.476 41.7397 228.846 41.3092C229.186 40.9094 229.557 40.5711 229.928 40.1712C231.04 38.9718 232.183 37.8031 233.265 36.5729C234.099 35.5888 234.933 34.5123 235.644 33.4359C236.231 32.5748 236.725 31.7136 237.251 30.8217C237.467 30.4527 237.931 29.5916 237.776 29.161C237.56 28.6074 236.911 28.3614 236.355 28.2998C235.551 28.1768 234.47 28.1768 233.697 28.3614C232.801 28.5766 231.998 28.9149 231.164 29.2533C230.391 29.5608 229.773 30.1144 229.063 30.4834C228.537 30.7295 227.919 30.9755 228.29 30.8833V30.8217Z" fill="#FFFF0E"/>
<path fill-rule="evenodd" clip-rule="evenodd" d="M235.891 48.2905C235.644 48.7825 235.366 49.6129 234.995 50.105C234.655 50.5663 234.346 50.9969 234.068 51.4582C233.574 52.3194 233.11 53.1497 232.616 54.0109C231.72 55.5486 230.607 56.9941 229.897 58.6549C229.619 59.3007 229.341 59.9466 229.032 60.5924C228.692 61.269 228.537 61.9764 228.29 62.6838C228.043 63.3604 227.981 64.0677 227.827 64.7751C227.703 65.3594 227.425 65.8823 227.61 66.4666C228.166 65.7592 228.568 64.9289 229.093 64.1907C229.464 63.6679 229.742 63.1143 230.237 62.6838C230.731 62.2532 231.102 61.7611 231.565 61.2998C231.998 60.8077 232.43 60.3156 232.739 59.762C233.048 59.2392 233.234 58.7164 233.574 58.2243C233.914 57.763 234.13 57.2401 234.439 56.7788C234.779 56.2252 235.149 55.6716 235.366 55.0258C235.798 53.8263 236.231 52.5654 236.54 51.366C236.694 50.7816 236.787 50.0127 236.694 49.4284C236.602 48.9671 235.86 47.6446 235.953 48.352L235.891 48.2905Z" fill="#FFFF0E"/>
<path fill-rule="evenodd" clip-rule="evenodd" d="M225.787 68.2505C225.571 69.0193 225.262 69.8805 225.077 70.7109C225.046 70.9261 224.953 71.326 225.139 71.449C225.324 71.572 225.756 71.3875 225.911 71.2645C226.065 71.1107 226.158 70.8954 226.282 70.7109C226.529 70.3111 226.807 69.7267 226.683 69.2346C226.56 68.7118 226.065 68.2812 225.664 68.8041L225.818 68.2197L225.787 68.2505Z" fill="#FFFF0E"/>
<path fill-rule="evenodd" clip-rule="evenodd" d="M210.431 110.508C208.793 112.076 206.878 113.46 205.518 115.336C205.395 115.521 204.715 116.29 204.869 116.597C205.055 116.966 205.827 116.72 206.074 116.628C207.032 116.32 207.99 115.797 208.886 115.336C209.566 114.998 210.215 114.537 210.864 114.137C212.378 113.183 213.644 111.892 214.788 110.538C215.282 109.954 215.838 109.308 216.085 108.601C216.147 108.386 216.456 107.832 216.394 107.586C216.147 106.786 214.232 107.647 213.861 107.893C213.397 108.17 213.027 108.57 212.594 108.908C212.254 109.185 211.914 109.431 211.543 109.677C211.234 109.893 210.956 110.139 210.678 110.354C210.369 110.569 210.153 111.092 210.4 110.508H210.431Z" fill="#FFFF0E"/>
<path fill-rule="evenodd" clip-rule="evenodd" d="M202.954 118.073C202.397 118.319 201.841 118.596 201.285 118.873C201.285 119.119 200.574 119.611 200.945 119.949C201.131 120.134 201.749 119.888 201.934 119.826C202.336 119.703 202.552 119.396 202.861 119.119C203.17 118.842 203.139 118.719 202.954 118.35V118.073V118.073Z" fill="#FFFF0E"/>
<path fill-rule="evenodd" clip-rule="evenodd" d="M165.103 154.118C163.775 155.133 162.322 156.056 160.808 156.855C159.047 157.778 157.162 158.485 155.432 159.47C152.744 160.976 149.87 162.145 147.059 163.375C146.595 163.56 142.455 165.19 144.031 166.02C144.772 166.389 145.483 166.328 146.255 166.359C146.904 166.359 147.522 166.543 148.171 166.574C148.82 166.574 149.5 166.574 150.149 166.574C153.547 166.574 157.101 165.805 160.221 164.421C160.901 164.113 161.766 163.898 162.384 163.468C162.755 163.191 163.126 162.822 163.466 162.483C164.145 161.838 164.64 161.13 165.072 160.3C165.69 159.1 166.092 157.993 166.03 156.671C166.03 156.179 165.845 155.594 165.505 155.225C165.227 154.918 164.887 154.826 165.042 154.149L165.103 154.118Z" fill="#FFFF0E"/>
<path fill-rule="evenodd" clip-rule="evenodd" d="M140.91 164.39C140.138 164.021 139.303 163.437 138.469 163.406C138.16 163.406 137.913 163.437 137.604 163.498C136.955 163.621 135.966 163.714 135.472 164.175C134.73 164.913 136.306 165.497 136.893 165.62C137.604 165.805 138.593 165.805 139.334 165.713C139.921 165.651 141.126 165.128 141.126 164.39C141.188 164.39 141.219 164.39 141.281 164.359H140.879L140.91 164.39Z" fill="#FFFF0E"/>
<path fill-rule="evenodd" clip-rule="evenodd" d="M185.805 155.072C188.957 154.118 191.954 152.857 194.889 151.381C196.032 150.797 197.145 150.151 198.257 149.474C198.968 149.044 199.678 148.49 200.389 148.09C200.698 147.936 202.521 146.891 202.768 147.383C203.108 148.029 201.1 149.351 200.822 149.597C200.08 150.274 199.246 150.766 198.412 151.35C197.732 151.842 196.959 152.088 196.218 152.488C195.26 153.042 194.302 153.503 193.282 153.934C192.541 154.241 191.768 154.641 190.965 154.826C190.347 154.979 189.76 155.225 189.142 155.348C188.679 155.441 188.215 155.348 187.783 155.441C187.226 155.564 186.176 155.84 185.774 155.01L185.805 155.072Z" fill="#FFFF0E"/>
<path fill-rule="evenodd" clip-rule="evenodd" d="M254.77 171.987C256.315 171.987 258.138 172.14 259.714 171.925C260.857 171.771 262 171.525 263.174 171.402C265.461 171.187 267.685 170.603 269.972 170.51C270.868 170.48 271.795 170.51 272.691 170.51C273.185 170.51 273.896 170.387 274.39 170.51C274.607 170.572 275.194 170.849 275.348 171.033C275.904 171.618 275.348 171.525 274.977 171.741C274.174 172.202 273.525 172.571 272.567 172.786C271.146 173.094 269.725 173.463 268.273 173.678C267.284 173.832 266.264 173.647 265.275 173.801C263.947 174.017 262.649 174.017 261.32 174.017C260.208 174.017 259.127 174.017 258.014 174.017C257.18 174.017 256.5 173.863 255.697 173.74C255.017 173.647 254.585 173.771 254.028 173.463C253.75 173.309 253.318 172.909 254.801 171.956L254.77 171.987Z" fill="#FFFF0E"/>
<path fill-rule="evenodd" clip-rule="evenodd" d="M291.663 173.432C293.609 173.617 294.845 173.832 296.606 173.524C297.75 173.309 298.924 173.125 300.098 172.94C301.766 172.663 303.528 171.894 304.949 170.972C305.752 170.449 307.328 169.372 308.379 169.649C309.182 169.865 310.078 170.849 310.14 171.71C310.232 172.786 308.997 173.678 308.224 174.293C306.926 175.339 304.949 175.708 303.311 175.8C301.303 175.923 299.387 175.646 297.441 175.216C296.853 175.093 296.266 174.908 295.648 174.785C295.123 174.662 294.042 174.785 291.663 173.463V173.432Z" fill="#FFFF0E"/>
<path fill-rule="evenodd" clip-rule="evenodd" d="M296.05 101.466C295.927 102.788 295.092 106.079 296.761 107.124C297.657 107.678 298.089 106.202 298.089 105.525C298.089 104.541 297.471 102.019 296.328 101.742L296.05 101.466V101.466Z" fill="#FFFF0E"/>
<path fill-rule="evenodd" clip-rule="evenodd" d="M20.0978 131.575C21.4882 133.359 22.5079 135.204 24.4544 136.311C25.5668 136.957 26.6791 137.726 27.9151 138.095C29.0892 138.433 30.6032 138.833 31.8082 138.556C32.4571 138.402 32.6425 138.618 32.6116 137.787C32.6116 137.418 32.3026 136.926 32.1172 136.619C31.7155 136.004 31.0976 135.635 30.6341 135.081C30.0779 134.435 29.7381 133.82 29.0583 133.297C26.8027 131.544 24.7325 130.099 22.0135 129.237C21.0247 128.93 20.9629 128.807 20.0978 129.361C19.418 129.791 19.3871 129.607 19.2944 130.406C19.1708 131.452 19.9433 132.313 20.4686 133.143L20.0669 131.575H20.0978Z" fill="#FFFF0E"/>
<path fill-rule="evenodd" clip-rule="evenodd" d="M21.2717 160.331C23.5581 163.929 26.1536 167.22 28.8726 170.48C30.8192 172.786 31.9934 175.708 34.218 177.83C34.5888 178.168 38.482 181.521 38.4202 179.583C38.4202 179.153 37.3079 177.43 37.0607 177.031C36.4118 175.985 35.7012 174.878 34.8978 173.924C34.2489 173.155 33.4765 172.387 32.9512 171.495C32.3641 170.572 31.8698 170.018 31.0973 169.188C30.1704 168.142 29.6451 166.851 28.8108 165.713C28.0384 164.667 27.235 163.683 26.4935 162.637C25.5047 161.223 24.4542 159.654 22.8784 159.07C22.4767 158.916 21.8278 158.455 21.3026 158.854C20.4683 159.469 21.1172 161.592 21.2408 160.331H21.2717Z" fill="#FFFF0E"/>
<path fill-rule="evenodd" clip-rule="evenodd" d="M162.168 228.699C165.443 228.114 168.069 227.592 171.314 228.36C172.89 228.729 174.465 229.222 176.041 229.683C177.03 229.99 178.544 230.267 179.286 231.005C180.058 231.774 179.78 233.189 179.1 233.866C178.142 234.819 176.041 234.604 174.867 234.481C172.426 234.265 170.109 233.958 167.76 233.25C166.432 232.851 164.578 232.205 163.466 231.313C162.94 230.913 161.612 229.806 162.199 228.668L162.168 228.699Z" fill="#FFFF0E"/>
<path fill-rule="evenodd" clip-rule="evenodd" d="M207.063 246.168C205.395 245.799 205.271 242.877 205.735 241.677C205.982 241.001 206.414 239.924 207.156 239.648C207.928 239.34 208.175 239.863 208.824 240.078C208.145 241.554 207.279 242.938 206.291 244.199L207.063 246.137V246.168Z" fill="#FFFF0E"/>
<path fill-rule="evenodd" clip-rule="evenodd" d="M268.736 244.999C270.899 243.584 272.382 242.6 274.761 241.893C275.966 241.524 277.202 241.37 278.407 241.031C279.828 240.601 281.25 239.924 282.702 239.647C283.227 239.555 283.753 239.586 284.247 239.494C284.834 239.401 284.556 239.094 285.205 239.494C286.441 240.17 285.885 241.062 285.081 241.739C283.567 243.031 282.269 243.523 280.323 243.984C279.241 244.23 278.345 244.845 277.295 245.183C276.646 245.368 275.997 245.491 275.348 245.645C272.938 246.26 270.034 245.829 268.705 245.06L268.736 244.999Z" fill="#FFFF0E"/>
<path fill-rule="evenodd" clip-rule="evenodd" d="M72.0068 239.955C73.3664 242.784 74.5405 245.491 76.3326 248.044C77.136 249.182 77.7539 250.289 79.0516 250.842C80.0713 251.273 80.7819 251.457 80.9364 250.043C80.9982 249.305 80.4112 248.29 80.0095 247.582C78.8663 245.552 77.2286 243.769 75.8691 241.893C75.3438 241.154 74.6023 240.201 73.8916 239.647C73.3973 239.248 71.9141 238.786 72.0377 239.955H72.0068Z" fill="#FFFF0E"/>
<path fill-rule="evenodd" clip-rule="evenodd" d="M129.385 302.111C132.691 301.434 135.534 300.419 138.685 299.281C139.983 298.82 141.281 298.82 142.578 298.543C142.702 298.543 142.857 298.266 143.011 298.236C143.32 298.143 143.876 298.236 144.216 298.236C144.556 298.236 146.039 298.02 146.348 298.236C147.553 299.127 144.958 301.496 144.401 302.08C142.27 304.325 138.716 305.555 135.534 305.248C133.927 305.094 132.475 304.233 130.93 304.048C129.941 303.925 127.747 303.587 127.84 302.172C127.964 302.172 128.056 302.141 129.354 302.111H129.385Z" fill="#FFFF0E"/>
<path fill-rule="evenodd" clip-rule="evenodd" d="M185.991 269.08C183.086 271.048 179.873 272.77 177.772 275.692C176.319 277.691 178.977 277.291 180.151 276.861C181.139 276.492 181.85 276.123 182.715 275.538C183.488 275.016 183.889 274.493 184.538 273.847C185.002 273.386 185.589 273.016 186.021 272.494C186.454 271.971 186.608 270.864 187.134 270.525C187.041 270.31 186.948 270.095 186.825 269.849L186.052 269.08H185.991Z" fill="#FFFF0E"/>
<path fill-rule="evenodd" clip-rule="evenodd" d="M106.366 224.424C108.498 223.532 110.599 222.763 112.576 221.717C114.43 220.733 116.191 219.718 118.076 218.796C120.486 217.596 123.082 215.935 125.893 215.874C126.944 215.874 127.655 215.351 128.612 215.782C129.385 216.12 129.972 216.427 130.466 217.135C131.888 219.165 129.076 221.102 127.531 222.117C126.357 222.917 125.275 223.87 123.947 224.455C122.402 225.1 120.733 225.408 119.158 225.992C116.562 226.946 113.812 228.022 111.031 228.36C109.61 228.545 108.281 228.022 107.138 227.284C106.551 226.915 105.964 226.392 105.593 225.838C105.222 225.316 105.006 224.424 106.366 224.485V224.424Z" fill="#FFFF0E"/>
<path style="mix-blend-mode:screen" d="M171.952 182.1C198.445 171.063 214.159 148.411 207.051 131.505C199.942 114.598 172.703 109.84 146.209 120.876C119.716 131.912 104.002 154.564 111.11 171.471C118.219 188.377 145.459 193.136 171.952 182.1Z" fill="url(#paint6_radial_124_1049)"/>
<path style="mix-blend-mode:screen" d="M85.2191 88.2582C95.454 73.0231 89.0316 50.8757 70.8743 38.7905C52.717 26.7053 29.7005 29.2588 19.4656 44.4939C9.23064 59.7289 15.653 81.8763 33.8104 93.9615C51.9677 106.047 74.9842 103.493 85.2191 88.2582Z" fill="url(#paint7_radial_124_1049)"/>
<path style="mix-blend-mode:screen" d="M332.434 190.382C341.663 176.643 335.875 156.673 319.505 145.778C303.135 134.882 282.382 137.187 273.153 150.925C263.923 164.664 269.712 184.633 286.082 195.529C302.452 206.424 323.204 204.12 332.434 190.382Z" fill="url(#paint8_radial_124_1049)"/>
<path style="mix-blend-mode:screen" d="M126.805 311.368C136.035 297.63 130.246 277.66 113.876 266.764C97.5063 255.869 76.7538 258.173 67.5244 271.912C58.2949 285.65 64.0835 305.62 80.4535 316.515C96.8234 327.411 117.576 325.106 126.805 311.368Z" fill="url(#paint9_radial_124_1049)"/>
</g>
<defs>
<radialGradient id="paint0_radial_124_1049" cx="0" cy="0" r="1" gradientUnits="userSpaceOnUse" gradientTransform="translate(71.389 92.7006) scale(235.136 234.045)">
<stop stop-color="#DE6863"/>
<stop offset="0.2" stop-color="#DA6562"/>
<stop offset="0.35" stop-color="#D15D61"/>
<stop offset="0.49" stop-color="#C04F60"/>
<stop offset="0.62" stop-color="#A93B5D"/>
<stop offset="0.74" stop-color="#8B225A"/>
<stop offset="0.86" stop-color="#660357"/>
<stop offset="0.87" stop-color="#630057"/>
</radialGradient>
<linearGradient id="paint1_linear_124_1049" x1="15.6481" y1="120.872" x2="226.22" y2="120.872" gradientUnits="userSpaceOnUse">
<stop offset="0.01" stop-color="#FF7D85"/>
<stop offset="0.3" stop-color="#FC7B83"/>
<stop offset="0.51" stop-color="#F2747E"/>
<stop offset="0.7" stop-color="#E26A77"/>
<stop offset="0.87" stop-color="#CC5C6C"/>
<stop offset="1" stop-color="#B54D61"/>
</linearGradient>
<radialGradient id="paint2_radial_124_1049" cx="0" cy="0" r="1" gradientUnits="userSpaceOnUse" gradientTransform="translate(55.0745 61.6996) scale(192.682 191.788)">
<stop stop-color="#FFFF4A"/>
<stop offset="1"/>
</radialGradient>
<linearGradient id="paint3_linear_124_1049" x1="14.9683" y1="98.1441" x2="273.587" y2="98.1441" gradientUnits="userSpaceOnUse">
<stop stop-color="#FFB80B"/>
<stop offset="0.39" stop-color="#FEB50C"/>
<stop offset="0.58" stop-color="#FDAE10"/>
<stop offset="0.73" stop-color="#FCA017"/>
<stop offset="0.85" stop-color="#F98E21"/>
<stop offset="0.97" stop-color="#F7762E"/>
<stop offset="1" stop-color="#F66D33"/>
</linearGradient>
<radialGradient id="paint4_radial_124_1049" cx="0" cy="0" r="1" gradientUnits="userSpaceOnUse" gradientTransform="translate(37.6788 229.037) scale(74.3412 73.9963)">
<stop stop-color="#FFB80B"/>
<stop offset="0.39" stop-color="#FEB50C"/>
<stop offset="0.58" stop-color="#FDAE10"/>
<stop offset="0.73" stop-color="#FCA017"/>
<stop offset="0.85" stop-color="#F98E21"/>
<stop offset="0.97" stop-color="#F7762E"/>
<stop offset="1" stop-color="#F66D33"/>
</radialGradient>
<linearGradient id="paint5_linear_124_1049" x1="9.99395" y1="204.341" x2="313.23" y2="204.341" gradientUnits="userSpaceOnUse">
<stop stop-color="#FFB80B"/>
<stop offset="0.39" stop-color="#FEB50C"/>
<stop offset="0.58" stop-color="#FDAE10"/>
<stop offset="0.73" stop-color="#FCA017"/>
<stop offset="0.85" stop-color="#F98E21"/>
<stop offset="0.97" stop-color="#F7762E"/>
<stop offset="1" stop-color="#F66D33"/>
</linearGradient>
<radialGradient id="paint6_radial_124_1049" cx="0" cy="0" r="1" gradientUnits="userSpaceOnUse" gradientTransform="translate(158.238 152.756) rotate(-22.6152) scale(52.0286 33.2268)">
<stop stop-color="#FF5B00"/>
<stop offset="0.17" stop-color="#C44600"/>
<stop offset="0.4" stop-color="#7F2D00"/>
<stop offset="0.6" stop-color="#481900"/>
<stop offset="0.78" stop-color="#210B00"/>
<stop offset="0.92" stop-color="#080300"/>
<stop offset="1"/>
</radialGradient>
<radialGradient id="paint7_radial_124_1049" cx="0" cy="0" r="1" gradientUnits="userSpaceOnUse" gradientTransform="translate(51.1267 66.3635) rotate(33.647) scale(39.5373 33.2515)">
<stop stop-color="#FF5B00"/>
<stop offset="0.17" stop-color="#C44600"/>
<stop offset="0.4" stop-color="#7F2D00"/>
<stop offset="0.6" stop-color="#481900"/>
<stop offset="0.78" stop-color="#210B00"/>
<stop offset="0.92" stop-color="#080300"/>
<stop offset="1"/>
</radialGradient>
<radialGradient id="paint8_radial_124_1049" cx="0" cy="0" r="1" gradientUnits="userSpaceOnUse" gradientTransform="translate(302.003 170.867) rotate(33.647) scale(35.6972 30.0219)">
<stop stop-color="#FF5B00"/>
<stop offset="0.17" stop-color="#C44600"/>
<stop offset="0.4" stop-color="#7F2D00"/>
<stop offset="0.6" stop-color="#481900"/>
<stop offset="0.78" stop-color="#210B00"/>
<stop offset="0.92" stop-color="#080300"/>
<stop offset="1"/>
</radialGradient>
<radialGradient id="paint9_radial_124_1049" cx="0" cy="0" r="1" gradientUnits="userSpaceOnUse" gradientTransform="translate(96.1101 291.957) rotate(33.647) scale(35.6972 30.0219)">
<stop stop-color="#FF5B00"/>
<stop offset="0.17" stop-color="#C44600"/>
<stop offset="0.4" stop-color="#7F2D00"/>
<stop offset="0.6" stop-color="#481900"/>
<stop offset="0.78" stop-color="#210B00"/>
<stop offset="0.92" stop-color="#080300"/>
<stop offset="1"/>
</radialGradient>
</defs>
</svg>
