<svg width="323" height="336" viewBox="0 0 323 336" fill="none" xmlns="http://www.w3.org/2000/svg">
<path fill-rule="evenodd" clip-rule="evenodd" d="M24.3652 92.4355C24.3652 92.4355 26.2087 76.6116 27.4164 67.9227C27.4164 67.9227 38.2545 52.8281 55.5127 40.3973L78.5238 41.6023C78.5238 41.6023 32.1521 78.7045 24.397 92.4355H24.3652Z" fill="url(#paint0_linear_119_647)"/>
<path fill-rule="evenodd" clip-rule="evenodd" d="M55.5127 40.3973C55.5127 40.3973 55.5128 53.1135 43.8801 63.1977C32.2475 73.2502 27.1622 69.7302 27.1622 69.7302L24.3652 89.9937L78.492 41.6023L55.481 40.3973H55.5127Z" fill="url(#paint1_linear_119_647)"/>
<path fill-rule="evenodd" clip-rule="evenodd" d="M302.055 173.045C302.055 187.474 300.021 201.459 296.175 214.651C288.547 241.193 273.768 264.691 254.03 283.02C239.919 296.149 223.264 306.582 204.925 313.526C188.303 319.837 170.314 323.262 151.466 323.262C148.796 323.262 146.095 323.198 143.457 323.04C139.516 322.85 135.606 322.469 131.761 321.993C102.679 318.188 76.2671 306.138 54.8452 288.189C46.8041 281.498 39.4939 273.951 33.0419 265.706C28.1473 259.522 23.7295 252.958 19.8519 246.013C18.9302 244.364 18.0403 242.683 17.1503 241.003C17.1503 240.939 17.1503 240.908 17.0868 240.844C16.1651 239.037 15.3069 237.229 14.4806 235.39H14.4488C11.8426 229.65 9.55416 223.72 7.71073 217.632C6.31227 213.255 5.1363 208.752 4.1828 204.186C4.15102 204.186 4.15102 204.091 4.15102 204.059C3.48357 200.856 2.91147 197.622 2.46651 194.355C1.44945 187.379 0.940918 180.276 0.940918 173.045C0.940918 168.891 1.09983 164.737 1.48123 160.678C1.67193 158.078 1.95798 155.509 2.3076 152.941C4.24637 138.163 8.37818 124.083 14.3534 110.986C17.2775 104.549 20.6465 98.3654 24.4287 92.4354C30.7218 82.5415 38.159 73.472 46.5498 65.3223C73.6608 39.0019 110.688 22.7974 151.498 22.7974C153.087 22.7974 154.676 22.8291 156.234 22.8608C157.918 22.9243 159.603 22.9877 161.287 23.1145C169.932 23.6853 178.386 24.9538 186.555 26.9199C191.322 28.0615 195.994 29.3934 200.571 30.9789C203.686 32.0254 206.737 33.1987 209.756 34.4672C212.013 35.4185 214.206 36.4016 216.399 37.448C216.781 37.6383 217.162 37.7969 217.543 37.9871C232.164 45.1222 245.417 54.5087 256.923 65.7662C258.575 67.3518 260.165 69.0008 261.754 70.6815C262.803 71.8231 263.851 72.9964 264.869 74.1697C266.617 76.1358 268.301 78.197 269.954 80.2583C275.961 87.869 281.237 96.0505 285.655 104.739C290.835 114.824 294.904 125.574 297.669 136.831C300.561 148.438 302.087 160.551 302.087 173.045H302.055Z" fill="url(#paint2_radial_119_647)"/>
<path fill-rule="evenodd" clip-rule="evenodd" d="M217.512 37.9872C217.003 38.0506 216.526 38.0823 216.018 38.2092C214.333 38.5263 212.998 38.3677 211.314 37.892C210.106 37.5432 209.248 37.0676 207.977 36.8456C206.133 36.5602 204.449 35.7674 202.637 35.5454C200.698 35.2917 199.046 34.5306 197.202 33.8647C195.772 33.3573 195.009 33.5159 193.611 33.8647C192.212 34.2135 191.259 33.6427 190.019 33.1354C188.621 32.5328 187.254 32.4377 185.792 32.1523C181.978 31.3595 178.196 30.1545 174.414 29.1714C172.062 28.5689 169.9 28.5689 167.485 28.5372C165.61 28.5372 163.893 29.0446 162.018 29.0446C160.779 29.0446 159.698 28.8226 158.427 28.6641C157.155 28.4421 155.852 28.6641 154.549 28.5055C152.642 28.2201 151.625 27.9347 149.686 28.5055C148.256 28.9812 147.112 28.9178 145.682 29.0129C144.092 29.0763 142.281 29.5203 140.723 29.8691C137.895 30.535 134.812 31.0424 131.919 30.979C130.14 30.979 127.533 30.4716 125.849 31.0741C124.736 31.4547 124.196 32.628 123.433 33.4208C121.971 34.9429 120.16 36.2748 118.952 37.9872C117.712 39.6679 116.346 41.412 116.441 43.5684C116.536 45.4076 117.395 47.5957 118.221 49.2764C119.047 51.0839 119.333 52.7012 117.49 53.9062C115.17 55.4284 112.468 56.8554 109.798 57.6165C108.019 58.1238 106.429 58.441 104.936 57.1725C104.395 56.6968 104.046 55.7772 103.378 55.4284C102.679 55.0796 101.948 55.4284 101.185 55.6504C99.3099 56.1895 97.4665 56.8237 95.5595 57.1408C94.3835 57.3311 93.3665 57.9336 92.2223 58.1556C90.8238 58.4092 89.8385 57.3945 88.4083 57.7433C86.406 58.219 84.3718 59.0435 82.3059 59.1386C80.8121 59.202 78.9369 58.5678 77.6974 57.8067C76.9664 57.3945 76.7756 56.9822 75.9493 57.2042C75.2818 57.3628 74.2648 58.1873 73.8834 58.7264C73.3749 59.424 73.2159 60.3436 72.7074 61.073C72.1989 61.8658 71.6903 62.6586 71.2136 63.5148C70.3554 65.1955 69.3384 66.7493 68.226 68.2397C67.4314 69.2862 66.8911 70.6815 66.0329 71.6646C65.588 72.1719 64.6345 72.5525 64.0624 72.933C62.505 74.0429 60.8523 75.026 59.3267 76.1993C56.4026 78.4825 53.6375 81.0194 50.6499 83.2392C48.3933 84.9199 45.1832 85.9346 42.6087 86.9811C40.9878 87.6471 39.3033 88.091 37.7141 88.7887C37.2056 89.0106 36.2203 89.2326 35.7753 89.6131C35.2032 90.1205 34.8854 91.0084 34.3769 91.7061C32.9784 93.4185 31.4846 95.1309 30.404 97.1287C29.7365 98.2703 29.3551 99.4436 28.9419 100.712C28.3699 102.393 27.4481 103.978 26.876 105.659C25.7001 109.211 25.4776 112.889 24.1745 116.409C23.4117 118.47 22.331 120.341 21.3776 122.212C19.7566 125.383 19.5341 129.157 19.0574 132.677C18.8031 134.738 18.8985 137.117 19.2799 139.114C19.6613 141.271 19.5659 143.522 19.5341 145.742C19.5341 148.089 18.0085 150.372 16.5465 152.148C15.1798 153.797 13.1139 154.399 11.6201 155.89C10.3488 157.126 8.79141 158.585 8.25109 160.361C8.02861 161.154 8.2511 162.042 8.09218 162.866C7.74257 164.705 7.2976 166.45 7.01155 168.352C6.7255 170.667 6.66193 172.855 6.66193 175.202C6.66193 176.375 6.59837 177.58 6.66193 178.754C6.7255 179.863 7.13868 180.91 7.20225 182.052C7.26582 182.844 7.1069 183.605 7.20225 184.398C7.36117 185.286 7.71078 186.206 7.90148 187.062C8.41001 189.155 8.8232 191.184 9.20459 193.277C9.55421 195.212 10.317 197.114 10.9209 198.985C11.7472 201.554 12.3193 204.186 12.7961 206.818C13.1775 208.784 13.1775 210.845 13.4635 212.875C13.686 214.492 14.0674 216.141 14.131 217.758C14.1946 220.2 13.6225 222.642 13.5907 225.147C13.5907 229.301 15.2434 233.487 16.1969 237.515C16.4829 238.624 16.769 239.798 17.0868 240.908C6.75729 220.517 0.90918 197.495 0.90918 173.109C0.90918 143.459 9.52242 115.807 24.397 92.4989C30.7218 82.605 38.1273 73.5355 46.5181 65.3857C73.6609 39.0654 110.657 22.8609 151.498 22.8609C154.803 22.8609 158.013 22.956 161.255 23.178C181.342 24.4465 200.349 29.6788 217.512 38.0506V37.9872Z" fill="url(#paint3_linear_119_647)"/>
<path style="mix-blend-mode:multiply" fill-rule="evenodd" clip-rule="evenodd" d="M161.065 243.635C161.065 243.635 175.113 264.342 193.738 281.149C212.331 297.956 215.064 309.245 215.064 309.245C215.064 309.245 250.217 294.563 275.325 259.839C300.402 225.084 161.065 243.666 161.065 243.666V243.635Z" fill="url(#paint4_linear_119_647)"/>
<path style="mix-blend-mode:screen" fill-rule="evenodd" clip-rule="evenodd" d="M62.1871 290.345C46.6134 277.344 33.7094 261.234 24.4605 243C18.6442 231.521 14.2581 219.249 11.5247 206.342C11.5247 206.342 11.5247 206.279 11.5247 206.215C9.42703 196.194 8.31462 185.825 8.31462 175.202C8.31462 145.552 16.9279 117.899 31.8024 94.5915C38.1272 84.6976 45.5327 75.6281 53.9235 67.4783C81.0663 41.158 118.062 24.9535 158.903 24.9535C162.209 24.9535 165.419 25.0487 168.661 25.2706C178.863 25.9366 188.78 27.6173 198.346 30.1859C186.587 26.3488 174.159 23.907 161.287 23.0826C158.045 22.8606 154.803 22.7654 151.53 22.7654C110.72 22.7654 73.6926 38.9699 46.5498 65.2903C38.159 73.4084 30.7535 82.4778 24.4287 92.4034C9.55416 115.711 0.940918 143.363 0.940918 173.013C0.940918 183.637 2.05333 194.006 4.15102 204.027C4.15102 204.091 4.15102 204.122 4.15102 204.154C6.85259 217.06 11.2705 229.364 17.0868 240.812C26.3675 259.046 39.2714 275.156 54.8134 288.157C71.3089 301.952 90.792 312.289 112.15 318.029C93.6843 312.004 76.7756 302.522 62.1871 290.345V290.345Z" fill="url(#paint5_radial_119_647)"/>
<path style="mix-blend-mode:multiply" opacity="0.4" fill-rule="evenodd" clip-rule="evenodd" d="M186.523 26.9199C178.355 24.9538 169.9 23.6854 161.255 23.1146C159.571 22.9877 157.886 22.9243 156.202 22.8609C159.793 24.8587 163.131 28.3787 163.957 31.9937C165.324 38.1774 167.326 43.9172 168.47 50.1009C169.614 56.1895 169.392 63.7367 166.627 69.2545C164.879 72.7427 162.813 75.7236 160.048 78.5776C158.077 80.5754 156.393 81.6853 154.994 84.1588C153.596 86.5689 152.261 88.9155 150.672 91.1987C148.32 94.6235 145.841 98.2703 143.139 101.41C142.185 102.551 141.137 103.344 140.278 104.676C139.198 106.325 138.689 107.879 137.513 109.179C134.812 112.192 130.616 113.872 126.898 115.236C122.067 117.043 117.967 119.073 113.422 121.483C107.033 124.844 101.789 129.157 94.32 129.347C91.8409 129.411 89.2665 129.062 86.7874 129.284C83.7044 129.538 80.8439 131.028 77.7927 131.599C75.1229 132.106 72.4532 132.645 69.7834 133.089C65.3973 133.755 61.774 135.246 57.5468 136.26C52.0484 137.624 46.2956 137.275 40.7653 138.036C35.7754 138.702 31.4528 139.305 26.4947 138.1C18.8349 136.197 14.7349 132.582 16.3558 124.464C17.4365 119.136 17.0551 115.077 14.3217 110.987C8.34646 124.083 4.21465 138.163 2.27588 152.941C5.89916 154.463 10.031 155.255 13.2411 155.573C24.397 156.714 36.411 151.736 46.6134 147.93C51.8259 145.964 57.1337 143.11 62.7593 142.476C68.671 141.842 73.8834 142.571 79.7951 141.112C100.168 136.102 120.255 128.999 138.435 118.248C145.968 113.809 149.305 107.467 154.549 101.029C159.158 95.4163 164.338 90.7547 169.837 86.0615C175.24 81.4633 180.007 76.8969 183.218 70.4595C186.618 63.6733 189.511 56.2212 191.068 48.769C192.721 40.9046 190.687 33.3256 186.523 26.9199V26.9199ZM185.506 47.342C185.188 49.0227 184.966 50.8302 184.457 52.4158C183.154 56.4431 180.738 60.5973 176.956 62.722C175.208 63.705 172.888 63.1025 171.871 61.3584C171.331 60.4071 171.331 59.202 171.14 58.1556C170.759 56.0943 170.504 54.0648 170.536 51.9401C170.6 46.8346 170.409 41.9194 169.932 36.8139C170.472 39.6996 169.805 32.5328 174.318 30.5667C176.448 29.6154 179.658 30.4716 181.279 32.1206C183.313 34.1818 183.79 37.6701 184.552 40.3655C185.22 42.7756 185.951 44.8051 185.506 47.342Z" fill="url(#paint6_linear_119_647)"/>
<path style="mix-blend-mode:multiply" opacity="0.4" fill-rule="evenodd" clip-rule="evenodd" d="M163.703 287.174C163.258 287.238 162.845 287.333 162.431 287.365L165.419 287.65C165.038 287.555 164.402 287.333 163.703 287.174V287.174ZM163.703 287.174C163.258 287.238 162.845 287.333 162.431 287.365L165.419 287.65C165.038 287.555 164.402 287.333 163.703 287.174V287.174ZM297.637 136.831C297.574 140.763 296.461 144.664 296.366 148.628C296.27 153.892 295.38 157.983 294.014 163.056C293.06 166.545 291.28 169.113 290.104 172.475C288.77 176.343 286.863 179.641 284.892 183.193C280.983 190.296 277.073 197.4 275.389 205.454C273.863 212.716 273.545 218.836 269.922 225.496C266.458 231.902 261.214 237.229 257.495 243.444C255.747 246.425 254.539 246.267 251.901 248.138C248.945 250.231 246.244 253.529 243.383 255.844C237.217 260.759 231.592 264.152 224.123 266.943C219.45 268.718 214.905 270.114 209.947 270.875C206.705 271.382 203.527 270.875 200.317 271.414C195.232 272.238 190.401 273.76 185.506 275.346C177.465 277.946 169.265 279.437 161.255 281.91C155.662 283.623 150.195 284.637 144.506 285.842C141.041 286.572 138.244 288.443 134.653 287.713C131.03 286.952 127.724 285.747 124.164 284.637C119.619 283.242 115.869 283.147 110.974 283.147C104.459 283.147 96.8945 284.13 90.4743 282.893C83.2277 281.498 76.0129 279.564 68.7663 278.073C64.3803 277.154 61.043 275.346 57.0383 273.475C53.2879 271.731 49.2515 271.224 45.3421 269.987C41.2103 268.687 37.2374 266.752 33.0103 265.706C39.4622 273.951 46.7724 281.498 54.8135 288.189C76.2354 306.138 102.647 318.188 131.729 321.993C135.575 322.469 139.484 322.85 143.425 323.04C151.943 321.105 160.27 318.6 168.852 315.968C183.122 311.529 195.454 302.935 209.725 298.749C215.033 297.163 219.8 295.451 224.758 293.009C228.413 291.202 232.291 290.726 235.978 289.14C249.231 283.528 259.211 270.684 265.123 258.095C267.793 252.387 270.367 245.918 275.166 241.637C277.137 239.861 279.489 238.307 281.205 236.309C283.144 234.121 284.447 231.394 286.163 229.016C289.183 224.767 292.107 220.485 295.126 216.204C295.508 215.697 295.857 215.19 296.143 214.651C299.989 201.459 302.023 187.474 302.023 173.045C302.023 160.551 300.498 148.437 297.605 136.831H297.637ZM159.507 288.252C160.048 287.904 160.938 287.174 161.51 287.016C162.082 286.825 162.94 287.016 163.703 287.174C164.815 287.016 165.928 286.889 166.976 287.333C167.58 287.618 168.724 288.157 168.979 288.855C169.265 289.521 168.883 289.933 168.438 290.377C167.866 290.948 167.421 290.948 166.627 291.106C164.974 291.424 163.353 291.709 161.637 291.55C160.62 291.455 159.094 291.392 158.458 290.441C157.855 289.521 158.745 288.76 159.507 288.252V288.252ZM169.392 307.85C168.47 309.023 167.548 310.228 166.341 311.116C165.197 312.004 163.925 312.543 162.686 313.241C159.634 314.953 156.488 316.793 153.055 317.681C151.689 318.029 150.322 317.966 148.892 318.061C147.175 318.22 145.491 318.251 143.775 318.283C141.741 318.315 139.77 318.727 137.736 318.854C135.702 318.949 133.699 319.012 131.665 319.139C128.296 319.361 125.309 318.79 122.13 317.649C119.27 316.602 116.314 315.27 113.74 313.558C111.928 312.353 110.371 310.641 108.813 309.118C107.351 307.755 106.175 306.296 105.349 304.457C105.063 303.791 104.745 303.093 104.904 302.364C104.967 302.015 105.126 301.73 105.126 301.635C105.698 301.191 106.271 300.778 106.811 300.556C107.891 300.081 109.099 299.859 110.243 299.732C113.009 299.351 116.028 299.827 118.793 300.049C120.446 300.176 121.908 300.271 123.529 300.049C125.69 299.732 127.851 299.066 129.949 298.495C135.034 297.132 140.024 296.053 145.268 295.483C150.481 294.912 155.948 294.341 161.192 295.229C163.162 295.546 165.546 296.117 167.262 297.258C168.534 298.115 169.551 299.478 170.25 300.842C171.458 303.157 170.949 305.884 169.392 307.882V307.85ZM209.28 294.817C208.358 295.895 207.023 296.529 205.879 297.322C204.29 298.432 202.605 299.32 200.953 300.271C199.554 301.096 198.219 301.762 196.757 302.427C195.327 303.093 193.865 303.759 192.435 304.489C190.877 305.281 189.193 305.821 187.54 306.391C186.332 306.835 185.029 307.374 183.726 307.152C182.677 306.93 181.501 306.518 180.739 305.725C179.594 304.52 179.785 303.22 180.166 302.681C180.166 301.571 179.849 299.986 180.166 298.907C180.389 298.273 181.152 297.322 181.501 296.688C182.836 294.278 184.743 292.534 186.746 290.631C188.494 288.95 190.178 287.682 192.53 286.857C195.168 285.969 198.187 285.747 200.921 285.398C203.908 285.05 208.962 284.828 210.297 288.252C211.219 290.631 210.901 292.819 209.248 294.817H209.28ZM165.419 287.65C165.038 287.555 164.402 287.333 163.703 287.174C163.258 287.238 162.845 287.333 162.431 287.365L165.419 287.65V287.65Z" fill="url(#paint7_linear_119_647)"/>
<path style="mix-blend-mode:multiply" opacity="0.4" fill-rule="evenodd" clip-rule="evenodd" d="M285.623 104.739V105.342C285.432 109.496 283.748 112.35 282.254 116.124C281.046 119.168 279.648 121.895 278.09 124.781C275.452 129.601 274.213 134.136 272.274 139.305C269.255 147.391 267.729 155.668 262.993 163.025C258.734 169.589 257.749 177.643 254.285 184.652C250.375 192.484 244.4 198.097 237.98 203.805C235.12 206.374 232.736 209.45 230.161 212.24C227.428 215.19 225.299 218.995 222.025 221.342C214.937 226.479 207.182 230.918 200.253 236.341C196.09 239.576 193.134 243.888 188.557 246.584C183.98 249.311 179.022 251.214 174.477 253.973C170.377 256.478 166.341 259.173 161.891 260.981C156.806 263.01 152.579 262.408 147.366 262.661C141.582 262.915 135.606 264.437 130.171 266.308C125.658 267.894 121.876 269.511 117.267 267.894C114.216 266.816 111.451 264.818 108.241 264.152C100.772 262.63 92.2541 264.152 84.6579 263.962C78.7145 263.803 72.1671 262.439 66.3508 261.266C60.6298 260.156 55.9577 256.161 50.4274 254.543C43.594 252.546 35.6165 254.258 29.0056 251.658C26.304 250.611 23.7296 248.455 21.3458 246.964C20.8373 246.647 20.3288 246.33 19.8202 246.013C18.8985 244.364 18.0086 242.683 17.1187 241.003C18.7396 241.669 20.3605 242.398 22.0133 243.191C30.6583 247.313 41.4328 246.679 50.7453 248.296C61.2337 250.135 71.7222 252.863 82.306 254.068C86.5967 254.543 90.9192 254.512 95.1782 254.068C101.153 253.402 107.351 253.497 113.231 252.482C123.465 250.675 133.445 245.854 144.061 247.218C146.031 247.472 148.224 248.518 150.227 248.486C153.182 248.391 155.217 245.823 157.6 244.332C161.796 241.7 166.214 242.208 169.9 238.751C173.524 235.358 177.528 233.17 181.946 230.95C193.452 225.115 202.764 215.634 211.791 206.628C219.355 199.112 226.697 191.152 231.878 181.766C236.963 172.538 235.946 161.566 239.76 151.989C242.525 145.139 244.845 138.702 249.327 132.677C251.488 129.791 254.126 127.318 256.414 124.559C258.862 121.61 260.355 118.407 262.231 115.109C264.297 111.43 266.903 108.037 268.555 104.137C270.113 100.395 269.986 97.0968 269.922 93.1963C269.859 88.9153 269.922 84.5709 269.922 80.2899C275.929 87.9006 281.205 96.0821 285.623 104.771V104.739Z" fill="url(#paint8_linear_119_647)"/>
<path style="mix-blend-mode:multiply" opacity="0.4" fill-rule="evenodd" clip-rule="evenodd" d="M261.722 70.6814C260.133 69.0007 258.544 67.3517 256.891 65.7661C245.385 54.5086 232.132 45.1221 217.512 37.987C217.13 37.7967 216.749 37.6382 216.367 37.4479C214.174 36.4015 211.981 35.4184 209.725 34.4671C206.705 33.1986 203.654 32.0253 200.539 30.9788C201.525 31.613 202.669 32.1204 203.05 32.3107C204.925 33.262 206.451 33.8963 207.754 35.577C209.025 37.2259 209.598 38.4627 209.693 40.5556C209.757 42.5217 210.043 44.5512 210.392 46.5173C210.71 48.3249 211.6 50.0373 211.981 51.8448C212.172 52.923 212.331 53.8744 212.681 54.9526C213.475 57.4577 214.302 59.9312 214.842 62.5315C215.795 67.1614 213.316 70.9985 211.664 75.2161C209.057 81.9071 207.405 88.6933 205.466 95.6064C203.94 101.061 200.953 106.452 196.821 110.384C192.784 114.284 186.809 115.172 183.186 119.39C180.007 123.1 176.098 126.62 171.617 128.713C166.436 131.186 160.969 133.089 155.471 134.77C151.53 135.943 147.398 136.038 143.425 137.085C138.499 138.322 133.985 140.795 129.345 142.793C124.419 144.917 119.81 147.645 114.852 149.769C109.862 151.862 105.222 154.716 100.263 156.746C97.8479 157.729 95.3052 158.204 92.8579 159.061C87.7726 160.837 82.8462 164.071 77.4431 164.705C75.5679 164.927 73.6609 165.371 71.8175 165.371C70.3237 165.403 68.9888 165.561 67.5585 166.101C62.8546 167.94 59.9623 173.236 54.5592 173.267C49.601 173.267 44.7064 173.077 39.78 173.648C37.3963 173.933 35.0125 173.775 32.6288 173.806C31.9296 173.806 31.0079 173.965 30.3086 173.68C29.514 173.362 28.6241 172.601 27.8295 172.157C26.0497 171.174 24.3334 169.906 22.7442 168.701C19.6295 166.291 15.4977 167.623 11.9062 166.893C10.8255 166.671 9.23637 166.798 8.28288 166.259C6.05806 164.927 3.26114 162.2 1.44949 160.678C1.0681 164.737 0.90918 168.891 0.90918 173.045C0.90918 180.276 1.41771 187.379 2.43477 194.355C2.87974 197.622 3.45184 200.856 4.11928 204.059C4.11928 204.091 4.11928 204.154 4.15107 204.186C5.10456 208.752 6.28054 213.255 7.679 217.631C9.52243 223.72 11.8108 229.65 14.417 235.39H14.4488C18.5488 236.056 22.776 236.595 26.9078 235.992C32.7877 235.136 38.6358 234.216 44.6111 234.438C50.2049 234.692 55.4173 236.595 60.8841 237.514C67.0182 238.529 73.4066 239.354 79.6361 239.766C85.3253 240.115 90.9827 240.59 96.6401 241.225C100.899 241.732 105.158 242.556 109.417 242.842C120.478 243.603 131.284 240.717 142.154 239.576C147.589 239.005 152.992 237.641 158.331 236.5C161.605 235.802 164.783 234.946 167.676 233.17C171.49 230.792 173.905 227.145 177.306 224.259C181.056 221.056 184.966 217.949 188.875 214.968C192.212 212.431 195.359 209.672 198.855 207.42C201.525 205.676 204.194 204.027 206.705 202.061C211.632 198.192 215.541 193.721 219.609 189.028C225.298 182.432 227.65 173.267 229.939 165.086C232.005 157.57 233.435 150.055 237.567 143.3C239.601 140.002 241.127 136.197 242.08 132.455C242.684 130.108 242.906 127.476 243.987 125.256C245.703 121.641 249.072 119.041 251.138 115.616C252.759 112.921 254.571 110.416 255.715 107.435C257.94 101.568 259.624 95.8601 260.578 89.613C261.277 85.0148 262.771 80.7972 264.201 76.3894C264.424 75.66 264.646 74.9307 264.837 74.1696C263.82 72.9963 262.771 71.823 261.722 70.6814V70.6814ZM65.7787 173.331C66.0965 172.538 71.7221 170.35 72.5803 170.096C72.5803 170.128 72.4849 170.16 72.3896 170.191L68.7027 171.777C72.771 170.413 80.1129 174.536 76.5532 179.197C75.5043 180.561 72.771 181.227 71.15 181.481C69.5291 181.766 68.512 181.227 67.5267 179.832C66.7004 178.627 66.0965 176.534 65.874 175.107C65.7787 174.599 65.5562 173.838 65.7787 173.331V173.331ZM20.9326 213.794C16.5465 212.589 13.6225 210.972 10.9209 207.294C9.17281 204.915 7.64721 202.537 7.17047 199.619C6.78907 197.209 5.83557 195.053 6.40767 192.643C6.85263 190.74 7.61543 188.647 8.50536 186.871C9.49064 184.874 10.9527 182.812 11.0798 182.147C15.4659 181.766 19.5659 181.607 23.952 181.576C28.8466 181.576 33.7412 182.178 38.6676 182.21C40.8924 182.242 43.1173 182.337 45.3103 181.861C47.4398 181.449 49.5057 180.878 51.6669 180.529C55.4173 179.895 58.9135 179.451 62.4414 181.322C65.1112 182.749 66.3508 185.698 67.5903 188.362C68.2895 189.884 68.7027 190.962 68.7027 192.675C68.7345 194.736 68.6074 196.765 68.3531 198.827C68.2578 199.588 68.1624 200.38 68.0353 201.142C64.9523 207.864 56.4662 210.084 50.1413 212.431C40.8924 215.824 30.4358 216.363 20.9326 213.794V213.794ZM88.6308 228.191C86.6602 233.138 78.3648 234.914 73.5973 235.104C71.2454 235.199 68.4167 234.724 66.3508 233.487C65.2066 232.789 63.9988 231.458 63.3314 230.284C62.791 229.396 61.5833 227.747 59.136 228.477C59.6445 225.75 60.5027 223.149 61.6468 220.644C62.7275 219.439 63.8717 218.297 65.0476 217.219C67.2725 215.221 69.7516 213.477 72.4214 212.114C76.585 210.021 80.9392 211.575 84.9439 213.414C87.6455 214.651 89.7432 216.49 90.3153 219.439C90.9827 222.8 89.8703 225.179 88.6308 228.191V228.191ZM144.378 227.24C142.853 230.887 140.723 231.711 137.354 233.424C133.413 235.421 128.614 236.912 124.164 236.944C121.876 236.975 119.747 235.897 117.681 235.073C116.314 234.534 114.82 234.185 113.739 233.17C110.752 230.443 110.275 226.447 112.119 227.272C110.974 224.83 110.243 222.325 109.957 219.693C110.466 219.28 110.784 218.741 110.943 218.075C112.532 215.095 115.488 212.621 118.412 210.972C123.624 207.991 130.267 207.642 135.829 209.957C138.276 210.972 139.833 212.209 141.677 214.08C142.535 214.968 143.743 215.792 144.41 216.87C146.063 219.629 145.554 224.449 144.41 227.24H144.378ZM161.51 226.669C160.651 227.367 158.999 228.73 157.886 228.508C156.965 228.318 155.217 226.447 155.503 225.464L154.899 224.862C156.234 222.8 157.569 220.707 158.872 218.583C160.906 219.471 162.717 219.344 163.957 221.564C165.101 223.625 163.035 225.432 161.51 226.669ZM204.131 126.937C202.446 129.189 200.222 131.313 197.615 132.391C194.342 133.755 189.956 134.77 189.797 129.855C189.67 126.969 190.146 124.876 191.449 122.212C193.325 118.439 195.104 117.487 198.728 115.616C200.063 115.775 201.461 116.092 202.478 116.441C204.512 117.107 206.451 118.914 206.737 121.071C207.055 123.322 205.434 125.256 204.131 126.937V126.937ZM243.892 105.564C242.303 110.511 240.173 115.299 237.98 119.992C235.31 125.764 234.992 131.694 233.657 137.782C232.895 141.207 231.274 144.981 227.905 146.313C226.443 146.884 225.012 146.757 223.391 146.757C221.929 146.757 219.228 147.296 219.323 148.564C218.465 146.186 217.003 142.983 216.431 140.288C215.827 137.307 215.573 134.104 215.096 131.123C214.588 127.984 214.365 124.844 214.047 121.673C213.793 118.724 213.189 115.616 213.221 112.635C213.348 102.805 218.783 90.5643 228.032 86.0296C230.861 84.666 233.657 84.0318 236.772 84.5392C240.395 85.0783 242.461 86.0613 244.082 89.5178C246.275 94.2745 245.417 100.68 243.892 105.564V105.564Z" fill="url(#paint9_linear_119_647)"/>
<path style="mix-blend-mode:multiply" opacity="0.4" fill-rule="evenodd" clip-rule="evenodd" d="M200.063 114.919C199.586 115.172 199.141 115.394 198.728 115.616C197.901 115.49 197.107 115.458 196.439 115.521L200.063 114.919Z" fill="url(#paint10_linear_119_647)"/>
<path style="mix-blend-mode:multiply" opacity="0.4" fill-rule="evenodd" clip-rule="evenodd" d="M11.0797 182.146C10.8572 182.178 10.6029 182.178 10.3486 182.21C10.9525 181.829 11.175 181.829 11.0797 182.146Z" fill="url(#paint11_linear_119_647)"/>
<path fill-rule="evenodd" clip-rule="evenodd" d="M180.357 25.5564L206.801 15.1551C206.801 15.1551 248.85 31.4547 275.357 67.1616L277.01 89.962C277.01 89.962 226.92 70.8084 180.357 25.5564V25.5564Z" fill="url(#paint12_linear_119_647)"/>
<path fill-rule="evenodd" clip-rule="evenodd" d="M276.406 257.556C276.406 257.556 254.253 281.53 237.503 286.889L223.773 291.075C223.773 291.075 161.065 268.56 157.632 229.428C154.74 196.543 211.123 146.059 226.379 140.034C241.635 134.041 259.497 137.434 259.497 137.434L276.374 257.588L276.406 257.556Z" fill="url(#paint13_linear_119_647)"/>
<path fill-rule="evenodd" clip-rule="evenodd" d="M259.529 137.402C246.307 133.216 189.161 159.473 173.81 218.393C170.695 230.348 199.681 275.758 234.325 286.857C245.831 290.536 298.527 244.618 300.72 213.477C302.913 182.369 279.203 143.586 259.561 137.37L259.529 137.402Z" fill="url(#paint14_linear_119_647)"/>
<path fill-rule="evenodd" clip-rule="evenodd" d="M177.497 225.305C185.665 158.585 246.466 136.863 259.688 141.049C269.255 144.061 283.271 158.077 291.312 171.872C283.017 154.843 270.621 140.953 259.529 137.433C246.307 133.248 189.161 159.504 173.81 218.424C172.729 222.578 175.526 230.791 181.088 240.178C178.037 233.772 177.115 228.508 177.497 225.337V225.305Z" fill="url(#paint15_linear_119_647)"/>
<path style="mix-blend-mode:multiply" fill-rule="evenodd" clip-rule="evenodd" d="M65.6832 296.783C65.6832 296.783 79.3182 301.761 89.2346 299.066C89.2346 299.066 93.0486 266.911 80.9074 246.33C68.7662 225.75 48.1707 256.858 48.1707 256.858L43.4668 276.551C43.4668 276.551 54.9087 290.314 65.6832 296.815V296.783Z" fill="url(#paint16_linear_119_647)"/>
<path fill-rule="evenodd" clip-rule="evenodd" d="M77.5068 291.582L86.2471 289.236C86.2471 289.236 90.4743 271.414 83.1324 251.309C74.837 228.477 44.3887 211.448 39.8755 211.067C35.3622 210.687 30.9126 220.961 30.9126 220.961L77.5068 291.551V291.582Z" fill="url(#paint17_linear_119_647)"/>
<path fill-rule="evenodd" clip-rule="evenodd" d="M215.064 309.213L200.539 328.05C200.539 328.05 175.335 340.227 150.068 334.329L131.729 321.993L215.064 309.213V309.213Z" fill="url(#paint18_linear_119_647)"/>
<path fill-rule="evenodd" clip-rule="evenodd" d="M24.3651 235.104C25.8907 228.191 31.9931 216.68 37.4598 215.57C42.9265 214.46 68.8298 238.973 74.805 254.765C80.7803 270.558 77.7609 288.03 77.4748 291.614C77.1888 295.197 47.8211 285.24 32.9783 273.094C18.1674 260.949 24.3333 235.136 24.3333 235.136L24.3651 235.104Z" fill="url(#paint19_linear_119_647)"/>
<path fill-rule="evenodd" clip-rule="evenodd" d="M74.8371 254.734C68.8301 238.941 42.9586 214.429 37.4918 215.538C35.3942 215.982 33.1693 217.948 31.167 220.612C32.4065 219.502 33.6461 218.71 34.8538 218.456C40.3205 217.346 66.7006 236.848 72.5805 252.672C79.7953 272.111 75.8224 286.128 75.1231 292.248C76.5534 292.343 77.4433 292.153 77.5069 291.55C77.7929 287.967 80.8123 270.494 74.8371 254.702V254.734Z" fill="url(#paint20_linear_119_647)"/>
<path fill-rule="evenodd" clip-rule="evenodd" d="M156.583 187.728C150.068 184.683 157.441 156.238 163.862 150.023C170.25 143.839 186.904 158.3 189.097 170.128C191.29 181.956 171.458 194.641 156.583 187.696V187.728Z" fill="url(#paint21_linear_119_647)"/>
<path fill-rule="evenodd" clip-rule="evenodd" d="M163.099 185.571C157.886 183.066 163.798 159.441 168.915 154.304C174.032 149.167 187.381 161.185 189.129 170.984C190.909 180.814 175.018 191.343 163.067 185.571H163.099Z" fill="url(#paint22_linear_119_647)"/>
<path fill-rule="evenodd" clip-rule="evenodd" d="M206.769 15.1866C206.769 15.1866 208.072 31.2008 226.157 50.8301C244.209 70.4593 275.325 67.1931 275.325 67.1931L276.978 89.9935C276.978 89.9935 210.805 60.8191 180.325 25.5879L206.769 15.1866V15.1866Z" fill="url(#paint23_linear_119_647)"/>
<path fill-rule="evenodd" clip-rule="evenodd" d="M258.671 157.063C257.908 157.697 256.287 158.839 257.59 159.758C257.94 160.012 258.258 159.885 258.607 159.98C258.893 160.076 258.957 160.298 259.307 160.171C260.355 159.758 259.942 156.778 258.735 157.38L258.639 157.063H258.671Z" fill="#0EDBFF"/>
<path fill-rule="evenodd" clip-rule="evenodd" d="M321.061 130.235C320.299 130.87 318.678 132.011 319.981 132.931C320.33 133.184 320.648 133.058 320.998 133.153C321.284 133.248 321.347 133.47 321.697 133.343C322.746 132.931 322.333 129.95 321.125 130.552L321.03 130.235H321.061Z" fill="#0EDBFF"/>
<path fill-rule="evenodd" clip-rule="evenodd" d="M293.664 240.813C292.901 241.447 291.28 242.588 292.583 243.508C292.933 243.762 293.251 243.635 293.601 243.73C293.887 243.825 293.95 244.047 294.3 243.92C295.349 243.508 294.935 240.527 293.728 241.13L293.632 240.813H293.664Z" fill="#0EDBFF"/>
<path fill-rule="evenodd" clip-rule="evenodd" d="M264.106 167.94C264.583 167.686 265.091 167.528 265.6 167.528C265.727 168.162 266.299 169.43 265.377 169.938C264.614 170.35 264.837 168.986 264.456 168.637L264.106 167.908V167.94Z" fill="#0EDBFF"/>
<path fill-rule="evenodd" clip-rule="evenodd" d="M165.069 174.599C166.055 174.98 167.04 175.392 168.025 175.836C168.343 175.551 168.82 175.614 169.201 175.36C169.678 175.043 170.123 174.377 170.282 173.838C170.568 173.014 170.123 172.316 169.741 171.682C169.487 171.238 169.233 170.635 168.851 170.318C168.407 169.969 167.485 170.096 167.008 170.318C166.404 170.604 165.991 171.206 165.578 171.745C165.196 172.253 164.783 173.109 164.751 173.743C164.751 174.441 165.292 175.17 165.8 175.519L165.069 174.599V174.599Z" fill="#0EDBFF"/>
<path fill-rule="evenodd" clip-rule="evenodd" d="M24.6831 249.47C25.6683 249.85 26.6536 250.262 27.6389 250.706C27.9567 250.421 28.4335 250.484 28.8149 250.231C29.2916 249.914 29.7366 249.248 29.8955 248.709C30.1816 247.884 29.7366 247.186 29.3552 246.552C29.1009 246.108 28.8467 245.506 28.4653 245.189C28.0203 244.84 27.0986 244.967 26.6218 245.189C26.018 245.474 25.6048 246.077 25.1916 246.616C24.8102 247.123 24.397 247.979 24.3652 248.613C24.3652 249.311 24.9055 250.04 25.4141 250.389L24.6831 249.47V249.47Z" fill="#0EDBFF"/>
<path fill-rule="evenodd" clip-rule="evenodd" d="M298.336 288.538C299.322 288.918 300.307 289.331 301.292 289.775C301.61 289.489 302.087 289.553 302.468 289.299C302.945 288.982 303.39 288.316 303.549 287.777C303.835 286.952 303.39 286.255 303.009 285.621C302.754 285.177 302.5 284.574 302.119 284.257C301.674 283.908 300.752 284.035 300.275 284.257C299.671 284.542 299.258 285.145 298.845 285.684C298.464 286.191 298.05 287.048 298.019 287.682C298.019 288.379 298.559 289.109 299.067 289.458L298.336 288.538V288.538Z" fill="#0EDBFF"/>
<path fill-rule="evenodd" clip-rule="evenodd" d="M278.663 261.425C279.648 261.805 280.633 262.217 281.618 262.661C281.936 262.376 282.413 262.439 282.794 262.186C283.271 261.869 283.716 261.203 283.875 260.664C284.161 259.839 283.716 259.141 283.335 258.507C283.08 258.095 282.826 257.461 282.445 257.144C282 256.795 281.078 256.922 280.601 257.144C279.997 257.429 279.584 258.032 279.171 258.571C278.79 259.078 278.377 259.934 278.345 260.568C278.345 261.266 278.885 261.995 279.394 262.344L278.663 261.425V261.425Z" fill="#0EDBFF"/>
<path fill-rule="evenodd" clip-rule="evenodd" d="M5.51781 72.1718C8.02869 73.1549 10.5396 74.2013 12.9869 75.2795C13.7814 74.5819 14.9892 74.7087 15.9427 74.0745C17.1505 73.2817 18.2311 71.5693 18.7078 70.174C19.4071 68.0493 18.3264 66.3052 17.3412 64.688C16.6737 63.6098 16.0698 62.0242 15.0528 61.2631C13.8768 60.4069 11.6202 60.7558 10.4124 61.3266C8.91861 62.0242 7.8062 63.5781 6.82093 64.9416C5.89921 66.2101 4.7868 68.3665 4.75502 69.9837C4.69145 71.7279 6.08991 73.5671 7.36124 74.455L5.51781 72.1401V72.1718Z" fill="#0EDBFF"/>
<path fill-rule="evenodd" clip-rule="evenodd" d="M119.46 12.079C121.971 13.062 124.482 14.1085 126.929 15.1867C127.724 14.489 128.931 14.6159 129.885 13.9817C131.093 13.1889 132.173 11.4765 132.65 10.0812C133.349 7.95652 132.269 6.2124 131.283 4.59512C130.616 3.51694 130.012 1.93137 128.995 1.1703C127.819 0.314099 125.562 0.662923 124.355 1.23373C122.861 1.93137 121.748 3.48523 120.763 4.84881C119.841 6.11726 118.729 8.27363 118.697 9.8909C118.634 11.635 120.032 13.4743 121.303 14.3622L119.46 12.0473V12.079Z" fill="#0EDBFF"/>
<path fill-rule="evenodd" clip-rule="evenodd" d="M193.515 199.493C193.102 199.778 192.753 200.159 192.467 200.603C192.88 201.11 193.07 201.586 193.77 201.776C194.056 201.871 194.342 201.871 194.564 201.649C194.85 201.364 194.691 201.047 194.787 200.793C194.977 200.127 195.168 199.937 194.787 199.334C194.564 198.954 194.405 198.827 193.992 198.827C193.706 198.827 193.102 198.89 192.943 199.207L193.515 199.493V199.493Z" fill="#0EDBFF"/>
<path fill-rule="evenodd" clip-rule="evenodd" d="M195.772 215.19C195.709 215.348 194.946 217.314 195.931 216.744C196.44 216.458 196.249 215.697 195.931 215.475L195.995 215.285L195.804 215.19H195.772Z" fill="#0EDBFF"/>
<path fill-rule="evenodd" clip-rule="evenodd" d="M245.481 243.825C244.814 244.681 244.718 245.03 244.432 245.95C244.718 246.203 245.258 246.362 245.64 246.33C246.212 246.33 246.244 246.108 246.276 245.569C246.276 245.125 246.466 244.776 246.371 244.332C246.244 243.888 245.831 243.445 245.322 243.73L245.513 243.825H245.481Z" fill="#0EDBFF"/>
<path fill-rule="evenodd" clip-rule="evenodd" d="M203.559 201.395C203.94 201.744 204.163 202.188 204.258 202.696C203.718 202.822 203.654 202.315 203.591 201.903C203.464 201.237 203.781 201.459 204.067 200.92C204.131 200.92 204.195 200.92 204.226 200.952L203.527 201.395H203.559Z" fill="#0EDBFF"/>
<path fill-rule="evenodd" clip-rule="evenodd" d="M251.234 158.934C250.82 159.219 250.471 159.6 250.185 160.044C250.439 160.361 250.312 160.9 250.884 160.868C251.297 160.868 251.647 160.393 251.838 160.076C252.06 159.695 252.092 159.378 252.124 158.934C252.124 158.712 252.124 157.792 251.742 158.395L251.234 158.934Z" fill="#0EDBFF"/>
<path fill-rule="evenodd" clip-rule="evenodd" d="M244.782 48.2931C245.258 48.1663 245.894 47.9126 246.371 47.9126C246.498 47.9126 246.689 48.0077 246.847 48.0394C247.356 48.0712 247.388 47.976 247.61 48.3883C247.896 48.8639 248.023 49.181 247.928 49.7519C247.642 51.6228 244.972 48.8005 245.894 48.1346L244.75 48.3248L244.782 48.2931Z" fill="#0EDBFF"/>
<path fill-rule="evenodd" clip-rule="evenodd" d="M42.5772 51.6229C41.7509 51.8766 40.4795 51.9717 40.3524 52.9231C40.257 53.7476 41.6237 54.6038 42.323 54.8257C43.5625 55.238 45.5648 55.4283 46.2005 54.033C46.5501 53.2085 46.2959 51.6229 45.7873 50.9253C44.7703 49.4665 42.6408 50.0373 41.0198 50.6716L42.5772 51.5912V51.6229Z" fill="#0EDBFF"/>
<path fill-rule="evenodd" clip-rule="evenodd" d="M257.082 245.855C256.7 242.969 256.192 240.147 258.735 238.624C260.133 237.8 262.676 237.515 264.011 238.498C264.964 239.195 265.79 240.527 266.394 241.51C267.284 242.969 267.03 242.969 266.585 244.301C265.536 247.345 264.805 249.375 261.754 249.375C257.749 249.375 257.114 246.267 257.05 242.398V245.886L257.082 245.855Z" fill="#0EDBFF"/>
<path fill-rule="evenodd" clip-rule="evenodd" d="M258.862 165.023C259.974 164.705 260.927 164.135 261.754 163.278C260.959 162.771 259.179 161.756 258.862 163.278V165.054V165.023Z" fill="#0EDBFF"/>
<path fill-rule="evenodd" clip-rule="evenodd" d="M31.0713 238.212C32.1837 237.895 33.1372 237.324 33.9636 236.468C33.169 235.961 31.3891 234.946 31.0713 236.468V238.244V238.212Z" fill="#0EDBFF"/>
<path fill-rule="evenodd" clip-rule="evenodd" d="M31.0713 262.344C32.1837 262.027 33.1372 261.456 33.9636 260.6C33.169 260.093 31.3891 259.078 31.0713 260.6V262.376V262.344Z" fill="#0EDBFF"/>
<path fill-rule="evenodd" clip-rule="evenodd" d="M201.398 175.963C202.51 174.599 204.131 172.094 206.133 173.458C207.309 174.251 207.627 176.343 206.515 177.2C205.466 177.961 204.512 178.183 203.336 178.532C202.447 178.785 201.112 178.183 201.366 176.851V175.963H201.398Z" fill="#0EDBFF"/>
<path fill-rule="evenodd" clip-rule="evenodd" d="M239.188 238.117C240.3 236.753 241.921 234.248 243.923 235.612C245.099 236.405 245.449 238.498 244.305 239.354C243.256 240.115 242.302 240.337 241.126 240.686C240.237 240.939 238.902 240.337 239.156 239.005V238.117H239.188Z" fill="#0EDBFF"/>
<path fill-rule="evenodd" clip-rule="evenodd" d="M233.499 32.0887C235.247 32.3741 238.203 32.5327 238.012 34.9745C237.885 36.3698 236.232 37.7016 234.961 37.1626C233.785 36.6552 233.117 35.9258 232.259 35.0696C231.592 34.4037 231.464 32.9767 232.736 32.5327L233.499 32.0887V32.0887Z" fill="#0EDBFF"/>
<path fill-rule="evenodd" clip-rule="evenodd" d="M227.301 254.226C228.413 252.863 230.034 250.358 232.037 251.721C233.213 252.514 233.562 254.607 232.418 255.463C231.369 256.224 230.416 256.446 229.24 256.795C228.35 257.049 227.015 256.446 227.269 255.114V254.226H227.301Z" fill="#0EDBFF"/>
<path fill-rule="evenodd" clip-rule="evenodd" d="M175.78 173.902C174.35 174.789 171.966 175.931 171.712 177.865C171.553 179.039 172.125 179.736 173.174 180.244C174.096 180.688 175.431 180.72 176.352 180.244C177.655 179.578 179.181 178.5 179.753 177.104C180.166 176.09 180.103 175.424 179.626 174.409C179.372 173.87 178.863 173.236 178.291 173.045C176.48 172.411 175.367 174.187 174.032 175.011L175.78 173.87V173.902Z" fill="#0EDBFF"/>
<path fill-rule="evenodd" clip-rule="evenodd" d="M180.421 168.701C181.184 168.987 181.851 169.399 182.391 170.001C181.629 170.255 180.77 170.889 179.976 170.604C178.959 170.223 178.768 169.272 178.991 168.289C179.118 167.75 180.071 166.798 180.643 167.052C180.929 167.179 180.961 167.56 181.056 167.782C181.247 168.289 181.247 168.194 180.993 168.733H180.421V168.701Z" fill="#0EDBFF"/>
<path fill-rule="evenodd" clip-rule="evenodd" d="M219.8 160.139C216.018 163.437 212.49 167.369 210.488 172.094C209.471 174.504 211.282 174.631 213.475 174.187C217.703 173.362 221.993 172.189 226.157 171.111C228.636 170.477 232.196 169.177 233.912 167.084C235.247 165.466 235.787 162.708 235.501 160.678C235.088 157.856 233.086 156.746 230.479 156.016C224.599 154.399 216.209 160.741 214.016 166.164L219.8 160.139V160.139Z" fill="#0EDBFF"/>
<path fill-rule="evenodd" clip-rule="evenodd" d="M198.76 181.544C199.999 181.576 201.112 181.861 202.16 182.432C201.843 182.781 201.97 183.288 201.779 183.701C201.557 184.335 200.953 184.969 200.381 185.318C199.427 185.92 197.87 186.142 196.853 185.73C193.706 184.525 198.537 180.783 199.618 182.115L198.76 181.544Z" fill="#0EDBFF"/>
<path fill-rule="evenodd" clip-rule="evenodd" d="M22.2993 301.984C21.8862 302.269 21.5365 302.649 21.2505 303.093C21.6637 303.601 21.8544 304.076 22.5536 304.267C22.8396 304.362 23.1257 304.362 23.3482 304.14C23.6342 303.854 23.4753 303.537 23.5707 303.252C23.7614 302.586 23.9521 302.396 23.5707 301.793C23.3482 301.413 23.1893 301.286 22.7761 301.286C22.49 301.286 21.8862 301.349 21.7272 301.666L22.2993 301.952V301.984Z" fill="#0EDBFF"/>
<path fill-rule="evenodd" clip-rule="evenodd" d="M24.5558 317.712C24.4922 317.871 23.7294 319.837 24.7147 319.266C25.2232 318.981 25.0325 318.22 24.7147 317.998C24.7147 317.934 24.7465 317.871 24.7783 317.807L24.5876 317.712H24.5558Z" fill="#0EDBFF"/>
<path fill-rule="evenodd" clip-rule="evenodd" d="M32.3745 303.886C32.7559 304.235 32.9784 304.679 33.1055 305.186C32.5652 305.313 32.5016 304.806 32.4381 304.394C32.3109 303.728 32.6288 303.95 32.9148 303.411C32.9784 303.411 33.042 303.411 33.0737 303.442L32.3745 303.886Z" fill="#0EDBFF"/>
<path fill-rule="evenodd" clip-rule="evenodd" d="M27.5752 284.035C28.783 284.067 29.9272 284.352 30.976 284.923C30.6582 285.272 30.7853 285.779 30.5946 286.191C30.3722 286.826 29.7683 287.46 29.1962 287.809C28.2427 288.411 26.6853 288.633 25.6683 288.221C22.5217 287.016 27.3528 283.274 28.4334 284.606L27.5752 284.035Z" fill="#0EDBFF"/>
<path fill-rule="evenodd" clip-rule="evenodd" d="M227.301 34.8795C228.382 35.6406 229.526 36.1796 230.352 37.1944C231.306 38.336 232.227 39.3825 232.958 40.6827C233.34 41.3486 234.198 42.7756 232.895 42.9341C231.465 43.1244 228.985 41.2535 227.937 40.5558C226.188 39.3191 224.472 38.1775 223.201 36.4016C222.565 35.5137 221.58 33.9281 222.216 32.85C222.756 31.9303 223.55 31.7718 224.536 31.8035C225.585 31.8035 226.188 32.1206 227.015 32.7865C227.396 33.1036 229.24 34.9429 228.604 35.4503L227.269 34.8795H227.301Z" fill="#0EDBFF"/>
<path fill-rule="evenodd" clip-rule="evenodd" d="M240.999 154.685C240.491 155.065 236.486 157.285 238.393 158.236C239.41 158.744 241.413 158.617 242.461 158.173C243.383 157.792 244.305 157.19 243.733 156.112C242.557 153.987 239.633 155.192 238.107 156.112L240.999 154.685V154.685Z" fill="#0EDBFF"/>
<path fill-rule="evenodd" clip-rule="evenodd" d="M269.7 24.3831C268.397 25.3344 258.385 30.8839 263.152 33.2623C265.727 34.5624 270.749 34.1819 273.355 33.072C275.675 32.0889 278.027 30.5668 276.565 27.903C273.641 22.5438 266.267 25.6198 262.453 27.9665L269.7 24.3514V24.3831Z" fill="#0EDBFF"/>
<path fill-rule="evenodd" clip-rule="evenodd" d="M32.502 251.309C32.9151 253.656 33.3919 256.192 35.426 257.746C37.5237 259.332 39.9074 258.698 42.0051 257.493C43.5307 256.605 44.9928 255.622 46.4866 254.702C47.3765 254.163 48.1393 254.036 48.1711 252.768C48.2028 251.436 46.9633 249.628 46.2005 248.614C45.2788 247.408 43.4036 245.95 41.9733 245.411C38.8268 244.237 32.8198 245.411 32.9151 249.66L32.502 251.309V251.309Z" fill="#0EDBFF"/>
<path fill-rule="evenodd" clip-rule="evenodd" d="M242.906 255.907C243.193 257.556 243.542 259.332 244.972 260.41C246.466 261.52 248.119 261.076 249.581 260.22C250.662 259.586 251.679 258.92 252.728 258.254C253.331 257.873 253.872 257.778 253.903 256.922C253.903 255.971 253.077 254.734 252.537 254.004C251.901 253.148 250.598 252.134 249.581 251.753C247.388 250.928 243.161 251.753 243.224 254.734L242.938 255.875L242.906 255.907Z" fill="#0EDBFF"/>
<path style="mix-blend-mode:screen" d="M272.853 268.631C287.386 262.586 294.256 245.931 288.197 231.431C282.139 216.93 265.446 210.076 250.913 216.121C236.38 222.165 229.51 238.821 235.568 253.321C241.627 267.821 258.32 274.675 272.853 268.631Z" fill="url(#paint24_radial_119_647)"/>
<path style="mix-blend-mode:screen" d="M223.741 191.469C238.363 191.469 250.217 179.643 250.217 165.054C250.217 150.465 238.363 138.638 223.741 138.638C209.119 138.638 197.266 150.465 197.266 165.054C197.266 179.643 209.119 191.469 223.741 191.469Z" fill="url(#paint25_radial_119_647)"/>
<path style="mix-blend-mode:screen" fill-rule="evenodd" clip-rule="evenodd" d="M240.65 47.7857C237.313 52.3839 228.89 52.0033 221.898 46.9295C214.874 41.8557 211.918 33.9913 215.255 29.3932C218.593 24.7951 227.015 25.1756 234.007 30.2494C241 35.3232 243.987 43.1876 240.65 47.7857Z" fill="url(#paint26_radial_119_647)"/>
<path style="mix-blend-mode:screen" d="M40.3523 279.151C56.0977 279.151 68.8618 266.416 68.8618 250.706C68.8618 234.997 56.0977 222.261 40.3523 222.261C24.6069 222.261 11.8428 234.997 11.8428 250.706C11.8428 266.416 24.6069 279.151 40.3523 279.151Z" fill="url(#paint27_radial_119_647)"/>
<path fill-rule="evenodd" clip-rule="evenodd" d="M207.214 17.7869C207.214 17.7869 214.111 47.0882 233.562 58.1237C258.163 72.1083 275.325 67.1931 275.325 67.1931C275.325 67.1931 253.331 66.432 233.022 52.6059C216.05 41.063 207.214 17.8186 207.214 17.8186V17.7869Z" fill="url(#paint28_linear_119_647)"/>
<path style="mix-blend-mode:multiply" opacity="0.4" fill-rule="evenodd" clip-rule="evenodd" d="M161.065 243.635L174.128 224.481C174.128 224.481 190.878 271.985 234.293 286.889L224.79 293.009C224.79 293.009 180.516 280.452 161.065 243.635Z" fill="url(#paint29_linear_119_647)"/>
<path style="mix-blend-mode:multiply" fill-rule="evenodd" clip-rule="evenodd" d="M185.792 32.1522C185.792 32.1522 248.405 95.0356 293.474 123.005C293.474 123.005 289.119 105.817 276.978 89.9935C276.978 89.9935 239.156 77.5944 185.792 32.1522V32.1522Z" fill="url(#paint30_linear_119_647)"/>
<path style="mix-blend-mode:screen" d="M112.083 132.145C141.251 113 154.925 82.3565 142.624 63.7015C130.324 45.0466 96.7071 45.4441 67.5394 64.5895C38.3717 83.7348 24.6981 114.378 36.9986 133.033C49.2991 151.688 82.9157 151.29 112.083 132.145Z" fill="url(#paint31_radial_119_647)"/>
<defs>
<linearGradient id="paint0_linear_119_647" x1="51.4445" y1="92.4355" x2="51.4445" y2="40.3973" gradientUnits="userSpaceOnUse">
<stop stop-color="#9A00B3"/>
<stop offset="1" stop-color="#7F72FF"/>
</linearGradient>
<linearGradient id="paint1_linear_119_647" x1="39.9072" y1="95.0675" x2="59.4374" y2="35.3607" gradientUnits="userSpaceOnUse">
<stop stop-color="#5B008B"/>
<stop offset="1" stop-color="#8E00FF"/>
</linearGradient>
<radialGradient id="paint2_radial_119_647" cx="0" cy="0" r="1" gradientUnits="userSpaceOnUse" gradientTransform="translate(58.2142 102.773) scale(241.87 241.323)">
<stop stop-color="#60DBFF"/>
<stop offset="0.09" stop-color="#5FD5FF"/>
<stop offset="0.21" stop-color="#5EC4FF"/>
<stop offset="0.34" stop-color="#5CA8FF"/>
<stop offset="0.49" stop-color="#5A81FF"/>
<stop offset="0.64" stop-color="#5651FF"/>
<stop offset="0.68" stop-color="#5643FF"/>
<stop offset="0.74" stop-color="#553DF8"/>
<stop offset="0.83" stop-color="#542EE4"/>
<stop offset="0.93" stop-color="#5315C5"/>
<stop offset="1" stop-color="#5200AB"/>
</radialGradient>
<linearGradient id="paint3_linear_119_647" x1="0.90918" y1="131.821" x2="217.512" y2="131.821" gradientUnits="userSpaceOnUse">
<stop offset="0.01" stop-color="#81E0FF"/>
<stop offset="0.32" stop-color="#82DDFF"/>
<stop offset="0.55" stop-color="#85D3FF"/>
<stop offset="0.75" stop-color="#8BC3FF"/>
<stop offset="0.94" stop-color="#93ADFF"/>
<stop offset="1" stop-color="#97A4FF"/>
</linearGradient>
<linearGradient id="paint4_linear_119_647" x1="219.705" y1="309.214" x2="219.705" y2="238.656" gradientUnits="userSpaceOnUse">
<stop stop-color="#B8C2FF"/>
<stop offset="1" stop-color="#5B729C"/>
</linearGradient>
<radialGradient id="paint5_radial_119_647" cx="0" cy="0" r="1" gradientUnits="userSpaceOnUse" gradientTransform="translate(41.4327 70.7763) scale(198.2 197.752)">
<stop stop-color="#FFFFD9"/>
<stop offset="1"/>
</radialGradient>
<linearGradient id="paint6_linear_119_647" x1="2.27588" y1="89.296" x2="191.64" y2="89.296" gradientUnits="userSpaceOnUse">
<stop stop-color="#B8C2FF"/>
<stop offset="1" stop-color="#7D72B3"/>
</linearGradient>
<linearGradient id="paint7_linear_119_647" x1="33.0103" y1="229.935" x2="302.055" y2="229.935" gradientUnits="userSpaceOnUse">
<stop stop-color="#B8C2FF"/>
<stop offset="1" stop-color="#7D72B3"/>
</linearGradient>
<linearGradient id="paint8_linear_119_647" x1="17.1187" y1="174.409" x2="285.623" y2="174.409" gradientUnits="userSpaceOnUse">
<stop stop-color="#B8C2FF"/>
<stop offset="1" stop-color="#7D72B3"/>
</linearGradient>
<linearGradient id="paint9_linear_119_647" x1="0.90918" y1="136.958" x2="264.837" y2="136.958" gradientUnits="userSpaceOnUse">
<stop stop-color="#B8C2FF"/>
<stop offset="1" stop-color="#7D72B3"/>
</linearGradient>
<linearGradient id="paint10_linear_119_647" x1="196.439" y1="115.268" x2="200.063" y2="115.268" gradientUnits="userSpaceOnUse">
<stop stop-color="#E8DDFF"/>
<stop offset="1" stop-color="#AA8AD8"/>
</linearGradient>
<linearGradient id="paint11_linear_119_647" x1="10.3486" y1="182.051" x2="11.1114" y2="182.051" gradientUnits="userSpaceOnUse">
<stop stop-color="#E8DDFF"/>
<stop offset="1" stop-color="#AA8AD8"/>
</linearGradient>
<linearGradient id="paint12_linear_119_647" x1="180.357" y1="52.5744" x2="276.978" y2="52.5744" gradientUnits="userSpaceOnUse">
<stop stop-color="#7F72FF"/>
<stop offset="1" stop-color="#9A00B3"/>
</linearGradient>
<linearGradient id="paint13_linear_119_647" x1="202.287" y1="284.035" x2="251.129" y2="134.673" gradientUnits="userSpaceOnUse">
<stop stop-color="#280077"/>
<stop offset="1" stop-color="#812CFF"/>
</linearGradient>
<linearGradient id="paint14_linear_119_647" x1="216.315" y1="281.022" x2="262.9" y2="138.511" gradientUnits="userSpaceOnUse">
<stop stop-color="#7A00B3"/>
<stop offset="1" stop-color="#B136FF"/>
</linearGradient>
<linearGradient id="paint15_linear_119_647" x1="232.45" y1="240.146" x2="232.45" y2="136.958" gradientUnits="userSpaceOnUse">
<stop stop-color="#8E00B3"/>
<stop offset="1" stop-color="#E05CFF"/>
</linearGradient>
<linearGradient id="paint16_linear_119_647" x1="66.6367" y1="299.859" x2="66.6367" y2="239.29" gradientUnits="userSpaceOnUse">
<stop stop-color="#81A9CE"/>
<stop offset="1" stop-color="#5B729C"/>
</linearGradient>
<linearGradient id="paint17_linear_119_647" x1="49.6011" y1="282.449" x2="69.7643" y2="220.744" gradientUnits="userSpaceOnUse">
<stop stop-color="#280077"/>
<stop offset="1" stop-color="#812CFF"/>
</linearGradient>
<linearGradient id="paint18_linear_119_647" x1="173.397" y1="335.946" x2="173.397" y2="309.213" gradientUnits="userSpaceOnUse">
<stop stop-color="#7A00B3"/>
<stop offset="0.92" stop-color="#7006FC"/>
<stop offset="1" stop-color="#7006F9"/>
</linearGradient>
<linearGradient id="paint19_linear_119_647" x1="50.8087" y1="292.311" x2="50.8087" y2="215.507" gradientUnits="userSpaceOnUse">
<stop stop-color="#7A00B3"/>
<stop offset="1" stop-color="#B136FF"/>
</linearGradient>
<linearGradient id="paint20_linear_119_647" x1="54.8455" y1="292.28" x2="54.8455" y2="215.507" gradientUnits="userSpaceOnUse">
<stop stop-color="#8E00B3"/>
<stop offset="1" stop-color="#E05CFF"/>
</linearGradient>
<linearGradient id="paint21_linear_119_647" x1="165.896" y1="190.93" x2="178.715" y2="151.655" gradientUnits="userSpaceOnUse">
<stop stop-color="#5B008B"/>
<stop offset="1" stop-color="#8E00FF"/>
</linearGradient>
<linearGradient id="paint22_linear_119_647" x1="170.377" y1="188.076" x2="180.981" y2="155.621" gradientUnits="userSpaceOnUse">
<stop stop-color="#A400CA"/>
<stop offset="1" stop-color="#B136FF"/>
</linearGradient>
<linearGradient id="paint23_linear_119_647" x1="223.805" y1="72.6157" x2="239.093" y2="25.726" gradientUnits="userSpaceOnUse">
<stop stop-color="#5B008B"/>
<stop offset="1" stop-color="#8E00FF"/>
</linearGradient>
<radialGradient id="paint24_radial_119_647" cx="0" cy="0" r="1" gradientUnits="userSpaceOnUse" gradientTransform="translate(261.873 242.373) scale(28.5095 28.445)">
<stop stop-color="#317AFF"/>
<stop offset="0.1" stop-color="#2967D7"/>
<stop offset="0.29" stop-color="#1C4896"/>
<stop offset="0.47" stop-color="#122E60"/>
<stop offset="0.64" stop-color="#0A1A37"/>
<stop offset="0.78" stop-color="#040B18"/>
<stop offset="0.91" stop-color="#010306"/>
<stop offset="1"/>
</radialGradient>
<radialGradient id="paint25_radial_119_647" cx="0" cy="0" r="1" gradientUnits="userSpaceOnUse" gradientTransform="translate(223.741 165.054) scale(26.4754 26.4155)">
<stop stop-color="#317AFF"/>
<stop offset="0.1" stop-color="#2967D7"/>
<stop offset="0.29" stop-color="#1C4896"/>
<stop offset="0.47" stop-color="#122E60"/>
<stop offset="0.64" stop-color="#0A1A37"/>
<stop offset="0.78" stop-color="#040B18"/>
<stop offset="0.91" stop-color="#010306"/>
<stop offset="1"/>
</radialGradient>
<radialGradient id="paint26_radial_119_647" cx="0" cy="0" r="1" gradientUnits="userSpaceOnUse" gradientTransform="translate(227.844 38.732) rotate(35.9283) scale(15.6886 10.3472)">
<stop stop-color="#317AFF"/>
<stop offset="0.1" stop-color="#2967D7"/>
<stop offset="0.29" stop-color="#1C4896"/>
<stop offset="0.47" stop-color="#122E60"/>
<stop offset="0.64" stop-color="#0A1A37"/>
<stop offset="0.78" stop-color="#040B18"/>
<stop offset="0.91" stop-color="#010306"/>
<stop offset="1"/>
</radialGradient>
<radialGradient id="paint27_radial_119_647" cx="0" cy="0" r="1" gradientUnits="userSpaceOnUse" gradientTransform="translate(40.3523 250.706) scale(28.5095 28.445)">
<stop stop-color="#317AFF"/>
<stop offset="0.1" stop-color="#2967D7"/>
<stop offset="0.29" stop-color="#1C4896"/>
<stop offset="0.47" stop-color="#122E60"/>
<stop offset="0.64" stop-color="#0A1A37"/>
<stop offset="0.78" stop-color="#040B18"/>
<stop offset="0.91" stop-color="#010306"/>
<stop offset="1"/>
</radialGradient>
<linearGradient id="paint28_linear_119_647" x1="241.286" y1="68.0176" x2="241.286" y2="17.7869" gradientUnits="userSpaceOnUse">
<stop stop-color="#B000D9"/>
<stop offset="1" stop-color="#E05CFF"/>
</linearGradient>
<linearGradient id="paint29_linear_119_647" x1="197.679" y1="293.009" x2="197.679" y2="224.481" gradientUnits="userSpaceOnUse">
<stop stop-color="#B8C2FF"/>
<stop offset="1" stop-color="#7D72B3"/>
</linearGradient>
<linearGradient id="paint30_linear_119_647" x1="239.633" y1="123.005" x2="239.633" y2="32.1522" gradientUnits="userSpaceOnUse">
<stop stop-color="#81A9CE"/>
<stop offset="1" stop-color="#5B729C"/>
</linearGradient>
<radialGradient id="paint31_radial_119_647" cx="0" cy="0" r="1" gradientUnits="userSpaceOnUse" gradientTransform="translate(89.5174 99.278) rotate(-33.2804) scale(63.2787 40.5074)">
<stop stop-color="#06FEFF"/>
<stop offset="0.17" stop-color="#04C4C4"/>
<stop offset="0.4" stop-color="#037F7F"/>
<stop offset="0.6" stop-color="#014848"/>
<stop offset="0.78" stop-color="#002121"/>
<stop offset="0.92" stop-color="#000808"/>
<stop offset="1"/>
</radialGradient>
</defs>
</svg>
