<svg width="420" height="446" viewBox="0 0 420 446" fill="none" xmlns="http://www.w3.org/2000/svg">
<path style="mix-blend-mode:screen" opacity="0.92" fill-rule="evenodd" clip-rule="evenodd" d="M370.504 198.149C379.207 241.525 368.657 284.251 344.709 317.572C333.292 333.491 318.763 347.211 301.895 357.839C286.609 367.475 269.349 374.468 250.583 378.233C243.944 379.566 237.245 380.449 230.677 380.908C224.592 381.33 218.554 381.375 212.563 381.043C198.356 380.302 184.52 377.584 171.373 373.1C163.037 370.261 154.967 366.754 147.274 362.527C129.148 352.658 113.056 339.158 100.167 322.805C92.087 312.516 85.2511 301.088 79.9552 288.768C79.9197 288.744 79.9079 288.685 79.902 288.656C75.8 279.073 72.6302 268.935 70.4988 258.312C64.5607 228.717 67.6058 199.375 77.7472 173.122C82.0194 161.982 87.6376 151.431 94.3541 141.612C116.078 109.904 149.747 86.3276 190.379 78.1753C193.683 77.5122 196.917 76.9554 200.21 76.5402C217.461 74.2454 234.507 74.9077 250.787 78.1793C253.638 78.7736 256.436 79.4093 259.252 80.1336C271.206 83.2602 282.677 87.8037 293.434 93.6874C297.047 95.6329 300.602 97.7437 304.062 99.9962C305.296 100.792 306.542 101.647 307.752 102.479C339.124 124.209 362.446 157.683 370.551 198.079L370.504 198.149Z" fill="url(#paint0_radial_125_1052)"/>
<path fill-rule="evenodd" clip-rule="evenodd" d="M360.265 200.204C368.376 240.628 358.532 280.451 336.212 311.48C325.561 326.325 312.041 339.105 296.318 349.013C282.064 357.981 266.003 364.519 248.505 368.03C242.308 369.273 236.088 370.091 229.944 370.526C224.284 370.925 218.642 370.952 213.058 370.66C199.813 369.972 186.933 367.43 174.678 363.259C166.903 360.614 159.399 357.331 152.226 353.399C135.34 344.202 120.352 331.616 108.332 316.378C100.789 306.78 94.42 296.148 89.5083 284.671C89.5083 284.671 89.4905 284.583 89.4846 284.553C85.6663 275.62 82.6975 266.178 80.7142 256.293C75.1787 228.704 78.0125 201.37 87.4704 176.911C91.4656 166.533 96.6771 156.708 102.945 147.562C123.201 118.021 154.552 96.0455 192.439 88.4437C195.508 87.828 198.535 87.3126 201.586 86.9153C217.668 84.7629 233.54 85.3846 248.704 88.4503C251.36 88.9916 253.97 89.6038 256.591 90.2751C267.736 93.1957 278.409 97.4386 288.44 102.916C291.812 104.725 295.124 106.701 298.336 108.788C299.499 109.537 300.639 110.321 301.779 111.105C331.013 131.361 352.74 162.547 360.294 200.198L360.265 200.204Z" fill="url(#paint1_radial_125_1052)"/>
<path style="mix-blend-mode:multiply" opacity="0.4" fill-rule="evenodd" clip-rule="evenodd" d="M360.265 200.204C368.376 240.629 358.532 280.451 336.211 311.48C325.561 326.325 312.041 339.105 296.318 349.013C282.064 357.981 266.003 364.519 248.505 368.03C242.308 369.273 236.088 370.091 229.944 370.526C210.775 371.825 192.075 369.192 174.678 363.259C179.073 361.149 183.298 358.644 187.723 356.529C198.273 351.434 208.244 346.057 219.409 342.497C223.876 341.049 230.626 337.822 229.726 332.263C229.471 330.687 229.063 330.339 229.866 329.288C230.738 328.13 232.096 328.318 233.365 327.757C236.468 326.398 238.39 322.513 239.982 319.738C242.564 315.168 245.483 310.745 248.662 306.547C254.836 298.463 264.141 293.435 267.056 283.027C267.833 280.17 267.418 277.491 267.511 274.587C267.621 271.311 269.526 268.719 271.927 266.61C274.906 264.017 278.399 262.611 280.911 259.375C283.253 256.357 283.882 252.302 284.31 248.625C284.991 242.533 283.536 236.809 283.16 230.807C282.981 227.773 283.263 224.739 282.777 221.706C282.35 218.814 280.72 216.808 279.237 214.313C276.732 210.088 273.666 205.823 270.836 201.817C269.767 200.313 268.368 199.151 266.797 198.207C264.488 196.798 262.368 195.106 260.036 193.732C258.401 192.771 256.5 192.323 254.888 191.327C253.625 190.537 252.467 189.357 251.28 188.49C249.095 186.933 246.869 185.324 244.307 184.487C238.144 182.531 233.75 177.612 227.033 177.793C218.853 178.022 210.727 170.874 202.916 175.541C197.901 178.543 193.004 181.674 187.629 184.256C184.183 185.899 180.034 186.64 176.884 188.684C174.901 189.972 172.967 192.263 171.776 194.282C169.936 197.352 169.726 201.047 168.317 204.277C167.268 206.697 166.709 208.958 165.896 211.485C164.329 216.526 165.435 220.663 166.454 225.738C166.992 228.423 167.301 231.339 168.105 233.971C169.087 237.181 171.148 239.192 173.634 241.333C175.117 242.601 176.464 245.032 178.182 245.946C179.073 246.411 179.746 246.092 180.643 246.281C182.184 246.616 182.798 247.076 184.191 247.748C188.401 249.758 192.581 251.621 197.297 251.718C199.787 251.74 201.959 251.703 204.309 252.245C206.18 252.698 208.559 252.774 210.542 252.56C215.328 252.091 219.104 249.645 222.065 246.043C223.922 243.828 225.373 242.033 226.611 239.329C227.295 237.841 227.725 236.926 228.923 235.857C229.731 235.142 230.616 234.351 231.731 234.25C232.669 234.185 233.85 235.175 234.706 234.39C235.431 233.722 235.406 230.996 235.541 230.14C235.818 228.611 235.852 226.793 236.229 225.305C236.87 222.69 238.871 222.872 241.132 222.357C242.725 222.038 244.672 221.493 245.427 219.899C246.105 218.382 245.283 215.508 244.308 214.322C242.855 212.588 239.702 211.256 237.848 209.971C236.39 208.974 235.144 207.812 233.909 206.556C231.547 204.114 229.768 199.222 225.76 199.136C224.154 199.09 222.178 199.793 220.614 200.107C218.79 200.504 217.456 200.28 215.638 200.246C212.829 200.165 210.214 199.83 207.405 200.363C203.911 201.003 201.174 202.657 198.253 204.624C197.008 205.457 195.834 205.417 194.677 206.078C193.22 206.923 191.552 210.542 191.612 212.065C191.72 215.358 193.522 218.22 196.846 218.873C197.932 219.085 200.298 218.794 201.202 219.472C202.395 220.369 201.853 221.951 201.6 223.291C200.994 226.697 202.401 230.343 206.444 230.146C209.176 229.997 211.429 227.764 213.435 226.288C215.134 224.964 218.126 224.119 217.635 221.669C217.718 222.85 215.682 222.798 214.738 222.987C212.79 223.378 211.604 223.585 209.821 222.654C208.103 221.74 207.754 220.767 206.814 219.144C206.407 218.489 205.781 217.663 205.208 217.103C204.789 216.696 203.626 216.254 203.348 215.788C201.723 213.198 210.043 210.147 211.66 209.639C215.177 208.503 218.171 210.573 220.781 212.873C221.944 213.929 224.088 215.279 224.301 216.802C224.526 218.23 223.837 220.916 223.549 222.386C223.243 223.921 223.073 225.367 222.867 226.789C222.62 228.619 221.8 229.121 220.479 230.338C219.187 231.549 218.35 233.037 217.306 234.412C216.168 235.93 214.451 236.397 212.763 237.166C210.238 238.348 207.593 237.405 204.943 238.121C202.754 238.683 201.091 240.336 198.937 240.922C194.393 242.141 190.179 242.403 187.585 237.736C186.45 235.754 186.845 234.661 187.871 233.044C188.968 231.319 188.235 230.116 187.184 228.547C185.961 226.735 184.667 225.03 183.857 222.983C183.077 220.929 183.86 218.255 183.782 216.03C183.746 214.165 182.357 211.835 182.575 210.011C182.804 208.399 185.594 206.243 186.656 204.956C188.042 203.297 190.231 202.274 191.953 200.916C194.065 199.203 195.795 199.255 198.131 198.356C200.037 197.605 200.792 195.858 202.42 194.794C204.214 193.637 206.976 193.481 209.077 193.091C211.42 192.682 212.807 193.171 215.044 193.766C217.187 194.349 219.2 195.51 221.526 195.32C224.211 195.088 226.825 194.042 229.445 193.639C232.101 193.259 233.259 194.439 235.508 195.4C237.993 196.466 239.646 197.056 241.69 198.978C242.67 199.887 243.314 201.108 244.283 201.957C245.369 202.937 246.113 203.432 246.923 204.712C248.045 206.482 249.35 207.939 250.249 209.815C250.781 210.937 251.389 211.827 251.549 213.084C251.715 214.678 251.333 216.136 251.629 217.765C252.292 221.377 251.527 224.293 250.578 227.829C249.619 231.306 248.96 234.906 248.13 238.419C247.565 240.803 248.228 245.182 245.39 246.335C243.915 246.938 242.351 246.945 241.035 248.038C239.661 249.142 239.81 250.954 238.825 252.318C237.887 253.611 236.37 253.547 234.836 253.855C232.505 254.323 230.54 255.085 228.546 256.468C226.198 258.075 224.978 261.021 222.671 262.834C220.842 264.275 218.524 265.723 216.447 266.692C214.907 267.431 213.23 267.337 211.679 268.17C208.127 270.049 205.467 273.161 202.08 275.253C199.455 276.854 195.991 278.255 192.869 278.605C191.577 278.742 190.473 278.441 189.186 278.301C187.185 278.119 185.208 278.515 183.16 278.405C181.548 278.329 179.961 278.064 178.379 277.829C176.761 277.57 175.563 276.645 174.016 276.28C170.427 275.373 167.305 276.183 163.81 274.368C159.447 272.051 155.479 269.256 150.88 267.446C148.973 266.663 147.568 265.471 146.15 264.067C144.886 262.817 143.564 262.192 142.224 261.172C140.228 259.639 138.698 257.674 137.333 255.615C135.059 252.235 132.566 249.297 130.504 245.751C127.591 240.718 124.236 236.235 122.067 230.776C120.299 226.251 120.503 221.912 119.762 217.303C119.549 216.241 119.466 214.907 119.082 213.91C118.408 212.234 116.672 211.385 115.296 210.341C110.802 206.915 106.781 203.394 103.726 198.574C100.625 193.671 98.3191 187.381 98.9234 181.52C99.5103 176.184 102.052 172.788 105.544 168.926C108.929 165.147 113.023 161.992 116.97 158.868C118.769 157.432 120.368 155.608 122.338 154.414C124.362 153.179 126.852 152.281 129 151.205C130.9 150.271 132.511 149.733 134.003 148.145C135.542 146.485 137.265 144.666 138.621 142.859C140.29 140.622 141.534 138.407 144.077 137.16C147.57 135.447 151.211 133.55 154.804 132.031C159.241 130.128 165.191 130.254 169.894 129.832C174.628 129.404 179.125 128.563 183.816 127.622C187.711 126.84 191.275 125.48 195.111 124.557C196.516 124.214 198.032 124.125 199.431 123.752C201.738 123.166 203.744 121.689 205.874 120.679C209.957 118.693 213.579 115.787 217.521 113.554C220.577 111.805 223.728 111.295 226.98 110.06C230.408 108.789 233.795 106.851 237.365 105.981C240.499 105.229 243.59 103.35 246.766 104.494C252.67 106.686 257.147 111.558 263.003 113.667C269.19 115.894 275.86 117.012 282.264 118.182C284.46 118.571 286.572 117.165 288.573 117.5C289.589 117.664 290.858 118.944 291.697 119.605C292.535 118.731 292.044 117.816 291.866 116.778C291.659 115.284 292.113 114.027 291.834 112.487C291.473 110.687 291.283 108.668 290.633 106.957C290.307 106.102 288.66 104.161 288.381 102.927C291.753 104.737 295.065 106.712 298.277 108.8C329.24 128.954 352.385 161.083 360.235 200.21L360.265 200.204Z" fill="url(#paint2_radial_125_1052)"/>
<path style="mix-blend-mode:multiply" opacity="0.3" fill-rule="evenodd" clip-rule="evenodd" d="M135.796 289.258C135.585 292.493 135.741 295.715 136.221 298.873C136.976 298.506 138.565 300.152 139.556 300.352C141.357 300.758 142.932 300.197 144.656 300.986C146.209 301.688 148.211 303.251 149.905 303.433C150.973 303.556 152.33 302.977 153.422 302.758C155.724 302.296 157.754 302.011 160.085 302.004C162.481 302.014 165.645 302.177 167.958 301.468C169.546 300.965 171.853 299.612 172.891 298.36C173.946 297.043 173.873 293.774 173.63 292.103C172.872 286.945 168.159 282.888 163.719 280.648C161.429 279.48 159.157 279.936 156.713 279.229C153.814 278.399 151.323 278.07 148.272 277.854C146.466 277.725 143.939 277.372 142.175 277.757C140.446 278.165 138.682 279.624 137.118 280.398C135.496 281.184 133.897 281.781 133.048 283.517C132.105 285.395 133.174 287.666 135.784 289.199L135.796 289.258Z" fill="url(#paint3_linear_125_1052)"/>
<path style="mix-blend-mode:multiply" opacity="0.3" fill-rule="evenodd" clip-rule="evenodd" d="M178.894 299.212C178.222 300.452 171.398 309.28 176.039 311.296C176.346 311.449 178.11 311.525 178.417 311.524C179.751 311.594 179.916 311.347 180.819 310.49C182.512 308.831 182.357 306.682 181.447 304.593C181.269 304.169 180.554 302.9 180.259 302.499C179.722 301.809 178.818 301.744 178.458 300.865L178.894 299.212V299.212Z" fill="url(#paint4_linear_125_1052)"/>
<path style="mix-blend-mode:multiply" opacity="0.3" fill-rule="evenodd" clip-rule="evenodd" d="M190.232 108.501C191.589 107.461 195.759 103.616 198.362 102.818C199.2 102.557 200.463 102.58 201.407 102.391C203.413 101.988 205.113 101.279 206.914 102.606C208.284 103.62 209.069 104.782 208.521 106.335C207.761 108.513 205.012 110.569 203.349 112.069C199.408 115.53 194.004 119.193 188.557 119.733C184.225 120.173 179.755 117.785 175.741 116.595C172.707 115.7 167.211 114.01 169.882 110.036C172.058 106.806 175.864 104.508 179.581 103.608C181.251 103.212 185.235 101.799 186.764 102.536C188.464 103.361 187.794 108.437 190.845 107.579L190.256 108.465L190.232 108.501Z" fill="url(#paint5_linear_125_1052)"/>
<path style="mix-blend-mode:screen" fill-rule="evenodd" clip-rule="evenodd" d="M72.8411 228.222C80.6847 256.299 138.141 196.764 198.588 163.303C269.531 124.022 337.532 165.076 345.367 160.527C357.598 153.407 282.736 59.9514 196.606 78.6141C99.5929 99.6444 60.1884 182.907 72.8411 228.222Z" fill="url(#paint6_linear_125_1052)"/>
<path style="mix-blend-mode:screen" fill-rule="evenodd" clip-rule="evenodd" d="M180.726 369.842C180.726 369.842 251.693 379.638 308.047 331.896C364.372 284.16 358.956 203.014 358.956 203.014C358.956 203.014 369.845 297.519 314.597 339.452C259.379 381.38 211.755 381.451 180.726 369.842Z" fill="url(#paint7_radial_125_1052)"/>
<path style="mix-blend-mode:screen" opacity="0.5" fill-rule="evenodd" clip-rule="evenodd" d="M76.16 279.031L85.2149 299.837C85.2149 299.837 114.331 309.864 173.636 292.133C232.942 274.402 241.356 241.988 261.505 220.019C281.629 198.086 324.648 175.366 333.904 159.542C343.132 143.725 327.641 118.992 327.641 118.992L321.794 113.566C321.794 113.566 334.851 134.735 328.105 153.738C321.359 172.741 277.923 189.56 257.618 215.949C237.314 242.338 190.797 269.045 148.337 277.871C105.876 286.698 76.219 279.019 76.219 279.019L76.16 279.031Z" fill="url(#paint8_linear_125_1052)"/>
<path style="mix-blend-mode:screen" opacity="0.5" fill-rule="evenodd" clip-rule="evenodd" d="M107.533 331.518L119.923 343.55C119.923 343.55 165.909 347.553 228.598 321.746C291.286 295.938 333.069 249.309 351.786 223.729C370.504 198.149 361.757 169.394 361.757 169.394L357.951 160.979C357.951 160.979 359.971 192.313 340.249 226.044C320.527 259.775 283.3 294.226 224.375 317.221C165.45 340.217 107.562 331.512 107.562 331.512L107.533 331.518Z" fill="url(#paint9_linear_125_1052)"/>
<path style="mix-blend-mode:screen" opacity="0.5" fill-rule="evenodd" clip-rule="evenodd" d="M69.7557 201.829C69.7557 201.829 160.804 213.795 224.106 187.834C287.409 161.873 296.481 115.759 293.387 93.7581L279.495 87.0913C279.495 87.0913 288.528 130.738 252.098 165.489C215.668 200.24 105.738 205.997 72.5631 189.049L69.7557 201.829V201.829Z" fill="url(#paint10_linear_125_1052)"/>
<path fill-rule="evenodd" clip-rule="evenodd" d="M89.4405 251.442C91.4385 256.505 101.826 246.778 107.138 227.203C112.45 207.628 106.802 170.607 101.53 168.35C96.2579 166.093 75.537 216.416 89.4405 251.442V251.442Z" fill="white"/>
<path fill-rule="evenodd" clip-rule="evenodd" d="M279.709 356.643C278.27 359.111 285.619 360.246 295.384 356.138C305.15 352.03 318.586 337.762 317.823 334.876C317.06 331.99 289.655 339.668 279.714 356.673L279.709 356.643Z" fill="white"/>
<path fill-rule="evenodd" clip-rule="evenodd" d="M91.7706 258.925C85.8345 261.313 88.3916 273.293 93.3757 277.634C98.3362 282.01 102.832 278.56 101.043 267.961C99.9466 261.428 96.6799 256.927 91.7706 258.925Z" fill="white"/>
<path fill-rule="evenodd" clip-rule="evenodd" d="M352.693 297.399C352.693 297.399 371.751 258.982 368.969 216.199C368.969 216.199 379.853 255.3 352.693 297.399Z" fill="#FF9AFF"/>
<path style="mix-blend-mode:screen" opacity="0.92" fill-rule="evenodd" clip-rule="evenodd" d="M234.112 75.8463C234.112 75.8463 266.739 36.5178 303.536 52.4014C344.81 70.2418 338.561 130.89 338.561 130.89C338.561 130.89 255.804 106.548 234.106 75.8168L234.112 75.8463Z" fill="url(#paint11_radial_125_1052)"/>
<path style="mix-blend-mode:screen" opacity="0.92" fill-rule="evenodd" clip-rule="evenodd" d="M142.574 359.909C142.574 359.909 156.317 403.01 192.668 412.384C226.593 421.139 246.977 378.926 246.977 378.926C246.977 378.926 228.598 321.746 142.574 359.909V359.909Z" fill="url(#paint12_radial_125_1052)"/>
<path style="mix-blend-mode:screen" fill-rule="evenodd" clip-rule="evenodd" d="M241.287 73.0561C249.118 79.8034 269.774 77.8075 295.258 75.3955C320.742 72.9835 325.645 79.3666 325.645 79.3666C325.645 79.3666 311.799 51.511 286.603 51.5325C261.406 51.5539 241.281 73.0266 241.281 73.0266L241.287 73.0561Z" fill="url(#paint13_linear_125_1052)"/>
<path style="mix-blend-mode:screen" fill-rule="evenodd" clip-rule="evenodd" d="M145.934 362.427C145.934 362.427 155.305 388.479 167.075 391.152C178.846 393.824 180.305 367.747 206.956 361.817C221.821 358.497 241.703 372.679 241.703 372.679C241.703 372.679 216.107 328.181 145.963 362.421L145.934 362.427Z" fill="url(#paint14_linear_125_1052)"/>
<path fill-rule="evenodd" clip-rule="evenodd" d="M198.651 409.618C198.651 409.618 216.546 408.698 231.163 394.96C231.163 394.96 224.005 416.041 198.651 409.618Z" fill="#FF9AFF"/>
<path fill-rule="evenodd" clip-rule="evenodd" d="M332.329 121.858C332.329 121.858 335.276 105.95 329.386 86.9956C329.386 86.9956 344.023 105.944 332.329 121.858Z" fill="#FF9AFF"/>
<path fill-rule="evenodd" clip-rule="evenodd" d="M242.384 71.9458C240.126 74.9159 260.716 70.2936 266.36 64.6182C272.005 58.9427 274.128 55.9077 271.913 53.5895C269.699 51.2713 250.476 61.3287 242.39 71.9753L242.384 71.9458Z" fill="white"/>
<path fill-rule="evenodd" clip-rule="evenodd" d="M274.351 53.3461C273.76 51.7765 280.134 50.9581 280.329 52.5457C280.525 54.1332 275.433 56.2906 274.351 53.3461Z" fill="white"/>
<path fill-rule="evenodd" clip-rule="evenodd" d="M149.59 367.495C145.276 367.102 155.173 385.375 165.192 390.179C165.192 390.179 162.186 368.62 149.59 367.495Z" fill="white"/>
<path style="mix-blend-mode:screen" opacity="0.92" fill-rule="evenodd" clip-rule="evenodd" d="M336.644 133.27C336.644 133.27 353.38 118.309 365.816 129.504C383.462 145.394 362.837 169.883 362.837 169.883C362.837 169.883 339.926 161.25 336.644 133.27Z" fill="url(#paint15_radial_125_1052)"/>
<path style="mix-blend-mode:screen" fill-rule="evenodd" clip-rule="evenodd" d="M338.35 133.051C331.305 136.797 353.857 136.907 362.075 139.157C370.292 141.406 370.419 146.016 370.419 146.016C370.419 146.016 368.836 116.866 338.35 133.051Z" fill="url(#paint16_linear_125_1052)"/>
<path fill-rule="evenodd" clip-rule="evenodd" d="M360.321 166.06C360.321 166.06 366.362 161.594 369.075 149.876C369.075 149.876 373.214 161.017 360.321 166.06Z" fill="#FF9AFF"/>
<path fill-rule="evenodd" clip-rule="evenodd" d="M341.413 132.866C339.922 135.835 351.264 133.161 351.729 130.274C352.193 127.388 343.211 129.282 341.413 132.866Z" fill="white"/>
<path fill-rule="evenodd" clip-rule="evenodd" d="M337.776 139.827C337.776 139.827 341.481 157.377 354.087 165.131C354.087 165.131 341.536 150.153 337.776 139.827Z" fill="white"/>
<path fill-rule="evenodd" clip-rule="evenodd" d="M356.514 166.823C356.514 166.823 359.75 170.103 361.733 169.429C361.733 169.429 358.343 165.842 356.514 166.823Z" fill="white"/>
<path style="mix-blend-mode:screen" opacity="0.92" fill-rule="evenodd" clip-rule="evenodd" d="M208.231 76.2815C208.231 76.2815 211.595 65.8149 219.279 64.1811C230.202 61.8666 233.811 76.49 233.811 76.49C233.811 76.49 223.056 83.3136 208.208 76.3169L208.231 76.2815Z" fill="url(#paint17_radial_125_1052)"/>
<path style="mix-blend-mode:screen" fill-rule="evenodd" clip-rule="evenodd" d="M211.204 72.8919C209.648 76.3043 218.096 69.913 221.813 68.3997C225.501 66.8924 226.883 68.5796 226.883 68.5796C226.883 68.5796 217.947 58.156 211.21 72.9214L211.204 72.8919Z" fill="url(#paint18_linear_125_1052)"/>
<path fill-rule="evenodd" clip-rule="evenodd" d="M231.669 76.3673C231.669 76.3673 231.637 72.8438 227.922 68.5552C227.922 68.5552 233.318 70.051 231.669 76.3673Z" fill="#FF9AFF"/>
<path fill-rule="evenodd" clip-rule="evenodd" d="M212.301 71.9351C212.609 73.4694 216.053 69.2178 215.415 68.0259C214.777 66.8341 211.964 70.0997 212.301 71.9351Z" fill="white"/>
<path fill-rule="evenodd" clip-rule="evenodd" d="M213.45 78.2732C213.45 78.2732 223.173 81.1415 229.61 78.4993C229.61 78.4993 218.432 79.6984 213.45 78.2732Z" fill="white"/>
<path fill-rule="evenodd" clip-rule="evenodd" d="M230.926 78.0203C230.926 78.0203 233.069 77.6826 233.345 76.7676C233.345 76.7676 231.044 77.0759 230.926 78.0203Z" fill="white"/>
<path fill-rule="evenodd" clip-rule="evenodd" d="M240.751 83.3853C240.751 83.3853 246.925 83.5585 250.311 91.4122C250.311 91.4122 243.878 90.8614 240.751 83.3853V83.3853Z" fill="white"/>
<path fill-rule="evenodd" clip-rule="evenodd" d="M142.574 359.909C142.574 359.909 149.654 355.879 162.123 351.628C174.591 347.377 182.158 347.608 182.158 347.608C182.158 347.608 154.488 355.493 142.574 359.909V359.909Z" fill="white"/>
<path fill-rule="evenodd" clip-rule="evenodd" d="M213.476 349.182C213.476 349.182 231.997 358.419 239.214 365.781C239.214 365.781 235.365 355.165 213.476 349.182Z" fill="white"/>
<path fill-rule="evenodd" clip-rule="evenodd" d="M132.432 107.728C132.432 107.728 135.692 101.487 144.123 97.309C150.909 93.9523 155.016 93.4658 156.397 93.0046C156.397 93.0046 143.315 106.588 132.432 107.728Z" fill="white"/>
<path fill-rule="evenodd" clip-rule="evenodd" d="M186.142 347.269C186.142 347.269 190.743 344.044 193.171 346.81C193.171 346.81 188.038 349.682 186.142 347.269Z" fill="white"/>
<path fill-rule="evenodd" clip-rule="evenodd" d="M233.499 393.141C233.499 393.141 232.747 389.087 238.966 385.659C238.966 385.659 240.622 390.852 233.499 393.141Z" fill="#FF9AFF"/>
<path style="mix-blend-mode:screen" opacity="0.92" d="M91.2428 128.439C101.769 111.458 96.5367 89.1593 79.5561 78.633C62.5754 68.1068 40.2767 73.3391 29.7504 90.3197C19.2241 107.3 24.4565 129.599 41.4371 140.125C58.4177 150.652 80.7165 145.419 91.2428 128.439Z" fill="url(#paint19_radial_125_1052)"/>
<path style="mix-blend-mode:screen" fill-rule="evenodd" clip-rule="evenodd" d="M27.774 116.51C27.774 116.51 35.8006 125.458 51.8851 108.173C67.9932 90.8518 75.1824 81.8584 84.0958 83.7533C84.0958 83.7533 61.7808 66.3144 40.4951 81.3899C19.6637 96.1286 27.774 116.51 27.774 116.51V116.51Z" fill="url(#paint20_linear_125_1052)"/>
<path fill-rule="evenodd" clip-rule="evenodd" d="M79.0116 137.201C79.0116 137.201 93.6481 126.16 93.5603 108.283C93.5603 108.283 100.873 127.289 79.0116 137.201V137.201Z" fill="#FF9AFF"/>
<path fill-rule="evenodd" clip-rule="evenodd" d="M26.2172 109.056C26.2172 109.056 25.0205 92.2301 40.1953 83.2612C40.1953 83.2612 37.6779 106.972 26.2172 109.056Z" fill="white"/>
<path fill-rule="evenodd" clip-rule="evenodd" d="M40.7141 82.3284C38.8251 81.7866 45.4921 77.8398 49.517 77.2471C49.517 77.2471 43.3528 83.0882 40.7141 82.3284Z" fill="white"/>
<path fill-rule="evenodd" clip-rule="evenodd" d="M62.814 143.367C62.814 143.367 69.8502 134.987 79.0117 137.201C79.0117 137.201 74.7365 143.43 62.814 143.367Z" fill="white"/>
<path style="mix-blend-mode:screen" opacity="0.92" fill-rule="evenodd" clip-rule="evenodd" d="M343.032 374.694C344.862 383.812 338.941 392.704 329.824 394.533C320.706 396.363 311.814 390.442 309.984 381.325C308.155 372.207 314.075 363.315 323.193 361.485C332.31 359.656 341.203 365.576 343.032 374.694Z" fill="url(#paint21_radial_125_1052)"/>
<path style="mix-blend-mode:screen" fill-rule="evenodd" clip-rule="evenodd" d="M311.277 381.342C311.277 381.342 314.998 385.506 322.5 377.463C330.003 369.419 333.364 365.215 337.502 366.104C337.502 366.104 327.127 357.995 317.21 365.019C307.505 371.877 311.283 381.371 311.283 381.371L311.277 381.342Z" fill="url(#paint22_linear_125_1052)"/>
<path fill-rule="evenodd" clip-rule="evenodd" d="M335.127 390.983C335.127 390.983 341.953 385.838 341.907 377.498C341.907 377.498 345.312 386.361 335.127 390.983Z" fill="#FF9AFF"/>
<path fill-rule="evenodd" clip-rule="evenodd" d="M310.549 377.866C310.549 377.866 309.989 370.028 317.069 365.845C317.069 365.845 315.878 376.889 310.549 377.866Z" fill="white"/>
<path fill-rule="evenodd" clip-rule="evenodd" d="M317.287 365.402C316.407 365.149 319.505 363.3 321.388 363.045C321.388 363.045 318.527 365.767 317.287 365.402Z" fill="white"/>
<path fill-rule="evenodd" clip-rule="evenodd" d="M327.598 393.844C327.598 393.844 330.865 389.935 335.157 390.977C335.157 390.977 333.158 393.864 327.598 393.844Z" fill="white"/>
<defs>
<radialGradient id="paint0_radial_125_1052" cx="0" cy="0" r="1" gradientUnits="userSpaceOnUse" gradientTransform="translate(220.49 228.249) rotate(-11.3453) scale(153.004)">
<stop offset="0.89"/>
<stop offset="0.9" stop-color="#000405"/>
<stop offset="0.92" stop-color="#001216"/>
<stop offset="0.94" stop-color="#002831"/>
<stop offset="0.96" stop-color="#004758"/>
<stop offset="0.99" stop-color="#006F88"/>
<stop offset="1" stop-color="#008BAB"/>
</radialGradient>
<radialGradient id="paint1_radial_125_1052" cx="0" cy="0" r="1" gradientUnits="userSpaceOnUse" gradientTransform="translate(172.904 196.542) rotate(-11.3453) scale(209.132)">
<stop stop-color="#00CEC0"/>
<stop offset="0.26" stop-color="#00CBC0"/>
<stop offset="0.38" stop-color="#00C4C0"/>
<stop offset="0.48" stop-color="#00B6C2"/>
<stop offset="0.56" stop-color="#00A4C3"/>
<stop offset="0.64" stop-color="#008BC5"/>
<stop offset="0.71" stop-color="#006EC8"/>
<stop offset="0.72" stop-color="#0068C9"/>
<stop offset="0.74" stop-color="#0667CA"/>
<stop offset="0.78" stop-color="#1A65CE"/>
<stop offset="0.83" stop-color="#3963D5"/>
<stop offset="0.88" stop-color="#655FDF"/>
<stop offset="0.93" stop-color="#9E5AEC"/>
<stop offset="0.99" stop-color="#E155FB"/>
<stop offset="1" stop-color="#F154FF"/>
</radialGradient>
<radialGradient id="paint2_radial_125_1052" cx="0" cy="0" r="1" gradientUnits="userSpaceOnUse" gradientTransform="translate(238.544 237.61) rotate(-11.3453) scale(128.266 128.266)">
<stop stop-color="#1372B3"/>
<stop offset="1" stop-color="white"/>
</radialGradient>
<linearGradient id="paint3_linear_125_1052" x1="134.406" y1="293.804" x2="172.44" y2="286.172" gradientUnits="userSpaceOnUse">
<stop stop-color="#B8C2FF"/>
<stop offset="1" stop-color="#7D72B3"/>
</linearGradient>
<linearGradient id="paint4_linear_125_1052" x1="173.893" y1="306.416" x2="181.712" y2="304.847" gradientUnits="userSpaceOnUse">
<stop stop-color="#B8C2FF"/>
<stop offset="1" stop-color="#7D72B3"/>
</linearGradient>
<linearGradient id="paint5_linear_125_1052" x1="169.643" y1="114.504" x2="209.006" y2="106.606" gradientUnits="userSpaceOnUse">
<stop stop-color="#B8C2FF"/>
<stop offset="1" stop-color="#7D72B3"/>
</linearGradient>
<linearGradient id="paint6_linear_125_1052" x1="109.141" y1="119.262" x2="297.435" y2="237.447" gradientUnits="userSpaceOnUse">
<stop offset="0.02" stop-color="#B3FFE8"/>
<stop offset="0.21" stop-color="#83BBAA"/>
<stop offset="0.43" stop-color="#55796E"/>
<stop offset="0.62" stop-color="#30453E"/>
<stop offset="0.78" stop-color="#161F1C"/>
<stop offset="0.92" stop-color="#050807"/>
<stop offset="1"/>
</linearGradient>
<radialGradient id="paint7_radial_125_1052" cx="0" cy="0" r="1" gradientUnits="userSpaceOnUse" gradientTransform="translate(306.449 333.567) rotate(-11.3453) scale(89.9245 89.9245)">
<stop stop-color="#97E5D9"/>
<stop offset="0.36" stop-color="#61938C"/>
<stop offset="1"/>
</radialGradient>
<linearGradient id="paint8_linear_125_1052" x1="221.008" y1="283.917" x2="192.051" y2="139.598" gradientUnits="userSpaceOnUse">
<stop stop-color="#BDFFE8"/>
<stop offset="0.2" stop-color="#8ABBAA"/>
<stop offset="0.42" stop-color="#59796E"/>
<stop offset="0.61" stop-color="#33453E"/>
<stop offset="0.78" stop-color="#171F1C"/>
<stop offset="0.91" stop-color="#060807"/>
<stop offset="1"/>
</linearGradient>
<linearGradient id="paint9_linear_125_1052" x1="249.357" y1="323.474" x2="222.218" y2="188.213" gradientUnits="userSpaceOnUse">
<stop stop-color="#BDFFE8"/>
<stop offset="0.2" stop-color="#8ABBAA"/>
<stop offset="0.42" stop-color="#59796E"/>
<stop offset="0.61" stop-color="#33453E"/>
<stop offset="0.78" stop-color="#171F1C"/>
<stop offset="0.91" stop-color="#060807"/>
<stop offset="1"/>
</linearGradient>
<linearGradient id="paint10_linear_125_1052" x1="191.591" y1="197.734" x2="173.653" y2="108.328" gradientUnits="userSpaceOnUse">
<stop stop-color="#BDFFE8"/>
<stop offset="0.2" stop-color="#8ABBAA"/>
<stop offset="0.42" stop-color="#59796E"/>
<stop offset="0.61" stop-color="#33453E"/>
<stop offset="0.78" stop-color="#171F1C"/>
<stop offset="0.91" stop-color="#060807"/>
<stop offset="1"/>
</linearGradient>
<radialGradient id="paint11_radial_125_1052" cx="0" cy="0" r="1" gradientUnits="userSpaceOnUse" gradientTransform="translate(286.788 94.3761) rotate(-11.3453) scale(47.0087)">
<stop offset="0.77"/>
<stop offset="0.79" stop-color="#050105"/>
<stop offset="0.8" stop-color="#160416"/>
<stop offset="0.82" stop-color="#320931"/>
<stop offset="0.84" stop-color="#581157"/>
<stop offset="0.86" stop-color="#891A87"/>
<stop offset="0.89" stop-color="#C426C2"/>
<stop offset="0.91" stop-color="#FF32FC"/>
<stop offset="0.92" stop-color="#FA33FA"/>
<stop offset="0.93" stop-color="#EE37F6"/>
<stop offset="0.94" stop-color="#D93FF0"/>
<stop offset="0.95" stop-color="#BB49E6"/>
<stop offset="0.97" stop-color="#9556DA"/>
<stop offset="0.98" stop-color="#6766CB"/>
<stop offset="0.99" stop-color="#3179BA"/>
<stop offset="1" stop-color="#008BAB"/>
</radialGradient>
<radialGradient id="paint12_radial_125_1052" cx="0" cy="0" r="1" gradientUnits="userSpaceOnUse" gradientTransform="translate(196.944 368.215) rotate(-11.3453) scale(44.7215 44.7215)">
<stop offset="0.77"/>
<stop offset="0.79" stop-color="#050105"/>
<stop offset="0.8" stop-color="#160416"/>
<stop offset="0.82" stop-color="#320931"/>
<stop offset="0.84" stop-color="#581157"/>
<stop offset="0.86" stop-color="#891A87"/>
<stop offset="0.89" stop-color="#C426C2"/>
<stop offset="0.91" stop-color="#FF32FC"/>
<stop offset="0.92" stop-color="#FA33FA"/>
<stop offset="0.93" stop-color="#EE37F6"/>
<stop offset="0.94" stop-color="#D93FF0"/>
<stop offset="0.95" stop-color="#BB49E6"/>
<stop offset="0.97" stop-color="#9556DA"/>
<stop offset="0.98" stop-color="#6766CB"/>
<stop offset="0.99" stop-color="#3179BA"/>
<stop offset="1" stop-color="#008BAB"/>
</radialGradient>
<linearGradient id="paint13_linear_125_1052" x1="253.917" y1="52.9338" x2="317.272" y2="92.7106" gradientUnits="userSpaceOnUse">
<stop offset="0.02" stop-color="#54FFE8"/>
<stop offset="0.21" stop-color="#3DBBAA"/>
<stop offset="0.43" stop-color="#27796E"/>
<stop offset="0.62" stop-color="#16453E"/>
<stop offset="0.78" stop-color="#0A1F1C"/>
<stop offset="0.92" stop-color="#020807"/>
<stop offset="1"/>
</linearGradient>
<linearGradient id="paint14_linear_125_1052" x1="154.66" y1="348.552" x2="227.982" y2="394.555" gradientUnits="userSpaceOnUse">
<stop offset="0.02" stop-color="#54FFE8"/>
<stop offset="0.21" stop-color="#3DBBAA"/>
<stop offset="0.43" stop-color="#27796E"/>
<stop offset="0.62" stop-color="#16453E"/>
<stop offset="0.78" stop-color="#0A1F1C"/>
<stop offset="0.92" stop-color="#020807"/>
<stop offset="1"/>
</linearGradient>
<radialGradient id="paint15_radial_125_1052" cx="0" cy="0" r="1" gradientUnits="userSpaceOnUse" gradientTransform="translate(356.521 147.758) rotate(-23.4353) scale(17.5852 21.187)">
<stop offset="0.77"/>
<stop offset="0.79" stop-color="#050105"/>
<stop offset="0.8" stop-color="#160416"/>
<stop offset="0.82" stop-color="#320931"/>
<stop offset="0.84" stop-color="#581157"/>
<stop offset="0.86" stop-color="#891A87"/>
<stop offset="0.89" stop-color="#C426C2"/>
<stop offset="0.91" stop-color="#FF32FC"/>
<stop offset="0.92" stop-color="#FA33FA"/>
<stop offset="0.93" stop-color="#EE37F6"/>
<stop offset="0.94" stop-color="#D93FF0"/>
<stop offset="0.95" stop-color="#BB49E6"/>
<stop offset="0.97" stop-color="#9556DA"/>
<stop offset="0.98" stop-color="#6766CB"/>
<stop offset="0.99" stop-color="#3179BA"/>
<stop offset="1" stop-color="#008BAB"/>
</radialGradient>
<linearGradient id="paint16_linear_125_1052" x1="341.339" y1="127.294" x2="370.625" y2="145.667" gradientUnits="userSpaceOnUse">
<stop offset="0.02" stop-color="#54FFE8"/>
<stop offset="0.21" stop-color="#3DBBAA"/>
<stop offset="0.43" stop-color="#27796E"/>
<stop offset="0.62" stop-color="#16453E"/>
<stop offset="0.78" stop-color="#0A1F1C"/>
<stop offset="0.92" stop-color="#020807"/>
<stop offset="1"/>
</linearGradient>
<radialGradient id="paint17_radial_125_1052" cx="0" cy="0" r="1" gradientUnits="userSpaceOnUse" gradientTransform="translate(220.511 74.7051) rotate(-77.4253) scale(9.16731 11.0449)">
<stop offset="0.42"/>
<stop offset="0.49" stop-color="#000405"/>
<stop offset="0.59" stop-color="#001216"/>
<stop offset="0.69" stop-color="#002831"/>
<stop offset="0.8" stop-color="#004758"/>
<stop offset="0.92" stop-color="#006F88"/>
<stop offset="1" stop-color="#008BAB"/>
</radialGradient>
<linearGradient id="paint18_linear_125_1052" x1="210.686" y1="69.8947" x2="226.881" y2="68.3995" gradientUnits="userSpaceOnUse">
<stop offset="0.02" stop-color="#54FFE8"/>
<stop offset="0.21" stop-color="#3DBBAA"/>
<stop offset="0.43" stop-color="#27796E"/>
<stop offset="0.62" stop-color="#16453E"/>
<stop offset="0.78" stop-color="#0A1F1C"/>
<stop offset="0.92" stop-color="#020807"/>
<stop offset="1"/>
</linearGradient>
<radialGradient id="paint19_radial_125_1052" cx="0" cy="0" r="1" gradientUnits="userSpaceOnUse" gradientTransform="translate(56.9841 107.311) rotate(-11.3453) scale(38.7025)">
<stop offset="0.77"/>
<stop offset="0.79" stop-color="#000405"/>
<stop offset="0.8" stop-color="#001216"/>
<stop offset="0.82" stop-color="#002831"/>
<stop offset="0.84" stop-color="#004758"/>
<stop offset="0.86" stop-color="#006F88"/>
<stop offset="0.87" stop-color="#008BAB"/>
<stop offset="0.98" stop-color="#FF32FC"/>
</radialGradient>
<linearGradient id="paint20_linear_125_1052" x1="24.4476" y1="101.308" x2="85.1733" y2="89.1236" gradientUnits="userSpaceOnUse">
<stop offset="0.02" stop-color="#54FFE8"/>
<stop offset="0.21" stop-color="#3DBBAA"/>
<stop offset="0.43" stop-color="#27796E"/>
<stop offset="0.62" stop-color="#16453E"/>
<stop offset="0.78" stop-color="#0A1F1C"/>
<stop offset="0.92" stop-color="#020807"/>
<stop offset="1"/>
</linearGradient>
<radialGradient id="paint21_radial_125_1052" cx="0" cy="0" r="1" gradientUnits="userSpaceOnUse" gradientTransform="translate(324.873 377.048) rotate(-11.3453) scale(18.027 18.027)">
<stop offset="0.77"/>
<stop offset="0.79" stop-color="#000405"/>
<stop offset="0.8" stop-color="#001216"/>
<stop offset="0.82" stop-color="#002831"/>
<stop offset="0.84" stop-color="#004758"/>
<stop offset="0.86" stop-color="#006F88"/>
<stop offset="0.87" stop-color="#008BAB"/>
<stop offset="0.98" stop-color="#FF32FC"/>
</radialGradient>
<linearGradient id="paint22_linear_125_1052" x1="309.732" y1="374.254" x2="338" y2="368.582" gradientUnits="userSpaceOnUse">
<stop offset="0.02" stop-color="#54FFE8"/>
<stop offset="0.21" stop-color="#3DBBAA"/>
<stop offset="0.43" stop-color="#27796E"/>
<stop offset="0.62" stop-color="#16453E"/>
<stop offset="0.78" stop-color="#0A1F1C"/>
<stop offset="0.92" stop-color="#020807"/>
<stop offset="1"/>
</linearGradient>
</defs>
</svg>
