<svg width="36" height="38" viewBox="0 0 36 38" fill="none" xmlns="http://www.w3.org/2000/svg">
<path d="M15.8284 0.764038C16.5804 0.883038 17.3464 0.951038 18.0854 1.12904C20.2731 1.58817 22.3238 2.55087 24.0745 3.94076C25.8253 5.33065 27.228 7.10946 28.1714 9.13604C30.6474 14.298 30.1364 19.307 27.0284 24.078C26.7944 24.438 26.5114 24.765 26.2284 25.138C26.3144 25.23 26.3984 25.325 26.4854 25.415C29.2627 28.3037 32.0404 31.1917 34.8184 34.079C35.1713 34.3827 35.4051 34.8015 35.4784 35.2613C35.5516 35.721 35.4595 36.1918 35.2184 36.59C35.0744 36.825 34.8814 37.0261 34.6527 37.1798C34.424 37.3335 34.1649 37.4362 33.8929 37.4807C33.621 37.5253 33.3427 37.5108 33.0768 37.4383C32.811 37.3657 32.5639 37.2367 32.3524 37.06C32.2168 36.9424 32.0873 36.8179 31.9644 36.687C29.1857 33.7997 26.4081 30.9114 23.6314 28.022C23.568 27.949 23.5108 27.8707 23.4604 27.788C22.5114 28.288 21.6604 28.813 20.7604 29.196C18.8502 30.0589 16.7737 30.4915 14.6778 30.4634C12.5819 30.4352 10.5178 29.9469 8.63141 29.033C6.6343 28.1422 4.8667 26.8075 3.46308 25.1306C2.05946 23.4537 1.05681 21.4788 0.531412 19.356C0.000102937 17.4727 -0.134693 15.4995 0.135545 13.5614C0.405783 11.6232 1.07518 9.76225 2.10141 8.09604C3.13273 6.30874 4.531 4.76022 6.20414 3.55247C7.87727 2.34472 9.7873 1.50514 11.8084 1.08904C12.4914 0.934038 13.1964 0.870038 13.8904 0.764038H15.8284ZM14.8654 4.63904C12.6968 4.63785 10.5765 5.27993 8.77289 6.48404C6.96926 7.68815 5.5633 9.40018 4.7329 11.4035C3.9025 13.4069 3.68497 15.6115 4.10783 17.7385C4.53069 19.8655 5.57494 21.8193 7.10846 23.3527C8.64199 24.8861 10.5959 25.9302 12.7229 26.3528C14.85 26.7755 17.0546 26.5578 19.0579 25.7272C21.0611 24.8966 22.773 23.4905 23.977 21.6867C25.1809 19.883 25.8228 17.7627 25.8214 15.594C25.8138 12.6908 24.657 9.90862 22.604 7.85579C20.5509 5.80295 17.7687 4.64643 14.8654 4.63904Z" fill="white"/>
</svg>
