<svg width="141" height="138" viewBox="0 0 141 138" fill="none" xmlns="http://www.w3.org/2000/svg">
<g filter="url(#filter0_d_16_1607)">
<path opacity="0.425" d="M20 103H126C126.796 103 127.559 103.316 128.121 103.879C128.684 104.441 129 105.204 129 106V115C129 117.122 128.157 119.157 126.657 120.657C125.157 122.157 123.122 123 121 123H25C22.8783 123 20.8434 122.157 19.3431 120.657C17.8429 119.157 17 117.122 17 115V106C17 105.204 17.3161 104.441 17.8787 103.879C18.4413 103.316 19.2044 103 20 103V103Z" fill="white"/>
</g>
<g filter="url(#filter1_d_16_1607)">
<path d="M15 0H126C126.796 0 127.559 0.31607 128.121 0.87868C128.684 1.44129 129 2.20435 129 3V111C129 113.122 128.157 115.157 126.657 116.657C125.157 118.157 123.122 119 121 119H20C17.8783 119 15.8434 118.157 14.3431 116.657C12.8429 115.157 12 113.122 12 111V3C12 2.20435 12.3161 1.44129 12.8787 0.87868C13.4413 0.31607 14.2044 0 15 0V0Z" fill="url(#paint0_linear_16_1607)"/>
</g>
<path d="M46.5684 72.4053C47.1191 72.4053 47.5059 72.7275 47.7285 73.3721C47.7402 73.5361 47.7549 73.6182 47.7725 73.6182C47.7725 74.0752 47.4531 74.5176 46.8145 74.9453C45.8887 75.8828 45.4258 76.958 45.4258 78.1709C45.4258 79.5654 45.9971 80.7285 47.1396 81.6602C47.9541 82.2695 48.8447 82.5742 49.8115 82.5742C51.1299 82.5742 52.2402 82.0645 53.1426 81.0449V78.5137C53.1426 77.9453 53.4561 77.5557 54.083 77.3447C54.2061 77.3154 54.3057 77.3008 54.3818 77.3008C54.874 77.3008 55.2461 77.582 55.498 78.1445C55.5449 78.2676 55.5684 78.3818 55.5684 78.4873V81.4844C55.5684 82.0762 54.9209 82.8584 53.626 83.8311C52.4189 84.6104 51.1709 85 49.8818 85H49.7676C47.916 85 46.2783 84.2764 44.8545 82.8291C43.6182 81.4521 43 79.9287 43 78.2588V78.1006C43 76.208 43.7764 74.5234 45.3291 73.0469C45.792 72.6191 46.2051 72.4053 46.5684 72.4053ZM50.4004 77.3008C50.916 77.3008 51.291 77.5967 51.5254 78.1885C51.5547 78.2646 51.5781 78.3789 51.5957 78.5312C51.5957 78.9766 51.335 79.3516 50.8135 79.6562L50.3828 79.7441C49.9141 79.7441 49.5391 79.501 49.2578 79.0146C49.1816 78.7979 49.1436 78.6221 49.1436 78.4873C49.1436 77.9541 49.4717 77.5645 50.1279 77.3184L50.4004 77.3008ZM66.959 72.3965C67.5625 72.3965 68.3447 73.1084 69.3057 74.5322C69.9443 75.6807 70.2637 76.8613 70.2637 78.0742C70.2637 80.3301 69.2617 82.2285 67.2578 83.7695C66.0039 84.5898 64.6797 85 63.2852 85C61.2402 85 59.4561 84.1475 57.9326 82.4424C56.8955 81.0537 56.377 79.6592 56.377 78.2588C56.377 77.79 56.6729 77.4238 57.2646 77.1602C57.3994 77.1309 57.499 77.1162 57.5635 77.1162H57.6074C58.1875 77.1162 58.5918 77.4414 58.8203 78.0918C58.8965 78.9004 59.0049 79.4189 59.1455 79.6475C59.5381 80.7256 60.2822 81.54 61.3779 82.0908C61.9814 82.3721 62.5615 82.5127 63.1182 82.5127H63.4697C64.8467 82.5127 66.0332 81.8682 67.0293 80.5791C67.5215 79.7646 67.7676 78.9971 67.7676 78.2764V77.8633C67.7676 76.5801 67.1553 75.417 65.9307 74.374C65.7783 74.1162 65.7021 73.8906 65.7021 73.6973V73.583C65.7021 73.0322 66.0361 72.6455 66.7041 72.4229C66.8389 72.4053 66.9238 72.3965 66.959 72.3965ZM81.7422 72.3965C82.3457 72.3965 83.1279 73.1084 84.0889 74.5322C84.7275 75.6807 85.0469 76.8613 85.0469 78.0742C85.0469 80.3301 84.0449 82.2285 82.041 83.7695C80.7871 84.5898 79.4629 85 78.0684 85C76.0234 85 74.2393 84.1475 72.7158 82.4424C71.6787 81.0537 71.1602 79.6592 71.1602 78.2588C71.1602 77.79 71.4561 77.4238 72.0479 77.1602C72.1826 77.1309 72.2822 77.1162 72.3467 77.1162H72.3906C72.9707 77.1162 73.375 77.4414 73.6035 78.0918C73.6797 78.9004 73.7881 79.4189 73.9287 79.6475C74.3213 80.7256 75.0654 81.54 76.1611 82.0908C76.7646 82.3721 77.3447 82.5127 77.9014 82.5127H78.2529C79.6299 82.5127 80.8164 81.8682 81.8125 80.5791C82.3047 79.7646 82.5508 78.9971 82.5508 78.2764V77.8633C82.5508 76.5801 81.9385 75.417 80.7139 74.374C80.5615 74.1162 80.4854 73.8906 80.4854 73.6973V73.583C80.4854 73.0322 80.8193 72.6455 81.4873 72.4229C81.6221 72.4053 81.707 72.3965 81.7422 72.3965ZM87.1826 72.4053H90.5576C93.6338 72.4053 95.6553 73.8232 96.6221 76.6592C96.8154 77.3975 96.9121 78.0654 96.9121 78.6631C96.9121 80.4385 96.2969 81.9824 95.0664 83.2949C93.9707 84.4316 92.459 85 90.5312 85H87.1826C86.5615 85 86.1631 84.7129 85.9873 84.1387C85.958 84.0332 85.9434 83.9336 85.9434 83.8398C85.9434 83.3535 86.2305 83.002 86.8047 82.7852C86.916 82.7617 87.0361 82.75 87.165 82.75H90.8916C92.5967 82.75 93.7773 81.8916 94.4336 80.1748C94.5859 79.6885 94.6621 79.2051 94.6621 78.7246V78.6016C94.6621 76.9492 93.9678 75.748 92.5791 74.998C92.04 74.7695 91.4863 74.6553 90.918 74.6553H88.1934V76.2197C88.1934 76.9111 87.9355 77.3447 87.4199 77.5205C87.2676 77.5615 87.1533 77.582 87.0771 77.582C86.5498 77.582 86.1777 77.2891 85.9609 76.7031L85.9434 76.4482V73.5654C85.9434 73.0264 86.2305 72.6543 86.8047 72.4492C86.9453 72.4199 87.0713 72.4053 87.1826 72.4053Z" fill="white"/>
<path d="M41.1426 91.3877C41.6172 91.3877 41.9688 91.6631 42.1973 92.2139L42.2588 92.5039C42.2588 92.9551 42.0039 93.3154 41.4941 93.585L41.1162 93.6465C40.665 93.6465 40.3223 93.4004 40.0879 92.9082C40.0293 92.7676 40 92.627 40 92.4863C40 92.0234 40.2666 91.6777 40.7998 91.4492C40.9756 91.4082 41.0898 91.3877 41.1426 91.3877ZM44.3682 91.3877H45.1855C47.0254 91.3877 48.25 92.3076 48.8594 94.1475C48.9297 94.458 48.9795 94.8096 49.0088 95.2021C49.0088 96.4443 48.4814 97.458 47.4268 98.2432C46.7764 98.624 46.0996 98.8145 45.3965 98.8145H42.4258V102.717C42.4258 103.309 42.1738 103.716 41.6699 103.938C41.4414 103.979 41.3125 104 41.2832 104C40.8086 104 40.4512 103.725 40.2109 103.174C40.1816 103.004 40.167 102.872 40.167 102.778V97.7334C40.167 97.2236 40.4277 96.8604 40.9492 96.6436C41.0605 96.5967 41.166 96.5732 41.2656 96.5732H45.1855C46.2285 96.5732 46.75 96.1396 46.75 95.2725V95.1846C46.75 94.4697 46.4395 93.9775 45.8184 93.708C45.6953 93.667 45.5547 93.6465 45.3965 93.6465H44.3682C43.7471 93.6465 43.3457 93.3564 43.1641 92.7764C43.1348 92.6709 43.1201 92.5742 43.1201 92.4863C43.1201 92 43.4102 91.6484 43.9902 91.4316C44.125 91.4023 44.251 91.3877 44.3682 91.3877ZM51.1006 91.4053H57.1914C57.7422 91.4053 58.1289 91.6514 58.3516 92.1436L58.4307 92.5215C58.4307 92.9609 58.1934 93.3125 57.7188 93.5762C57.5254 93.6289 57.3496 93.6553 57.1914 93.6553H51.083C50.5029 93.6553 50.1104 93.3828 49.9053 92.8379C49.876 92.7148 49.8613 92.6035 49.8613 92.5039C49.8613 92.0176 50.1484 91.666 50.7227 91.4492C50.8633 91.4199 50.9893 91.4053 51.1006 91.4053ZM50.9775 96.582H54.1328C54.625 96.582 54.9766 96.8369 55.1875 97.3467C55.2285 97.458 55.249 97.5635 55.249 97.6631V97.7422C55.249 98.2402 54.9561 98.5918 54.3701 98.7969C54.2705 98.8145 54.1914 98.8232 54.1328 98.8232H50.9775C50.4795 98.8232 50.1279 98.5625 49.9229 98.041C49.8818 97.9238 49.8613 97.8184 49.8613 97.7246V97.6807C49.8613 97.1709 50.1572 96.8135 50.749 96.6084C50.8428 96.5908 50.9189 96.582 50.9775 96.582ZM57.2793 96.582H57.2969C57.8242 96.582 58.1904 96.8721 58.3955 97.4521L58.4307 97.6982C58.4307 98.1787 58.1582 98.5391 57.6133 98.7793C57.4785 98.8086 57.373 98.8232 57.2969 98.8232H57.2793C56.793 98.8232 56.4414 98.542 56.2246 97.9795C56.1953 97.8447 56.1807 97.7451 56.1807 97.6807C56.1807 97.2295 56.4414 96.8867 56.9629 96.6523C57.0742 96.6055 57.1797 96.582 57.2793 96.582ZM51.083 101.75H57.1914C57.8301 101.75 58.2314 102.052 58.3955 102.655C58.4072 102.761 58.4189 102.831 58.4307 102.866C58.4307 103.317 58.1846 103.666 57.6924 103.912C57.5342 103.971 57.3672 104 57.1914 104H51.1006C50.4854 104 50.0781 103.704 49.8789 103.112C49.8672 102.995 49.8613 102.904 49.8613 102.84C49.8613 102.348 50.1484 101.996 50.7227 101.785C50.834 101.762 50.9541 101.75 51.083 101.75ZM69.918 91.3965C70.5215 91.3965 71.3037 92.1084 72.2646 93.5322C72.9033 94.6807 73.2227 95.8613 73.2227 97.0742C73.2227 99.3301 72.2207 101.229 70.2168 102.77C68.9629 103.59 67.6387 104 66.2441 104C64.1992 104 62.415 103.147 60.8916 101.442C59.8545 100.054 59.3359 98.6592 59.3359 97.2588C59.3359 96.79 59.6318 96.4238 60.2236 96.1602C60.3584 96.1309 60.458 96.1162 60.5225 96.1162H60.5664C61.1465 96.1162 61.5508 96.4414 61.7793 97.0918C61.8555 97.9004 61.9639 98.4189 62.1045 98.6475C62.4971 99.7256 63.2412 100.54 64.3369 101.091C64.9404 101.372 65.5205 101.513 66.0771 101.513H66.4287C67.8057 101.513 68.9922 100.868 69.9883 99.5791C70.4805 98.7646 70.7266 97.9971 70.7266 97.2764V96.8633C70.7266 95.5801 70.1143 94.417 68.8896 93.374C68.7373 93.1162 68.6611 92.8906 68.6611 92.6973V92.583C68.6611 92.0322 68.9951 91.6455 69.6631 91.4229C69.7979 91.4053 69.8828 91.3965 69.918 91.3965ZM75.2617 91.3877C75.7363 91.3877 76.0879 91.6631 76.3164 92.2139L76.3779 92.5039C76.3779 92.9551 76.123 93.3154 75.6133 93.585L75.2354 93.6465C74.7842 93.6465 74.4414 93.4004 74.207 92.9082C74.1484 92.7676 74.1191 92.627 74.1191 92.4863C74.1191 92.0234 74.3857 91.6777 74.9189 91.4492C75.0947 91.4082 75.209 91.3877 75.2617 91.3877ZM78.4873 91.3877H79.3047C81.1445 91.3877 82.3691 92.3076 82.9785 94.1475C83.0488 94.458 83.0986 94.8096 83.1279 95.2021C83.1279 96.4443 82.6006 97.458 81.5459 98.2432C80.8955 98.624 80.2188 98.8145 79.5156 98.8145H76.5449V102.717C76.5449 103.309 76.293 103.716 75.7891 103.938C75.5605 103.979 75.4316 104 75.4023 104C74.9277 104 74.5703 103.725 74.3301 103.174C74.3008 103.004 74.2861 102.872 74.2861 102.778V97.7334C74.2861 97.2236 74.5469 96.8604 75.0684 96.6436C75.1797 96.5967 75.2852 96.5732 75.3848 96.5732H79.3047C80.3477 96.5732 80.8691 96.1396 80.8691 95.2725V95.1846C80.8691 94.4697 80.5586 93.9775 79.9375 93.708C79.8145 93.667 79.6738 93.6465 79.5156 93.6465H78.4873C77.8662 93.6465 77.4648 93.3564 77.2832 92.7764C77.2539 92.6709 77.2393 92.5742 77.2393 92.4863C77.2393 92 77.5293 91.6484 78.1094 91.4316C78.2441 91.4023 78.3701 91.3877 78.4873 91.3877ZM85.1406 91.4053C85.6328 91.4053 85.9844 91.6924 86.1953 92.2666C86.2246 92.3838 86.2393 92.5039 86.2393 92.627V102.778C86.2393 103.358 85.9639 103.751 85.4131 103.956C85.29 103.985 85.1992 104 85.1406 104H85.0791C84.5928 104 84.2412 103.713 84.0244 103.139C83.9951 102.998 83.9805 102.869 83.9805 102.752V92.6533C83.9805 92.0322 84.2764 91.6221 84.8682 91.4229C84.9854 91.4111 85.0762 91.4053 85.1406 91.4053ZM90.2646 101.768H90.291C90.7012 101.768 91.0322 101.99 91.2842 102.436C91.3545 102.605 91.3896 102.761 91.3896 102.901C91.3896 103.364 91.1289 103.71 90.6074 103.938C90.4902 103.979 90.3848 104 90.291 104H90.2646C89.7373 104 89.3711 103.713 89.166 103.139L89.1309 102.884C89.1309 102.403 89.4033 102.043 89.9482 101.803C90.083 101.779 90.1885 101.768 90.2646 101.768ZM93.4463 91.4053H99.5371C100.088 91.4053 100.475 91.6514 100.697 92.1436L100.776 92.5215C100.776 92.9609 100.539 93.3125 100.064 93.5762C99.8711 93.6289 99.6953 93.6553 99.5371 93.6553H93.4287C92.8486 93.6553 92.4561 93.3828 92.251 92.8379C92.2217 92.7148 92.207 92.6035 92.207 92.5039C92.207 92.0176 92.4941 91.666 93.0684 91.4492C93.209 91.4199 93.335 91.4053 93.4463 91.4053ZM93.3232 96.582H96.4785C96.9707 96.582 97.3223 96.8369 97.5332 97.3467C97.5742 97.458 97.5947 97.5635 97.5947 97.6631V97.7422C97.5947 98.2402 97.3018 98.5918 96.7158 98.7969C96.6162 98.8145 96.5371 98.8232 96.4785 98.8232H93.3232C92.8252 98.8232 92.4736 98.5625 92.2686 98.041C92.2275 97.9238 92.207 97.8184 92.207 97.7246V97.6807C92.207 97.1709 92.5029 96.8135 93.0947 96.6084C93.1885 96.5908 93.2646 96.582 93.3232 96.582ZM99.625 96.582H99.6426C100.17 96.582 100.536 96.8721 100.741 97.4521L100.776 97.6982C100.776 98.1787 100.504 98.5391 99.959 98.7793C99.8242 98.8086 99.7188 98.8232 99.6426 98.8232H99.625C99.1387 98.8232 98.7871 98.542 98.5703 97.9795C98.541 97.8447 98.5264 97.7451 98.5264 97.6807C98.5264 97.2295 98.7871 96.8867 99.3086 96.6523C99.4199 96.6055 99.5254 96.582 99.625 96.582ZM93.4287 101.75H99.5371C100.176 101.75 100.577 102.052 100.741 102.655C100.753 102.761 100.765 102.831 100.776 102.866C100.776 103.317 100.53 103.666 100.038 103.912C99.8799 103.971 99.7129 104 99.5371 104H93.4463C92.8311 104 92.4238 103.704 92.2246 103.112C92.2129 102.995 92.207 102.904 92.207 102.84C92.207 102.348 92.4941 101.996 93.0684 101.785C93.1797 101.762 93.2998 101.75 93.4287 101.75Z" fill="white"/>
<g opacity="0.204">
<path d="M72.6603 68.852C64.5313 68.6 57.6151 61.358 58.3981 54.16C58.2238 52.381 58.4788 50.5862 59.1412 48.926C56.4521 47.452 53.4486 46.6441 50.3829 46.57C45.2049 46.362 41.8832 42.37 42.3302 37.118C42.6892 32.868 47.217 29.433 51.881 30.395C53.708 30.77 55.4223 32.286 56.9083 33.595C59.1993 35.621 60.9503 38.368 63.4533 40.016C64.2564 40.5467 65.1006 41.0122 65.9782 41.408C68.0367 40.2558 70.3458 39.6245 72.7042 39.569C75.2726 39.5265 77.8081 40.1497 80.0641 41.378C83.3368 39.8856 86.1415 37.53 88.1764 34.564C88.8271 33.5362 89.6206 32.6062 90.5333 31.802C91.7087 30.8273 93.1496 30.2284 94.6696 30.0827C96.1895 29.937 97.7182 30.2514 99.0573 30.985C100.483 31.6139 101.683 32.6648 102.493 33.9961C103.304 35.3274 103.687 36.8752 103.591 38.431C103.621 39.4818 103.441 40.5281 103.063 41.5089C102.685 42.4898 102.116 43.3856 101.388 44.1443C100.66 44.9029 99.7886 45.5093 98.8244 45.9282C97.8601 46.347 96.8223 46.5699 95.7711 46.584C92.5536 46.6031 89.3966 47.4609 86.6119 49.073C87.1738 50.6581 87.4655 52.3263 87.4743 54.008C87.5182 55.9288 87.1802 57.8392 86.4801 59.6285C85.78 61.4178 84.7319 63.0502 83.3961 64.4312C82.0603 65.8122 80.4633 66.9143 78.6984 67.6735C76.9334 68.4327 75.0356 68.834 73.1144 68.854C72.9644 68.864 72.8123 68.862 72.6603 68.852Z" fill="#DDDDDD"/>
<path d="M72.8942 33.6669C70.7249 33.6612 68.6444 32.8049 67.0995 31.282C65.5547 29.759 64.6688 27.6909 64.6322 25.5219C64.6363 24.4147 64.8599 23.3193 65.2901 22.2991C65.7203 21.2789 66.3485 20.3541 67.1384 19.5782C67.9283 18.8023 68.8643 18.1908 69.892 17.779C70.9198 17.3671 72.0191 17.1632 73.1262 17.1789C75.2579 17.2585 77.2789 18.149 78.776 19.6686C80.2731 21.1883 81.1335 23.2222 81.1812 25.3549C81.1929 26.4477 80.9867 27.5318 80.5748 28.544C80.1628 29.5562 79.5532 30.4761 78.7817 31.25C78.0102 32.024 77.0922 32.6364 76.0813 33.0515C75.0704 33.4667 73.9869 33.6762 72.8942 33.6679" fill="#DDDDDD"/>
</g>
<path d="M67.7774 65.81C58.3534 65.189 50.4624 55.395 54.2584 45.884C51.5694 44.4099 48.5661 43.6019 45.5004 43.528C40.3224 43.32 37.0004 39.328 37.4474 34.076C37.8064 29.826 42.3344 26.391 46.9984 27.353C48.8254 27.728 50.5394 29.244 52.0254 30.553C54.3164 32.579 56.0674 35.326 58.5694 36.974C59.3727 37.5044 60.217 37.9699 61.0944 38.366C63.1531 37.2142 65.4621 36.5829 67.8204 36.527C70.3887 36.4848 72.9243 37.108 75.1804 38.336C78.4531 36.8436 81.2575 34.488 83.2924 31.522C83.943 30.4941 84.7366 29.5641 85.6494 28.76C86.8248 27.7855 88.2659 27.1865 89.7858 27.0409C91.3057 26.8952 92.8343 27.2095 94.1734 27.943C95.5995 28.572 96.7986 29.6229 97.6093 30.9542C98.4199 32.2855 98.8032 33.8332 98.7074 35.389C98.7658 37.4902 97.9875 39.5286 96.5437 41.0562C95.0998 42.5839 93.1085 43.4758 91.0074 43.536H90.8884C87.6696 43.5582 84.5122 44.4199 81.7284 46.036C82.2902 47.621 82.5816 49.2893 82.5904 50.971C82.677 54.8193 81.2315 58.5445 78.5717 61.3271C75.9119 64.1097 72.2557 65.7219 68.4074 65.809H68.2264C68.0756 65.819 67.9242 65.819 67.7734 65.809" fill="white"/>
<path d="M68.0071 30.625C65.8378 30.6193 63.7573 29.763 62.2125 28.24C60.6677 26.7171 59.7818 24.649 59.7451 22.48C59.7493 21.3799 59.9702 20.2914 60.3951 19.2766C60.8201 18.2619 61.4407 17.3408 62.2217 16.5659C63.0027 15.7911 63.9286 15.1777 64.9467 14.7607C65.9648 14.3438 67.055 14.1315 68.1551 14.136H68.2431C70.3749 14.2155 72.3958 15.1061 73.8929 16.6257C75.3901 18.1453 76.2504 20.1793 76.2981 22.312C76.3216 24.4933 75.4776 26.5945 73.9518 28.1535C72.426 29.7125 70.3434 30.6015 68.1621 30.625H68.0071Z" fill="white"/>
<g opacity="0.41">
<path d="M68.0074 30.625H68.1584C69.6429 30.6078 71.0947 30.1872 72.3584 29.408C69.8193 28.392 67.521 26.8557 65.6114 24.898C62.5694 21.579 63.3334 18.666 64.8114 14.825V14.812C63.3093 15.4553 62.0282 16.5239 61.1259 17.8862C60.2237 19.2485 59.7396 20.845 59.7334 22.479C59.7698 24.6502 60.6573 26.7204 62.2047 28.2439C63.7521 29.7674 65.8359 30.6224 68.0074 30.625" fill="#ADADAD"/>
</g>
<g opacity="0.41">
<path d="M79.3622 60.417C77.1272 59.8564 74.8458 59.5 72.5462 59.352C69.2052 59.144 66.3282 59.03 63.7242 56.672C61.6086 54.767 60.2192 52.187 59.7932 49.372C59.5212 47.303 59.7272 45.172 59.0182 43.172C58.2932 41.125 56.1752 40.215 54.3282 39.402C50.9052 37.896 47.3012 37.558 44.3282 35.088C42.3692 33.461 41.2182 31.444 39.3792 29.851C38.2832 31.0052 37.6034 32.492 37.4472 34.076C37.0012 39.328 40.3222 43.32 45.5012 43.528C48.5666 43.602 51.5696 44.4099 54.2582 45.884C50.4582 55.395 58.3582 65.189 67.7782 65.81C67.9291 65.82 68.0804 65.82 68.2312 65.81H68.4112C70.5191 65.7628 72.5912 65.2559 74.4828 64.3245C76.3743 63.3932 78.0396 62.0599 79.3622 60.418" fill="#ADADAD"/>
</g>
<g opacity="0.41">
<path d="M97.6412 39.692C96.8232 39.553 96.0042 39.412 95.1752 39.278C93.5484 38.9702 91.8846 38.9079 90.2392 39.093C88.5952 39.324 87.6852 40.154 86.4072 41.136C85.3522 41.947 84.2372 42.696 83.1572 43.475C82.4288 44.1441 81.9507 45.042 81.8022 46.02C84.5871 44.4078 87.7444 43.5499 90.9622 43.531C91.0012 43.531 91.0412 43.531 91.0802 43.531C92.4091 43.4936 93.7071 43.1222 94.8544 42.4509C96.0018 41.7796 96.9616 40.83 97.6452 39.69" fill="#ADADAD"/>
</g>
<defs>
<filter id="filter0_d_16_1607" x="5" y="94" width="136" height="44" filterUnits="userSpaceOnUse" color-interpolation-filters="sRGB">
<feFlood flood-opacity="0" result="BackgroundImageFix"/>
<feColorMatrix in="SourceAlpha" type="matrix" values="0 0 0 0 0 0 0 0 0 0 0 0 0 0 0 0 0 0 127 0" result="hardAlpha"/>
<feOffset dy="3"/>
<feGaussianBlur stdDeviation="6"/>
<feColorMatrix type="matrix" values="0 0 0 0 0 0 0 0 0 0 0 0 0 0 0 0 0 0 0.588 0"/>
<feBlend mode="normal" in2="BackgroundImageFix" result="effect1_dropShadow_16_1607"/>
<feBlend mode="normal" in="SourceGraphic" in2="effect1_dropShadow_16_1607" result="shape"/>
</filter>
<filter id="filter1_d_16_1607" x="0" y="-9" width="141" height="143" filterUnits="userSpaceOnUse" color-interpolation-filters="sRGB">
<feFlood flood-opacity="0" result="BackgroundImageFix"/>
<feColorMatrix in="SourceAlpha" type="matrix" values="0 0 0 0 0 0 0 0 0 0 0 0 0 0 0 0 0 0 127 0" result="hardAlpha"/>
<feOffset dy="3"/>
<feGaussianBlur stdDeviation="6"/>
<feColorMatrix type="matrix" values="0 0 0 0 0 0 0 0 0 0 0 0 0 0 0 0 0 0 0.588 0"/>
<feBlend mode="normal" in2="BackgroundImageFix" result="effect1_dropShadow_16_1607"/>
<feBlend mode="normal" in="SourceGraphic" in2="effect1_dropShadow_16_1607" result="shape"/>
</filter>
<linearGradient id="paint0_linear_16_1607" x1="129" y1="7.14" x2="-0.602555" y2="116.828" gradientUnits="userSpaceOnUse">
<stop stop-color="#242A72"/>
<stop offset="0.26" stop-color="#1051E3"/>
<stop offset="0.662" stop-color="#3E91D8"/>
<stop offset="1" stop-color="#02030D"/>
</linearGradient>
</defs>
</svg>
