<svg width="1260" height="696" viewBox="0 0 1260 696" fill="none" xmlns="http://www.w3.org/2000/svg">
<g opacity="0.6" filter="url(#filter0_b_142_647)">
<rect x="480.456" y="244.976" width="310.382" height="358.161" rx="23" fill="url(#paint0_linear_142_647)" fill-opacity="0.5"/>
<rect x="481.456" y="245.976" width="308.382" height="356.161" rx="22" stroke="#455B5A" stroke-width="2"/>
</g>
<g opacity="0.44" filter="url(#filter1_b_142_647)">
<rect x="132.058" y="293.69" width="270" height="250" rx="23" fill="url(#paint1_linear_142_647)" fill-opacity="0.5"/>
<rect x="133.058" y="294.69" width="268" height="248" rx="22" stroke="#455B5A" stroke-width="2"/>
</g>
<g opacity="0.44" filter="url(#filter2_b_142_647)">
<rect x="857.923" y="293.69" width="270" height="250" rx="23" fill="url(#paint2_linear_142_647)" fill-opacity="0.5"/>
<rect x="858.923" y="294.69" width="268" height="248" rx="22" stroke="#455B5A" stroke-width="2"/>
</g>
<ellipse opacity="0.64" cx="635.647" cy="673.792" rx="195.564" ry="21.3403" fill="url(#paint3_radial_142_647)"/>
<path d="M1236.52 451.722C1249.31 451.722 1259.67 441.107 1259.67 428.013C1259.67 414.919 1249.31 404.305 1236.52 404.305C1223.74 404.305 1213.37 414.919 1213.37 428.013C1213.37 441.107 1223.74 451.722 1236.52 451.722Z" fill="url(#paint4_linear_142_647)"/>
<path d="M1236.52 450.441C1248.62 450.441 1258.42 440.4 1258.42 428.014C1258.42 415.627 1248.62 405.586 1236.52 405.586C1224.43 405.586 1214.62 415.627 1214.62 428.014C1214.62 440.4 1224.43 450.441 1236.52 450.441Z" stroke="white" stroke-width="2.50282"/>
<path d="M1237.46 435.276H1235.27V437.466H1233.08V435.276H1235.27V433.086H1237.46V430.896H1239.65V428.706H1241.84V426.516H1239.65V424.326H1237.46V422.136H1235.27V419.946H1233.08V417.756H1235.27V419.946H1237.46V422.136H1239.65V424.326H1241.84V426.516H1244.03V428.706H1241.84V430.896H1239.65V433.086H1237.46V435.276Z" fill="white"/>
<g opacity="0.5">
<path d="M23.6697 404.305C10.8837 404.305 0.518555 414.919 0.518555 428.013C0.518555 441.107 10.8837 451.722 23.6697 451.722C36.4557 451.722 46.8208 441.107 46.8208 428.013C46.8208 414.919 36.4557 404.305 23.6697 404.305Z" fill="url(#paint5_linear_142_647)"/>
<path d="M23.6696 405.586C11.5747 405.586 1.76992 415.627 1.76992 428.013C1.76992 440.399 11.5747 450.44 23.6696 450.44C35.7645 450.44 45.5693 440.399 45.5693 428.013C45.5693 415.627 35.7645 405.586 23.6696 405.586Z" stroke="white" stroke-width="2.50282"/>
<path d="M22.7311 420.751H24.9211V418.561H27.1111V420.751H24.9211V422.941H22.7311L22.7311 425.131H20.5411V427.321H18.3512V429.511H20.5411V431.701H22.7311V433.891H24.9211V436.081H27.1111V438.271H24.9211V436.081H22.7311V433.891H20.5411V431.701H18.3512V429.511H16.1612V427.321H18.3512V425.131H20.5411V422.941H22.7311V420.751Z" fill="white"/>
</g>
<path d="M589.107 531.298C586.899 537.37 581.859 540.49 574.587 542.002C574.971 542.434 575.547 543.25 575.739 543.706C583.107 541.858 588.387 538.522 591.027 531.826L589.107 531.298ZM581.283 527.17C579.819 529.21 577.275 531.202 574.923 532.45C575.379 532.786 576.075 533.506 576.387 533.89C578.715 532.426 581.403 530.17 583.107 527.866L581.283 527.17ZM582.243 531.418L580.539 531.946C583.107 538.33 587.931 542.17 595.587 543.634C595.851 543.13 596.379 542.314 596.787 541.906C589.347 540.682 584.475 537.106 582.243 531.418ZM575.115 524.674V526.426H596.187V524.674H575.115ZM584.667 521.506V525.802H586.515V521.506H584.667ZM588.459 528.178C590.763 529.738 593.547 532.066 594.843 533.65L596.403 532.402C595.035 530.818 592.203 528.586 589.947 527.074L588.459 528.178ZM610.995 521.53C610.275 523.546 608.715 525.97 606.291 527.722C606.675 527.938 607.227 528.442 607.515 528.826C610.155 526.81 611.739 524.218 612.723 521.794L610.995 521.53ZM611.091 523.378L610.203 524.842H616.251V523.378H611.091ZM611.907 528.154C611.811 530.314 611.331 531.562 609.483 532.306C609.771 532.522 610.179 533.002 610.347 533.338C612.531 532.378 613.131 530.77 613.299 528.154H611.907ZM614.907 528.202V530.962C614.907 532.33 615.243 532.642 616.683 532.642C616.947 532.642 618.387 532.642 618.675 532.642C619.563 532.642 619.995 532.378 620.139 531.682C619.731 531.61 619.179 531.442 618.891 531.226C618.867 531.346 618.771 531.394 618.435 531.394C618.147 531.394 617.067 531.394 616.851 531.394C616.347 531.394 616.299 531.346 616.299 530.962V528.202H614.907ZM606.627 536.002V537.562H621.411V536.002H606.627ZM614.931 536.53L613.347 536.746C614.451 540.37 616.755 542.602 620.691 543.562C620.931 543.106 621.363 542.41 621.771 542.05C618.147 541.354 615.891 539.482 614.931 536.53ZM609.531 527.218H607.971V535.138H609.531V528.682H619.395V527.218H609.531ZM618.915 527.218V535.042H620.499V527.218H618.915ZM615.651 523.378V523.714C615.267 524.818 614.427 526.522 613.707 527.53C614.067 527.722 614.619 528.034 614.931 528.274C615.747 527.194 616.803 525.49 617.427 524.05L616.299 523.306L616.011 523.378H615.651ZM613.227 533.842C612.867 538.45 611.787 541.066 605.787 542.29C606.123 542.626 606.555 543.25 606.699 543.682C613.131 542.194 614.475 539.146 614.907 533.842H613.227ZM599.259 533.986L599.739 535.738C601.779 535.09 604.419 534.226 606.915 533.362L606.675 531.706C603.939 532.594 601.131 533.458 599.259 533.986ZM599.595 526.378V528.058H606.891V526.378H599.595ZM602.619 521.554V541.522C602.619 541.882 602.475 541.954 602.187 541.954C601.899 541.978 600.987 541.978 599.931 541.954C600.171 542.458 600.387 543.202 600.459 543.634C601.971 543.634 602.907 543.586 603.459 543.298C604.059 543.01 604.299 542.53 604.299 541.522V521.554H602.619ZM626.475 523.018V524.674H631.683V535.666H626.475V537.346H633.363V523.018H626.475ZM626.499 529.234V530.866H632.403V529.234H626.499ZM636.627 522.562V524.242H644.715V522.562H636.627ZM636.627 528.394V530.05H644.715V528.394H636.627ZM636.483 534.298V535.93H644.667V534.298H636.483ZM625.491 523.018V539.578H627.171V523.018H625.491ZM644.043 522.562V541.234C644.043 541.666 643.899 541.81 643.467 541.834C643.035 541.834 641.523 541.858 639.987 541.81C640.251 542.29 640.539 543.082 640.635 543.562C642.699 543.562 644.019 543.538 644.787 543.25C645.555 542.938 645.843 542.386 645.843 541.258V522.562H644.043ZM635.571 522.562V531.13C635.571 534.874 635.163 539.434 631.107 542.554C631.491 542.794 632.163 543.418 632.427 543.778C636.747 540.466 637.347 535.162 637.347 531.13V522.562H635.571ZM658.227 522.682V524.146H669.339V522.682H658.227ZM657.939 529.33V530.818H669.771V529.33H657.939ZM657.939 532.666V534.154H669.723V532.666H657.939ZM658.635 540.994V542.482H669.051V540.994H658.635ZM655.971 525.994V527.506H671.595V525.994H655.971ZM657.699 536.002V543.61H659.427V537.466H668.187V543.538H669.987V536.002H657.699ZM655.155 521.602C653.763 525.25 651.411 528.826 648.987 531.106C649.323 531.538 649.827 532.474 649.995 532.882C652.659 530.218 655.227 526.186 656.859 522.13L655.155 521.602ZM652.659 527.794V543.562H654.387V526.114L654.363 526.09L652.659 527.794ZM678.747 527.746V529.618H695.163V527.746H678.747ZM686.499 521.578V528.61H688.395V521.578H686.499ZM677.787 522.154V530.17C677.787 534.418 677.451 538.858 674.403 542.266C674.835 542.578 675.507 543.25 675.795 543.658C679.251 539.89 679.659 534.946 679.659 530.17V522.154H677.787ZM678.675 533.434V535.306H689.499V543.634H691.443V533.434H678.675Z" fill="white"/>
<path d="M595.131 13.8536C592.923 19.9256 587.883 23.0456 580.611 24.5576C580.995 24.9896 581.571 25.8056 581.763 26.2616C589.131 24.4136 594.411 21.0776 597.051 14.3816L595.131 13.8536ZM587.307 9.72561C585.843 11.7656 583.299 13.7576 580.947 15.0056C581.403 15.3416 582.099 16.0616 582.411 16.4456C584.739 14.9816 587.427 12.7256 589.131 10.4216L587.307 9.72561ZM588.267 13.9736L586.563 14.5016C589.131 20.8856 593.955 24.7256 601.611 26.1896C601.875 25.6856 602.403 24.8696 602.811 24.4616C595.371 23.2376 590.499 19.6616 588.267 13.9736ZM581.139 7.2296V8.9816H602.211V7.2296H581.139ZM590.691 4.0616V8.3576H592.539V4.0616H590.691ZM594.483 10.7336C596.787 12.2936 599.571 14.6216 600.867 16.2056L602.427 14.9576C601.059 13.3736 598.227 11.1416 595.971 9.6296L594.483 10.7336ZM617.019 4.0856C616.299 6.1016 614.739 8.5256 612.315 10.2776C612.699 10.4936 613.251 10.9976 613.539 11.3816C616.179 9.36561 617.763 6.7736 618.747 4.3496L617.019 4.0856ZM617.115 5.93361L616.227 7.3976H622.275V5.93361H617.115ZM617.931 10.7096C617.835 12.8696 617.355 14.1176 615.507 14.8616C615.795 15.0776 616.203 15.5576 616.371 15.8936C618.555 14.9336 619.155 13.3256 619.323 10.7096H617.931ZM620.931 10.7576V13.5176C620.931 14.8856 621.267 15.1976 622.707 15.1976C622.971 15.1976 624.411 15.1976 624.699 15.1976C625.587 15.1976 626.019 14.9336 626.163 14.2376C625.755 14.1656 625.203 13.9976 624.915 13.7816C624.891 13.9016 624.795 13.9496 624.459 13.9496C624.171 13.9496 623.091 13.9496 622.875 13.9496C622.371 13.9496 622.323 13.9016 622.323 13.5176V10.7576H620.931ZM612.651 18.5576V20.1176H627.435V18.5576H612.651ZM620.955 19.0856L619.371 19.3016C620.475 22.9256 622.779 25.1576 626.715 26.1176C626.955 25.6616 627.387 24.9656 627.795 24.6056C624.171 23.9096 621.915 22.0376 620.955 19.0856ZM615.555 9.7736H613.995V17.6936H615.555V11.2376H625.419V9.7736H615.555ZM624.939 9.7736V17.5976H626.523V9.7736H624.939ZM621.675 5.93361V6.26961C621.291 7.37361 620.451 9.0776 619.731 10.0856C620.091 10.2776 620.643 10.5896 620.955 10.8296C621.771 9.7496 622.827 8.04561 623.451 6.60561L622.323 5.8616L622.035 5.93361H621.675ZM619.251 16.3976C618.891 21.0056 617.811 23.6216 611.811 24.8456C612.147 25.1816 612.579 25.8056 612.723 26.2376C619.155 24.7496 620.499 21.7016 620.931 16.3976H619.251ZM605.283 16.5416L605.763 18.2936C607.803 17.6456 610.443 16.7816 612.939 15.9176L612.699 14.2616C609.963 15.1496 607.155 16.0136 605.283 16.5416ZM605.619 8.93361V10.6136H612.915V8.93361H605.619ZM608.643 4.1096V24.0776C608.643 24.4376 608.499 24.5096 608.211 24.5096C607.923 24.5336 607.011 24.5336 605.955 24.5096C606.195 25.0136 606.411 25.7576 606.483 26.1896C607.995 26.1896 608.931 26.1416 609.483 25.8536C610.083 25.5656 610.323 25.0856 610.323 24.0776V4.1096H608.643ZM632.499 5.5736V7.2296H637.707V18.2216H632.499V19.9016H639.387V5.5736H632.499ZM632.523 11.7896V13.4216H638.427V11.7896H632.523ZM642.651 5.1176V6.7976H650.739V5.1176H642.651ZM642.651 10.9496V12.6056H650.739V10.9496H642.651ZM642.507 16.8536V18.4856H650.691V16.8536H642.507ZM631.515 5.5736V22.1336H633.195V5.5736H631.515ZM650.067 5.1176V23.7896C650.067 24.2216 649.923 24.3656 649.491 24.3896C649.059 24.3896 647.547 24.4136 646.011 24.3656C646.275 24.8456 646.563 25.6376 646.659 26.1176C648.723 26.1176 650.043 26.0936 650.811 25.8056C651.579 25.4936 651.867 24.9416 651.867 23.8136V5.1176H650.067ZM641.595 5.1176V13.6856C641.595 17.4296 641.187 21.9896 637.131 25.1096C637.515 25.3496 638.187 25.9736 638.451 26.3336C642.771 23.0216 643.371 17.7176 643.371 13.6856V5.1176H641.595ZM664.251 5.2376V6.70161H675.363V5.2376H664.251ZM663.963 11.8856V13.3736H675.795V11.8856H663.963ZM663.963 15.2216V16.7096H675.747V15.2216H663.963ZM664.659 23.5496V25.0376H675.075V23.5496H664.659ZM661.995 8.5496V10.0616H677.619V8.5496H661.995ZM663.723 18.5576V26.1656H665.451V20.0216H674.211V26.0936H676.011V18.5576H663.723ZM661.179 4.15761C659.787 7.8056 657.435 11.3816 655.011 13.6616C655.347 14.0936 655.851 15.0296 656.019 15.4376C658.683 12.7736 661.251 8.7416 662.883 4.6856L661.179 4.15761ZM658.683 10.3496V26.1176H660.411V8.6696L660.387 8.6456L658.683 10.3496ZM684.771 10.3016V12.1736H701.187V10.3016H684.771ZM692.523 4.1336V11.1656H694.419V4.1336H692.523ZM683.811 4.70961V12.7256C683.811 16.9736 683.475 21.4136 680.427 24.8216C680.859 25.1336 681.531 25.8056 681.819 26.2136C685.275 22.4456 685.683 17.5016 685.683 12.7256V4.70961H683.811ZM684.699 15.9896V17.8616H695.523V26.1896H697.467V15.9896H684.699Z" fill="white"/>
<path d="M806.349 16.4696V18.1256H820.533V16.4696H806.349ZM814.389 7.7336V12.0056C814.389 13.5896 814.773 14.0456 816.501 14.0456C816.837 14.0456 818.517 14.0456 818.877 14.0456C820.197 14.0456 820.653 13.4456 820.821 11.0936C820.365 10.9736 819.693 10.7336 819.357 10.4696C819.309 12.3416 819.213 12.5816 818.685 12.5816C818.325 12.5816 816.981 12.5816 816.717 12.5816C816.117 12.5816 816.021 12.4856 816.021 11.9816V7.7336H814.389ZM806.733 5.4056V9.7496H808.317V6.9896H818.709V9.6536H820.341V5.4056H806.733ZM812.445 13.8776V26.1656H814.221V13.8776H812.445ZM810.549 7.7816C810.357 10.8776 809.661 12.4376 806.181 13.3256C806.517 13.6136 806.949 14.2136 807.117 14.5976C811.053 13.5176 811.989 11.5016 812.229 7.7816H810.549ZM814.893 17.2136L813.477 17.7656C814.893 20.6936 817.437 23.5496 819.957 25.0376C820.269 24.5816 820.821 23.9576 821.205 23.6216C818.733 22.3736 816.189 19.8296 814.893 17.2136ZM811.869 17.0696C810.549 19.9256 807.861 22.5416 805.029 23.7656C805.437 24.1016 805.941 24.7256 806.205 25.1576C809.157 23.6936 811.845 20.8136 813.285 17.5736L811.869 17.0696ZM798.405 16.5416L798.885 18.2936C800.925 17.6456 803.565 16.7816 806.061 15.9176L805.821 14.2616C803.085 15.1496 800.277 16.0136 798.405 16.5416ZM798.741 8.93361V10.6136H806.037V8.93361H798.741ZM801.765 4.1096V24.0776C801.765 24.4376 801.621 24.5096 801.333 24.5096C801.045 24.5336 800.133 24.5336 799.077 24.5096C799.317 25.0136 799.533 25.7576 799.605 26.1896C801.117 26.1896 802.053 26.1416 802.605 25.8536C803.205 25.5656 803.445 25.0856 803.445 24.0776V4.1096H801.765ZM833.757 19.5656V26.2136H835.557V19.5656H833.757ZM833.757 4.0856V10.8056H835.533V4.0856H833.757ZM832.869 11.2376C831.885 12.3896 830.085 13.9736 828.741 14.9576L830.061 15.7016C831.453 14.7416 833.157 13.3496 834.549 12.0536L832.869 11.2376ZM838.053 12.7976C835.797 14.8376 832.005 17.5496 829.077 19.2056L830.349 20.0696C833.277 18.4376 836.973 15.8936 839.685 13.6856L838.053 12.7976ZM826.893 14.8856C828.741 15.8216 830.997 17.2616 832.101 18.2696L833.349 17.1176C832.173 16.1096 829.893 14.7416 828.093 13.8536L826.893 14.8856ZM837.789 16.7816C839.925 18.0536 842.565 20.0216 843.837 21.2936L845.109 20.1896C843.765 18.9176 841.101 17.0696 838.989 15.8216L837.789 16.7816ZM837.861 21.9176C839.973 22.9976 842.565 24.6776 843.813 25.8536L845.301 24.7736C843.933 23.5976 841.293 21.9896 839.229 20.9816L837.861 21.9176ZM824.277 18.8216L824.373 20.4776C828.933 20.4296 836.013 20.2136 842.661 20.0216L842.757 18.5816C835.917 18.7256 828.669 18.8216 824.277 18.8216ZM829.653 20.9576C828.213 22.3736 825.909 23.7656 823.773 24.6536C824.205 24.9656 824.877 25.5896 825.189 25.9256C827.277 24.8936 829.749 23.2376 831.357 21.5816L829.653 20.9576ZM824.541 6.2216V7.8056H844.821V6.2216H824.541ZM824.469 10.1096V14.6216H826.173V11.6696H843.261V14.6216H845.037V10.1096H824.469ZM857.085 16.8296V26.1656H858.741V18.4856H867.333V26.0456H869.061V16.8296H857.085ZM868.173 4.1816C865.509 5.1416 860.637 5.8856 856.461 6.3416C856.677 6.7496 856.917 7.4456 856.989 7.8776C861.285 7.4696 866.301 6.72561 869.589 5.59761L868.173 4.1816ZM862.269 6.26961V17.7896H863.997V6.26961H862.269ZM855.333 11.1416V12.8696H870.621V11.1416H855.333ZM858.213 23.4776V25.1336H868.125V23.4776H858.213ZM849.837 5.6696C851.325 6.4616 853.317 7.6376 854.325 8.3576L855.381 6.8936C854.349 6.1976 852.309 5.1176 850.845 4.3976L849.837 5.6696ZM848.661 12.2936C850.125 13.0616 852.117 14.2136 853.101 14.8856L854.109 13.4216C853.101 12.7256 851.085 11.6696 849.669 10.9736L848.661 12.2936ZM849.237 24.6296L850.749 25.8536C852.165 23.6216 853.845 20.6216 855.117 18.0776L853.821 16.9016C852.429 19.6376 850.533 22.8056 849.237 24.6296ZM874.293 19.7816V21.1496H885.237V19.7816H874.293ZM873.645 8.2136V9.60561H885.621V8.2136H873.645ZM878.853 6.0296V23.6936H880.509V6.0296H878.853ZM873.621 23.7416L873.885 25.3016C876.933 24.9896 881.277 24.4856 885.357 24.0056L885.333 22.5896C881.037 23.0456 876.549 23.4776 873.621 23.7416ZM875.853 15.2936H883.629V17.0696H875.853V15.2936ZM875.853 12.3656H883.629V14.0936H875.853V12.3656ZM874.341 11.1176V18.3176H885.165V11.1176H874.341ZM884.301 4.3256C881.829 4.9016 877.461 5.3336 873.885 5.5256C874.077 5.8856 874.245 6.48561 874.317 6.8696C877.917 6.7496 882.381 6.3416 885.213 5.71761L884.301 4.3256ZM885.453 9.70161V11.3816H894.117V9.70161H885.453ZM893.421 9.70161V10.1336C893.157 19.8536 892.893 23.3096 892.293 24.0536C892.077 24.3656 891.837 24.4376 891.453 24.4376C890.973 24.4376 889.917 24.4136 888.741 24.3176C889.029 24.7976 889.221 25.5416 889.269 26.0456C890.373 26.1176 891.525 26.1176 892.197 26.0456C892.917 25.9736 893.397 25.7576 893.829 25.1336C894.621 24.1016 894.861 20.7416 895.125 10.6136C895.125 10.3736 895.149 9.70161 895.149 9.70161H893.421ZM888.357 4.3976C888.333 13.4696 888.453 21.0776 882.957 25.0136C883.389 25.3016 884.013 25.8776 884.301 26.3096C890.037 22.0136 890.061 13.9496 890.085 4.3976H888.357Z" fill="white"/>
<path d="M392.286 11.3096V12.7256H397.278V11.3096H392.286ZM390.75 18.2696V19.5656H398.838V18.2696H390.75ZM382.71 5.1176V6.5816H389.43V5.1176H382.71ZM388.926 5.1176V5.4056C387.462 8.6696 383.646 11.2376 380.046 12.3176C380.382 12.6296 380.814 13.2536 381.03 13.6616C384.918 12.3176 388.878 9.6296 390.678 5.59761L389.55 5.04561L389.238 5.1176H388.926ZM392.718 4.0856L391.254 4.5416C393.198 8.7416 396.87 11.9096 401.454 13.3256C401.718 12.8936 402.174 12.2696 402.558 11.9096C398.094 10.7336 394.446 7.8056 392.718 4.0856ZM397.614 4.2536C396.75 5.2376 395.166 6.5816 394.062 7.3976L395.118 8.2376C396.27 7.4456 397.782 6.2936 398.958 5.1896L397.614 4.2536ZM400.494 6.6776C399.606 7.61361 397.974 8.9576 396.822 9.7496L397.926 10.5896C399.102 9.8456 400.662 8.69361 401.814 7.58961L400.494 6.6776ZM383.454 11.4056V12.8216H387.726V17.1656H389.334V11.4056H383.454ZM382.83 15.3416C382.566 17.0936 382.086 19.3496 381.678 20.7896L383.19 21.0536C383.574 19.5656 384.054 17.2136 384.39 15.3416H382.83ZM387.726 18.9896V19.2296C387.438 22.6616 387.174 24.0296 386.742 24.4376C386.55 24.6296 386.286 24.6536 385.83 24.6536C385.374 24.6536 384.078 24.6296 382.734 24.5096C383.022 24.9416 383.214 25.5896 383.262 26.0696C384.582 26.1176 385.854 26.1416 386.478 26.1176C387.222 26.0456 387.654 25.9256 388.086 25.5176C388.71 24.8936 389.022 23.3576 389.334 19.7096C389.358 19.4936 389.382 18.9896 389.382 18.9896H387.726ZM391.638 11.3096V13.1816C391.638 14.3336 391.326 15.6536 389.406 16.6856C389.742 16.9016 390.318 17.4776 390.558 17.8136C392.694 16.5656 393.198 14.7656 393.198 13.2056V11.3096H391.638ZM398.43 18.2696V18.5096C397.11 22.1336 393.51 24.1016 389.382 24.8696C389.67 25.2056 390.03 25.8056 390.174 26.1896C394.71 25.1816 398.478 23.0456 400.062 18.5816L399.03 18.1976L398.742 18.2696H398.43ZM393.03 19.4696L391.614 19.8536C393.198 23.2136 396.414 25.3496 400.806 26.1656C401.046 25.7336 401.502 25.0376 401.886 24.6776C397.638 24.0776 394.422 22.2536 393.03 19.4696ZM383.622 15.3416L383.382 16.7576H388.326V15.3416H383.622ZM382.902 18.9896L382.638 20.3816H388.182V18.9896H382.902ZM396.438 11.3096V14.9096C396.438 16.0616 396.558 16.4216 396.894 16.7336C397.206 16.9976 397.734 17.0936 398.214 17.0936C398.454 17.0936 399.126 17.0936 399.39 17.0936C399.726 17.0936 400.206 17.0696 400.446 16.9736C400.758 16.8776 401.046 16.6856 401.166 16.4216C401.334 16.1336 401.406 15.4376 401.454 14.8136C401.022 14.6936 400.446 14.4056 400.134 14.1416C400.11 14.7416 400.086 15.1976 400.038 15.4136C399.966 15.5816 399.846 15.7016 399.75 15.7496C399.678 15.7736 399.438 15.7736 399.222 15.7736C399.006 15.7736 398.694 15.7736 398.526 15.7736C398.334 15.7736 398.214 15.7736 398.118 15.7016C398.022 15.6296 398.022 15.3896 398.022 15.0536V11.3096H396.438ZM382.062 7.9736C383.19 8.6696 384.51 9.70161 385.134 10.4456L386.238 9.3416C385.59 8.6456 384.222 7.6376 383.118 6.9896L382.062 7.9736ZM411.99 13.6136V15.2696H427.134V13.6136H411.99ZM412.758 8.6696V10.2776H426.414V8.6696H412.758ZM418.422 9.4136V12.9896C418.422 15.4616 417.99 18.9896 412.158 21.3416C412.566 21.6536 413.118 22.2776 413.358 22.6616C419.406 19.9496 420.222 16.0136 420.222 13.0136V9.4136H418.422ZM420.726 14.6696L419.166 15.0056C420.222 18.9176 422.406 21.5096 426.03 22.7816C426.27 22.3016 426.774 21.6056 427.182 21.2456C423.75 20.2616 421.638 18.0296 420.726 14.6696ZM410.622 13.5656H405.51V15.2456H408.87V22.0616H410.622V13.5656ZM410.622 21.2696H408.99C407.766 22.3016 406.35 23.3576 405.198 24.1256L406.158 25.9736C407.454 24.9176 408.678 23.8856 409.83 22.8536C411.366 24.7496 413.526 25.5896 416.646 25.7096C419.31 25.8056 424.278 25.7576 426.918 25.6616C426.99 25.1096 427.302 24.2456 427.494 23.8136C424.662 24.0056 419.262 24.0776 416.646 23.9816C413.886 23.8616 411.75 23.0456 410.622 21.2696ZM405.774 5.7656C407.334 6.82161 409.134 8.4536 409.902 9.60561L411.318 8.4296C410.502 7.25361 408.678 5.6936 407.094 4.6856L405.774 5.7656ZM423.27 4.0856C422.766 5.3096 421.782 7.03761 421.038 8.1176L422.502 8.6696C423.294 7.6616 424.278 6.0776 425.094 4.70961L423.27 4.0856ZM413.694 4.8056C414.63 6.0056 415.518 7.6616 415.83 8.7416L417.462 8.0216C417.126 6.9176 416.19 5.3336 415.23 4.1816L413.694 4.8056ZM439.47 5.3096V7.03761H448.998V5.3096H439.47ZM439.23 13.4936V15.1976H447.27V13.4936H439.23ZM442.494 6.2936V12.1016C442.494 16.3256 442.134 21.1736 438.294 24.9896C438.726 25.2536 439.35 25.8536 439.638 26.2376C443.79 22.1096 444.222 16.8056 444.222 12.1016V6.2936H442.494ZM448.086 5.3096C448.11 16.3976 447.87 25.1816 450.702 26.0696C451.926 26.5496 452.718 25.7096 453.006 21.7256C452.718 21.4856 452.214 20.8856 451.878 20.4536C451.806 22.4696 451.614 24.2456 451.422 24.1976C449.742 23.8136 449.814 15.5336 449.934 5.3096H448.086ZM431.358 11.3576V12.7976H438.39V11.3576H431.358ZM431.43 4.9496V6.38961H438.294V4.9496H431.43ZM431.358 14.5736V16.0136H438.39V14.5736H431.358ZM430.23 8.0936V9.58161H439.182V8.0936H430.23ZM432.15 17.8136V19.3016H436.806V23.3096H432.15V24.8216H438.39V17.8136H432.15ZM431.334 17.8136V25.9256H432.894V17.8136H431.334ZM457.974 6.5096H461.55V10.1576H457.974V6.5096ZM456.342 4.9976V11.6936H463.254V4.9976H456.342ZM455.238 13.3736V14.9576H464.286V13.3736H455.238ZM457.494 14.0936C457.134 15.9176 456.582 18.3176 456.102 19.8536L457.734 20.1656C458.166 18.5816 458.742 16.0856 459.15 14.0936H457.494ZM457.686 17.0936L457.278 18.6296H462.15V17.0936H457.686ZM461.478 17.0936V17.3816C461.19 22.1096 460.83 23.9576 460.35 24.4376C460.158 24.6536 459.918 24.7016 459.558 24.6776C459.174 24.6776 458.238 24.6776 457.206 24.5816C457.494 25.0136 457.686 25.7096 457.71 26.1656C458.718 26.2136 459.702 26.2136 460.23 26.1896C460.878 26.1176 461.286 25.9736 461.694 25.5416C462.366 24.8216 462.726 22.8536 463.11 17.8376C463.134 17.5736 463.158 17.0936 463.158 17.0936H461.478ZM470.526 5.7416V7.2296H476.262V5.7416H470.526ZM465.702 8.8616V10.3256H476.286V8.8616H465.702ZM469.662 4.0856V9.6296H471.39V4.0856H469.662ZM464.934 8.8616V15.0056C464.934 18.1016 464.718 22.2776 462.63 25.3256C463.038 25.4936 463.71 25.9976 463.998 26.3096C466.23 23.1176 466.566 18.3656 466.566 15.0056V8.8616H464.934ZM467.142 12.8216L467.31 14.1416L474.414 13.3736L474.246 12.1256L467.142 12.8216ZM469.758 10.4936V14.7896C469.758 16.3256 470.19 16.7096 471.918 16.7096C472.278 16.7096 474.198 16.7096 474.558 16.7096C475.854 16.7096 476.31 16.2296 476.454 14.3816C476.022 14.2856 475.398 14.0696 475.062 13.8536C474.99 15.1976 474.894 15.3656 474.366 15.3656C473.958 15.3656 472.422 15.3656 472.134 15.3656C471.462 15.3656 471.366 15.2936 471.366 14.7896V10.4936H469.758ZM475.782 8.8616V9.1016C475.638 10.3736 475.35 12.0056 475.11 13.0136L476.502 13.3496C476.79 12.2696 477.174 10.5416 477.462 9.0776L476.334 8.7896L476.046 8.8616H475.782ZM468.51 17.7656C468.366 21.2936 467.838 23.6216 465.222 24.9656C465.582 25.2536 466.062 25.8536 466.278 26.2616C469.206 24.6536 469.902 21.8456 470.07 17.7656H468.51ZM472.038 17.7416V23.6216C472.038 24.7256 472.134 25.0856 472.518 25.4216C472.878 25.7096 473.43 25.8056 473.958 25.8056C474.222 25.8056 475.014 25.8056 475.326 25.8056C475.782 25.8056 476.31 25.7096 476.598 25.5656C476.958 25.3496 477.222 25.0856 477.366 24.6296C477.486 24.2216 477.606 23.0216 477.63 21.8936C477.174 21.7496 476.574 21.4376 476.262 21.1496C476.262 22.2296 476.238 23.1656 476.166 23.5496C476.118 23.8136 475.998 23.9816 475.854 24.0536C475.734 24.1256 475.422 24.1736 475.206 24.1736C474.918 24.1736 474.534 24.1736 474.342 24.1736C474.102 24.1736 473.91 24.1256 473.766 24.0536C473.646 24.0056 473.598 23.8376 473.598 23.6696V17.7416H472.038Z" fill="white"/>
<g clip-path="url(#clip0_142_647)">
<path d="M721.236 455.634C721.236 461.274 721.236 466.607 721.236 471.939C721.236 475.938 720.176 477.032 716.277 477.032C655.364 477.032 594.451 477.032 533.537 477.032C529.775 477.032 528.646 475.904 528.646 472.076C528.646 427.914 528.646 383.718 528.646 339.522C528.646 335.66 529.844 334.429 533.674 334.429C539.01 334.429 544.379 334.429 550.057 334.429C550.057 333.609 550.057 332.925 550.057 332.207C550.057 327.217 550.057 322.261 550.057 317.27C550.057 314.536 551.425 313.203 554.161 313.032C554.606 313.032 555.05 313.032 555.495 313.032C616.032 313.032 676.603 313.032 737.14 313.032C737.961 313.032 738.782 313.032 739.568 313.203C741.415 313.544 742.407 314.707 742.612 316.552C742.681 317.27 742.646 318.022 742.646 318.774C742.646 362.526 742.646 406.243 742.646 449.995C742.646 454.814 741.791 455.669 736.935 455.669C731.805 455.669 726.708 455.669 721.27 455.669L721.236 455.634ZM535.931 341.675V469.717H713.951V341.675H535.931ZM557.273 334.429C558.505 334.429 559.462 334.429 560.42 334.429C612.201 334.429 663.948 334.429 715.73 334.429C720.176 334.429 721.236 335.489 721.236 339.966C721.236 375.241 721.236 410.482 721.236 445.756V448.32H735.362V320.312H557.273V334.429Z" fill="white"/>
<path d="M617.81 428.016C615.348 427.572 612.475 427.196 609.67 426.478C607.139 425.829 604.677 425.829 602.249 426.717C596.811 428.7 591.407 428.7 585.969 426.717C583.438 425.794 580.907 425.794 578.376 426.717C573.006 428.666 567.671 428.802 562.301 426.751C559.325 425.623 556.35 426.034 553.374 426.717C551.425 427.162 549.441 427.538 547.492 427.879C543.216 428.631 541.404 426.751 542.259 422.513C542.635 420.701 542.806 418.821 543.353 417.078C544.619 413.045 543.969 409.182 542.703 405.32C541.506 401.663 541.335 398.074 542.703 394.45C544.311 390.109 544.277 385.803 542.703 381.462C541.541 378.18 541.13 374.796 542.498 371.481C544.995 365.465 543.558 359.552 542.327 353.604C541.37 349.058 543.114 347.281 547.629 348.101C549.168 348.375 550.741 348.545 552.212 348.99C556.658 350.391 561.001 349.776 565.277 348.375C568.56 347.281 571.809 347.144 575.058 348.375C579.744 350.118 584.43 350.084 589.149 348.375C592.057 347.349 595.066 346.939 598.042 348.169C604.335 350.767 610.525 349.4 616.784 348.067C620.957 347.178 622.838 349.127 622.017 353.331C621.402 356.544 620.786 359.723 620.204 362.936C620.068 363.653 620.17 364.405 620.273 365.123C620.376 365.944 620.581 366.73 620.854 367.516C622.872 373.156 622.975 378.796 620.854 384.435C619.999 386.76 619.999 389.05 620.854 391.374C622.872 396.946 623.043 402.517 620.854 408.089C619.281 412.156 620.923 415.95 621.47 419.881C621.641 421.214 622.051 422.479 622.188 423.812C622.462 426.615 620.923 428.187 617.742 428.05L617.81 428.016ZM614.356 419.915C613.193 415.198 612.304 410.721 614.048 406.174C615.724 401.868 615.519 397.527 613.98 393.186C612.851 389.973 612.475 386.691 613.809 383.41C615.861 378.283 615.416 373.156 613.672 368.063C612.749 365.431 612.851 362.833 613.467 360.201C613.809 358.8 613.98 357.398 614.322 355.518C608.302 357.911 602.796 357.159 597.324 355.347C594.895 354.527 592.501 354.664 590.175 355.518C584.806 357.467 579.47 357.467 574.101 355.518C574.032 355.518 573.964 355.484 573.895 355.45C571.433 354.561 568.97 354.664 566.508 355.45C561.412 357.159 556.247 357.706 551.014 356.031C550.775 355.963 550.501 355.963 550.262 355.929C550.194 356.236 550.091 356.407 550.125 356.544C550.194 356.988 550.262 357.433 550.365 357.843C551.527 362.081 551.664 366.32 550.057 370.49C548.552 374.489 548.826 378.454 550.194 382.385C551.493 386.076 551.562 389.768 550.194 393.459C548.586 397.8 548.689 402.107 550.194 406.448C551.391 409.798 551.562 413.216 550.501 416.702C550.194 417.728 550.159 418.821 549.988 420.018C550.775 419.949 551.288 420.018 551.767 419.847C556.384 418.343 560.967 418.753 565.482 420.291C566.166 420.53 566.918 420.736 567.636 420.77C569.312 420.838 571.125 421.248 572.63 420.736C578.991 418.582 585.182 418.582 591.543 420.736C592.98 421.214 594.793 421.146 596.298 420.77C601.872 419.368 607.379 417.933 613.091 419.915C613.33 420.018 613.672 419.915 614.322 419.915H614.356Z" fill="white"/>
<path d="M543.011 441.21V434.374H703.28V441.21H543.011Z" fill="white"/>
<path d="M543.011 451.909V445.073H703.28V451.909H543.011Z" fill="white"/>
<path d="M543.045 462.607V455.737H703.212V462.607H543.045Z" fill="white"/>
<path d="M628.618 377.052V370.216H703.28V377.052H628.618Z" fill="white"/>
<path d="M628.687 384.436H703.28V391.272H628.687V384.436Z" fill="white"/>
<path d="M703.349 398.757V405.559H628.687V398.757H703.349Z" fill="white"/>
</g>
<g opacity="0.54" clip-path="url(#clip1_142_647)">
<path d="M344.058 402.328V483.093C341.569 489.908 338.995 491.69 331.697 491.69C288.903 491.69 246.081 491.69 203.286 491.69C196.3 491.69 192.086 487.505 192.058 480.548C192.058 455.125 192.058 429.674 192.058 404.251C192.058 402.696 192.567 401.536 193.67 400.433C197.941 396.248 202.183 392.006 206.369 387.708C206.879 387.171 207.246 386.266 207.275 385.53C207.359 380.723 207.275 375.944 207.331 371.136C207.331 364.151 211.517 359.994 218.532 359.994C223.17 359.994 227.837 359.966 232.476 359.994C233.664 359.994 234.512 359.683 235.333 358.835C238.302 355.781 241.329 352.811 244.355 349.786C248.259 345.855 252.784 342.885 258.073 341.274C260.336 340.595 262.74 340.227 265.088 339.69C267.153 339.69 269.246 339.69 271.31 339.69C271.621 339.803 271.933 339.944 272.272 339.973C279.173 340.906 285.254 343.649 290.346 348.428C293.909 351.793 297.36 355.272 300.783 358.75C301.688 359.683 302.621 360.023 303.894 359.994C308.504 359.938 313.086 359.938 317.697 359.994C318.885 359.994 320.101 360.051 321.204 360.362C326.04 361.635 328.841 365.452 328.869 370.684C328.897 375.576 328.897 380.468 328.869 385.361C328.869 386.379 329.123 387.114 329.859 387.821C333.96 391.837 338.005 395.909 342.021 399.981C342.757 400.716 343.379 401.536 344.058 402.3V402.328ZM298.18 442.654C298.661 442.286 298.803 442.202 298.888 442.088C306.977 434.001 315.066 425.941 323.099 417.825C323.58 417.344 323.778 416.439 323.778 415.732C323.806 400.942 323.806 386.152 323.806 371.363C323.806 366.951 321.968 365.113 317.612 365.113C284.547 365.113 251.511 365.113 218.447 365.113C214.176 365.113 212.337 366.979 212.337 371.278C212.337 386.124 212.366 400.971 212.337 415.789C212.337 416.807 212.649 417.514 213.356 418.249C221.134 425.998 228.912 433.774 236.662 441.523C236.973 441.834 237.284 442.117 237.709 442.484C239.943 440.222 242.149 438.016 244.355 435.839C257.508 422.83 276.882 422.35 290.6 434.792C293.259 437.224 295.607 439.996 298.152 442.654H298.18ZM201.052 486.43H335.148C334.639 485.893 334.384 485.582 334.102 485.327C318.771 470 303.498 454.644 288.083 439.402C285.877 437.224 283.246 435.245 280.446 433.859C269.104 428.288 256.885 430.522 247.863 439.543C232.617 454.757 217.4 469.972 202.183 485.186C201.844 485.525 201.533 485.893 201.024 486.43H201.052ZM233.522 446.302C221.388 434.17 209.226 422.01 197.319 410.077V482.499C209.537 470.283 221.671 458.151 233.522 446.302ZM338.853 482.499V409.681C326.663 421.869 314.472 434.057 302.423 446.104C314.444 458.123 326.578 470.254 338.853 482.528V482.499ZM241.64 359.825H294.305C291.76 357.166 289.356 354.395 286.669 351.935C280.588 346.42 273.375 344.243 265.229 344.95C254.821 345.855 248.202 352.642 241.668 359.825H241.64ZM207.19 394.467C204.276 397.436 201.391 400.349 198.761 403.035C201.533 405.806 204.418 408.663 207.19 411.462V394.467ZM329.01 394.608V411.519C331.867 408.663 334.752 405.75 337.496 403.035C334.724 400.292 331.867 397.408 329.01 394.608Z" fill="white"/>
<path d="M294.617 405.609C299.764 405.609 304.884 405.609 310.032 405.609C310.512 405.609 311.022 405.609 311.502 405.665C312.775 405.891 313.652 406.938 313.652 408.125C313.652 409.341 312.775 410.359 311.502 410.586C311.078 410.67 310.626 410.642 310.173 410.642C299.849 410.642 289.525 410.642 279.202 410.642C278.749 410.642 278.297 410.642 277.872 410.586C276.6 410.359 275.751 409.37 275.751 408.125C275.751 406.881 276.6 405.891 277.872 405.665C278.353 405.58 278.862 405.609 279.343 405.609C284.434 405.609 289.525 405.609 294.617 405.609Z" fill="white"/>
<path d="M294.73 385.36C299.821 385.36 304.912 385.36 310.003 385.36C310.541 385.36 311.106 385.36 311.615 385.445C312.832 385.7 313.539 386.492 313.595 387.708C313.68 388.895 313.114 389.829 311.926 390.196C311.361 390.366 310.767 390.422 310.173 390.422C299.849 390.422 289.525 390.422 279.202 390.422C278.664 390.422 278.098 390.394 277.589 390.253C276.288 389.913 275.609 388.895 275.751 387.595C275.921 386.294 276.684 385.53 277.985 385.417C278.919 385.332 279.852 385.36 280.785 385.36C285.424 385.36 290.063 385.36 294.73 385.36Z" fill="white"/>
<path d="M241.583 395.485C246.675 395.485 251.766 395.485 256.885 395.485C257.366 395.485 257.875 395.456 258.356 395.541C259.629 395.796 260.364 396.587 260.421 397.888C260.449 399.189 259.798 400.066 258.554 400.377C258.045 400.518 257.479 400.518 256.942 400.518C246.646 400.518 236.351 400.518 226.055 400.518C225.574 400.518 225.065 400.518 224.585 400.405C223.283 400.066 222.548 399.217 222.605 397.832C222.633 396.587 223.51 395.654 224.839 395.485C225.292 395.428 225.716 395.456 226.168 395.456C231.316 395.456 236.464 395.456 241.612 395.456L241.583 395.485Z" fill="white"/>
<path d="M241.329 420.766C236.238 420.766 231.147 420.766 226.027 420.766C225.546 420.766 225.037 420.794 224.556 420.681C223.368 420.398 222.661 419.663 222.576 418.419C222.492 417.175 223.057 416.298 224.245 415.93C224.839 415.732 225.518 415.704 226.14 415.704C236.379 415.704 246.618 415.704 256.857 415.704C257.338 415.704 257.847 415.704 258.328 415.789C259.714 416.072 260.506 417.118 260.393 418.447C260.251 419.833 259.431 420.568 258.073 420.738C257.621 420.794 257.196 420.766 256.744 420.766C251.596 420.766 246.448 420.766 241.301 420.766H241.329Z" fill="white"/>
<path d="M241.527 380.299C236.294 380.299 231.033 380.299 225.801 380.299C223.736 380.299 222.605 379.394 222.576 377.81C222.576 376.538 223.368 375.52 224.641 375.322C225.122 375.237 225.631 375.237 226.112 375.237C236.351 375.237 246.59 375.237 256.829 375.237C257.366 375.237 257.932 375.237 258.441 375.322C259.572 375.548 260.251 376.283 260.364 377.471C260.477 378.687 259.968 379.62 258.809 380.044C258.186 380.27 257.451 380.299 256.772 380.299C251.681 380.299 246.59 380.299 241.47 380.299H241.527Z" fill="white"/>
<path d="M255.415 390.423C252.388 390.423 249.39 390.423 246.364 390.423C245.968 390.423 245.572 390.423 245.176 390.394C243.705 390.196 242.771 389.178 242.8 387.849C242.8 386.435 243.818 385.446 245.43 385.417C247.806 385.361 250.182 385.417 252.558 385.417C256.716 385.417 260.873 385.417 265.003 385.417C266.926 385.417 268.029 386.35 268.058 387.906C268.058 389.433 266.926 390.451 265.059 390.479C261.835 390.507 258.639 390.479 255.415 390.479V390.423Z" fill="white"/>
<path d="M280.672 395.484C283.897 395.484 287.093 395.484 290.317 395.484C292.269 395.484 293.344 396.389 293.372 397.945C293.372 399.557 292.269 400.518 290.261 400.518C283.925 400.518 277.618 400.518 271.282 400.518C269.302 400.518 268.086 399.5 268.114 397.945C268.114 396.389 269.33 395.456 271.339 395.456C274.45 395.456 277.561 395.456 280.672 395.456V395.484Z" fill="white"/>
<path d="M255.33 410.642C252.218 410.642 249.107 410.642 245.996 410.642C243.988 410.642 242.828 409.709 242.828 408.125C242.828 406.542 243.988 405.608 245.996 405.58C252.331 405.58 258.639 405.58 264.975 405.58C266.954 405.58 268.114 406.598 268.086 408.182C268.057 409.709 266.898 410.614 265.003 410.642C261.778 410.642 258.582 410.642 255.358 410.642H255.33Z" fill="white"/>
<path d="M280.701 420.766C277.533 420.766 274.365 420.766 271.225 420.766C269.302 420.766 268.171 419.833 268.114 418.334C268.058 416.779 269.274 415.732 271.225 415.732C277.589 415.732 283.982 415.732 290.346 415.732C292.241 415.732 293.344 416.722 293.344 418.278C293.344 419.861 292.269 420.766 290.346 420.794C287.121 420.794 283.925 420.794 280.701 420.794V420.766Z" fill="white"/>
<path d="M280.757 375.237C284.067 375.237 287.376 375.208 290.685 375.237C292.326 375.237 293.287 376.198 293.344 377.612C293.4 379.026 292.495 380.016 290.911 380.242C290.77 380.242 290.629 380.27 290.459 380.27C283.982 380.27 277.505 380.27 271.028 380.27C269.246 380.27 268.114 379.224 268.086 377.754C268.058 376.255 269.217 375.237 271.084 375.208C274.309 375.208 277.505 375.208 280.729 375.208L280.757 375.237Z" fill="white"/>
<path d="M230.043 410.642C228.46 410.642 226.876 410.67 225.292 410.642C223.595 410.585 222.576 409.624 222.576 408.153C222.576 406.683 223.595 405.637 225.292 405.637C228.516 405.58 231.712 405.608 234.937 405.637C236.577 405.637 237.709 406.711 237.709 408.125C237.709 409.539 236.605 410.614 234.965 410.642C233.324 410.699 231.712 410.642 230.072 410.642H230.043Z" fill="white"/>
<path d="M306.213 375.237C307.797 375.237 309.381 375.208 310.965 375.237C312.577 375.293 313.595 376.227 313.652 377.64C313.709 379.026 312.747 380.186 311.163 380.242C307.797 380.355 304.431 380.355 301.066 380.242C299.482 380.186 298.52 379.083 298.548 377.669C298.548 376.198 299.595 375.293 301.32 375.208C301.405 375.208 301.518 375.208 301.603 375.208C303.13 375.208 304.658 375.208 306.213 375.208V375.237Z" fill="white"/>
<path d="M230.072 385.361C231.712 385.361 233.325 385.332 234.965 385.361C236.549 385.417 237.595 386.379 237.652 387.764C237.709 389.122 236.69 390.309 235.135 390.366C231.769 390.451 228.403 390.451 225.037 390.366C223.453 390.338 222.52 389.207 222.548 387.793C222.577 386.35 223.566 385.417 225.179 385.361C226.819 385.304 228.431 385.361 230.072 385.361Z" fill="white"/>
<path d="M306.072 420.766C304.431 420.766 302.791 420.794 301.179 420.766C299.566 420.709 298.576 419.748 298.548 418.334C298.52 416.92 299.482 415.817 301.066 415.76C304.431 415.676 307.797 415.676 311.163 415.76C312.719 415.789 313.709 416.976 313.652 418.362C313.595 419.748 312.577 420.738 310.965 420.766C309.325 420.822 307.712 420.766 306.072 420.766Z" fill="white"/>
<path d="M306.072 395.485C307.712 395.485 309.325 395.456 310.965 395.485C312.549 395.541 313.595 396.503 313.652 397.888C313.709 399.331 312.634 400.462 311.022 400.49C307.769 400.547 304.488 400.547 301.235 400.49C299.566 400.49 298.548 399.387 298.577 397.917C298.605 396.446 299.651 395.513 301.348 395.456C302.932 395.428 304.516 395.456 306.1 395.456L306.072 395.485Z" fill="white"/>
<path d="M257.96 476.504C263.645 476.504 269.33 476.447 275.016 476.56C275.921 476.56 277.08 477.041 277.703 477.692C278.777 478.823 278.099 480.774 276.599 481.311C275.977 481.538 275.242 481.566 274.563 481.566C263.504 481.566 252.416 481.566 241.357 481.566C240.961 481.566 240.565 481.566 240.169 481.538C238.614 481.34 237.68 480.265 237.765 478.851C237.85 477.494 238.812 476.532 240.339 476.532C243.761 476.476 247.155 476.532 250.578 476.532C253.039 476.532 255.528 476.532 257.988 476.532L257.96 476.504Z" fill="white"/>
<path d="M227.583 476.532C228.46 476.532 229.365 476.476 230.242 476.532C231.627 476.645 232.589 477.663 232.561 478.964C232.533 480.322 231.825 481.34 230.468 481.425C228.516 481.566 226.508 481.566 224.556 481.425C223.199 481.311 222.407 480.095 222.548 478.766C222.69 477.381 223.538 476.645 224.896 476.532C225.773 476.447 226.678 476.532 227.555 476.532H227.583Z" fill="white"/>
</g>
<line x1="402.607" y1="58.3452" x2="610.964" y2="58.3452" stroke="url(#paint6_linear_142_647)" stroke-width="3" stroke-linecap="square"/>
<line x1="656.626" y1="58.3452" x2="864.983" y2="58.3452" stroke="url(#paint7_linear_142_647)" stroke-width="3" stroke-linecap="square"/>
<path d="M641.675 96.8861C662.473 96.8861 679.333 79.8777 679.333 58.8967C679.333 37.9157 662.473 20.9072 641.675 20.9072C620.877 20.9072 604.017 37.9157 604.017 58.8967C604.017 79.8777 620.877 96.8861 641.675 96.8861Z" fill="url(#paint8_radial_142_647)"/>
<path d="M641.675 94.6517C661.249 94.6517 677.118 78.6437 677.118 58.8969C677.118 39.1501 661.249 23.1421 641.675 23.1421C622.1 23.1421 606.232 39.1501 606.232 58.8969C606.232 78.6437 622.1 94.6517 641.675 94.6517Z" fill="url(#paint9_radial_142_647)"/>
<circle opacity="0.7" cx="391.778" cy="58.8971" r="9.32921" fill="white"/>
<circle cx="641.675" cy="58.897" r="8.82722" fill="white"/>
<circle cx="641.675" cy="58.8973" r="15.6175" stroke="white" stroke-width="2"/>
<circle opacity="0.7" cx="885.621" cy="58.8971" r="9.32921" fill="white"/>
<g filter="url(#filter3_b_142_647)">
<rect x="482.456" y="245.588" width="306.382" height="355.548" rx="21" stroke="#17C7D2" stroke-width="4"/>
</g>
<g opacity="0.54" clip-path="url(#clip2_142_647)">
<path d="M905.569 471.284C906.349 468.084 907.719 465.284 910.429 463.214C914.299 460.254 919.749 459.974 924.119 462.624C928.349 465.184 930.549 470.364 929.539 475.354C928.569 480.134 924.519 484.054 919.799 484.774C913.399 485.754 907.779 482.164 905.999 475.954C905.869 475.484 905.709 475.024 905.569 474.554C905.569 473.464 905.569 472.364 905.569 471.274V471.284ZM917.759 465.704C913.799 465.674 910.539 468.884 910.499 472.824C910.469 476.754 913.709 480.054 917.639 480.094C921.529 480.134 924.869 476.854 924.909 472.944C924.949 469.014 921.699 465.734 917.759 465.704Z" fill="white"/>
<path d="M984.519 471.204C981.609 474.124 978.869 476.874 976.129 479.604C975.709 480.024 975.279 480.464 974.779 480.784C973.719 481.444 972.659 481.324 971.799 480.434C970.939 479.544 970.859 478.474 971.519 477.434C971.839 476.934 972.289 476.514 972.709 476.094C976.959 471.834 981.289 467.654 985.429 463.294C987.309 461.314 988.829 458.974 990.329 457.034C986.769 453.964 983.569 451.204 980.409 448.484C977.359 449.784 974.239 451.224 971.029 452.414C969.629 452.934 968.049 453.144 966.539 453.174C963.459 453.234 961.369 451.124 961.359 448.054C961.349 444.274 962.949 440.964 964.519 437.654C965.079 436.474 965.709 435.334 966.229 434.324C963.399 431.054 960.669 427.894 957.649 424.404C956.149 425.414 954.049 426.424 952.459 427.974C945.559 434.684 938.799 441.534 932.009 448.354C929.279 451.094 928.679 454.334 930.269 457.294C932.449 461.354 937.659 462.384 941.189 459.404C942.689 458.134 943.989 456.634 945.509 455.384C949.369 452.204 954.959 452.514 958.499 456.004C962.059 459.524 962.509 465.334 959.099 469.084C955.099 473.494 950.779 477.614 946.569 481.834C944.819 483.594 943.759 485.624 944.069 488.144C944.419 490.984 945.959 493.024 948.619 494.074C951.229 495.094 953.749 494.704 955.819 492.824C958.249 490.624 960.509 488.234 962.839 485.934C963.269 485.514 963.679 485.064 964.139 484.684C965.249 483.764 966.619 483.794 967.539 484.724C968.479 485.674 968.519 486.974 967.559 488.114C966.999 488.784 966.359 489.384 965.729 489.994C963.339 492.314 961.069 494.784 958.519 496.924C953.949 500.744 946.969 500.234 942.659 495.984C938.369 491.744 937.749 484.454 941.719 480.024C945.759 475.504 950.219 471.364 954.409 466.974C955.269 466.064 956.039 464.864 956.339 463.674C956.849 461.654 955.749 459.714 953.959 458.714C952.159 457.714 950.069 457.874 948.469 459.284C947.029 460.544 945.749 461.984 944.279 463.204C939.439 467.244 932.429 466.894 928.029 462.484C923.679 458.114 923.129 450.994 927.269 446.404C931.869 441.294 936.889 436.544 941.749 431.664C942.239 431.174 942.899 430.844 943.349 430.314C938.689 428.954 937.299 426.634 938.299 422.114C939.309 417.514 941.519 413.434 943.859 409.414C947.779 402.704 952.129 396.284 957.249 390.414C961.579 385.464 966.769 383.254 973.349 385.414C973.759 385.544 974.589 385.004 974.949 384.554C979.569 378.664 984.129 372.714 988.719 366.804C1000.33 351.874 1015.69 343.764 1034.34 341.604C1041.71 340.754 1049.08 340.644 1056.39 341.974C1065.32 343.594 1071.76 350.404 1072.88 359.404C1074.28 370.744 1073.67 381.974 1070.4 393.004C1066.48 406.214 1059.04 417.004 1048.23 425.484C1042.25 430.174 1036.23 434.804 1030.18 439.404C1029.23 440.124 1028.91 440.674 1029.31 441.934C1031.06 447.464 1029.54 452.404 1025.4 456.114C1016.49 464.104 1006.69 470.834 995.529 475.374C994.429 475.824 993.239 476.094 992.069 476.344C987.899 477.234 985.439 475.604 984.539 471.194L984.519 471.204ZM1068.28 375.604C1068.93 372.414 1068.61 362.734 1067.78 358.874C1066.37 352.264 1061.33 347.454 1054.69 346.624C1045.79 345.514 1036.91 345.704 1028.11 347.594C1014.86 350.444 1003.55 356.704 994.869 367.184C983.629 380.744 973.099 394.844 963.719 409.764C962.359 411.934 961.649 414.294 961.619 416.894C961.549 422.614 965.109 426.154 969.019 429.644C970.009 428.134 970.869 426.664 971.879 425.314C974.959 421.204 977.939 417.014 981.249 413.104C984.159 409.664 988.009 407.764 992.649 407.974C998.179 408.224 1003.84 412.474 1005.72 417.724C1007.76 423.414 1006.37 429.244 1001.55 433.294C997.459 436.734 993.069 439.824 988.789 443.034C987.579 443.934 986.269 444.704 984.829 445.654C986.179 446.964 987.349 448.184 988.599 449.304C993.569 453.744 999.649 454.384 1005.16 450.614C1015.04 443.864 1024.85 437.004 1034.5 429.944C1039.92 425.984 1045.24 421.804 1050.14 417.224C1059.67 408.314 1065.12 397.104 1067.46 384.304C1067.75 382.704 1067.41 381.714 1066.28 380.594C1058.19 372.604 1050.17 364.534 1042.13 356.494C1041.4 355.764 1040.63 355.054 1039.94 354.274C1038.88 353.064 1038.89 351.734 1039.88 350.744C1040.82 349.804 1042.23 349.834 1043.42 350.844C1043.79 351.164 1044.13 351.524 1044.48 351.874C1051.94 359.334 1059.41 366.794 1066.87 374.264C1067.29 374.684 1067.73 375.074 1068.29 375.614L1068.28 375.604ZM966.089 447.994C966.249 448.154 966.399 448.324 966.559 448.484C968.059 448.084 969.629 447.854 971.039 447.244C981.119 442.924 990.029 436.784 998.289 429.644C1000.28 427.924 1001.61 425.734 1001.72 422.994C1001.86 419.074 999.219 415.194 995.319 413.554C991.739 412.044 987.919 412.904 984.989 416.264C977.789 424.534 971.619 433.504 967.309 443.644C966.729 445.014 966.499 446.534 966.099 447.994H966.089ZM942.679 425.064C943.749 424.924 944.379 424.984 944.889 424.764C948.289 423.324 951.659 421.794 955.069 420.364C956.409 419.804 956.909 419.024 956.779 417.504C956.499 414.444 957.079 411.444 958.699 408.844C962.049 403.474 965.579 398.214 969.039 392.924C969.659 391.974 970.329 391.054 971.009 390.054C970.689 389.884 970.519 389.734 970.319 389.694C969.999 389.614 969.669 389.594 969.349 389.564C966.189 389.284 963.629 390.664 961.679 392.914C954.459 401.244 948.219 410.234 943.929 420.464C943.369 421.794 943.159 423.264 942.679 425.064ZM989.579 471.944C991.489 471.384 993.149 471.084 994.659 470.434C1004.54 466.204 1013.25 460.114 1021.39 453.184C1023.07 451.754 1024.46 449.994 1024.83 447.744C1025.04 446.444 1024.87 445.074 1024.87 443.404C1023.94 444.024 1023.44 444.354 1022.95 444.684C1017.96 448.024 1012.98 451.394 1007.98 454.714C1005.54 456.334 1002.8 457.974 999.959 457.634C995.419 457.104 993.719 459.654 992.339 463.074C992.279 463.224 992.189 463.364 992.119 463.514C991.049 466.064 989.689 468.514 989.599 471.954L989.579 471.944Z" fill="white"/>
<path d="M1048.49 389.504C1048.58 402.394 1038.07 412.944 1025.08 413.004C1012.15 413.074 1001.64 402.614 1001.58 389.614C1001.51 376.694 1011.97 366.174 1024.97 366.094C1037.85 366.014 1048.41 376.514 1048.49 389.504ZM1024.79 408.084C1034.99 408.284 1043.36 400.114 1043.57 389.754C1043.78 379.614 1035.51 371.194 1025.18 371.014C1015.08 370.844 1006.75 378.994 1006.51 389.284C1006.27 399.474 1014.45 407.884 1024.8 408.084H1024.79Z" fill="white"/>
<path d="M1025.07 403.154C1017.57 403.204 1011.4 397.044 1011.43 389.534C1011.46 382.074 1017.49 376.024 1024.97 375.964C1032.42 375.904 1038.66 382.134 1038.62 389.594C1038.58 397.064 1032.55 403.094 1025.07 403.144V403.154ZM1024.99 398.234C1029.78 398.254 1033.64 394.444 1033.7 389.644C1033.76 384.824 1029.79 380.854 1024.97 380.894C1020.17 380.934 1016.35 384.784 1016.35 389.584C1016.35 394.384 1020.18 398.224 1024.98 398.244L1024.99 398.234Z" fill="white"/>
</g>
<defs>
<filter id="filter0_b_142_647" x="476.456" y="240.976" width="318.382" height="366.161" filterUnits="userSpaceOnUse" color-interpolation-filters="sRGB">
<feFlood flood-opacity="0" result="BackgroundImageFix"/>
<feGaussianBlur in="BackgroundImageFix" stdDeviation="2"/>
<feComposite in2="SourceAlpha" operator="in" result="effect1_backgroundBlur_142_647"/>
<feBlend mode="normal" in="SourceGraphic" in2="effect1_backgroundBlur_142_647" result="shape"/>
</filter>
<filter id="filter1_b_142_647" x="128.058" y="289.69" width="278" height="258" filterUnits="userSpaceOnUse" color-interpolation-filters="sRGB">
<feFlood flood-opacity="0" result="BackgroundImageFix"/>
<feGaussianBlur in="BackgroundImageFix" stdDeviation="2"/>
<feComposite in2="SourceAlpha" operator="in" result="effect1_backgroundBlur_142_647"/>
<feBlend mode="normal" in="SourceGraphic" in2="effect1_backgroundBlur_142_647" result="shape"/>
</filter>
<filter id="filter2_b_142_647" x="853.923" y="289.69" width="278" height="258" filterUnits="userSpaceOnUse" color-interpolation-filters="sRGB">
<feFlood flood-opacity="0" result="BackgroundImageFix"/>
<feGaussianBlur in="BackgroundImageFix" stdDeviation="2"/>
<feComposite in2="SourceAlpha" operator="in" result="effect1_backgroundBlur_142_647"/>
<feBlend mode="normal" in="SourceGraphic" in2="effect1_backgroundBlur_142_647" result="shape"/>
</filter>
<filter id="filter3_b_142_647" x="476.456" y="239.588" width="318.382" height="367.548" filterUnits="userSpaceOnUse" color-interpolation-filters="sRGB">
<feFlood flood-opacity="0" result="BackgroundImageFix"/>
<feGaussianBlur in="BackgroundImageFix" stdDeviation="2"/>
<feComposite in2="SourceAlpha" operator="in" result="effect1_backgroundBlur_142_647"/>
<feBlend mode="normal" in="SourceGraphic" in2="effect1_backgroundBlur_142_647" result="shape"/>
</filter>
<linearGradient id="paint0_linear_142_647" x1="470.695" y1="265.308" x2="835.435" y2="483.84" gradientUnits="userSpaceOnUse">
<stop stop-color="#D9D9D9"/>
<stop offset="1" stop-color="#D9D9D9" stop-opacity="0"/>
</linearGradient>
<linearGradient id="paint1_linear_142_647" x1="123.567" y1="307.882" x2="400.403" y2="514.591" gradientUnits="userSpaceOnUse">
<stop stop-color="#D9D9D9"/>
<stop offset="1" stop-color="#D9D9D9" stop-opacity="0"/>
</linearGradient>
<linearGradient id="paint2_linear_142_647" x1="849.433" y1="307.882" x2="1126.27" y2="514.591" gradientUnits="userSpaceOnUse">
<stop stop-color="#D9D9D9"/>
<stop offset="1" stop-color="#D9D9D9" stop-opacity="0"/>
</linearGradient>
<radialGradient id="paint3_radial_142_647" cx="0" cy="0" r="1" gradientUnits="userSpaceOnUse" gradientTransform="translate(635.647 673.792) rotate(90) scale(21.3403 174.514)">
<stop stop-color="#E9F2F2"/>
<stop offset="1" stop-color="#6E7273" stop-opacity="0"/>
</radialGradient>
<linearGradient id="paint4_linear_142_647" x1="1259.67" y1="417.961" x2="1201.78" y2="435.851" gradientUnits="userSpaceOnUse">
<stop stop-color="#242A72"/>
<stop offset="0.233" stop-color="#1051E3"/>
<stop offset="0.599" stop-color="#3E91D8"/>
<stop offset="1" stop-color="#02030D"/>
</linearGradient>
<linearGradient id="paint5_linear_142_647" x1="0.518556" y1="438.066" x2="58.4098" y2="420.176" gradientUnits="userSpaceOnUse">
<stop stop-color="#242A72"/>
<stop offset="0.233" stop-color="#1051E3"/>
<stop offset="0.599" stop-color="#3E91D8"/>
<stop offset="1" stop-color="#02030D"/>
</linearGradient>
<linearGradient id="paint6_linear_142_647" x1="626.164" y1="59.8452" x2="403.236" y2="59.8452" gradientUnits="userSpaceOnUse">
<stop stop-color="white" stop-opacity="0"/>
<stop offset="0.515625" stop-color="white"/>
<stop offset="1" stop-color="white" stop-opacity="0"/>
</linearGradient>
<linearGradient id="paint7_linear_142_647" x1="880.183" y1="59.8452" x2="657.255" y2="59.8452" gradientUnits="userSpaceOnUse">
<stop stop-color="white" stop-opacity="0"/>
<stop offset="0.515625" stop-color="white"/>
<stop offset="1" stop-color="white" stop-opacity="0"/>
</linearGradient>
<radialGradient id="paint8_radial_142_647" cx="0" cy="0" r="1" gradientUnits="userSpaceOnUse" gradientTransform="translate(641.717 60.7519) rotate(-23.6607) scale(27.2356 27.3984)">
<stop offset="0.015725" stop-color="#218FF3"/>
<stop offset="0.182292" stop-color="#0A9BEC"/>
<stop offset="0.770833" stop-color="#0E73EE" stop-opacity="0.210191"/>
<stop offset="1" stop-color="#5C9FED" stop-opacity="0"/>
</radialGradient>
<radialGradient id="paint9_radial_142_647" cx="0" cy="0" r="1" gradientUnits="userSpaceOnUse" gradientTransform="translate(641.714 60.6429) rotate(-23.6607) scale(25.6335 25.7868)">
<stop offset="0.015725" stop-color="#218FF3"/>
<stop offset="0.182292" stop-color="#0A9BEC"/>
<stop offset="0.770833" stop-color="#0E73EE" stop-opacity="0.210191"/>
<stop offset="1" stop-color="#5C9FED" stop-opacity="0"/>
</radialGradient>
<clipPath id="clip0_142_647">
<rect width="214" height="164" fill="white" transform="translate(528.646 313.032)"/>
</clipPath>
<clipPath id="clip1_142_647">
<rect width="152" height="152" fill="white" transform="translate(192.058 339.69)"/>
</clipPath>
<clipPath id="clip2_142_647">
<rect width="168.01" height="158.53" fill="white" transform="translate(905.569 340.974)"/>
</clipPath>
</defs>
</svg>
