<svg width="1920" height="1979" viewBox="0 0 1920 1979" fill="none" xmlns="http://www.w3.org/2000/svg">
<path d="M436.297 1654.89C436.3 1654.89 436.303 1654.88 436.304 1654.88C436.306 1654.88 436.307 1654.87 436.307 1654.86C436.307 1654.86 436.306 1654.85 436.304 1654.85C436.303 1654.84 436.3 1654.84 436.297 1654.84C436.285 1654.84 436.283 1654.89 436.297 1654.89Z" fill="#B1BBD8"/>
<path d="M332.402 1075.05C332.405 1075.05 332.408 1075.05 332.41 1075.04C332.412 1075.04 332.413 1075.03 332.413 1075.03C332.413 1075.02 332.412 1075.02 332.41 1075.01C332.408 1075.01 332.405 1075.01 332.402 1075.01C332.4 1075.01 332.397 1075.01 332.395 1075.01C332.393 1075.02 332.392 1075.02 332.392 1075.03C332.392 1075.03 332.393 1075.04 332.395 1075.04C332.397 1075.05 332.4 1075.05 332.402 1075.05Z" fill="#B1BBD8"/>
<path d="M1137.21 1454.57C1137.51 1454.55 1137.81 1454.27 1138.02 1453.81C1138.23 1453.35 1138.35 1452.72 1138.35 1452.08C1138.35 1451.43 1138.23 1450.81 1138.02 1450.35C1137.81 1449.88 1137.51 1449.61 1137.21 1449.59C1136.9 1449.61 1136.61 1449.88 1136.4 1450.35C1136.18 1450.81 1136.06 1451.43 1136.06 1452.08C1136.06 1452.72 1136.18 1453.35 1136.4 1453.81C1136.61 1454.27 1136.9 1454.55 1137.21 1454.57Z" fill="#B1BBD8"/>
<path d="M916.619 1304.06C916.926 1304.04 917.217 1303.77 917.43 1303.31C917.644 1302.84 917.763 1302.22 917.763 1301.58C917.763 1300.93 917.644 1300.31 917.43 1299.84C917.217 1299.38 916.926 1299.11 916.619 1299.09C916.312 1299.11 916.021 1299.38 915.807 1299.84C915.594 1300.31 915.475 1300.93 915.475 1301.58C915.475 1302.22 915.594 1302.84 915.807 1303.31C916.021 1303.77 916.312 1304.04 916.619 1304.06Z" fill="#B1BBD8"/>
<path d="M1018.95 1284.26C1019.25 1284.24 1019.54 1283.97 1019.76 1283.5C1019.97 1283.04 1020.09 1282.42 1020.09 1281.77C1020.09 1281.13 1019.97 1280.5 1019.76 1280.04C1019.54 1279.58 1019.25 1279.3 1018.95 1279.28C1018.64 1279.3 1018.35 1279.58 1018.14 1280.04C1017.92 1280.5 1017.8 1281.13 1017.8 1281.77C1017.8 1282.42 1017.92 1283.04 1018.14 1283.5C1018.35 1283.97 1018.64 1284.24 1018.95 1284.26Z" fill="#B1BBD8"/>
<path d="M942.216 999.888C942.522 999.866 942.813 999.595 943.027 999.13C943.24 998.666 943.36 998.045 943.36 997.398C943.36 996.752 943.24 996.131 943.027 995.667C942.813 995.202 942.522 994.93 942.216 994.909C941.909 994.93 941.618 995.202 941.404 995.667C941.191 996.131 941.071 996.752 941.071 997.398C941.071 998.045 941.191 998.666 941.404 999.13C941.618 999.595 941.909 999.866 942.216 999.888Z" fill="#B1BBD8"/>
<path d="M915.113 961.865C915.42 961.843 915.711 961.572 915.924 961.107C916.138 960.643 916.257 960.022 916.257 959.375C916.257 958.729 916.138 958.108 915.924 957.643C915.711 957.179 915.42 956.907 915.113 956.886C914.806 956.907 914.515 957.179 914.302 957.643C914.088 958.108 913.969 958.729 913.969 959.375C913.969 960.022 914.088 960.643 914.302 961.107C914.515 961.572 914.806 961.843 915.113 961.865Z" fill="#B1BBD8"/>
<path d="M1201.7 1498.93C1202.01 1498.9 1202.3 1498.63 1202.51 1498.17C1202.73 1497.7 1202.85 1497.08 1202.85 1496.44C1202.85 1495.79 1202.73 1495.17 1202.51 1494.7C1202.3 1494.24 1202.01 1493.97 1201.7 1493.95C1201.39 1493.97 1201.1 1494.24 1200.89 1494.7C1200.68 1495.17 1200.56 1495.79 1200.56 1496.44C1200.56 1497.08 1200.68 1497.7 1200.89 1498.17C1201.1 1498.63 1201.39 1498.9 1201.7 1498.93Z" fill="#B1BBD8"/>
<path d="M711.966 1267.57C712.273 1267.55 712.564 1267.28 712.777 1266.81C712.991 1266.35 713.11 1265.73 713.11 1265.08C713.11 1264.44 712.991 1263.81 712.777 1263.35C712.564 1262.89 712.273 1262.61 711.966 1262.59C711.659 1262.61 711.368 1262.89 711.155 1263.35C710.941 1263.81 710.822 1264.44 710.822 1265.08C710.822 1265.73 710.941 1266.35 711.155 1266.81C711.368 1267.28 711.659 1267.55 711.966 1267.57Z" fill="#B1BBD8"/>
<path d="M758.807 1131.8C759.114 1131.78 759.405 1131.51 759.618 1131.05C759.832 1130.58 759.951 1129.96 759.951 1129.31C759.951 1128.67 759.832 1128.05 759.618 1127.58C759.405 1127.12 759.114 1126.85 758.807 1126.82C758.5 1126.85 758.209 1127.12 757.995 1127.58C757.782 1128.05 757.663 1128.67 757.663 1129.31C757.663 1129.96 757.782 1130.58 757.995 1131.05C758.209 1131.51 758.5 1131.78 758.807 1131.8Z" fill="#B1BBD8"/>
<path d="M1678.51 969.875C1678.82 969.853 1679.11 969.581 1679.32 969.117C1679.54 968.652 1679.65 968.031 1679.65 967.385C1679.65 966.739 1679.54 966.118 1679.32 965.653C1679.11 965.189 1678.82 964.917 1678.51 964.895C1678.2 964.917 1677.91 965.189 1677.7 965.653C1677.49 966.118 1677.37 966.739 1677.37 967.385C1677.37 968.031 1677.49 968.652 1677.7 969.117C1677.91 969.581 1678.2 969.853 1678.51 969.875Z" fill="#B1BBD8"/>
<path d="M1159.63 1260.12C1159.94 1260.1 1160.23 1259.83 1160.44 1259.37C1160.66 1258.9 1160.77 1258.28 1160.77 1257.63C1160.77 1256.99 1160.66 1256.37 1160.44 1255.9C1160.23 1255.44 1159.94 1255.17 1159.63 1255.15C1159.32 1255.17 1159.03 1255.44 1158.82 1255.9C1158.61 1256.37 1158.49 1256.99 1158.49 1257.63C1158.49 1258.28 1158.61 1258.9 1158.82 1259.37C1159.03 1259.83 1159.32 1260.1 1159.63 1260.12Z" fill="#B1BBD8"/>
<path d="M601.925 936.518C602.232 936.496 602.523 936.224 602.736 935.76C602.95 935.295 603.069 934.674 603.069 934.028C603.069 933.382 602.95 932.761 602.736 932.296C602.523 931.832 602.232 931.56 601.925 931.538C601.618 931.56 601.327 931.832 601.114 932.296C600.9 932.761 600.781 933.382 600.781 934.028C600.781 934.674 600.9 935.295 601.114 935.76C601.327 936.224 601.618 936.496 601.925 936.518Z" fill="#B1BBD8"/>
<path d="M751.693 1382.37C752 1382.35 752.29 1382.08 752.504 1381.61C752.717 1381.15 752.837 1380.53 752.837 1379.88C752.837 1379.24 752.717 1378.61 752.504 1378.15C752.29 1377.69 752 1377.41 751.693 1377.39C751.386 1377.41 751.095 1377.69 750.881 1378.15C750.668 1378.61 750.548 1379.24 750.548 1379.88C750.548 1380.53 750.668 1381.15 750.881 1381.61C751.095 1382.08 751.386 1382.35 751.693 1382.37Z" fill="#B1BBD8"/>
<path d="M594.395 1053.75C594.702 1053.73 594.993 1053.46 595.207 1052.99C595.42 1052.53 595.539 1051.91 595.539 1051.26C595.539 1050.62 595.42 1050 595.207 1049.53C594.993 1049.07 594.702 1048.79 594.395 1048.77C594.088 1048.79 593.797 1049.07 593.584 1049.53C593.37 1050 593.251 1050.62 593.251 1051.26C593.251 1051.91 593.37 1052.53 593.584 1052.99C593.797 1053.46 594.088 1053.73 594.395 1053.75Z" fill="#B1BBD8"/>
<path d="M501.041 1091.78C501.348 1091.75 501.639 1091.48 501.853 1091.02C502.066 1090.55 502.185 1089.93 502.185 1089.29C502.185 1088.64 502.066 1088.02 501.853 1087.55C501.639 1087.09 501.348 1086.82 501.041 1086.8C500.734 1086.82 500.443 1087.09 500.23 1087.55C500.016 1088.02 499.897 1088.64 499.897 1089.29C499.897 1089.93 500.016 1090.55 500.23 1091.02C500.443 1091.48 500.734 1091.75 501.041 1091.78Z" fill="#B1BBD8"/>
<path d="M836.914 1021.21C837.221 1021.18 837.512 1020.91 837.725 1020.45C837.939 1019.98 838.058 1019.36 838.058 1018.72C838.058 1018.07 837.939 1017.45 837.725 1016.98C837.512 1016.52 837.221 1016.25 836.914 1016.23C836.607 1016.25 836.316 1016.52 836.102 1016.98C835.889 1017.45 835.77 1018.07 835.77 1018.72C835.77 1019.36 835.889 1019.98 836.102 1020.45C836.316 1020.91 836.607 1021.18 836.914 1021.21Z" fill="#B1BBD8"/>
<path d="M535.674 1297.73C535.98 1297.71 536.271 1297.43 536.485 1296.97C536.698 1296.5 536.818 1295.88 536.818 1295.24C536.818 1294.59 536.698 1293.97 536.485 1293.51C536.271 1293.04 535.98 1292.77 535.674 1292.75C535.367 1292.77 535.076 1293.04 534.862 1293.51C534.649 1293.97 534.529 1294.59 534.529 1295.24C534.529 1295.88 534.649 1296.5 534.862 1296.97C535.076 1297.43 535.367 1297.71 535.674 1297.73Z" fill="#B1BBD8"/>
<path d="M1640.12 1183.57C1640.13 1183.57 1640.13 1183.53 1640.12 1183.53C1640.11 1183.53 1640.11 1183.53 1640.11 1183.53C1640.11 1183.53 1640.11 1183.53 1640.11 1183.53C1640.11 1183.54 1640.11 1183.54 1640.11 1183.54C1640.11 1183.54 1640.11 1183.55 1640.11 1183.55C1640.11 1183.55 1640.11 1183.55 1640.11 1183.56C1640.11 1183.56 1640.11 1183.56 1640.11 1183.56C1640.11 1183.57 1640.11 1183.57 1640.11 1183.57C1640.11 1183.57 1640.11 1183.57 1640.12 1183.57Z" fill="#B1BBD8"/>
<path d="M1760.57 1081.48C1760.88 1081.46 1761.17 1081.18 1761.38 1080.72C1761.6 1080.26 1761.72 1079.63 1761.72 1078.99C1761.72 1078.34 1761.6 1077.72 1761.38 1077.26C1761.17 1076.79 1760.88 1076.52 1760.57 1076.5C1760.26 1076.52 1759.97 1076.79 1759.76 1077.26C1759.55 1077.72 1759.43 1078.34 1759.43 1078.99C1759.43 1079.63 1759.55 1080.26 1759.76 1080.72C1759.97 1081.18 1760.26 1081.46 1760.57 1081.48Z" fill="#B1BBD8"/>
<path d="M1857.69 752.916C1858 752.895 1858.29 752.623 1858.5 752.158C1858.72 751.694 1858.83 751.073 1858.83 750.427C1858.83 749.78 1858.72 749.159 1858.5 748.695C1858.29 748.23 1858 747.959 1857.69 747.937C1857.38 747.959 1857.09 748.23 1856.88 748.695C1856.67 749.159 1856.55 749.78 1856.55 750.427C1856.55 751.073 1856.67 751.694 1856.88 752.158C1857.09 752.623 1857.38 752.895 1857.69 752.916Z" fill="#B1BBD8"/>
<path d="M1656.14 1217.4C1656.45 1217.37 1656.74 1217.1 1656.96 1216.64C1657.17 1216.17 1657.29 1215.55 1657.29 1214.91C1657.29 1214.26 1657.17 1213.64 1656.96 1213.17C1656.74 1212.71 1656.45 1212.44 1656.14 1212.42C1655.84 1212.44 1655.55 1212.71 1655.33 1213.17C1655.12 1213.64 1655 1214.26 1655 1214.91C1655 1215.55 1655.12 1216.17 1655.33 1216.64C1655.55 1217.1 1655.84 1217.37 1656.14 1217.4Z" fill="#B1BBD8"/>
<path d="M1763.58 933.258C1763.59 933.258 1763.59 933.255 1763.59 933.251C1763.59 933.247 1763.59 933.242 1763.59 933.236C1763.59 933.23 1763.59 933.225 1763.59 933.221C1763.59 933.217 1763.59 933.214 1763.58 933.214C1763.57 933.214 1763.57 933.258 1763.58 933.258Z" fill="#B1BBD8"/>
<path d="M1637.1 936.427C1637.12 936.427 1637.12 936.384 1637.1 936.384C1637.1 936.384 1637.1 936.386 1637.1 936.39C1637.09 936.394 1637.09 936.4 1637.09 936.406C1637.09 936.411 1637.09 936.417 1637.1 936.421C1637.1 936.425 1637.1 936.427 1637.1 936.427Z" fill="#B1BBD8"/>
<path d="M1564.83 1106.82C1565.14 1106.8 1565.43 1106.53 1565.64 1106.07C1565.85 1105.6 1565.97 1104.98 1565.97 1104.34C1565.97 1103.69 1565.85 1103.07 1565.64 1102.6C1565.43 1102.14 1565.14 1101.87 1564.83 1101.85C1564.52 1101.87 1564.23 1102.14 1564.02 1102.6C1563.8 1103.07 1563.69 1103.69 1563.69 1104.34C1563.69 1104.98 1563.8 1105.6 1564.02 1106.07C1564.23 1106.53 1564.52 1106.8 1564.83 1106.82Z" fill="#B1BBD8"/>
<path d="M1602.47 1382.48C1602.78 1382.46 1603.07 1382.19 1603.28 1381.73C1603.5 1381.26 1603.62 1380.64 1603.62 1380C1603.62 1379.35 1603.5 1378.73 1603.28 1378.26C1603.07 1377.8 1602.78 1377.53 1602.47 1377.51C1602.16 1377.53 1601.87 1377.8 1601.66 1378.26C1601.45 1378.73 1601.33 1379.35 1601.33 1380C1601.33 1380.64 1601.45 1381.26 1601.66 1381.73C1601.87 1382.19 1602.16 1382.46 1602.47 1382.48Z" fill="#B1BBD8"/>
<path d="M1518.24 1331.42C1518.54 1331.4 1518.83 1331.12 1519.05 1330.66C1519.26 1330.2 1519.38 1329.57 1519.38 1328.93C1519.38 1328.28 1519.26 1327.66 1519.05 1327.2C1518.83 1326.73 1518.54 1326.46 1518.24 1326.44C1517.93 1326.46 1517.64 1326.73 1517.42 1327.2C1517.21 1327.66 1517.09 1328.28 1517.09 1328.93C1517.09 1329.57 1517.21 1330.2 1517.42 1330.66C1517.64 1331.12 1517.93 1331.4 1518.24 1331.42Z" fill="#B1BBD8"/>
<path d="M847.356 600.656C847.663 600.634 847.954 600.362 848.168 599.898C848.381 599.433 848.5 598.812 848.5 598.166C848.5 597.52 848.381 596.899 848.168 596.434C847.954 595.97 847.663 595.698 847.356 595.676C847.049 595.698 846.758 595.97 846.545 596.434C846.331 596.899 846.212 597.52 846.212 598.166C846.212 598.812 846.331 599.433 846.545 599.898C846.758 600.362 847.049 600.634 847.356 600.656Z" fill="#B1BBD8"/>
<path d="M913.607 328.869C913.61 328.869 913.612 328.867 913.614 328.863C913.616 328.859 913.617 328.853 913.617 328.848C913.617 328.842 913.616 328.836 913.614 328.832C913.612 328.828 913.61 328.826 913.607 328.826C913.604 328.826 913.602 328.828 913.6 328.832C913.598 328.836 913.597 328.842 913.597 328.848C913.597 328.853 913.598 328.859 913.6 328.863C913.602 328.867 913.604 328.869 913.607 328.869Z" fill="#B1BBD8"/>
<path d="M1798.21 764.625C1798.52 764.604 1798.81 764.332 1799.02 763.867C1799.24 763.403 1799.36 762.782 1799.36 762.135C1799.36 761.489 1799.24 760.868 1799.02 760.404C1798.81 759.939 1798.52 759.667 1798.21 759.646C1797.91 759.667 1797.62 759.939 1797.4 760.404C1797.19 760.868 1797.07 761.489 1797.07 762.135C1797.07 762.782 1797.19 763.403 1797.4 763.867C1797.62 764.332 1797.91 764.604 1798.21 764.625Z" fill="#B1BBD8"/>
<path d="M1455.66 293.311C1455.97 293.289 1456.26 293.017 1456.48 292.553C1456.69 292.088 1456.81 291.467 1456.81 290.821C1456.81 290.175 1456.69 289.554 1456.48 289.089C1456.26 288.625 1455.97 288.353 1455.66 288.331C1455.36 288.353 1455.07 288.625 1454.85 289.089C1454.64 289.554 1454.52 290.175 1454.52 290.821C1454.52 291.467 1454.64 292.088 1454.85 292.553C1455.07 293.017 1455.36 293.289 1455.66 293.311Z" fill="#B1BBD8"/>
<path d="M1715.4 803.347C1715.4 803.347 1715.41 803.345 1715.41 803.341C1715.41 803.337 1715.41 803.332 1715.41 803.326C1715.41 803.32 1715.41 803.315 1715.41 803.311C1715.41 803.307 1715.4 803.304 1715.4 803.304C1715.39 803.304 1715.39 803.347 1715.4 803.347Z" fill="#B1BBD8"/>
<path d="M791.646 243.32C791.649 243.32 791.651 243.318 791.653 243.314C791.655 243.31 791.656 243.304 791.656 243.298C791.656 243.293 791.655 243.287 791.653 243.283C791.651 243.279 791.649 243.277 791.646 243.277C791.643 243.277 791.641 243.279 791.639 243.283C791.637 243.287 791.636 243.293 791.636 243.298C791.636 243.304 791.637 243.31 791.639 243.314C791.641 243.318 791.643 243.32 791.646 243.32Z" fill="#B1BBD8"/>
<path d="M647.097 414.417C647.099 414.417 647.102 414.415 647.104 414.411C647.106 414.407 647.107 414.401 647.107 414.395C647.107 414.39 647.106 414.384 647.104 414.38C647.102 414.376 647.099 414.374 647.097 414.374C647.094 414.374 647.091 414.376 647.089 414.38C647.088 414.384 647.086 414.39 647.086 414.395C647.086 414.401 647.088 414.407 647.089 414.411C647.091 414.415 647.094 414.417 647.097 414.417Z" fill="#B1BBD8"/>
<path d="M540.19 324.996C540.497 324.974 540.788 324.703 541.001 324.238C541.215 323.773 541.334 323.153 541.334 322.506C541.334 321.86 541.215 321.239 541.001 320.774C540.788 320.31 540.497 320.038 540.19 320.017C539.883 320.038 539.592 320.31 539.378 320.774C539.165 321.239 539.045 321.86 539.045 322.506C539.045 323.153 539.165 323.773 539.378 324.238C539.592 324.703 539.883 324.974 540.19 324.996Z" fill="#B1BBD8"/>
<path d="M416.719 451.736C417.026 451.715 417.317 451.443 417.53 450.978C417.744 450.514 417.863 449.893 417.863 449.247C417.863 448.6 417.744 447.979 417.53 447.515C417.317 447.05 417.026 446.779 416.719 446.757C416.412 446.779 416.121 447.05 415.908 447.515C415.694 447.979 415.575 448.6 415.575 449.247C415.575 449.893 415.694 450.514 415.908 450.978C416.121 451.443 416.412 451.715 416.719 451.736Z" fill="#B1BBD8"/>
<path d="M53.0914 1978.49C53.0941 1978.49 53.0967 1978.49 53.0986 1978.49C53.1006 1978.48 53.1017 1978.48 53.1017 1978.47C53.1017 1978.47 53.1006 1978.46 53.0986 1978.46C53.0967 1978.45 53.0941 1978.45 53.0914 1978.45C53.0886 1978.45 53.086 1978.45 53.0841 1978.46C53.0821 1978.46 53.0811 1978.47 53.0811 1978.47C53.0811 1978.48 53.0821 1978.48 53.0841 1978.49C53.086 1978.49 53.0886 1978.49 53.0914 1978.49Z" fill="#B1BBD8"/>
<path d="M20.7198 1295.37C20.7225 1295.37 20.7251 1295.37 20.7271 1295.36C20.729 1295.36 20.7301 1295.35 20.7301 1295.35C20.7301 1295.34 20.729 1295.34 20.7271 1295.33C20.7251 1295.33 20.7225 1295.33 20.7198 1295.33C20.717 1295.33 20.7144 1295.33 20.7125 1295.33C20.7106 1295.34 20.7095 1295.34 20.7095 1295.35C20.7095 1295.35 20.7106 1295.36 20.7125 1295.36C20.7144 1295.37 20.717 1295.37 20.7198 1295.37Z" fill="#B1BBD8"/>
<path d="M218.72 1260.12C219.027 1260.1 219.318 1259.83 219.532 1259.37C219.745 1258.9 219.865 1258.28 219.865 1257.63C219.865 1256.99 219.745 1256.37 219.532 1255.9C219.318 1255.44 219.027 1255.17 218.72 1255.15C218.413 1255.17 218.123 1255.44 217.909 1255.9C217.696 1256.37 217.576 1256.99 217.576 1257.63C217.576 1258.28 217.696 1258.9 217.909 1259.37C218.123 1259.83 218.413 1260.1 218.72 1260.12Z" fill="#B1BBD8"/>
<path d="M211.191 1377.36C211.498 1377.34 211.789 1377.07 212.002 1376.6C212.216 1376.14 212.335 1375.52 212.335 1374.87C212.335 1374.22 212.216 1373.6 212.002 1373.14C211.789 1372.67 211.498 1372.4 211.191 1372.38C210.884 1372.4 210.593 1372.67 210.38 1373.14C210.166 1373.6 210.047 1374.22 210.047 1374.87C210.047 1375.52 210.166 1376.14 210.38 1376.6C210.593 1377.07 210.884 1377.34 211.191 1377.36Z" fill="#B1BBD8"/>
<path d="M117.838 1415.38C118.145 1415.36 118.436 1415.09 118.649 1414.62C118.863 1414.16 118.982 1413.54 118.982 1412.89C118.982 1412.25 118.863 1411.62 118.649 1411.16C118.436 1410.7 118.145 1410.42 117.838 1410.4C117.531 1410.42 117.24 1410.7 117.027 1411.16C116.813 1411.62 116.694 1412.25 116.694 1412.89C116.694 1413.54 116.813 1414.16 117.027 1414.62C117.24 1415.09 117.531 1415.36 117.838 1415.38Z" fill="#B1BBD8"/>
<path d="M152.468 1621.33C152.775 1621.31 153.066 1621.04 153.279 1620.58C153.493 1620.11 153.612 1619.49 153.612 1618.84C153.612 1618.2 153.493 1617.58 153.279 1617.11C153.066 1616.65 152.775 1616.38 152.468 1616.35C152.161 1616.38 151.87 1616.65 151.657 1617.11C151.443 1617.58 151.324 1618.2 151.324 1618.84C151.324 1619.49 151.443 1620.11 151.657 1620.58C151.87 1621.04 152.161 1621.31 152.468 1621.33Z" fill="#B1BBD8"/>
<path d="M263.893 738.025C263.896 738.025 263.898 738.023 263.9 738.019C263.902 738.015 263.903 738.009 263.903 738.004C263.903 737.998 263.902 737.993 263.9 737.989C263.898 737.984 263.896 737.982 263.893 737.982C263.89 737.982 263.888 737.984 263.886 737.989C263.884 737.993 263.883 737.998 263.883 738.004C263.883 738.009 263.884 738.015 263.886 738.019C263.888 738.023 263.89 738.025 263.893 738.025Z" fill="#B1BBD8"/>
<path d="M156.986 648.608C157.293 648.587 157.584 648.315 157.797 647.851C158.011 647.386 158.13 646.765 158.13 646.119C158.13 645.472 158.011 644.852 157.797 644.387C157.584 643.922 157.293 643.651 156.986 643.629C156.679 643.651 156.388 643.922 156.175 644.387C155.961 644.852 155.842 645.472 155.842 646.119C155.842 646.765 155.961 647.386 156.175 647.851C156.388 648.315 156.679 648.587 156.986 648.608Z" fill="#B1BBD8"/>
<path d="M33.5178 775.345C33.8247 775.323 34.1156 775.051 34.3291 774.587C34.5426 774.122 34.662 773.501 34.662 772.855C34.662 772.209 34.5426 771.588 34.3291 771.123C34.1156 770.659 33.8247 770.387 33.5178 770.365C33.2108 770.387 32.9199 770.659 32.7064 771.123C32.4929 771.588 32.3735 772.209 32.3735 772.855C32.3735 773.501 32.4929 774.122 32.7064 774.587C32.9199 775.051 33.2108 775.323 33.5178 775.345Z" fill="#B1BBD8"/>
<path d="M1195.18 915.924C1195.48 915.903 1195.77 915.631 1195.99 915.166C1196.2 914.702 1196.32 914.081 1196.32 913.435C1196.32 912.788 1196.2 912.167 1195.99 911.703C1195.77 911.238 1195.48 910.966 1195.18 910.945C1194.87 910.966 1194.58 911.238 1194.37 911.703C1194.15 912.167 1194.03 912.788 1194.03 913.435C1194.03 914.081 1194.15 914.702 1194.37 915.166C1194.58 915.631 1194.87 915.903 1195.18 915.924Z" fill="#B1BBD8"/>
<path d="M1691.31 1387.23C1691.62 1387.21 1691.91 1386.95 1692.13 1386.48C1692.34 1386.02 1692.46 1385.39 1692.46 1384.74C1692.46 1384.09 1692.34 1383.47 1692.13 1383C1691.91 1382.54 1691.62 1382.27 1691.31 1382.25C1691 1382.27 1690.71 1382.54 1690.49 1383C1690.28 1383.47 1690.15 1384.09 1690.15 1384.74C1690.15 1385.39 1690.28 1386.02 1690.49 1386.48C1690.71 1386.95 1691 1387.21 1691.31 1387.23Z" fill="#B1BBD8"/>
<path d="M1676.69 1209.22C1676.99 1209.2 1677.28 1208.93 1677.5 1208.46C1677.71 1208 1677.83 1207.38 1677.83 1206.73C1677.83 1206.09 1677.71 1205.46 1677.5 1205C1677.28 1204.54 1676.99 1204.26 1676.69 1204.24C1676.38 1204.26 1676.09 1204.54 1675.87 1205C1675.66 1205.46 1675.54 1206.09 1675.54 1206.73C1675.54 1207.38 1675.66 1208 1675.87 1208.46C1676.09 1208.93 1676.38 1209.2 1676.69 1209.22Z" fill="#B1BBD8"/>
<path d="M1812.52 954.365C1812.83 954.344 1813.12 954.072 1813.33 953.607C1813.54 953.143 1813.66 952.522 1813.66 951.875C1813.66 951.229 1813.54 950.608 1813.33 950.144C1813.12 949.679 1812.83 949.407 1812.52 949.386C1812.21 949.407 1811.92 949.679 1811.71 950.144C1811.49 950.608 1811.37 951.229 1811.37 951.875C1811.37 952.522 1811.49 953.143 1811.71 953.607C1811.92 954.072 1812.21 954.344 1812.52 954.365Z" fill="#B1BBD8"/>
<path d="M1673.24 1284.26C1673.55 1284.24 1673.84 1283.97 1674.05 1283.5C1674.26 1283.04 1674.38 1282.42 1674.38 1281.77C1674.38 1281.13 1674.26 1280.5 1674.05 1280.04C1673.84 1279.58 1673.55 1279.3 1673.24 1279.28C1672.93 1279.3 1672.64 1279.58 1672.43 1280.04C1672.22 1280.5 1672.1 1281.13 1672.1 1281.77C1672.1 1282.42 1672.22 1283.04 1672.43 1283.5C1672.64 1283.97 1672.93 1284.24 1673.24 1284.26Z" fill="#B1BBD8"/>
<path d="M1642.32 1254.01C1642.62 1253.99 1642.92 1253.72 1643.13 1253.26C1643.34 1252.79 1643.46 1252.17 1643.46 1251.52C1643.46 1250.88 1643.34 1250.26 1643.13 1249.79C1642.92 1249.33 1642.62 1249.06 1642.32 1249.03C1642.01 1249.06 1641.72 1249.33 1641.51 1249.79C1641.29 1250.26 1641.17 1250.88 1641.17 1251.52C1641.17 1252.17 1641.29 1252.79 1641.51 1253.26C1641.72 1253.72 1642.01 1253.99 1642.32 1254.01Z" fill="#B1BBD8"/>
<path d="M1584.11 1317.61C1584.41 1317.59 1584.7 1317.32 1584.92 1316.86C1585.13 1316.39 1585.25 1315.77 1585.25 1315.12C1585.25 1314.48 1585.13 1313.86 1584.92 1313.39C1584.7 1312.93 1584.41 1312.66 1584.11 1312.63C1583.8 1312.66 1583.51 1312.93 1583.29 1313.39C1583.08 1313.86 1582.96 1314.48 1582.96 1315.12C1582.96 1315.77 1583.08 1316.39 1583.29 1316.86C1583.51 1317.32 1583.8 1317.59 1584.11 1317.61Z" fill="#B1BBD8"/>
<path d="M1694.43 1172.91C1694.74 1172.89 1695.03 1172.62 1695.24 1172.16C1695.46 1171.69 1695.57 1171.07 1695.57 1170.42C1695.57 1169.78 1695.46 1169.16 1695.24 1168.69C1695.03 1168.23 1694.74 1167.96 1694.43 1167.93C1694.12 1167.96 1693.83 1168.23 1693.62 1168.69C1693.41 1169.16 1693.29 1169.78 1693.29 1170.42C1693.29 1171.07 1693.41 1171.69 1693.62 1172.16C1693.83 1172.62 1694.12 1172.89 1694.43 1172.91Z" fill="#B1BBD8"/>
<path d="M1728.91 1070.02C1729.22 1070 1729.51 1069.72 1729.72 1069.26C1729.94 1068.8 1730.06 1068.17 1730.06 1067.53C1730.06 1066.88 1729.94 1066.26 1729.72 1065.8C1729.51 1065.33 1729.22 1065.06 1728.91 1065.04C1728.61 1065.06 1728.32 1065.33 1728.1 1065.8C1727.89 1066.26 1727.77 1066.88 1727.77 1067.53C1727.77 1068.17 1727.89 1068.8 1728.1 1069.26C1728.32 1069.72 1728.61 1070 1728.91 1070.02Z" fill="#B1BBD8"/>
<path d="M1721.14 1171.41C1721.45 1171.39 1721.74 1171.12 1721.96 1170.65C1722.17 1170.19 1722.29 1169.57 1722.29 1168.92C1722.29 1168.27 1722.17 1167.65 1721.96 1167.19C1721.74 1166.72 1721.45 1166.45 1721.14 1166.43C1720.84 1166.45 1720.55 1166.72 1720.33 1167.19C1720.12 1167.65 1720 1168.27 1720 1168.92C1720 1169.57 1720.12 1170.19 1720.33 1170.65C1720.55 1171.12 1720.84 1171.39 1721.14 1171.41Z" fill="#B1BBD8"/>
<path d="M1642.37 1311.19C1642.68 1311.17 1642.97 1310.9 1643.18 1310.43C1643.4 1309.97 1643.52 1309.35 1643.52 1308.7C1643.52 1308.06 1643.4 1307.44 1643.18 1306.97C1642.97 1306.51 1642.68 1306.23 1642.37 1306.21C1642.07 1306.23 1641.77 1306.51 1641.56 1306.97C1641.35 1307.44 1641.23 1308.06 1641.23 1308.7C1641.23 1309.35 1641.35 1309.97 1641.56 1310.43C1641.77 1310.9 1642.07 1311.17 1642.37 1311.19Z" fill="#B1BBD8"/>
<path d="M1554.15 1365.85C1554.46 1365.83 1554.75 1365.56 1554.97 1365.09C1555.18 1364.63 1555.3 1364.01 1555.3 1363.36C1555.3 1362.71 1555.18 1362.09 1554.97 1361.63C1554.75 1361.16 1554.46 1360.89 1554.15 1360.87C1553.85 1360.89 1553.56 1361.16 1553.34 1361.63C1553.13 1362.09 1553.01 1362.71 1553.01 1363.36C1553.01 1364.01 1553.13 1364.63 1553.34 1365.09C1553.56 1365.56 1553.85 1365.83 1554.15 1365.85Z" fill="#B1BBD8"/>
<path d="M1426.1 1512.74C1426.41 1512.72 1426.7 1512.44 1426.91 1511.98C1427.13 1511.51 1427.24 1510.89 1427.24 1510.25C1427.24 1509.6 1427.13 1508.98 1426.91 1508.52C1426.7 1508.05 1426.41 1507.78 1426.1 1507.76C1425.79 1507.78 1425.5 1508.05 1425.29 1508.52C1425.08 1508.98 1424.96 1509.6 1424.96 1510.25C1424.96 1510.89 1425.08 1511.51 1425.29 1511.98C1425.5 1512.44 1425.79 1512.72 1426.1 1512.74Z" fill="#B1BBD8"/>
<path d="M1647.64 1270C1647.95 1269.98 1648.24 1269.71 1648.45 1269.24C1648.67 1268.78 1648.79 1268.16 1648.79 1267.51C1648.79 1266.86 1648.67 1266.24 1648.45 1265.78C1648.24 1265.31 1647.95 1265.04 1647.64 1265.02C1647.34 1265.04 1647.05 1265.31 1646.83 1265.78C1646.62 1266.24 1646.5 1266.86 1646.5 1267.51C1646.5 1268.16 1646.62 1268.78 1646.83 1269.24C1647.05 1269.71 1647.34 1269.98 1647.64 1270Z" fill="#B1BBD8"/>
<path d="M1735.23 1118.34C1735.53 1118.32 1735.82 1118.05 1736.04 1117.58C1736.25 1117.12 1736.37 1116.5 1736.37 1115.85C1736.37 1115.2 1736.25 1114.58 1736.04 1114.12C1735.82 1113.65 1735.53 1113.38 1735.23 1113.36C1734.92 1113.38 1734.63 1113.65 1734.41 1114.12C1734.2 1114.58 1734.08 1115.2 1734.08 1115.85C1734.08 1116.5 1734.2 1117.12 1734.41 1117.58C1734.63 1118.05 1734.92 1118.32 1735.23 1118.34Z" fill="#B1BBD8"/>
<path d="M1629.57 1311.19C1629.88 1311.17 1630.17 1310.9 1630.39 1310.43C1630.6 1309.97 1630.72 1309.35 1630.72 1308.7C1630.72 1308.06 1630.6 1307.44 1630.39 1306.97C1630.17 1306.51 1629.88 1306.23 1629.57 1306.21C1629.27 1306.23 1628.98 1306.51 1628.76 1306.97C1628.55 1307.44 1628.43 1308.06 1628.43 1308.7C1628.43 1309.35 1628.55 1309.97 1628.76 1310.43C1628.98 1310.9 1629.27 1311.17 1629.57 1311.19Z" fill="#B1BBD8"/>
<path d="M1596.45 1302.9C1596.76 1302.88 1597.05 1302.61 1597.26 1302.14C1597.48 1301.68 1597.6 1301.06 1597.6 1300.41C1597.6 1299.77 1597.48 1299.14 1597.26 1298.68C1597.05 1298.22 1596.76 1297.94 1596.45 1297.92C1596.14 1297.94 1595.85 1298.22 1595.64 1298.68C1595.43 1299.14 1595.31 1299.77 1595.31 1300.41C1595.31 1301.06 1595.43 1301.68 1595.64 1302.14C1595.85 1302.61 1596.14 1302.88 1596.45 1302.9Z" fill="#B1BBD8"/>
<path d="M1119.89 991.966C1120.2 991.944 1120.49 991.673 1120.7 991.208C1120.92 990.743 1121.04 990.122 1121.04 989.476C1121.04 988.83 1120.92 988.209 1120.7 987.744C1120.49 987.28 1120.2 987.008 1119.89 986.987C1119.58 987.008 1119.29 987.28 1119.08 987.744C1118.87 988.209 1118.75 988.83 1118.75 989.476C1118.75 990.122 1118.87 990.743 1119.08 991.208C1119.29 991.673 1119.58 991.944 1119.89 991.966Z" fill="#B1BBD8"/>
<path d="M1128.92 922.258C1129.23 922.236 1129.52 921.965 1129.74 921.5C1129.95 921.035 1130.07 920.414 1130.07 919.768C1130.07 919.122 1129.95 918.501 1129.74 918.036C1129.52 917.572 1129.23 917.3 1128.92 917.279C1128.62 917.3 1128.33 917.572 1128.11 918.036C1127.9 918.501 1127.78 919.122 1127.78 919.768C1127.78 920.414 1127.9 921.035 1128.11 921.5C1128.33 921.965 1128.62 922.236 1128.92 922.258Z" fill="#B1BBD8"/>
<path d="M1170.33 1029.1C1170.34 1029.1 1170.34 1029.06 1170.33 1029.06C1170.33 1029.06 1170.33 1029.06 1170.32 1029.07C1170.32 1029.07 1170.32 1029.08 1170.32 1029.08C1170.32 1029.09 1170.32 1029.09 1170.32 1029.1C1170.33 1029.1 1170.33 1029.1 1170.33 1029.1Z" fill="#B1BBD8"/>
<path d="M1272.72 877.019C1272.72 877.019 1272.73 877.017 1272.73 877.013C1272.73 877.009 1272.73 877.004 1272.73 876.998C1272.73 876.992 1272.73 876.987 1272.73 876.983C1272.73 876.978 1272.72 876.976 1272.72 876.976C1272.71 876.976 1272.71 877.019 1272.72 877.019Z" fill="#B1BBD8"/>
<path d="M1282.51 958.697C1282.82 958.675 1283.11 958.403 1283.32 957.939C1283.54 957.474 1283.66 956.853 1283.66 956.207C1283.66 955.561 1283.54 954.94 1283.32 954.475C1283.11 954.011 1282.82 953.739 1282.51 953.717C1282.2 953.739 1281.91 954.011 1281.7 954.475C1281.49 954.94 1281.37 955.561 1281.37 956.207C1281.37 956.853 1281.49 957.474 1281.7 957.939C1281.91 958.403 1282.2 958.675 1282.51 958.697Z" fill="#B1BBD8"/>
<path d="M1486.78 1430.81C1487.09 1430.78 1487.38 1430.51 1487.59 1430.05C1487.81 1429.58 1487.93 1428.96 1487.93 1428.32C1487.93 1427.67 1487.81 1427.05 1487.59 1426.58C1487.38 1426.12 1487.09 1425.85 1486.78 1425.83C1486.48 1425.85 1486.19 1426.12 1485.97 1426.58C1485.76 1427.05 1485.64 1427.67 1485.64 1428.32C1485.64 1428.96 1485.76 1429.58 1485.97 1430.05C1486.19 1430.51 1486.48 1430.78 1486.78 1430.81Z" fill="#B1BBD8"/>
<path d="M1830.59 986.05C1830.89 986.029 1831.19 985.757 1831.4 985.292C1831.61 984.828 1831.73 984.207 1831.73 983.561C1831.73 982.914 1831.61 982.293 1831.4 981.829C1831.19 981.364 1830.89 981.092 1830.59 981.071C1830.28 981.092 1829.99 981.364 1829.78 981.829C1829.56 982.293 1829.44 982.914 1829.44 983.561C1829.44 984.207 1829.56 984.828 1829.78 985.292C1829.99 985.757 1830.28 986.029 1830.59 986.05Z" fill="#B1BBD8"/>
<path d="M1527.84 1377.36C1528.15 1377.34 1528.44 1377.07 1528.65 1376.6C1528.86 1376.14 1528.98 1375.52 1528.98 1374.87C1528.98 1374.22 1528.86 1373.6 1528.65 1373.14C1528.44 1372.67 1528.15 1372.4 1527.84 1372.38C1527.53 1372.4 1527.24 1372.67 1527.03 1373.14C1526.81 1373.6 1526.69 1374.22 1526.69 1374.87C1526.69 1375.52 1526.81 1376.14 1527.03 1376.6C1527.24 1377.07 1527.53 1377.34 1527.84 1377.36Z" fill="#B1BBD8"/>
<path d="M1259.92 1012.56C1260.23 1012.54 1260.52 1012.27 1260.73 1011.8C1260.95 1011.34 1261.07 1010.72 1261.07 1010.07C1261.07 1009.42 1260.95 1008.8 1260.73 1008.34C1260.52 1007.87 1260.23 1007.6 1259.92 1007.58C1259.61 1007.6 1259.32 1007.87 1259.11 1008.34C1258.9 1008.8 1258.78 1009.42 1258.78 1010.07C1258.78 1010.72 1258.9 1011.34 1259.11 1011.8C1259.32 1012.27 1259.61 1012.54 1259.92 1012.56Z" fill="#B1BBD8"/>
<path d="M1499.13 1399.12C1499.44 1399.1 1499.73 1398.83 1499.95 1398.36C1500.16 1397.9 1500.28 1397.28 1500.28 1396.63C1500.28 1395.98 1500.16 1395.36 1499.95 1394.9C1499.73 1394.43 1499.44 1394.16 1499.13 1394.14C1498.83 1394.16 1498.54 1394.43 1498.32 1394.9C1498.11 1395.36 1497.99 1395.98 1497.99 1396.63C1497.99 1397.28 1498.11 1397.9 1498.32 1398.36C1498.54 1398.83 1498.83 1399.1 1499.13 1399.12Z" fill="#B1BBD8"/>
<path d="M1243.36 908.001C1243.67 907.979 1243.96 907.707 1244.17 907.243C1244.38 906.778 1244.5 906.157 1244.5 905.511C1244.5 904.865 1244.38 904.244 1244.17 903.779C1243.96 903.315 1243.67 903.043 1243.36 903.021C1243.05 903.043 1242.76 903.315 1242.55 903.779C1242.33 904.244 1242.21 904.865 1242.21 905.511C1242.21 906.157 1242.33 906.778 1242.55 907.243C1242.76 907.707 1243.05 907.979 1243.36 908.001Z" fill="#B1BBD8"/>
<path d="M1427.76 434.313C1428.07 434.291 1428.36 434.019 1428.58 433.555C1428.79 433.09 1428.91 432.469 1428.91 431.823C1428.91 431.177 1428.79 430.556 1428.58 430.091C1428.36 429.626 1428.07 429.355 1427.76 429.333C1427.46 429.355 1427.17 429.626 1426.95 430.091C1426.74 430.556 1426.62 431.177 1426.62 431.823C1426.62 432.469 1426.74 433.09 1426.95 433.555C1427.17 434.019 1427.46 434.291 1427.76 434.313Z" fill="#B1BBD8"/>
<path d="M1475.28 479.952C1475.59 479.931 1475.88 479.659 1476.09 479.194C1476.3 478.73 1476.42 478.109 1476.42 477.463C1476.42 476.816 1476.3 476.195 1476.09 475.731C1475.88 475.266 1475.59 474.994 1475.28 474.973C1474.97 474.994 1474.68 475.266 1474.47 475.731C1474.25 476.195 1474.13 476.816 1474.13 477.463C1474.13 478.109 1474.25 478.73 1474.47 479.194C1474.68 479.659 1474.97 479.931 1475.28 479.952Z" fill="#B1BBD8"/>
<path d="M1268.2 902.367C1268.21 902.367 1268.21 902.364 1268.21 902.36C1268.21 902.356 1268.21 902.351 1268.21 902.345C1268.21 902.339 1268.21 902.334 1268.21 902.33C1268.21 902.326 1268.21 902.323 1268.2 902.323C1268.2 902.323 1268.2 902.326 1268.2 902.33C1268.19 902.334 1268.19 902.339 1268.19 902.345C1268.19 902.351 1268.19 902.356 1268.2 902.36C1268.2 902.364 1268.2 902.367 1268.2 902.367Z" fill="#B1BBD8"/>
<path d="M1246.37 953.943C1246.67 953.921 1246.97 953.65 1247.18 953.185C1247.39 952.721 1247.51 952.1 1247.51 951.453C1247.51 950.807 1247.39 950.186 1247.18 949.722C1246.97 949.257 1246.67 948.985 1246.37 948.964C1246.06 948.985 1245.77 949.257 1245.56 949.722C1245.34 950.186 1245.22 950.807 1245.22 951.453C1245.22 952.1 1245.34 952.721 1245.56 953.185C1245.77 953.65 1246.06 953.921 1246.37 953.943Z" fill="#B1BBD8"/>
<path d="M1160.54 1091.78C1160.85 1091.75 1161.14 1091.48 1161.35 1091.02C1161.57 1090.55 1161.69 1089.93 1161.69 1089.29C1161.69 1088.64 1161.57 1088.02 1161.35 1087.55C1161.14 1087.09 1160.85 1086.82 1160.54 1086.8C1160.23 1086.82 1159.94 1087.09 1159.73 1087.55C1159.52 1088.02 1159.4 1088.64 1159.4 1089.29C1159.4 1089.93 1159.52 1090.55 1159.73 1091.02C1159.94 1091.48 1160.23 1091.75 1160.54 1091.78Z" fill="#B1BBD8"/>
<path d="M1341.23 1075.93C1341.54 1075.91 1341.83 1075.64 1342.04 1075.17C1342.25 1074.71 1342.37 1074.09 1342.37 1073.44C1342.37 1072.79 1342.25 1072.17 1342.04 1071.71C1341.83 1071.24 1341.54 1070.97 1341.23 1070.95C1340.92 1070.97 1340.63 1071.24 1340.42 1071.71C1340.2 1072.17 1340.08 1072.79 1340.08 1073.44C1340.08 1074.09 1340.2 1074.71 1340.42 1075.17C1340.63 1075.64 1340.92 1075.91 1341.23 1075.93Z" fill="#B1BBD8"/>
<path d="M1361.56 931.764C1361.86 931.742 1362.16 931.471 1362.37 931.006C1362.58 930.542 1362.7 929.921 1362.7 929.274C1362.7 928.628 1362.58 928.007 1362.37 927.543C1362.16 927.078 1361.86 926.806 1361.56 926.785C1361.25 926.806 1360.96 927.078 1360.75 927.543C1360.53 928.007 1360.41 928.628 1360.41 929.274C1360.41 929.921 1360.53 930.542 1360.75 931.006C1360.96 931.471 1361.25 931.742 1361.56 931.764Z" fill="#B1BBD8"/>
<path d="M1408.99 982.458C1409.3 982.443 1409.59 982.174 1409.81 981.709C1410.02 981.245 1410.14 980.621 1410.14 979.971C1410.14 979.321 1410.02 978.697 1409.81 978.232C1409.59 977.767 1409.3 977.499 1408.99 977.483C1408.68 977.499 1408.39 977.767 1408.17 978.232C1407.95 978.697 1407.83 979.321 1407.83 979.971C1407.83 980.621 1407.95 981.245 1408.17 981.709C1408.39 982.174 1408.68 982.443 1408.99 982.458Z" fill="#B1BBD8"/>
<path d="M1296.82 1365.85C1297.12 1365.83 1297.41 1365.56 1297.63 1365.09C1297.84 1364.63 1297.96 1364.01 1297.96 1363.36C1297.96 1362.71 1297.84 1362.09 1297.63 1361.63C1297.41 1361.16 1297.12 1360.89 1296.82 1360.87C1296.51 1360.89 1296.22 1361.16 1296 1361.63C1295.79 1362.09 1295.67 1362.71 1295.67 1363.36C1295.67 1364.01 1295.79 1364.63 1296 1365.09C1296.22 1365.56 1296.51 1365.83 1296.82 1365.85Z" fill="#B1BBD8"/>
<path d="M1231.31 1351.59C1231.62 1351.57 1231.91 1351.3 1232.12 1350.83C1232.34 1350.37 1232.46 1349.75 1232.46 1349.1C1232.46 1348.45 1232.34 1347.83 1232.12 1347.37C1231.91 1346.9 1231.62 1346.63 1231.31 1346.61C1231.01 1346.63 1230.72 1346.9 1230.5 1347.37C1230.29 1347.83 1230.17 1348.45 1230.17 1349.1C1230.17 1349.75 1230.29 1350.37 1230.5 1350.83C1230.72 1351.3 1231.01 1351.57 1231.31 1351.59Z" fill="#B1BBD8"/>
<path d="M1305.85 1316.74C1306.15 1316.71 1306.44 1316.44 1306.66 1315.98C1306.87 1315.51 1306.99 1314.89 1306.99 1314.25C1306.99 1313.6 1306.87 1312.98 1306.66 1312.51C1306.44 1312.05 1306.15 1311.78 1305.85 1311.76C1305.54 1311.78 1305.25 1312.05 1305.04 1312.51C1304.82 1312.98 1304.7 1313.6 1304.7 1314.25C1304.7 1314.89 1304.82 1315.51 1305.04 1315.98C1305.25 1316.44 1305.54 1316.71 1305.85 1316.74Z" fill="#B1BBD8"/>
<path d="M1276.48 1487.84C1276.79 1487.82 1277.08 1487.54 1277.3 1487.08C1277.51 1486.62 1277.63 1485.99 1277.63 1485.35C1277.63 1484.7 1277.51 1484.08 1277.3 1483.62C1277.08 1483.15 1276.79 1482.88 1276.48 1482.86C1276.18 1482.88 1275.89 1483.15 1275.67 1483.62C1275.46 1484.08 1275.34 1484.7 1275.34 1485.35C1275.34 1485.99 1275.46 1486.62 1275.67 1487.08C1275.89 1487.54 1276.18 1487.82 1276.48 1487.84Z" fill="#B1BBD8"/>
<path d="M1388.66 1495.76C1388.97 1495.73 1389.26 1495.46 1389.47 1495C1389.69 1494.53 1389.8 1493.91 1389.8 1493.27C1389.8 1492.62 1389.69 1492 1389.47 1491.53C1389.26 1491.07 1388.97 1490.8 1388.66 1490.78C1388.35 1490.8 1388.06 1491.07 1387.85 1491.53C1387.64 1492 1387.52 1492.62 1387.52 1493.27C1387.52 1493.91 1387.64 1494.53 1387.85 1495C1388.06 1495.46 1388.35 1495.73 1388.66 1495.76Z" fill="#B1BBD8"/>
<path d="M1663.45 1787.8C1663.76 1787.78 1664.05 1787.51 1664.26 1787.05C1664.48 1786.58 1664.6 1785.96 1664.6 1785.31C1664.6 1784.67 1664.48 1784.05 1664.26 1783.58C1664.05 1783.12 1663.76 1782.85 1663.45 1782.82C1663.15 1782.85 1662.86 1783.12 1662.64 1783.58C1662.43 1784.05 1662.31 1784.67 1662.31 1785.31C1662.31 1785.96 1662.43 1786.58 1662.64 1787.05C1662.86 1787.51 1663.15 1787.78 1663.45 1787.8Z" fill="#B1BBD8"/>
<path d="M1381.13 1371.3C1381.13 1371.3 1381.13 1371.3 1381.14 1371.3C1381.14 1371.3 1381.14 1371.3 1381.14 1371.3C1381.14 1371.29 1381.14 1371.29 1381.14 1371.29C1381.14 1371.29 1381.14 1371.28 1381.14 1371.28C1381.14 1371.28 1381.14 1371.28 1381.14 1371.27C1381.14 1371.27 1381.14 1371.27 1381.14 1371.27C1381.14 1371.26 1381.14 1371.26 1381.14 1371.26C1381.13 1371.26 1381.13 1371.26 1381.13 1371.26C1381.13 1371.26 1381.13 1371.26 1381.12 1371.27C1381.12 1371.27 1381.12 1371.28 1381.12 1371.28C1381.12 1371.29 1381.12 1371.29 1381.12 1371.3C1381.13 1371.3 1381.13 1371.3 1381.13 1371.3Z" fill="#B1BBD8"/>
<path d="M1347.25 1536.07C1347.27 1536.07 1347.27 1536.02 1347.25 1536.02C1347.25 1536.02 1347.25 1536.03 1347.25 1536.03C1347.25 1536.03 1347.24 1536.04 1347.24 1536.05C1347.24 1536.05 1347.25 1536.06 1347.25 1536.06C1347.25 1536.06 1347.25 1536.07 1347.25 1536.07Z" fill="#B1BBD8"/>
<path d="M1293.8 1521.11C1294.11 1521.09 1294.4 1520.81 1294.61 1520.35C1294.83 1519.88 1294.95 1519.26 1294.95 1518.62C1294.95 1517.97 1294.83 1517.35 1294.61 1516.89C1294.4 1516.42 1294.11 1516.15 1293.8 1516.13C1293.49 1516.15 1293.2 1516.42 1292.99 1516.89C1292.78 1517.35 1292.66 1517.97 1292.66 1518.62C1292.66 1519.26 1292.78 1519.88 1292.99 1520.35C1293.2 1520.81 1293.49 1521.09 1293.8 1521.11Z" fill="#B1BBD8"/>
<path d="M313.41 669.963C313.717 669.941 314.008 669.669 314.221 669.205C314.435 668.74 314.554 668.119 314.554 667.473C314.554 666.827 314.435 666.206 314.221 665.741C314.008 665.277 313.717 665.005 313.41 664.983C313.103 665.005 312.812 665.277 312.598 665.741C312.385 666.206 312.266 666.827 312.266 667.473C312.266 668.119 312.385 668.74 312.598 669.205C312.812 669.669 313.103 669.941 313.41 669.963Z" fill="#B1BBD8"/>
<path d="M632.792 1095.37C633.099 1095.34 633.39 1095.07 633.604 1094.61C633.817 1094.14 633.936 1093.52 633.936 1092.88C633.936 1092.23 633.817 1091.61 633.604 1091.14C633.39 1090.68 633.099 1090.41 632.792 1090.39C632.485 1090.41 632.194 1090.68 631.981 1091.14C631.767 1091.61 631.648 1092.23 631.648 1092.88C631.648 1093.52 631.767 1094.14 631.981 1094.61C632.194 1095.07 632.485 1095.34 632.792 1095.37Z" fill="#B1BBD8"/>
<path d="M951.532 1070.27C951.839 1070.25 952.13 1069.98 952.344 1069.52C952.557 1069.05 952.677 1068.43 952.677 1067.78C952.677 1067.14 952.557 1066.52 952.344 1066.05C952.13 1065.59 951.839 1065.32 951.532 1065.29C951.225 1065.32 950.935 1065.59 950.721 1066.05C950.508 1066.52 950.388 1067.14 950.388 1067.78C950.388 1068.43 950.508 1069.05 950.721 1069.52C950.935 1069.98 951.225 1070.25 951.532 1070.27Z" fill="#B1BBD8"/>
<path d="M766.049 1170.99C766.355 1170.96 766.646 1170.69 766.86 1170.23C767.073 1169.76 767.193 1169.14 767.193 1168.5C767.193 1167.85 767.073 1167.23 766.86 1166.76C766.646 1166.3 766.355 1166.03 766.049 1166.01C765.742 1166.03 765.451 1166.3 765.237 1166.76C765.024 1167.23 764.904 1167.85 764.904 1168.5C764.904 1169.14 765.024 1169.76 765.237 1170.23C765.451 1170.69 765.742 1170.96 766.049 1170.99Z" fill="#B1BBD8"/>
<path d="M867.1 1073.01C867.407 1072.99 867.698 1072.71 867.912 1072.25C868.125 1071.79 868.245 1071.16 868.245 1070.52C868.245 1069.87 868.125 1069.25 867.912 1068.79C867.698 1068.32 867.407 1068.05 867.1 1068.03C866.793 1068.05 866.502 1068.32 866.289 1068.79C866.075 1069.25 865.956 1069.87 865.956 1070.52C865.956 1071.16 866.075 1071.79 866.289 1072.25C866.502 1072.71 866.793 1072.99 867.1 1073.01Z" fill="#B1BBD8"/>
<path d="M899.859 1094.66C900.166 1094.64 900.457 1094.37 900.67 1093.91C900.884 1093.44 901.003 1092.82 901.003 1092.17C901.003 1091.53 900.884 1090.91 900.67 1090.44C900.457 1089.98 900.166 1089.71 899.859 1089.68C899.552 1089.71 899.261 1089.98 899.048 1090.44C898.834 1090.91 898.715 1091.53 898.715 1092.17C898.715 1092.82 898.834 1093.44 899.048 1093.91C899.261 1094.37 899.552 1094.64 899.859 1094.66Z" fill="#B1BBD8"/>
<path d="M846.372 1175.1C846.374 1175.1 846.377 1175.1 846.379 1175.09C846.381 1175.09 846.382 1175.08 846.382 1175.08C846.382 1175.07 846.381 1175.07 846.379 1175.06C846.377 1175.06 846.374 1175.06 846.372 1175.06C846.369 1175.06 846.366 1175.06 846.364 1175.06C846.362 1175.07 846.361 1175.07 846.361 1175.08C846.361 1175.08 846.362 1175.09 846.364 1175.09C846.366 1175.1 846.369 1175.1 846.372 1175.1Z" fill="#B1BBD8"/>
<path d="M581.336 974.366C581.339 974.366 581.342 974.364 581.344 974.36C581.346 974.356 581.347 974.351 581.347 974.345C581.347 974.339 581.346 974.334 581.344 974.33C581.342 974.326 581.339 974.323 581.336 974.323C581.334 974.323 581.331 974.326 581.329 974.33C581.327 974.334 581.326 974.339 581.326 974.345C581.326 974.351 581.327 974.356 581.329 974.36C581.331 974.364 581.334 974.366 581.336 974.366Z" fill="#B1BBD8"/>
<path d="M543.349 994.394C543.656 994.373 543.947 994.101 544.16 993.636C544.374 993.172 544.493 992.551 544.493 991.905C544.493 991.258 544.374 990.637 544.16 990.173C543.947 989.708 543.656 989.437 543.349 989.415C543.042 989.437 542.751 989.708 542.537 990.173C542.324 990.637 542.205 991.258 542.205 991.905C542.205 992.551 542.324 993.172 542.537 993.636C542.751 994.101 543.042 994.373 543.349 994.394Z" fill="#B1BBD8"/>
<path d="M518.632 944.849C518.938 944.828 519.229 944.556 519.443 944.091C519.656 943.627 519.776 943.006 519.776 942.36C519.776 941.713 519.656 941.092 519.443 940.628C519.229 940.163 518.938 939.891 518.632 939.87C518.325 939.891 518.034 940.163 517.82 940.628C517.607 941.092 517.487 941.713 517.487 942.36C517.487 943.006 517.607 943.627 517.82 944.091C518.034 944.556 518.325 944.828 518.632 944.849Z" fill="#B1BBD8"/>
<path d="M43.3039 1087.49C43.6108 1087.46 43.9018 1087.19 44.1153 1086.73C44.3288 1086.26 44.4481 1085.64 44.4481 1085C44.4481 1084.35 44.3288 1083.73 44.1153 1083.26C43.9018 1082.8 43.6108 1082.53 43.3039 1082.51C42.997 1082.53 42.706 1082.8 42.4925 1083.26C42.279 1083.73 42.1597 1084.35 42.1597 1085C42.1597 1085.64 42.279 1086.26 42.4925 1086.73C42.706 1087.19 42.997 1087.46 43.3039 1087.49Z" fill="#B1BBD8"/>
<path d="M568.915 914.004C569.222 913.983 569.513 913.711 569.727 913.246C569.94 912.782 570.059 912.161 570.059 911.515C570.059 910.868 569.94 910.247 569.727 909.783C569.513 909.318 569.222 909.047 568.915 909.025C568.608 909.047 568.317 909.318 568.104 909.783C567.89 910.247 567.771 910.868 567.771 911.515C567.771 912.161 567.89 912.782 568.104 913.246C568.317 913.711 568.608 913.983 568.915 914.004Z" fill="#B1BBD8"/>
<path d="M1088.52 367.363C1088.82 367.341 1089.11 367.07 1089.33 366.605C1089.54 366.141 1089.66 365.52 1089.66 364.873C1089.66 364.227 1089.54 363.606 1089.33 363.142C1089.11 362.677 1088.82 362.405 1088.52 362.384C1088.21 362.405 1087.92 362.677 1087.7 363.142C1087.49 363.606 1087.37 364.227 1087.37 364.873C1087.37 365.52 1087.49 366.141 1087.7 366.605C1087.92 367.07 1088.21 367.341 1088.52 367.363Z" fill="#B1BBD8"/>
<path d="M569.474 963.902C569.484 963.902 569.487 963.859 569.474 963.859C569.471 963.859 569.469 963.861 569.467 963.865C569.465 963.869 569.464 963.875 569.464 963.88C569.464 963.886 569.465 963.891 569.467 963.895C569.469 963.9 569.471 963.902 569.474 963.902Z" fill="#B1BBD8"/>
<path d="M546.982 918.587C547.289 918.565 547.58 918.293 547.794 917.829C548.007 917.364 548.126 916.743 548.126 916.097C548.126 915.451 548.007 914.83 547.794 914.365C547.58 913.901 547.289 913.629 546.982 913.607C546.675 913.629 546.384 913.901 546.171 914.365C545.957 914.83 545.838 915.451 545.838 916.097C545.838 916.743 545.957 917.364 546.171 917.829C546.384 918.293 546.675 918.565 546.982 918.587Z" fill="#B1BBD8"/>
<path d="M461.893 736.494C462.2 736.472 462.491 736.201 462.705 735.736C462.918 735.272 463.037 734.651 463.037 734.004C463.037 733.358 462.918 732.737 462.705 732.273C462.491 731.808 462.2 731.536 461.893 731.515C461.586 731.536 461.295 731.808 461.082 732.273C460.868 732.737 460.749 733.358 460.749 734.004C460.749 734.651 460.868 735.272 461.082 735.736C461.295 736.201 461.586 736.472 461.893 736.494Z" fill="#B1BBD8"/>
<path d="M818.155 1154.69C818.462 1154.67 818.753 1154.4 818.967 1153.94C819.18 1153.47 819.3 1152.85 819.3 1152.2C819.3 1151.56 819.18 1150.94 818.967 1150.47C818.753 1150.01 818.462 1149.74 818.155 1149.71C817.849 1149.74 817.558 1150.01 817.344 1150.47C817.131 1150.94 817.011 1151.56 817.011 1152.2C817.011 1152.85 817.131 1153.47 817.344 1153.94C817.558 1154.4 817.849 1154.67 818.155 1154.69Z" fill="#B1BBD8"/>
<path d="M485.44 1113.41C485.747 1113.39 486.038 1113.12 486.251 1112.65C486.465 1112.19 486.584 1111.57 486.584 1110.92C486.584 1110.27 486.465 1109.65 486.251 1109.19C486.038 1108.72 485.747 1108.45 485.44 1108.43C485.133 1108.45 484.842 1108.72 484.628 1109.19C484.415 1109.65 484.295 1110.27 484.295 1110.92C484.295 1111.57 484.415 1112.19 484.628 1112.65C484.842 1113.12 485.133 1113.39 485.44 1113.41Z" fill="#B1BBD8"/>
<path d="M553.127 1161.65C553.434 1161.62 553.725 1161.35 553.939 1160.89C554.152 1160.42 554.271 1159.8 554.271 1159.16C554.271 1158.51 554.152 1157.89 553.939 1157.42C553.725 1156.96 553.434 1156.69 553.127 1156.67C552.82 1156.69 552.529 1156.96 552.316 1157.42C552.102 1157.89 551.983 1158.51 551.983 1159.16C551.983 1159.8 552.102 1160.42 552.316 1160.89C552.529 1161.35 552.82 1161.62 553.127 1161.65Z" fill="#B1BBD8"/>
<path d="M527.246 1259.45C527.553 1259.43 527.844 1259.16 528.057 1258.69C528.271 1258.23 528.39 1257.61 528.39 1256.96C528.39 1256.31 528.271 1255.69 528.057 1255.23C527.844 1254.76 527.553 1254.49 527.246 1254.47C526.939 1254.49 526.648 1254.76 526.434 1255.23C526.221 1255.69 526.102 1256.31 526.102 1256.96C526.102 1257.61 526.221 1258.23 526.434 1258.69C526.648 1259.16 526.939 1259.43 527.246 1259.45Z" fill="#B1BBD8"/>
<path d="M349.46 1008.96C349.767 1008.94 350.058 1008.67 350.271 1008.2C350.485 1007.74 350.604 1007.12 350.604 1006.47C350.604 1005.82 350.485 1005.2 350.271 1004.74C350.058 1004.27 349.767 1004 349.46 1003.98C349.153 1004 348.862 1004.27 348.648 1004.74C348.435 1005.2 348.315 1005.82 348.315 1006.47C348.315 1007.12 348.435 1007.74 348.648 1008.2C348.862 1008.67 349.153 1008.94 349.46 1008.96Z" fill="#B1BBD8"/>
<path d="M358.726 871.772C359.033 871.751 359.324 871.479 359.538 871.014C359.751 870.55 359.87 869.929 359.87 869.283C359.87 868.636 359.751 868.015 359.538 867.551C359.324 867.086 359.033 866.815 358.726 866.793C358.419 866.815 358.128 867.086 357.915 867.551C357.701 868.015 357.582 868.636 357.582 869.283C357.582 869.929 357.701 870.55 357.915 871.014C358.128 871.479 358.419 871.751 358.726 871.772Z" fill="#B1BBD8"/>
<path d="M372.438 1029.83C372.745 1029.81 373.036 1029.54 373.25 1029.07C373.463 1028.61 373.582 1027.99 373.582 1027.34C373.582 1026.69 373.463 1026.07 373.25 1025.61C373.036 1025.14 372.745 1024.87 372.438 1024.85C372.131 1024.87 371.84 1025.14 371.627 1025.61C371.413 1026.07 371.294 1026.69 371.294 1027.34C371.294 1027.99 371.413 1028.61 371.627 1029.07C371.84 1029.54 372.131 1029.81 372.438 1029.83Z" fill="#B1BBD8"/>
<path d="M292.306 961.568C292.613 961.547 292.904 961.275 293.117 960.81C293.331 960.346 293.45 959.725 293.45 959.079C293.45 958.432 293.331 957.811 293.117 957.347C292.904 956.882 292.613 956.61 292.306 956.589C291.999 956.61 291.708 956.882 291.494 957.347C291.281 957.811 291.162 958.432 291.162 959.079C291.162 959.725 291.281 960.346 291.494 960.81C291.708 961.275 291.999 961.547 292.306 961.568Z" fill="#B1BBD8"/>
<path d="M284.272 1197.15C284.579 1197.13 284.87 1196.86 285.083 1196.39C285.297 1195.93 285.416 1195.31 285.416 1194.66C285.416 1194.01 285.297 1193.39 285.083 1192.93C284.87 1192.46 284.579 1192.19 284.272 1192.17C283.965 1192.19 283.674 1192.46 283.46 1192.93C283.247 1193.39 283.127 1194.01 283.127 1194.66C283.127 1195.31 283.247 1195.93 283.46 1196.39C283.674 1196.86 283.965 1197.13 284.272 1197.15Z" fill="#B1BBD8"/>
<path d="M342.488 1183.5C342.491 1183.5 342.493 1183.5 342.495 1183.49C342.497 1183.49 342.498 1183.48 342.498 1183.48C342.498 1183.47 342.497 1183.47 342.495 1183.46C342.493 1183.46 342.491 1183.46 342.488 1183.46C342.485 1183.46 342.482 1183.46 342.481 1183.46C342.479 1183.47 342.478 1183.47 342.478 1183.48C342.478 1183.48 342.479 1183.49 342.481 1183.49C342.482 1183.5 342.485 1183.5 342.488 1183.5Z" fill="#B1BBD8"/>
<path d="M265.538 1105.98C265.541 1105.98 265.544 1105.98 265.546 1105.98C265.548 1105.97 265.549 1105.97 265.549 1105.96C265.549 1105.95 265.548 1105.95 265.546 1105.95C265.544 1105.94 265.541 1105.94 265.538 1105.94C265.526 1105.94 265.524 1105.98 265.538 1105.98Z" fill="#B1BBD8"/>
<path d="M275.851 996.711C276.158 996.69 276.449 996.418 276.663 995.953C276.876 995.489 276.995 994.868 276.995 994.222C276.995 993.575 276.876 992.954 276.663 992.49C276.449 992.025 276.158 991.753 275.851 991.732C275.544 991.753 275.253 992.025 275.04 992.49C274.826 992.954 274.707 993.575 274.707 994.222C274.707 994.868 274.826 995.489 275.04 995.953C275.253 996.418 275.544 996.69 275.851 996.711Z" fill="#B1BBD8"/>
<path d="M1515.14 934.934C1515.45 934.912 1515.74 934.64 1515.95 934.176C1516.16 933.711 1516.28 933.09 1516.28 932.444C1516.28 931.798 1516.16 931.177 1515.95 930.712C1515.74 930.248 1515.45 929.976 1515.14 929.954C1514.83 929.976 1514.54 930.248 1514.33 930.712C1514.11 931.177 1514 931.798 1514 932.444C1514 933.09 1514.11 933.711 1514.33 934.176C1514.54 934.64 1514.83 934.912 1515.14 934.934Z" fill="#B1BBD8"/>
<path d="M1481.26 1018.9C1481.57 1018.88 1481.86 1018.6 1482.07 1018.14C1482.29 1017.67 1482.41 1017.05 1482.41 1016.41C1482.41 1015.76 1482.29 1015.14 1482.07 1014.68C1481.86 1014.21 1481.57 1013.94 1481.26 1013.92C1480.96 1013.94 1480.66 1014.21 1480.45 1014.68C1480.24 1015.14 1480.12 1015.76 1480.12 1016.41C1480.12 1017.05 1480.24 1017.67 1480.45 1018.14C1480.66 1018.6 1480.96 1018.88 1481.26 1018.9Z" fill="#B1BBD8"/>
<path d="M1494.81 900.782C1494.82 900.782 1494.82 900.78 1494.82 900.776C1494.82 900.772 1494.82 900.767 1494.82 900.761C1494.82 900.755 1494.82 900.75 1494.82 900.746C1494.82 900.742 1494.82 900.739 1494.81 900.739C1494.8 900.739 1494.8 900.782 1494.81 900.782Z" fill="#B1BBD8"/>
<path d="M1497.08 969.787C1497.38 969.765 1497.67 969.494 1497.89 969.029C1498.1 968.565 1498.22 967.944 1498.22 967.297C1498.22 966.651 1498.1 966.03 1497.89 965.565C1497.67 965.101 1497.38 964.829 1497.08 964.808C1496.77 964.829 1496.48 965.101 1496.26 965.565C1496.05 966.03 1495.93 966.651 1495.93 967.297C1495.93 967.944 1496.05 968.565 1496.26 969.029C1496.48 969.494 1496.77 969.765 1497.08 969.787Z" fill="#B1BBD8"/>
<path d="M1587.41 890.569C1587.72 890.553 1588.02 890.284 1588.23 889.82C1588.45 889.355 1588.57 888.731 1588.57 888.081C1588.57 887.431 1588.45 886.807 1588.23 886.342C1588.02 885.878 1587.72 885.609 1587.41 885.593C1587.11 885.609 1586.81 885.878 1586.6 886.342C1586.38 886.807 1586.26 887.431 1586.26 888.081C1586.26 888.731 1586.38 889.355 1586.6 889.82C1586.81 890.284 1587.11 890.553 1587.41 890.569Z" fill="#B1BBD8"/>
<path d="M1613.01 713.136C1613.32 713.115 1613.61 712.843 1613.82 712.379C1614.04 711.914 1614.15 711.293 1614.15 710.647C1614.15 710 1614.04 709.38 1613.82 708.915C1613.61 708.45 1613.32 708.179 1613.01 708.157C1612.7 708.179 1612.41 708.45 1612.2 708.915C1611.99 709.38 1611.87 710 1611.87 710.647C1611.87 711.293 1611.99 711.914 1612.2 712.379C1612.41 712.843 1612.7 713.115 1613.01 713.136Z" fill="#B1BBD8"/>
<path d="M1663.45 605.41C1663.76 605.388 1664.05 605.116 1664.26 604.652C1664.48 604.187 1664.6 603.566 1664.6 602.92C1664.6 602.274 1664.48 601.653 1664.26 601.188C1664.05 600.724 1663.76 600.452 1663.45 600.43C1663.15 600.452 1662.86 600.724 1662.64 601.188C1662.43 601.653 1662.31 602.274 1662.31 602.92C1662.31 603.566 1662.43 604.187 1662.64 604.652C1662.86 605.116 1663.15 605.388 1663.45 605.41Z" fill="#B1BBD8"/>
<path d="M1544.5 564.217C1544.81 564.195 1545.1 563.924 1545.31 563.459C1545.53 562.994 1545.65 562.374 1545.65 561.727C1545.65 561.081 1545.53 560.46 1545.31 559.995C1545.1 559.531 1544.81 559.259 1544.5 559.238C1544.19 559.259 1543.9 559.531 1543.69 559.995C1543.48 560.46 1543.36 561.081 1543.36 561.727C1543.36 562.374 1543.48 562.994 1543.69 563.459C1543.9 563.924 1544.19 564.195 1544.5 564.217Z" fill="#B1BBD8"/>
<path d="M1482.77 683.035C1483.07 683.014 1483.36 682.742 1483.58 682.278C1483.79 681.813 1483.91 681.192 1483.91 680.546C1483.91 679.899 1483.79 679.279 1483.58 678.814C1483.36 678.349 1483.07 678.078 1482.77 678.056C1482.46 678.078 1482.17 678.349 1481.96 678.814C1481.74 679.279 1481.62 679.899 1481.62 680.546C1481.62 681.192 1481.74 681.813 1481.96 682.278C1482.17 682.742 1482.46 683.014 1482.77 683.035Z" fill="#B1BBD8"/>
<path d="M1603.22 434.313C1603.53 434.291 1603.82 434.019 1604.04 433.555C1604.25 433.09 1604.37 432.469 1604.37 431.823C1604.37 431.177 1604.25 430.556 1604.04 430.091C1603.82 429.626 1603.53 429.355 1603.22 429.333C1602.92 429.355 1602.63 429.626 1602.41 430.091C1602.2 430.556 1602.08 431.177 1602.08 431.823C1602.08 432.469 1602.2 433.09 1602.41 433.555C1602.63 434.019 1602.92 434.291 1603.22 434.313Z" fill="#B1BBD8"/>
<path d="M1737.23 567.387C1737.54 567.365 1737.83 567.093 1738.04 566.629C1738.26 566.164 1738.38 565.543 1738.38 564.897C1738.38 564.251 1738.26 563.63 1738.04 563.165C1737.83 562.701 1737.54 562.429 1737.23 562.407C1736.93 562.429 1736.64 562.701 1736.42 563.165C1736.21 563.63 1736.09 564.251 1736.09 564.897C1736.09 565.543 1736.21 566.164 1736.42 566.629C1736.64 567.093 1736.93 567.365 1737.23 567.387Z" fill="#B1BBD8"/>
<path d="M1773.37 918.208C1773.37 918.208 1773.38 918.205 1773.38 918.201C1773.38 918.197 1773.38 918.192 1773.38 918.186C1773.38 918.18 1773.38 918.175 1773.38 918.171C1773.38 918.167 1773.37 918.165 1773.37 918.165C1773.36 918.165 1773.36 918.208 1773.37 918.208Z" fill="#B1BBD8"/>
<path d="M1677 1270.79C1677.31 1270.77 1677.6 1270.5 1677.82 1270.04C1678.03 1269.57 1678.15 1268.95 1678.15 1268.3C1678.15 1267.66 1678.03 1267.04 1677.82 1266.57C1677.6 1266.11 1677.31 1265.84 1677 1265.81C1676.7 1265.84 1676.41 1266.11 1676.19 1266.57C1675.98 1267.04 1675.86 1267.66 1675.86 1268.3C1675.86 1268.95 1675.98 1269.57 1676.19 1270.04C1676.41 1270.5 1676.7 1270.77 1677 1270.79Z" fill="#B1BBD8"/>
<path d="M1661.06 1230.2C1661.36 1230.18 1661.65 1229.91 1661.87 1229.45C1662.08 1228.98 1662.2 1228.36 1662.2 1227.72C1662.2 1227.07 1662.08 1226.45 1661.87 1225.98C1661.65 1225.52 1661.36 1225.25 1661.06 1225.23C1660.75 1225.25 1660.46 1225.52 1660.24 1225.98C1660.03 1226.45 1659.91 1227.07 1659.91 1227.72C1659.91 1228.36 1660.03 1228.98 1660.24 1229.45C1660.46 1229.91 1660.75 1230.18 1661.06 1230.2Z" fill="#B1BBD8"/>
<path d="M1613.01 1260.12C1613.32 1260.1 1613.61 1259.83 1613.82 1259.37C1614.04 1258.9 1614.15 1258.28 1614.15 1257.63C1614.15 1256.99 1614.04 1256.37 1613.82 1255.9C1613.61 1255.44 1613.32 1255.17 1613.01 1255.15C1612.7 1255.17 1612.41 1255.44 1612.2 1255.9C1611.99 1256.37 1611.87 1256.99 1611.87 1257.63C1611.87 1258.28 1611.99 1258.9 1612.2 1259.37C1612.41 1259.83 1612.7 1260.1 1613.01 1260.12Z" fill="#B1BBD8"/>
<path d="M1413.58 228.783C1413.88 228.761 1414.17 228.489 1414.39 228.025C1414.6 227.56 1414.72 226.939 1414.72 226.293C1414.72 225.647 1414.6 225.026 1414.39 224.561C1414.17 224.097 1413.88 223.825 1413.58 223.803C1413.27 223.825 1412.98 224.097 1412.76 224.561C1412.55 225.026 1412.43 225.647 1412.43 226.293C1412.43 226.939 1412.55 227.56 1412.76 228.025C1412.98 228.489 1413.27 228.761 1413.58 228.783Z" fill="#B1BBD8"/>
<path d="M1420.74 157.351C1421.05 157.33 1421.34 157.058 1421.55 156.593C1421.77 156.129 1421.89 155.508 1421.89 154.862C1421.89 154.215 1421.77 153.594 1421.55 153.13C1421.34 152.665 1421.05 152.393 1420.74 152.372C1420.43 152.393 1420.14 152.665 1419.93 153.13C1419.72 153.594 1419.6 154.215 1419.6 154.862C1419.6 155.508 1419.72 156.129 1419.93 156.593C1420.14 157.058 1420.43 157.33 1420.74 157.351Z" fill="#B1BBD8"/>
<path d="M1760.21 1360.63C1760.51 1360.61 1760.8 1360.34 1761.02 1359.87C1761.23 1359.41 1761.35 1358.79 1761.35 1358.14C1761.35 1357.49 1761.23 1356.87 1761.02 1356.41C1760.8 1355.94 1760.51 1355.67 1760.21 1355.65C1759.9 1355.67 1759.61 1355.94 1759.39 1356.41C1759.18 1356.87 1759.06 1357.49 1759.06 1358.14C1759.06 1358.79 1759.18 1359.41 1759.39 1359.87C1759.61 1360.34 1759.9 1360.61 1760.21 1360.63Z" fill="#B1BBD8"/>
<path d="M1857.69 1441.09C1858 1441.07 1858.29 1440.8 1858.5 1440.33C1858.72 1439.87 1858.83 1439.25 1858.83 1438.6C1858.83 1437.95 1858.72 1437.33 1858.5 1436.87C1858.29 1436.4 1858 1436.13 1857.69 1436.11C1857.38 1436.13 1857.09 1436.4 1856.88 1436.87C1856.67 1437.33 1856.55 1437.95 1856.55 1438.6C1856.55 1439.25 1856.67 1439.87 1856.88 1440.33C1857.09 1440.8 1857.38 1441.07 1857.69 1441.09Z" fill="#B1BBD8"/>
<path d="M1729.7 1483.78C1729.72 1483.78 1729.72 1483.74 1729.7 1483.74C1729.7 1483.74 1729.7 1483.74 1729.7 1483.75C1729.7 1483.75 1729.69 1483.76 1729.69 1483.76C1729.69 1483.77 1729.7 1483.77 1729.7 1483.78C1729.7 1483.78 1729.7 1483.78 1729.7 1483.78Z" fill="#B1BBD8"/>
<path d="M1596.45 1498.93C1596.76 1498.9 1597.05 1498.63 1597.26 1498.17C1597.48 1497.7 1597.6 1497.08 1597.6 1496.44C1597.6 1495.79 1597.48 1495.17 1597.26 1494.7C1597.05 1494.24 1596.76 1493.97 1596.45 1493.95C1596.14 1493.97 1595.85 1494.24 1595.64 1494.7C1595.43 1495.17 1595.31 1495.79 1595.31 1496.44C1595.31 1497.08 1595.43 1497.7 1595.64 1498.17C1595.85 1498.63 1596.14 1498.9 1596.45 1498.93Z" fill="#B1BBD8"/>
<path d="M1657.43 1429.22C1657.74 1429.2 1658.03 1428.93 1658.24 1428.46C1658.45 1428 1658.57 1427.38 1658.57 1426.73C1658.57 1426.09 1658.45 1425.46 1658.24 1425C1658.03 1424.53 1657.74 1424.26 1657.43 1424.24C1657.12 1424.26 1656.83 1424.53 1656.62 1425C1656.4 1425.46 1656.29 1426.09 1656.29 1426.73C1656.29 1427.38 1656.4 1428 1656.62 1428.46C1656.83 1428.93 1657.12 1429.2 1657.43 1429.22Z" fill="#B1BBD8"/>
<path d="M1593.44 1383.98C1593.44 1383.98 1593.44 1383.98 1593.45 1383.97C1593.45 1383.97 1593.45 1383.96 1593.45 1383.96C1593.45 1383.95 1593.45 1383.95 1593.45 1383.94C1593.44 1383.94 1593.44 1383.94 1593.44 1383.94C1593.44 1383.94 1593.43 1383.94 1593.43 1383.94C1593.43 1383.95 1593.43 1383.95 1593.43 1383.96C1593.43 1383.96 1593.43 1383.97 1593.43 1383.97C1593.43 1383.98 1593.44 1383.98 1593.44 1383.98Z" fill="#B1BBD8"/>
<path d="M1599.46 1427.64C1599.77 1427.62 1600.06 1427.34 1600.27 1426.88C1600.48 1426.41 1600.6 1425.79 1600.6 1425.15C1600.6 1424.5 1600.48 1423.88 1600.27 1423.42C1600.06 1422.95 1599.77 1422.68 1599.46 1422.66C1599.15 1422.68 1598.86 1422.95 1598.65 1423.42C1598.43 1423.88 1598.32 1424.5 1598.32 1425.15C1598.32 1425.79 1598.43 1426.41 1598.65 1426.88C1598.86 1427.34 1599.15 1427.62 1599.46 1427.64Z" fill="#B1BBD8"/>
<path d="M1795.95 849.384C1796.26 849.363 1796.55 849.091 1796.77 848.627C1796.98 848.162 1797.1 847.541 1797.1 846.895C1797.1 846.248 1796.98 845.628 1796.77 845.163C1796.55 844.698 1796.26 844.427 1795.95 844.405C1795.65 844.427 1795.36 844.698 1795.14 845.163C1794.93 845.628 1794.81 846.248 1794.81 846.895C1794.81 847.541 1794.93 848.162 1795.14 848.627C1795.36 849.091 1795.65 849.363 1795.95 849.384Z" fill="#B1BBD8"/>
<path d="M1770.36 854.138C1770.67 854.117 1770.96 853.845 1771.17 853.38C1771.38 852.916 1771.5 852.295 1771.5 851.648C1771.5 851.002 1771.38 850.381 1771.17 849.917C1770.96 849.452 1770.67 849.18 1770.36 849.159C1770.05 849.18 1769.76 849.452 1769.55 849.917C1769.33 850.381 1769.21 851.002 1769.21 851.648C1769.21 852.295 1769.33 852.916 1769.55 853.38C1769.76 853.845 1770.05 854.117 1770.36 854.138Z" fill="#B1BBD8"/>
<path d="M1823.06 679.863C1823.37 679.848 1823.66 679.579 1823.88 679.114C1824.09 678.649 1824.21 678.025 1824.21 677.375C1824.21 676.726 1824.09 676.102 1823.88 675.637C1823.66 675.172 1823.37 674.903 1823.06 674.888C1822.75 674.903 1822.46 675.172 1822.24 675.637C1822.03 676.102 1821.9 676.726 1821.9 677.375C1821.9 678.025 1822.03 678.649 1822.24 679.114C1822.46 679.579 1822.75 679.848 1823.06 679.863Z" fill="#B1BBD8"/>
<path d="M1868.62 989.223C1868.93 989.201 1869.22 988.929 1869.43 988.465C1869.64 988 1869.76 987.379 1869.76 986.733C1869.76 986.087 1869.64 985.466 1869.43 985.001C1869.22 984.537 1868.93 984.265 1868.62 984.243C1868.31 984.265 1868.02 984.537 1867.81 985.001C1867.59 985.466 1867.47 986.087 1867.47 986.733C1867.47 987.379 1867.59 988 1867.81 988.465C1868.02 988.929 1868.31 989.201 1868.62 989.223Z" fill="#B1BBD8"/>
<path d="M1904.36 914.004C1904.67 913.983 1904.96 913.711 1905.18 913.246C1905.39 912.782 1905.51 912.161 1905.51 911.515C1905.51 910.868 1905.39 910.247 1905.18 909.783C1904.96 909.318 1904.67 909.047 1904.36 909.025C1904.06 909.047 1903.77 909.318 1903.55 909.783C1903.34 910.247 1903.22 910.868 1903.22 911.515C1903.22 912.161 1903.34 912.782 1903.55 913.246C1903.77 913.711 1904.06 913.983 1904.36 914.004Z" fill="#B1BBD8"/>
<path d="M1904.36 803.786C1904.67 803.765 1904.96 803.493 1905.18 803.028C1905.39 802.564 1905.51 801.943 1905.51 801.297C1905.51 800.65 1905.39 800.029 1905.18 799.565C1904.96 799.1 1904.67 798.828 1904.36 798.807C1904.06 798.828 1903.77 799.1 1903.55 799.565C1903.34 800.029 1903.22 800.65 1903.22 801.297C1903.22 801.943 1903.34 802.564 1903.55 803.028C1903.77 803.493 1904.06 803.765 1904.36 803.786Z" fill="#B1BBD8"/>
<path d="M1883.67 510.776C1883.98 510.755 1884.27 510.483 1884.49 510.018C1884.7 509.554 1884.82 508.933 1884.82 508.287C1884.82 507.64 1884.7 507.019 1884.49 506.555C1884.27 506.09 1883.98 505.819 1883.67 505.797C1883.37 505.819 1883.08 506.09 1882.86 506.555C1882.65 507.019 1882.53 507.64 1882.53 508.287C1882.53 508.933 1882.65 509.554 1882.86 510.018C1883.08 510.483 1883.37 510.755 1883.67 510.776Z" fill="#B1BBD8"/>
<path d="M1911.39 836.759C1911.7 836.737 1911.99 836.465 1912.21 836.001C1912.42 835.536 1912.54 834.915 1912.54 834.269C1912.54 833.623 1912.42 833.002 1912.21 832.537C1911.99 832.073 1911.7 831.801 1911.39 831.779C1911.09 831.801 1910.8 832.073 1910.58 832.537C1910.37 833.002 1910.25 833.623 1910.25 834.269C1910.25 834.915 1910.37 835.536 1910.58 836.001C1910.8 836.465 1911.09 836.737 1911.39 836.759Z" fill="#B1BBD8"/>
<path d="M1804.99 450.856C1805 450.856 1805 450.813 1804.99 450.813C1804.99 450.813 1804.99 450.815 1804.98 450.819C1804.98 450.823 1804.98 450.829 1804.98 450.834C1804.98 450.84 1804.98 450.845 1804.98 450.85C1804.99 450.854 1804.99 450.856 1804.99 450.856Z" fill="#B1BBD8"/>
<path d="M1783.91 654.52C1784.22 654.498 1784.51 654.227 1784.72 653.762C1784.93 653.298 1785.05 652.677 1785.05 652.03C1785.05 651.384 1784.93 650.763 1784.72 650.299C1784.51 649.834 1784.22 649.562 1783.91 649.541C1783.6 649.562 1783.31 649.834 1783.1 650.299C1782.88 650.763 1782.77 651.384 1782.77 652.03C1782.77 652.677 1782.88 653.298 1783.1 653.762C1783.31 654.227 1783.6 654.498 1783.91 654.52Z" fill="#B1BBD8"/>
<path d="M1523.42 922.258C1523.73 922.236 1524.02 921.965 1524.23 921.5C1524.45 921.035 1524.57 920.414 1524.57 919.768C1524.57 919.122 1524.45 918.501 1524.23 918.036C1524.02 917.572 1523.73 917.3 1523.42 917.279C1523.12 917.3 1522.82 917.572 1522.61 918.036C1522.4 918.501 1522.28 919.122 1522.28 919.768C1522.28 920.414 1522.4 921.035 1522.61 921.5C1522.82 921.965 1523.12 922.236 1523.42 922.258Z" fill="#B1BBD8"/>
<path d="M1652.16 907.207C1652.47 907.191 1652.76 906.923 1652.98 906.458C1653.2 905.993 1653.32 905.369 1653.32 904.719C1653.32 904.069 1653.2 903.445 1652.98 902.981C1652.76 902.516 1652.47 902.247 1652.16 902.232C1651.85 902.247 1651.56 902.516 1651.34 902.981C1651.13 903.445 1651.01 904.069 1651.01 904.719C1651.01 905.369 1651.13 905.993 1651.34 906.458C1651.56 906.923 1651.85 907.191 1652.16 907.207Z" fill="#B1BBD8"/>
<path d="M1065.69 157.067C1065.99 157.046 1066.28 156.774 1066.5 156.309C1066.71 155.845 1066.83 155.224 1066.83 154.577C1066.83 153.931 1066.71 153.31 1066.5 152.846C1066.28 152.381 1065.99 152.109 1065.69 152.088C1065.38 152.109 1065.09 152.381 1064.87 152.846C1064.66 153.31 1064.54 153.931 1064.54 154.577C1064.54 155.224 1064.66 155.845 1064.87 156.309C1065.09 156.774 1065.38 157.046 1065.69 157.067Z" fill="#B1BBD8"/>
<path d="M812.724 201.424C813.031 201.402 813.322 201.13 813.535 200.666C813.749 200.201 813.868 199.58 813.868 198.934C813.868 198.288 813.749 197.667 813.535 197.202C813.322 196.738 813.031 196.466 812.724 196.444C812.417 196.466 812.126 196.738 811.912 197.202C811.699 197.667 811.58 198.288 811.58 198.934C811.58 199.58 811.699 200.201 811.912 200.666C812.126 201.13 812.417 201.402 812.724 201.424Z" fill="#B1BBD8"/>
<path d="M790.139 318.662C790.446 318.641 790.737 318.369 790.951 317.904C791.164 317.44 791.284 316.819 791.284 316.173C791.284 315.526 791.164 314.905 790.951 314.441C790.737 313.976 790.446 313.704 790.139 313.683C789.832 313.704 789.541 313.976 789.328 314.441C789.114 314.905 788.995 315.526 788.995 316.173C788.995 316.819 789.114 317.44 789.328 317.904C789.541 318.369 789.832 318.641 790.139 318.662Z" fill="#B1BBD8"/>
<path d="M1013.64 143.576C1013.95 143.555 1014.24 143.283 1014.45 142.818C1014.67 142.354 1014.79 141.733 1014.79 141.087C1014.79 140.44 1014.67 139.819 1014.45 139.355C1014.24 138.89 1013.95 138.619 1013.64 138.597C1013.33 138.619 1013.04 138.89 1012.83 139.355C1012.62 139.819 1012.5 140.44 1012.5 141.087C1012.5 141.733 1012.62 142.354 1012.83 142.818C1013.04 143.283 1013.33 143.555 1013.64 143.576Z" fill="#B1BBD8"/>
<path d="M741.955 122.214C742.262 122.192 742.553 121.92 742.767 121.456C742.98 120.991 743.099 120.37 743.099 119.724C743.099 119.078 742.98 118.457 742.767 117.992C742.553 117.528 742.262 117.256 741.955 117.234C741.648 117.256 741.357 117.528 741.144 117.992C740.93 118.457 740.811 119.078 740.811 119.724C740.811 120.37 740.93 120.991 741.144 121.456C741.357 121.92 741.648 122.192 741.955 122.214Z" fill="#B1BBD8"/>
<path d="M931.673 4.97945C931.98 4.95784 932.271 4.68606 932.484 4.22151C932.698 3.75695 932.817 3.13598 932.817 2.48972C932.817 1.84346 932.698 1.22249 932.484 0.757941C932.271 0.293387 931.98 0.0216112 931.673 0C931.366 0.0216112 931.075 0.293387 930.862 0.757941C930.648 1.22249 930.529 1.84346 930.529 2.48972C930.529 3.13598 930.648 3.75695 930.862 4.22151C931.075 4.68606 931.366 4.95784 931.673 4.97945Z" fill="#B1BBD8"/>
<path d="M1308.11 36.6646C1308.41 36.643 1308.7 36.3712 1308.92 35.9066C1309.13 35.4421 1309.25 34.8211 1309.25 34.1748C1309.25 33.5286 1309.13 32.9076 1308.92 32.4431C1308.7 31.9785 1308.41 31.7067 1308.11 31.6851C1307.8 31.7067 1307.51 31.9785 1307.29 32.4431C1307.08 32.9076 1306.96 33.5286 1306.96 34.1748C1306.96 34.8211 1307.08 35.4421 1307.29 35.9066C1307.51 36.3712 1307.8 36.643 1308.11 36.6646Z" fill="#B1BBD8"/>
<path d="M1300.96 291.196C1301.27 291.174 1301.56 290.903 1301.77 290.438C1301.99 289.973 1302.11 289.352 1302.11 288.706C1302.11 288.06 1301.99 287.439 1301.77 286.974C1301.56 286.51 1301.27 286.238 1300.96 286.216C1300.66 286.238 1300.37 286.51 1300.15 286.974C1299.94 287.439 1299.82 288.06 1299.82 288.706C1299.82 289.352 1299.94 289.973 1300.15 290.438C1300.37 290.903 1300.66 291.174 1300.96 291.196Z" fill="#B1BBD8"/>
<path d="M1868.62 537.449C1868.93 537.427 1869.22 537.155 1869.43 536.691C1869.64 536.226 1869.76 535.605 1869.76 534.959C1869.76 534.313 1869.64 533.692 1869.43 533.227C1869.22 532.763 1868.93 532.491 1868.62 532.469C1868.31 532.491 1868.02 532.763 1867.81 533.227C1867.59 533.692 1867.47 534.313 1867.47 534.959C1867.47 535.605 1867.59 536.226 1867.81 536.691C1868.02 537.155 1868.31 537.427 1868.62 537.449Z" fill="#B1BBD8"/>
<path d="M1562.57 74.6875C1562.88 74.6659 1563.17 74.3941 1563.38 73.9296C1563.6 73.465 1563.72 72.8441 1563.72 72.1978C1563.72 71.5515 1563.6 70.9306 1563.38 70.466C1563.17 70.0015 1562.88 69.7297 1562.57 69.7081C1562.26 69.7297 1561.97 70.0015 1561.76 70.466C1561.55 70.9306 1561.43 71.5515 1561.43 72.1978C1561.43 72.8441 1561.55 73.465 1561.76 73.9296C1561.97 74.3941 1562.26 74.6659 1562.57 74.6875Z" fill="#B1BBD8"/>
<path d="M1428.55 186.531C1428.86 186.51 1429.15 186.238 1429.36 185.774C1429.58 185.309 1429.7 184.688 1429.7 184.042C1429.7 183.395 1429.58 182.774 1429.36 182.31C1429.15 181.845 1428.86 181.574 1428.55 181.552C1428.25 181.574 1427.96 181.845 1427.74 182.31C1427.53 182.774 1427.41 183.395 1427.41 184.042C1427.41 184.688 1427.53 185.309 1427.74 185.774C1427.96 186.238 1428.25 186.51 1428.55 186.531Z" fill="#B1BBD8"/>
<path d="M1091.67 36.6646C1091.98 36.643 1092.27 36.3712 1092.48 35.9066C1092.69 35.4421 1092.81 34.8211 1092.81 34.1748C1092.81 33.5286 1092.69 32.9076 1092.48 32.4431C1092.27 31.9785 1091.98 31.7067 1091.67 31.6851C1091.36 31.7067 1091.07 31.9785 1090.86 32.4431C1090.64 32.9076 1090.53 33.5286 1090.53 34.1748C1090.53 34.8211 1090.64 35.4421 1090.86 35.9066C1091.07 36.3712 1091.36 36.643 1091.67 36.6646Z" fill="#B1BBD8"/>
<path d="M1594.19 438.016C1594.5 437.994 1594.79 437.722 1595 437.258C1595.22 436.793 1595.34 436.172 1595.34 435.526C1595.34 434.88 1595.22 434.259 1595 433.794C1594.79 433.33 1594.5 433.058 1594.19 433.036C1593.88 433.058 1593.59 433.33 1593.38 433.794C1593.17 434.259 1593.05 434.88 1593.05 435.526C1593.05 436.172 1593.17 436.793 1593.38 437.258C1593.59 437.722 1593.88 437.994 1594.19 438.016Z" fill="#B1BBD8"/>
<path d="M1854.68 36.6646C1854.99 36.643 1855.28 36.3712 1855.49 35.9066C1855.71 35.4421 1855.83 34.8211 1855.83 34.1748C1855.83 33.5286 1855.71 32.9076 1855.49 32.4431C1855.28 31.9785 1854.99 31.7067 1854.68 31.6851C1854.38 31.7067 1854.08 31.9785 1853.87 32.4431C1853.66 32.9076 1853.54 33.5286 1853.54 34.1748C1853.54 34.8211 1853.66 35.4421 1853.87 35.9066C1854.08 36.3712 1854.38 36.643 1854.68 36.6646Z" fill="#B1BBD8"/>
<path d="M1660.44 207.762C1660.75 207.74 1661.04 207.468 1661.25 207.004C1661.47 206.539 1661.59 205.918 1661.59 205.272C1661.59 204.626 1661.47 204.005 1661.25 203.54C1661.04 203.076 1660.75 202.804 1660.44 202.782C1660.14 202.804 1659.84 203.076 1659.63 203.54C1659.42 204.005 1659.3 204.626 1659.3 205.272C1659.3 205.918 1659.42 206.539 1659.63 207.004C1659.84 207.468 1660.14 207.74 1660.44 207.762Z" fill="#B1BBD8"/>
<path d="M1387.91 1856.08C1387.92 1856.08 1387.92 1856.04 1387.91 1856.04C1387.91 1856.04 1387.9 1856.04 1387.9 1856.05C1387.9 1856.05 1387.9 1856.06 1387.9 1856.06C1387.9 1856.07 1387.9 1856.07 1387.9 1856.08C1387.9 1856.08 1387.91 1856.08 1387.91 1856.08Z" fill="#B1BBD8"/>
<path d="M1437.6 1975.78C1437.9 1975.76 1438.2 1975.49 1438.41 1975.03C1438.62 1974.56 1438.74 1973.94 1438.74 1973.29C1438.74 1972.65 1438.62 1972.03 1438.41 1971.56C1438.2 1971.1 1437.9 1970.83 1437.6 1970.8C1437.29 1970.83 1437 1971.1 1436.79 1971.56C1436.57 1972.03 1436.45 1972.65 1436.45 1973.29C1436.45 1973.94 1436.57 1974.56 1436.79 1975.03C1437 1975.49 1437.29 1975.76 1437.6 1975.78Z" fill="#B1BBD8"/>
<path d="M1387.91 1817.36C1388.21 1817.34 1388.51 1817.07 1388.72 1816.6C1388.93 1816.14 1389.05 1815.52 1389.05 1814.87C1389.05 1814.23 1388.93 1813.6 1388.72 1813.14C1388.51 1812.68 1388.21 1812.4 1387.91 1812.38C1387.6 1812.4 1387.31 1812.68 1387.1 1813.14C1386.88 1813.6 1386.76 1814.23 1386.76 1814.87C1386.76 1815.52 1386.88 1816.14 1387.1 1816.6C1387.31 1817.07 1387.6 1817.34 1387.91 1817.36Z" fill="#B1BBD8"/>
<path d="M1499.13 262.048C1499.44 262.026 1499.73 261.755 1499.95 261.29C1500.16 260.825 1500.28 260.204 1500.28 259.558C1500.28 258.912 1500.16 258.291 1499.95 257.826C1499.73 257.362 1499.44 257.09 1499.13 257.068C1498.83 257.09 1498.54 257.362 1498.32 257.826C1498.11 258.291 1497.99 258.912 1497.99 259.558C1497.99 260.204 1498.11 260.825 1498.32 261.29C1498.54 261.755 1498.83 262.026 1499.13 262.048Z" fill="#B1BBD8"/>
<path d="M416.719 152.783C417.026 152.761 417.317 152.49 417.53 152.025C417.744 151.56 417.863 150.939 417.863 150.293C417.863 149.647 417.744 149.026 417.53 148.561C417.317 148.097 417.026 147.825 416.719 147.803C416.412 147.825 416.121 148.097 415.908 148.561C415.694 149.026 415.575 149.647 415.575 150.293C415.575 150.939 415.694 151.56 415.908 152.025C416.121 152.49 416.412 152.761 416.719 152.783Z" fill="#B1BBD8"/>
<path d="M1470.72 1902.91C1471.03 1902.89 1471.32 1902.62 1471.53 1902.15C1471.75 1901.69 1471.87 1901.07 1471.87 1900.42C1471.87 1899.77 1471.75 1899.15 1471.53 1898.69C1471.32 1898.22 1471.03 1897.95 1470.72 1897.93C1470.41 1897.95 1470.12 1898.22 1469.91 1898.69C1469.7 1899.15 1469.58 1899.77 1469.58 1900.42C1469.58 1901.07 1469.7 1901.69 1469.91 1902.15C1470.12 1902.62 1470.41 1902.89 1470.72 1902.91Z" fill="#B1BBD8"/>
<path d="M1713.14 1896.57C1713.45 1896.55 1713.74 1896.28 1713.95 1895.81C1714.17 1895.35 1714.29 1894.73 1714.29 1894.08C1714.29 1893.44 1714.17 1892.81 1713.95 1892.35C1713.74 1891.89 1713.45 1891.61 1713.14 1891.59C1712.83 1891.61 1712.54 1891.89 1712.33 1892.35C1712.12 1892.81 1712 1893.44 1712 1894.08C1712 1894.73 1712.12 1895.35 1712.33 1895.81C1712.54 1896.28 1712.83 1896.55 1713.14 1896.57Z" fill="#B1BBD8"/>
<path d="M1740.24 1573.39C1740.55 1573.37 1740.84 1573.09 1741.05 1572.63C1741.27 1572.16 1741.39 1571.54 1741.39 1570.9C1741.39 1570.25 1741.27 1569.63 1741.05 1569.17C1740.84 1568.7 1740.55 1568.43 1740.24 1568.41C1739.94 1568.43 1739.65 1568.7 1739.43 1569.17C1739.22 1569.63 1739.1 1570.25 1739.1 1570.9C1739.1 1571.54 1739.22 1572.16 1739.43 1572.63C1739.65 1573.09 1739.94 1573.37 1740.24 1573.39Z" fill="#B1BBD8"/>
<path d="M1812.52 1529.03C1812.83 1529 1813.12 1528.73 1813.33 1528.27C1813.54 1527.8 1813.66 1527.18 1813.66 1526.54C1813.66 1525.89 1813.54 1525.27 1813.33 1524.8C1813.12 1524.34 1812.83 1524.07 1812.52 1524.05C1812.21 1524.07 1811.92 1524.34 1811.71 1524.8C1811.49 1525.27 1811.37 1525.89 1811.37 1526.54C1811.37 1527.18 1811.49 1527.8 1811.71 1528.27C1811.92 1528.73 1812.21 1529 1812.52 1529.03Z" fill="#B1BBD8"/>
<path d="M1818.54 1839.46C1818.85 1839.44 1819.14 1839.17 1819.35 1838.71C1819.56 1838.24 1819.68 1837.62 1819.68 1836.97C1819.68 1836.33 1819.56 1835.71 1819.35 1835.24C1819.14 1834.78 1818.85 1834.51 1818.54 1834.48C1818.23 1834.51 1817.94 1834.78 1817.73 1835.24C1817.51 1835.71 1817.4 1836.33 1817.4 1836.97C1817.4 1837.62 1817.51 1838.24 1817.73 1838.71C1817.94 1839.17 1818.23 1839.44 1818.54 1839.46Z" fill="#B1BBD8"/>
<path d="M1756.81 1472.7C1756.82 1472.7 1756.82 1472.65 1756.81 1472.65C1756.8 1472.65 1756.8 1472.66 1756.8 1472.66C1756.8 1472.66 1756.8 1472.67 1756.8 1472.68C1756.8 1472.68 1756.8 1472.69 1756.8 1472.69C1756.8 1472.69 1756.8 1472.7 1756.81 1472.7Z" fill="#B1BBD8"/>
<path d="M1765.84 1541.7C1766.15 1541.68 1766.44 1541.41 1766.65 1540.94C1766.87 1540.48 1766.99 1539.86 1766.99 1539.21C1766.99 1538.57 1766.87 1537.94 1766.65 1537.48C1766.44 1537.02 1766.15 1536.74 1765.84 1536.72C1765.54 1536.74 1765.24 1537.02 1765.03 1537.48C1764.82 1537.94 1764.7 1538.57 1764.7 1539.21C1764.7 1539.86 1764.82 1540.48 1765.03 1540.94C1765.24 1541.41 1765.54 1541.68 1765.84 1541.7Z" fill="#B1BBD8"/>
<path d="M1791.44 1253.37C1791.75 1253.35 1792.04 1253.08 1792.26 1252.62C1792.47 1252.15 1792.59 1251.53 1792.59 1250.88C1792.59 1250.23 1792.47 1249.6 1792.26 1249.14C1792.04 1248.67 1791.75 1248.41 1791.44 1248.39C1791.13 1248.41 1790.84 1248.67 1790.62 1249.14C1790.4 1249.6 1790.28 1250.23 1790.28 1250.88C1790.28 1251.53 1790.4 1252.15 1790.62 1252.62C1790.84 1253.08 1791.13 1253.35 1791.44 1253.37Z" fill="#B1BBD8"/>
<path d="M1711.64 1212.88C1711.65 1212.88 1711.65 1212.83 1711.64 1212.83C1711.64 1212.83 1711.64 1212.83 1711.63 1212.84C1711.63 1212.84 1711.63 1212.84 1711.63 1212.84C1711.63 1212.84 1711.63 1212.84 1711.63 1212.85C1711.63 1212.85 1711.63 1212.85 1711.63 1212.86C1711.63 1212.86 1711.63 1212.86 1711.63 1212.86C1711.63 1212.87 1711.63 1212.87 1711.63 1212.87C1711.63 1212.87 1711.63 1212.87 1711.63 1212.88C1711.64 1212.88 1711.64 1212.88 1711.64 1212.88Z" fill="#B1BBD8"/>
<path d="M1753.8 1113.95C1754.1 1113.93 1754.4 1113.66 1754.61 1113.19C1754.82 1112.73 1754.94 1112.11 1754.94 1111.46C1754.94 1110.82 1754.82 1110.2 1754.61 1109.73C1754.4 1109.27 1754.1 1108.99 1753.8 1108.97C1753.49 1108.99 1753.2 1109.27 1752.99 1109.73C1752.77 1110.2 1752.65 1110.82 1752.65 1111.46C1752.65 1112.11 1752.77 1112.73 1752.99 1113.19C1753.2 1113.66 1753.49 1113.93 1753.8 1113.95Z" fill="#B1BBD8"/>
<path d="M1892.32 1212.18C1892.63 1212.16 1892.92 1211.88 1893.13 1211.42C1893.35 1210.96 1893.47 1210.33 1893.47 1209.69C1893.47 1209.04 1893.35 1208.42 1893.13 1207.96C1892.92 1207.49 1892.63 1207.22 1892.32 1207.2C1892.02 1207.22 1891.72 1207.49 1891.51 1207.96C1891.3 1208.42 1891.18 1209.04 1891.18 1209.69C1891.18 1210.33 1891.3 1210.96 1891.51 1211.42C1891.72 1211.88 1892.02 1212.16 1892.32 1212.18Z" fill="#B1BBD8"/>
<path d="M1899.85 1075.93C1900.16 1075.91 1900.45 1075.64 1900.66 1075.17C1900.87 1074.71 1900.99 1074.09 1900.99 1073.44C1900.99 1072.79 1900.87 1072.17 1900.66 1071.71C1900.45 1071.24 1900.16 1070.97 1899.85 1070.95C1899.54 1070.97 1899.25 1071.24 1899.04 1071.71C1898.82 1072.17 1898.71 1072.79 1898.71 1073.44C1898.71 1074.09 1898.82 1074.71 1899.04 1075.17C1899.25 1075.64 1899.54 1075.91 1899.85 1075.93Z" fill="#B1BBD8"/>
<path d="M1857.69 1145.64C1858 1145.62 1858.29 1145.34 1858.5 1144.88C1858.72 1144.42 1858.83 1143.79 1858.83 1143.15C1858.83 1142.5 1858.72 1141.88 1858.5 1141.42C1858.29 1140.95 1858 1140.68 1857.69 1140.66C1857.38 1140.68 1857.09 1140.95 1856.88 1141.42C1856.67 1141.88 1856.55 1142.5 1856.55 1143.15C1856.55 1143.79 1856.67 1144.42 1856.88 1144.88C1857.09 1145.34 1857.38 1145.62 1857.69 1145.64Z" fill="#B1BBD8"/>
<path d="M1904.36 1155.15C1904.67 1155.12 1904.96 1154.85 1905.18 1154.39C1905.39 1153.92 1905.51 1153.3 1905.51 1152.66C1905.51 1152.01 1905.39 1151.39 1905.18 1150.92C1904.96 1150.46 1904.67 1150.19 1904.36 1150.17C1904.06 1150.19 1903.77 1150.46 1903.55 1150.92C1903.34 1151.39 1903.22 1152.01 1903.22 1152.66C1903.22 1153.3 1903.34 1153.92 1903.55 1154.39C1903.77 1154.85 1904.06 1155.12 1904.36 1155.15Z" fill="#B1BBD8"/>
<path d="M1907.38 1513.88C1907.38 1513.88 1907.39 1513.88 1907.39 1513.88C1907.39 1513.87 1907.39 1513.87 1907.39 1513.86C1907.39 1513.86 1907.39 1513.85 1907.39 1513.85C1907.39 1513.84 1907.38 1513.84 1907.38 1513.84C1907.38 1513.84 1907.37 1513.84 1907.37 1513.85C1907.37 1513.85 1907.37 1513.86 1907.37 1513.86C1907.37 1513.87 1907.37 1513.87 1907.37 1513.88C1907.37 1513.88 1907.38 1513.88 1907.38 1513.88Z" fill="#B1BBD8"/>
<path d="M671.187 1516.35C671.494 1516.33 671.785 1516.06 671.999 1515.6C672.212 1515.13 672.331 1514.51 672.331 1513.86C672.331 1513.22 672.212 1512.6 671.999 1512.13C671.785 1511.67 671.494 1511.4 671.187 1511.38C670.88 1511.4 670.589 1511.67 670.376 1512.13C670.162 1512.6 670.043 1513.22 670.043 1513.86C670.043 1514.51 670.162 1515.13 670.376 1515.6C670.589 1516.06 670.88 1516.33 671.187 1516.35Z" fill="#B1BBD8"/>
<path d="M648.602 1399.12C648.909 1399.1 649.2 1398.83 649.414 1398.36C649.627 1397.9 649.746 1397.28 649.746 1396.63C649.746 1395.98 649.627 1395.36 649.414 1394.9C649.2 1394.43 648.909 1394.16 648.602 1394.14C648.295 1394.16 648.004 1394.43 647.791 1394.9C647.577 1395.36 647.458 1395.98 647.458 1396.63C647.458 1397.28 647.577 1397.9 647.791 1398.36C648.004 1398.83 648.295 1399.1 648.602 1399.12Z" fill="#B1BBD8"/>
<path d="M504.053 1605.07C504.36 1605.05 504.651 1604.78 504.864 1604.31C505.078 1603.85 505.197 1603.23 505.197 1602.58C505.197 1601.94 505.078 1601.32 504.864 1600.85C504.651 1600.39 504.36 1600.11 504.053 1600.09C503.746 1600.11 503.455 1600.39 503.242 1600.85C503.028 1601.32 502.909 1601.94 502.909 1602.58C502.909 1603.23 503.028 1603.85 503.242 1604.31C503.455 1604.78 503.746 1605.05 504.053 1605.07Z" fill="#B1BBD8"/>
<path d="M467.918 1845.88C468.225 1845.86 468.516 1845.58 468.729 1845.12C468.943 1844.65 469.062 1844.03 469.062 1843.39C469.062 1842.74 468.943 1842.12 468.729 1841.66C468.516 1841.19 468.225 1840.92 467.918 1840.9C467.611 1840.92 467.32 1841.19 467.106 1841.66C466.893 1842.12 466.773 1842.74 466.773 1843.39C466.773 1844.03 466.893 1844.65 467.106 1845.12C467.32 1845.58 467.611 1845.86 467.918 1845.88Z" fill="#B1BBD8"/>
<path d="M719.371 1864.89C719.678 1864.86 719.969 1864.59 720.182 1864.13C720.396 1863.66 720.515 1863.04 720.515 1862.4C720.515 1861.75 720.396 1861.13 720.182 1860.66C719.969 1860.2 719.678 1859.93 719.371 1859.91C719.064 1859.93 718.773 1860.2 718.559 1860.66C718.346 1861.13 718.227 1861.75 718.227 1862.4C718.227 1863.04 718.346 1863.66 718.559 1864.13C718.773 1864.59 719.064 1864.86 719.371 1864.89Z" fill="#B1BBD8"/>
<path d="M937.699 1576.56C938.006 1576.53 938.297 1576.26 938.511 1575.8C938.724 1575.33 938.844 1574.71 938.844 1574.07C938.844 1573.42 938.724 1572.8 938.511 1572.33C938.297 1571.87 938.006 1571.6 937.699 1571.58C937.392 1571.6 937.102 1571.87 936.888 1572.33C936.675 1572.8 936.555 1573.42 936.555 1574.07C936.555 1574.71 936.675 1575.33 936.888 1575.8C937.102 1576.26 937.392 1576.53 937.699 1576.56Z" fill="#B1BBD8"/>
<path d="M805.196 1624.08C805.503 1624.06 805.794 1623.79 806.008 1623.32C806.221 1622.86 806.341 1622.24 806.341 1621.59C806.341 1620.95 806.221 1620.32 806.008 1619.86C805.794 1619.4 805.503 1619.12 805.196 1619.1C804.89 1619.12 804.599 1619.4 804.385 1619.86C804.172 1620.32 804.052 1620.95 804.052 1621.59C804.052 1622.24 804.172 1622.86 804.385 1623.32C804.599 1623.79 804.89 1624.06 805.196 1624.08Z" fill="#B1BBD8"/>
<path d="M809.715 1487.84C810.021 1487.82 810.312 1487.54 810.526 1487.08C810.739 1486.62 810.859 1485.99 810.859 1485.35C810.859 1484.7 810.739 1484.08 810.526 1483.62C810.312 1483.15 810.021 1482.88 809.715 1482.86C809.408 1482.88 809.117 1483.15 808.903 1483.62C808.69 1484.08 808.57 1484.7 808.57 1485.35C808.57 1485.99 808.69 1486.62 808.903 1487.08C809.117 1487.54 809.408 1487.82 809.715 1487.84Z" fill="#B1BBD8"/>
<path d="M1000.94 1411.79C1001.25 1411.77 1001.54 1411.5 1001.75 1411.03C1001.96 1410.57 1002.08 1409.95 1002.08 1409.3C1002.08 1408.66 1001.96 1408.03 1001.75 1407.57C1001.54 1407.11 1001.25 1406.83 1000.94 1406.81C1000.63 1406.83 1000.34 1407.11 1000.13 1407.57C999.914 1408.03 999.794 1408.66 999.794 1409.3C999.794 1409.95 999.914 1410.57 1000.13 1411.03C1000.34 1411.5 1000.63 1411.77 1000.94 1411.79Z" fill="#B1BBD8"/>
<path d="M915.113 1880.73C915.42 1880.71 915.711 1880.44 915.924 1879.97C916.138 1879.51 916.257 1878.89 916.257 1878.24C916.257 1877.6 916.138 1876.98 915.924 1876.51C915.711 1876.05 915.42 1875.77 915.113 1875.75C914.806 1875.77 914.515 1876.05 914.302 1876.51C914.088 1876.98 913.969 1877.6 913.969 1878.24C913.969 1878.89 914.088 1879.51 914.302 1879.97C914.515 1880.44 914.806 1880.71 915.113 1880.73Z" fill="#B1BBD8"/>
<path d="M214.956 1858.55C215.263 1858.53 215.554 1858.26 215.767 1857.79C215.981 1857.33 216.1 1856.71 216.1 1856.06C216.1 1855.41 215.981 1854.79 215.767 1854.33C215.554 1853.86 215.263 1853.59 214.956 1853.57C214.649 1853.59 214.358 1853.86 214.144 1854.33C213.931 1854.79 213.812 1855.41 213.812 1856.06C213.812 1856.71 213.931 1857.33 214.144 1857.79C214.358 1858.26 214.649 1858.53 214.956 1858.55Z" fill="#B1BBD8"/>
<path d="M288.736 1598.73C289.043 1598.71 289.334 1598.44 289.547 1597.98C289.761 1597.51 289.88 1596.89 289.88 1596.24C289.88 1595.6 289.761 1594.98 289.547 1594.51C289.334 1594.05 289.043 1593.78 288.736 1593.75C288.429 1593.78 288.138 1594.05 287.925 1594.51C287.711 1594.98 287.592 1595.6 287.592 1596.24C287.592 1596.89 287.711 1597.51 287.925 1597.98C288.138 1598.44 288.429 1598.71 288.736 1598.73Z" fill="#B1BBD8"/>
<path d="M326.379 1757.16C326.686 1757.14 326.976 1756.87 327.19 1756.4C327.403 1755.94 327.523 1755.32 327.523 1754.67C327.523 1754.02 327.403 1753.4 327.19 1752.94C326.976 1752.47 326.686 1752.2 326.379 1752.18C326.072 1752.2 325.781 1752.47 325.567 1752.94C325.354 1753.4 325.234 1754.02 325.234 1754.67C325.234 1755.32 325.354 1755.94 325.567 1756.4C325.781 1756.87 326.072 1757.14 326.379 1757.16Z" fill="#B1BBD8"/>
<path d="M333.909 1428.33C333.911 1428.33 333.914 1428.33 333.916 1428.33C333.918 1428.32 333.919 1428.32 333.919 1428.31C333.919 1428.31 333.918 1428.3 333.916 1428.3C333.914 1428.29 333.911 1428.29 333.909 1428.29C333.907 1428.29 333.906 1428.29 333.905 1428.29C333.904 1428.29 333.902 1428.3 333.901 1428.3C333.9 1428.3 333.9 1428.3 333.899 1428.3C333.899 1428.31 333.898 1428.31 333.898 1428.31C333.898 1428.32 333.899 1428.32 333.899 1428.32C333.9 1428.32 333.9 1428.33 333.901 1428.33C333.902 1428.33 333.904 1428.33 333.905 1428.33C333.906 1428.33 333.907 1428.33 333.909 1428.33Z" fill="#B1BBD8"/>
<path d="M168.278 448.568C168.584 448.547 168.875 448.275 169.089 447.81C169.302 447.346 169.422 446.725 169.422 446.078C169.422 445.432 169.302 444.811 169.089 444.347C168.875 443.882 168.584 443.61 168.278 443.589C167.971 443.61 167.68 443.882 167.466 444.347C167.253 444.811 167.133 445.432 167.133 446.078C167.133 446.725 167.253 447.346 167.466 447.81C167.68 448.275 167.971 448.547 168.278 448.568Z" fill="#B1BBD8"/>
<path d="M234.531 188.752C234.838 188.731 235.129 188.459 235.343 187.994C235.556 187.53 235.676 186.909 235.676 186.263C235.676 185.616 235.556 184.995 235.343 184.531C235.129 184.066 234.838 183.794 234.531 183.773C234.224 183.794 233.934 184.066 233.72 184.531C233.507 184.995 233.387 185.616 233.387 186.263C233.387 186.909 233.507 187.53 233.72 187.994C233.934 188.459 234.224 188.731 234.531 188.752Z" fill="#B1BBD8"/>
<path d="M71.9128 144.391C72.2197 144.37 72.5107 144.098 72.7242 143.633C72.9377 143.169 73.057 142.548 73.057 141.902C73.057 141.255 72.9377 140.634 72.7242 140.17C72.5107 139.705 72.2197 139.434 71.9128 139.412C71.6058 139.434 71.3149 139.705 71.1014 140.17C70.8879 140.634 70.7686 141.255 70.7686 141.902C70.7686 142.548 70.8879 143.169 71.1014 143.633C71.3149 144.098 71.6058 144.37 71.9128 144.391Z" fill="#B1BBD8"/>
<path d="M1.14423 423.221C1.45117 423.199 1.7421 422.928 1.9556 422.463C2.1691 421.998 2.28845 421.377 2.28845 420.731C2.28845 420.085 2.1691 419.464 1.9556 418.999C1.7421 418.535 1.45117 418.263 1.14423 418.241C0.837286 418.263 0.546349 418.535 0.33285 418.999C0.11935 419.464 0 420.085 0 420.731C0 421.377 0.11935 421.998 0.33285 422.463C0.546349 422.928 0.837286 423.199 1.14423 423.221Z" fill="#B1BBD8"/>
<path d="M49.3278 321.828C49.6348 321.806 49.9257 321.534 50.1392 321.07C50.3527 320.605 50.472 319.984 50.472 319.338C50.472 318.692 50.3527 318.071 50.1392 317.606C49.9257 317.142 49.6348 316.87 49.3278 316.848C49.0209 316.87 48.7299 317.142 48.5164 317.606C48.3029 318.071 48.1836 318.692 48.1836 319.338C48.1836 319.984 48.3029 320.605 48.5164 321.07C48.7299 321.534 49.0209 321.806 49.3278 321.828Z" fill="#B1BBD8"/>
<path d="M108.055 427.089C108.057 427.089 108.06 427.086 108.062 427.082C108.064 427.078 108.065 427.073 108.065 427.067C108.065 427.061 108.064 427.056 108.062 427.052C108.06 427.048 108.057 427.045 108.055 427.045C108.052 427.045 108.049 427.048 108.047 427.052C108.046 427.056 108.044 427.061 108.044 427.067C108.044 427.073 108.046 427.078 108.047 427.082C108.049 427.086 108.052 427.089 108.055 427.089Z" fill="#B1BBD8"/>
<path d="M160.751 382.028C161.058 382.007 161.349 381.735 161.562 381.27C161.776 380.806 161.895 380.185 161.895 379.539C161.895 378.892 161.776 378.271 161.562 377.807C161.349 377.342 161.058 377.071 160.751 377.049C160.444 377.071 160.153 377.342 159.939 377.807C159.726 378.271 159.606 378.892 159.606 379.539C159.606 380.185 159.726 380.806 159.939 381.27C160.153 381.735 160.444 382.007 160.751 382.028Z" fill="#B1BBD8"/>
<path d="M284.218 328.166C284.525 328.144 284.816 327.872 285.029 327.408C285.243 326.943 285.362 326.322 285.362 325.676C285.362 325.03 285.243 324.409 285.029 323.944C284.816 323.48 284.525 323.208 284.218 323.186C283.911 323.208 283.62 323.48 283.407 323.944C283.193 324.409 283.074 325.03 283.074 325.676C283.074 326.322 283.193 326.943 283.407 327.408C283.62 327.872 283.911 328.144 284.218 328.166Z" fill="#B1BBD8"/>
<path d="M395.641 138.049C395.95 138.034 396.243 137.765 396.459 137.3C396.675 136.835 396.795 136.211 396.795 135.562C396.795 134.912 396.675 134.288 396.459 133.823C396.243 133.358 395.95 133.089 395.641 133.074C395.332 133.089 395.039 133.358 394.823 133.823C394.607 134.288 394.486 134.912 394.486 135.562C394.486 136.211 394.607 136.835 394.823 137.3C395.039 137.765 395.332 138.034 395.641 138.049Z" fill="#B1BBD8"/>
<path d="M335.414 77.8488C335.722 77.8334 336.016 77.5646 336.232 77.0997C336.448 76.6349 336.568 76.0109 336.568 75.3612C336.568 74.7114 336.448 74.0874 336.232 73.6226C336.016 73.1577 335.722 72.8889 335.414 72.8735C335.105 72.8889 334.812 73.1577 334.596 73.6226C334.38 74.0874 334.259 74.7114 334.259 75.3612C334.259 76.0109 334.38 76.6349 334.596 77.0997C334.812 77.5646 335.105 77.8334 335.414 77.8488Z" fill="#B1BBD8"/>
<path d="M389.619 46.172C389.926 46.1504 390.217 45.8786 390.43 45.4141C390.644 44.9495 390.763 44.3286 390.763 43.6823C390.763 43.036 390.644 42.4151 390.43 41.9505C390.217 41.486 389.926 41.2142 389.619 41.1926C389.312 41.2142 389.021 41.486 388.807 41.9505C388.594 42.4151 388.475 43.036 388.475 43.6823C388.475 44.3286 388.594 44.9495 388.807 45.4141C389.021 45.8786 389.312 46.1504 389.619 46.172Z" fill="#B1BBD8"/>
<path d="M80.9465 46.172C81.2534 46.1504 81.5443 45.8786 81.7578 45.4141C81.9713 44.9495 82.0907 44.3286 82.0907 43.6823C82.0907 43.036 81.9713 42.4151 81.7578 41.9505C81.5443 41.486 81.2534 41.2142 80.9465 41.1926C80.6395 41.2142 80.3486 41.486 80.1351 41.9505C79.9216 42.4151 79.8022 43.036 79.8022 43.6823C79.8022 44.3286 79.9216 44.9495 80.1351 45.4141C80.3486 45.8786 80.6395 46.1504 80.9465 46.172Z" fill="#B1BBD8"/>
<path d="M374.562 144.391C374.869 144.37 375.16 144.098 375.373 143.633C375.587 143.169 375.706 142.548 375.706 141.902C375.706 141.255 375.587 140.634 375.373 140.17C375.16 139.705 374.869 139.434 374.562 139.412C374.255 139.434 373.964 139.705 373.75 140.17C373.537 140.634 373.417 141.255 373.417 141.902C373.417 142.548 373.537 143.169 373.75 143.633C373.964 144.098 374.255 144.37 374.562 144.391Z" fill="#B1BBD8"/>
<path d="M564.283 103.904C564.285 103.904 564.288 103.901 564.29 103.897C564.292 103.893 564.293 103.888 564.293 103.882C564.293 103.876 564.292 103.871 564.29 103.867C564.288 103.863 564.285 103.861 564.283 103.861C564.28 103.861 564.277 103.863 564.275 103.867C564.274 103.871 564.272 103.876 564.272 103.882C564.272 103.888 564.274 103.893 564.275 103.897C564.277 103.901 564.28 103.904 564.283 103.904Z" fill="#B1BBD8"/>
<path d="M644.085 416.883C644.392 416.861 644.683 416.59 644.896 416.125C645.11 415.661 645.229 415.04 645.229 414.393C645.229 413.747 645.11 413.126 644.896 412.662C644.683 412.197 644.392 411.925 644.085 411.904C643.778 411.925 643.487 412.197 643.273 412.662C643.06 413.126 642.94 413.747 642.94 414.393C642.94 415.04 643.06 415.661 643.273 416.125C643.487 416.59 643.778 416.861 644.085 416.883Z" fill="#B1BBD8"/>
<path d="M704.313 255.292C704.62 255.27 704.911 254.999 705.125 254.534C705.338 254.07 705.457 253.449 705.457 252.802C705.457 252.156 705.338 251.535 705.125 251.071C704.911 250.606 704.62 250.334 704.313 250.313C704.006 250.334 703.715 250.606 703.502 251.071C703.288 251.535 703.169 252.156 703.169 252.802C703.169 253.449 703.288 254.07 703.502 254.534C703.715 254.999 704.006 255.27 704.313 255.292Z" fill="#B1BBD8"/>
<path d="M1015.08 1003.48C1015.39 1003.46 1015.68 1003.19 1015.89 1002.72C1016.11 1002.26 1016.23 1001.64 1016.23 1000.99C1016.23 1000.34 1016.11 999.723 1015.89 999.258C1015.68 998.794 1015.39 998.522 1015.08 998.5C1014.77 998.522 1014.48 998.794 1014.27 999.258C1014.06 999.723 1013.94 1000.34 1013.94 1000.99C1013.94 1001.64 1014.06 1002.26 1014.27 1002.72C1014.48 1003.19 1014.77 1003.46 1015.08 1003.48Z" fill="#B1BBD8"/>
<path d="M689.257 1170.99C689.563 1170.96 689.854 1170.69 690.068 1170.23C690.281 1169.76 690.401 1169.14 690.401 1168.5C690.401 1167.85 690.281 1167.23 690.068 1166.76C689.854 1166.3 689.563 1166.03 689.257 1166.01C688.95 1166.03 688.659 1166.3 688.445 1166.76C688.232 1167.23 688.112 1167.85 688.112 1168.5C688.112 1169.14 688.232 1169.76 688.445 1170.23C688.659 1170.69 688.95 1170.96 689.257 1170.99Z" fill="#B1BBD8"/>
<path d="M823.254 748.861C823.561 748.839 823.851 748.567 824.065 748.103C824.278 747.638 824.398 747.017 824.398 746.371C824.398 745.725 824.278 745.104 824.065 744.639C823.851 744.175 823.561 743.903 823.254 743.881C822.947 743.903 822.656 744.175 822.442 744.639C822.229 745.104 822.109 745.725 822.109 746.371C822.109 747.017 822.229 747.638 822.442 748.103C822.656 748.567 822.947 748.839 823.254 748.861Z" fill="#B1BBD8"/>
</svg>
