<svg width="1038" height="976" viewBox="0 0 1038 976" fill="none" xmlns="http://www.w3.org/2000/svg">
<path style="mix-blend-mode:screen" fill-rule="evenodd" clip-rule="evenodd" d="M924.085 481.871C924.761 484.156 925.134 485.508 925.134 485.508C924.785 484.179 924.412 482.803 924.062 481.428C923.456 472.429 922.64 463.5 921.521 454.664V454.711C920.448 440.956 917.371 425.15 913.664 409.949C908.862 388.781 902.59 368.148 894.99 348.192C894.617 347.166 894.407 346.607 894.407 346.607C894.407 346.607 894.384 346.607 894.361 346.607C874.078 293.895 844.4 245.823 807.402 204.465C807.635 204.698 807.775 204.862 807.775 204.862L807.122 204.162C803.229 199.803 799.242 195.536 795.186 191.317L794.673 190.757C793.437 189.405 792.062 188.006 790.593 186.607C783.063 179.03 775.276 171.733 767.233 164.693C767.256 164.693 767.326 164.739 767.326 164.739C767.326 164.739 767.233 164.669 767.117 164.576C696.36 102.586 606.511 61.8575 507.546 52.3223C507.639 52.3223 507.709 52.3223 507.709 52.3223C504.025 51.9027 499.502 51.553 494.653 51.2732C484.069 50.5505 473.415 50.1542 462.644 50.1542C461.385 50.1542 460.126 50.2008 458.867 50.2008C455.16 50.1542 452.899 50.1542 452.899 50.1542C452.899 50.1542 452.573 50.2008 452.06 50.2941C431.054 50.7603 410.399 52.6487 390.163 55.8193H390.186C390.186 55.8193 327.986 60.6918 271.171 91.5354C259.375 96.8975 247.858 102.772 236.621 109.09L236.504 109.16C226.62 114.709 216.968 120.607 207.549 126.855C200.788 131.331 194.144 135.994 187.616 140.82C187.616 140.82 187.616 140.82 187.616 140.797C187.616 140.797 187.057 141.216 186.054 141.939C185.961 142.009 185.891 142.055 185.798 142.125C177.755 148.14 144.883 173.109 131.664 189.638C127.818 193.578 124.018 197.565 120.311 201.644C120.311 201.668 120.264 201.691 120.241 201.714C120.078 201.901 119.518 202.53 118.609 203.556C108.421 214.91 98.7692 226.753 89.7236 239.062C78.5099 253.96 66.6434 271.305 58.6702 287.274V287.321C49.0418 304.573 40.4625 322.477 33.0488 341.012C20.1099 370.386 14.0018 399.808 14.0018 399.808V399.831C4.95624 435.92 0.130371 473.688 0.130371 512.598C0.130371 587.714 18.0583 658.633 49.8344 721.346C62.7267 755.896 84.5014 790.703 120.917 824.274C120.94 824.297 120.963 824.321 120.987 824.344C205.568 916.968 327.287 975.088 462.597 975.088C527.502 975.088 589.259 961.706 645.304 937.577H645.351L645.584 937.46C660.132 931.189 674.306 924.172 688.038 916.502L688.317 916.362C688.317 916.362 688.294 916.362 688.271 916.362C723.194 896.802 755.297 872.859 783.879 845.256C791.549 838.146 795.699 833.46 795.699 833.46L795.885 833.25C801.574 827.328 807.122 821.267 812.508 815.065C817.823 809.26 820.434 805.647 820.434 805.647L820.271 805.833C829.317 794.806 837.896 783.359 845.892 771.493C849.856 765.618 853.679 759.673 857.386 753.611C857.386 753.588 857.456 753.541 857.456 753.541C900.352 683.368 925.088 600.909 925.088 512.645C925.088 502.293 924.715 492.035 924.039 481.871H924.085Z" fill="url(#paint0_radial_16_1637)"/>
<path d="M452.572 933.474C681.462 933.474 867.014 747.922 867.014 519.032C867.014 290.143 681.462 104.591 452.572 104.591C223.683 104.591 38.1309 290.143 38.1309 519.032C38.1309 747.922 223.683 933.474 452.572 933.474Z" fill="url(#paint1_radial_16_1637)"/>
<path style="mix-blend-mode:screen" opacity="0.3" fill-rule="evenodd" clip-rule="evenodd" d="M608.399 135.691C608.399 135.691 506.147 100.324 461.245 126.086C400.421 161.009 441.779 531.622 655.959 643.013C870.138 754.404 797.937 502.153 830.249 480.285C862.562 458.418 877.622 660.661 775.393 756.152C673.164 851.644 418.023 743.33 283.388 472.942C148.777 202.53 387.622 109.65 387.622 109.65C387.622 109.65 331.88 114.009 280.963 141.659C280.963 141.659 167.754 244.075 219.766 455.177C271.778 666.279 636.562 898.55 785.394 752.725C817.45 721.322 886.784 587.34 852.211 467.113C784.882 331.64 826.589 602.191 682.699 607.903C515.193 614.547 428.024 286.482 471.247 184.253C514.47 82.0235 725.619 207.239 725.619 207.239C725.619 207.239 650.667 149.609 608.423 135.691H608.399Z" fill="url(#paint2_linear_16_1637)"/>
<path style="mix-blend-mode:screen" opacity="0.3" fill-rule="evenodd" clip-rule="evenodd" d="M511.136 339.263C491.11 273.753 471.666 180.336 546.036 160.356C620.429 140.4 702.026 225.191 757.745 306.834C813.44 388.501 760.472 516.887 678.806 526.236C597.139 535.585 552.261 473.874 511.136 339.24V339.263Z" fill="url(#paint3_linear_16_1637)"/>
<path style="mix-blend-mode:multiply" opacity="0.5" fill-rule="evenodd" clip-rule="evenodd" d="M665.657 509.054C642.297 510.43 614.6 494.437 589.399 468.466C589.002 468.069 588.676 467.743 588.466 467.556C556.48 434.335 528.597 385.051 518.666 334.717V334.647C512.604 303.92 513.211 272.867 523.608 244.704C563.078 137.579 699.881 220.761 741.915 299.257C783.902 377.683 736.856 504.928 665.657 509.078V509.054Z" fill="url(#paint4_linear_16_1637)"/>
<path style="mix-blend-mode:multiply" opacity="0.5" fill-rule="evenodd" clip-rule="evenodd" d="M665.657 509.054C642.297 510.43 614.6 494.437 589.399 468.466C598.747 476.812 651.972 521.597 686.709 492.945C768.772 425.289 716.41 246.592 603.969 237.011C515.099 229.434 518.922 331.733 518.666 334.647C512.604 303.92 513.211 272.867 523.608 244.704C563.078 137.579 699.881 220.761 741.915 299.257C783.902 377.683 736.856 504.928 665.657 509.078V509.054Z" fill="url(#paint5_linear_16_1637)"/>
<path style="mix-blend-mode:screen" opacity="0.3" fill-rule="evenodd" clip-rule="evenodd" d="M138.332 740.02C157.868 813.41 224.405 834.788 320.805 825.347C417.206 815.905 485.374 870.761 583.43 878.221C681.51 885.705 751.053 806.533 751.053 806.533L773.224 781.587C773.224 781.587 699.717 883.21 541 860.76C382.283 838.309 381.98 762.074 336.589 673.763C275.927 555.751 196.032 577.432 138.332 462.707C80.6079 347.982 145.792 240.321 145.792 240.321C145.792 240.321 107.861 282.378 90.5393 317.092C90.5393 317.092 84.7576 382.509 118.002 484.086C151.247 585.662 114.575 650.823 138.308 739.996L138.332 740.02Z" fill="url(#paint6_linear_16_1637)"/>
<path style="mix-blend-mode:multiply" opacity="0.5" fill-rule="evenodd" clip-rule="evenodd" d="M189.155 582.725C207.503 577.246 232.541 584.799 257.486 600.769C257.883 601.002 258.209 601.212 258.396 601.329C290.078 621.798 321.528 655.812 338.873 694.022V694.069C349.458 717.406 354.796 742.235 351.812 766.62C340.435 859.314 215.942 818.702 167.753 764.079C119.635 709.503 133.25 599.347 189.178 582.725H189.155Z" fill="url(#paint7_linear_16_1637)"/>
<path style="mix-blend-mode:multiply" opacity="0.5" fill-rule="evenodd" clip-rule="evenodd" d="M189.155 582.725C207.502 577.246 232.541 584.799 257.486 600.769C248.487 595.873 197.711 570.182 175.423 599.51C122.758 668.774 197.921 801.241 289.239 787.812C361.417 777.205 339.2 696.447 338.873 694.092C349.457 717.429 354.796 742.258 351.789 766.644C340.412 859.337 215.919 818.726 167.73 764.102C119.611 709.526 133.226 599.37 189.155 582.748V582.725Z" fill="url(#paint8_linear_16_1637)"/>
<path style="mix-blend-mode:screen" opacity="0.3" fill-rule="evenodd" clip-rule="evenodd" d="M863.797 467.114C863.797 467.114 843.841 400.927 799.126 351.456C754.411 301.985 715.081 228.665 688.807 202.134C662.51 175.58 728.72 206.703 750.145 230.553L761.918 243.189C761.918 243.189 728.416 208.056 713.449 215.213C698.482 222.37 768.399 311.917 784.205 329.541C800.012 347.166 839.551 370.247 839.551 370.247C839.551 370.247 860.813 427.947 863.844 467.137L863.797 467.114Z" fill="url(#paint9_linear_16_1637)"/>
<path style="mix-blend-mode:screen" opacity="0.3" fill-rule="evenodd" clip-rule="evenodd" d="M867.014 494.717C867.014 494.717 843.584 407.828 811.995 416.127C780.405 424.427 767.326 580.486 670.226 592.703C589.119 602.914 479.546 404.237 473.718 268.484C467.89 132.73 551.142 148.327 594.225 157.396C643.929 167.863 671.229 186.397 691.884 217.078C712.54 247.758 731.167 270.419 731.167 270.419C731.167 270.419 698.016 227.988 674.446 203.976C650.876 179.963 581.566 133.756 517.361 165.019C460.966 192.482 474.184 367.962 548.53 480.122C603.48 563.025 677.99 605.199 739.886 527.169C801.783 449.139 782.27 409.693 813.44 404.704C844.61 399.715 856.989 456.949 867.014 494.717Z" fill="url(#paint10_linear_16_1637)"/>
<path style="mix-blend-mode:screen" opacity="0.3" fill-rule="evenodd" clip-rule="evenodd" d="M582.241 452.379C537.899 410.392 507.009 313.339 546.385 271.375C585.762 229.41 661.74 317.325 689.226 406.942C716.736 496.558 624.182 492.105 582.241 452.379Z" fill="url(#paint11_linear_16_1637)"/>
<path style="mix-blend-mode:multiply" opacity="0.83" fill-rule="evenodd" clip-rule="evenodd" d="M662.486 450.748H662.44C651.645 462.707 634.114 466.624 611.407 458.254C553.963 437.156 535.312 353.764 541.047 324.086C552.074 266.922 627.633 291.191 660.271 356.515C679.901 395.938 678.992 432.493 662.509 450.724L662.486 450.748Z" fill="url(#paint12_linear_16_1637)"/>
<path style="mix-blend-mode:multiply" opacity="0.5" fill-rule="evenodd" clip-rule="evenodd" d="M662.486 450.748H662.439C680.111 422.235 673.677 368.894 626.141 327.909C578.605 286.995 541.047 324.109 541.047 324.109C552.074 266.945 627.633 291.214 660.271 356.538C679.901 395.961 678.992 432.516 662.509 450.748H662.486Z" fill="url(#paint13_linear_16_1637)"/>
<path style="mix-blend-mode:multiply" opacity="0.83" fill-rule="evenodd" clip-rule="evenodd" d="M225.571 618.627H225.617C238.02 612.356 255.668 612.589 276.394 621.937C328.802 645.554 333.581 704.7 323.254 723.724C303.367 760.372 233.894 731.673 212.655 682.366C199.903 652.618 206.64 628.185 225.571 618.627V618.627Z" fill="url(#paint14_linear_16_1637)"/>
<path style="mix-blend-mode:multiply" opacity="0.5" fill-rule="evenodd" clip-rule="evenodd" d="M225.571 618.627H225.617C203.889 634.923 201.581 671.875 241.191 707.218C280.8 742.538 323.254 723.724 323.254 723.724C303.367 760.372 233.894 731.674 212.655 682.366C199.903 652.618 206.64 628.186 225.571 618.627V618.627Z" fill="url(#paint15_linear_16_1637)"/>
<path style="mix-blend-mode:screen" opacity="0.3" fill-rule="evenodd" clip-rule="evenodd" d="M67.5991 365.257C67.5991 365.257 101.03 457.742 100.797 559.528C100.564 661.314 98.9089 763.706 187.826 818.889C276.743 874.071 320.805 843.321 427.184 867.427C533.563 891.533 577.486 895.916 654.839 880.832L616.326 899.856C616.326 899.856 545.057 910.044 434.178 880.832C323.3 851.621 244.501 888.806 146.352 798.326C48.2024 707.847 68.6948 607.553 67.5991 532.624C66.5033 457.695 50.5337 417.946 50.5337 417.946C50.5337 417.946 55.989 391.578 67.5991 365.257V365.257Z" fill="url(#paint16_linear_16_1637)"/>
<path style="mix-blend-mode:multiply" opacity="0.5" fill-rule="evenodd" clip-rule="evenodd" d="M822.066 663.668C822.066 663.668 694.239 787.183 502.393 677.33C303.204 563.258 243.149 340.499 309.172 208.359C354.773 117.087 443.807 104.591 443.807 104.591C443.807 104.591 477.028 104.684 492.928 106.526C492.928 106.526 393.87 109.65 378.716 264.94C361.324 443.264 464.579 672.947 611.267 701.459C756.929 729.785 798.193 683.019 825.283 633.408C852.35 583.774 822.066 663.668 822.066 663.668V663.668Z" fill="url(#paint17_linear_16_1637)"/>
<path style="mix-blend-mode:multiply" opacity="0.5" fill-rule="evenodd" clip-rule="evenodd" d="M780.731 767.11C780.731 767.11 710.558 848.683 528.294 801.567C352.535 756.129 96.3444 457.415 223.938 173.319L249.979 157.396C249.979 157.396 121.896 319.33 283.457 574.938C417.602 787.159 651.319 863.93 796.048 750.977L780.708 767.11H780.731Z" fill="url(#paint18_linear_16_1637)"/>
<path style="mix-blend-mode:screen" opacity="0.3" fill-rule="evenodd" clip-rule="evenodd" d="M157.099 607.903C157.099 607.903 115.042 681.526 167.73 764.102C220.418 846.655 320.386 828.191 342.207 801.59C364.028 774.99 341.041 682.692 341.041 682.692C341.041 682.692 414.712 798.35 367.339 810.822C322.717 822.572 270.076 846.049 189.575 804.271C109.074 762.517 127.188 675.208 157.076 607.903H157.099Z" fill="url(#paint19_linear_16_1637)"/>
<path style="mix-blend-mode:multiply" opacity="0.5" fill-rule="evenodd" clip-rule="evenodd" d="M390.815 421.326C390.815 421.326 442.198 630.47 568.487 687.028C694.798 743.587 786.07 682.669 786.07 682.669C786.07 682.669 696.873 748.785 573.452 701.343C429.819 646.137 390.815 421.303 390.815 421.303V421.326Z" fill="url(#paint20_linear_16_1637)"/>
<path style="mix-blend-mode:multiply" opacity="0.5" fill-rule="evenodd" clip-rule="evenodd" d="M402.869 710.319C402.869 710.319 620.522 889.925 806.423 734.891C806.423 734.891 666.1 919.323 402.869 710.319V710.319Z" fill="url(#paint21_linear_16_1637)"/>
<path style="mix-blend-mode:multiply" opacity="0.5" fill-rule="evenodd" clip-rule="evenodd" d="M519.715 509.147C519.715 509.147 589.119 637.627 698.109 667.748C817.706 700.807 813.836 599.533 813.836 599.533C813.836 599.533 783.832 685.233 694.239 656.511C575.947 618.604 519.715 509.124 519.715 509.124V509.147Z" fill="url(#paint22_linear_16_1637)"/>
<path style="mix-blend-mode:screen" opacity="0.3" fill-rule="evenodd" clip-rule="evenodd" d="M155.98 229.574C155.98 229.574 130.242 319.05 138.332 398.339C146.421 477.651 198.597 521.154 230.629 549.316C262.685 577.479 283.481 602.751 283.481 602.751C283.481 602.751 253.406 551.065 185.122 472.919C116.837 394.772 137.935 306.578 206.104 185.768C206.104 185.768 169.525 212.602 155.98 229.55V229.574Z" fill="url(#paint23_linear_16_1637)"/>
<g style="mix-blend-mode:soft-light">
<path fill-rule="evenodd" clip-rule="evenodd" d="M363.189 472.942C352.861 443.311 373.144 524.021 373.167 545.796C373.191 567.571 414.712 580.253 438.002 607.903C461.268 635.552 492.835 662.969 492.835 662.969C492.835 662.969 393.124 558.828 363.189 472.942V472.942Z" fill="white"/>
</g>
<g style="mix-blend-mode:soft-light">
<path fill-rule="evenodd" clip-rule="evenodd" d="M484.326 819.215C484.326 819.215 529.833 849.756 633.298 839.171C633.298 839.171 606.185 844.464 582.498 844.464C558.812 844.464 541.047 853.509 525.474 851.318C509.9 849.126 511.766 836.98 498.99 833.856C486.214 830.732 484.349 819.215 484.349 819.215H484.326Z" fill="white"/>
</g>
<g style="mix-blend-mode:soft-light">
<path fill-rule="evenodd" clip-rule="evenodd" d="M651.692 835.441C651.692 835.441 673.513 833.553 693.142 826.699C693.142 826.699 685.449 835.837 676.1 837.493C666.752 839.148 668.197 835.861 651.692 835.418V835.441Z" fill="white"/>
</g>
<g style="mix-blend-mode:soft-light">
<path fill-rule="evenodd" clip-rule="evenodd" d="M336.589 255.731C336.589 255.731 329.944 303.664 348.222 377.357C348.222 377.357 341.298 356.725 335.4 339.263C329.525 321.801 316.632 320.985 312.063 304.363C307.494 287.741 324.955 288.976 325.771 275.268C326.61 261.56 336.565 255.731 336.565 255.731H336.589Z" fill="white"/>
</g>
<g style="mix-blend-mode:soft-light">
<path fill-rule="evenodd" clip-rule="evenodd" d="M356.545 230.949C356.545 230.949 359.039 205.608 374.006 185.791C374.006 185.791 348.455 199.336 356.545 230.949Z" fill="white"/>
</g>
<g style="mix-blend-mode:soft-light">
<path fill-rule="evenodd" clip-rule="evenodd" d="M686.686 740.299C686.686 740.299 758.887 739.297 806.423 701.343C806.423 701.343 790.803 717.406 769.191 726.964C747.58 736.523 760.892 746.081 735.107 746.081C709.323 746.081 686.686 740.299 686.686 740.299Z" fill="white"/>
</g>
<path style="mix-blend-mode:screen" opacity="0.3" fill-rule="evenodd" clip-rule="evenodd" d="M866.082 491.453C866.688 493.504 867.014 494.717 867.014 494.717C866.688 493.528 866.385 492.292 866.059 491.056C865.522 482.99 864.776 474.993 863.774 467.067V467.09C862.818 454.757 860.067 440.583 856.733 426.968C852.42 407.991 846.802 389.527 839.994 371.622C839.668 370.689 839.481 370.2 839.481 370.2H839.458C821.274 322.967 794.696 279.884 761.545 242.816C761.755 243.026 761.871 243.165 761.871 243.165L761.288 242.536C757.791 238.643 754.224 234.796 750.588 231.042L750.121 230.53C749.026 229.317 747.79 228.058 746.461 226.823C739.724 220.039 732.73 213.488 725.526 207.193C725.549 207.193 725.596 207.24 725.596 207.24C725.596 207.24 725.526 207.17 725.409 207.1C661.973 151.567 581.472 115.082 492.788 106.526C492.882 106.526 492.928 106.526 492.928 106.526C489.618 106.153 485.585 105.826 481.225 105.593C471.736 104.941 462.178 104.591 452.55 104.591C451.407 104.591 450.288 104.614 449.146 104.637C445.835 104.591 443.784 104.591 443.784 104.591C443.784 104.591 443.481 104.637 443.038 104.707C424.224 105.127 405.69 106.806 387.575 109.673C387.575 109.673 331.833 114.033 280.917 141.682C270.356 146.508 260.028 151.754 249.957 157.419L249.863 157.489C241.004 162.455 232.355 167.747 223.915 173.342C217.854 177.352 211.886 181.525 206.057 185.838C206.057 185.838 206.057 185.838 206.057 185.815C206.057 185.815 205.545 186.188 204.659 186.84C204.589 186.887 204.519 186.957 204.426 187.004C197.222 192.389 167.777 214.77 155.91 229.574C152.46 233.117 149.056 236.684 145.722 240.344C145.722 240.344 145.676 240.391 145.676 240.414C145.536 240.578 145.023 241.137 144.207 242.07C135.068 252.234 126.419 262.865 118.329 273.892C108.281 287.251 97.6503 302.801 90.4931 317.115V317.162C81.8439 332.619 74.1738 348.682 67.5295 365.281C55.9427 391.602 50.4641 417.969 50.4641 417.969C50.4641 417.969 50.4641 417.969 50.4641 417.992C42.3511 450.328 38.0381 484.179 38.0381 519.032C38.0381 586.338 54.101 649.89 82.5666 706.099C94.13 737.059 113.643 768.252 146.282 798.326C146.305 798.326 146.329 798.373 146.352 798.396C222.144 881.392 331.227 933.474 452.48 933.474C510.646 933.474 565.992 921.467 616.209 899.856H616.256L616.466 899.739C629.498 894.121 642.204 887.826 654.513 880.949L654.77 880.832C654.77 880.832 654.746 880.832 654.723 880.832C686.01 863.301 714.802 841.852 740.4 817.117C747.254 810.752 750.984 806.533 750.984 806.533L751.147 806.346C756.253 801.031 761.218 795.622 766.044 790.05C770.8 784.851 773.155 781.611 773.155 781.611L773.015 781.774C781.128 771.889 788.798 761.631 795.979 751C799.546 745.755 802.973 740.393 806.283 734.984C806.283 734.961 806.33 734.914 806.33 734.914C844.773 672.038 866.944 598.135 866.944 519.032C866.944 509.754 866.618 500.568 866.012 491.453H866.082Z" fill="url(#paint24_radial_16_1637)"/>
<path style="mix-blend-mode:multiply" fill-rule="evenodd" clip-rule="evenodd" d="M866.082 491.453C866.688 493.504 867.014 494.717 867.014 494.717C866.688 493.528 866.385 492.292 866.059 491.056C865.522 482.99 864.776 474.993 863.774 467.067V467.09C862.818 454.757 860.067 440.583 856.733 426.968C852.42 407.991 846.802 389.527 839.994 371.622C839.668 370.689 839.481 370.2 839.481 370.2H839.458C821.274 322.967 794.696 279.884 761.545 242.816C761.755 243.026 761.871 243.165 761.871 243.165L761.288 242.536C757.791 238.643 754.224 234.796 750.588 231.042L750.121 230.53C749.026 229.317 747.79 228.058 746.461 226.823C739.724 220.039 732.73 213.488 725.526 207.193C725.549 207.193 725.596 207.24 725.596 207.24C725.596 207.24 725.526 207.17 725.409 207.1C661.973 151.567 581.472 115.082 492.788 106.526C492.882 106.526 492.928 106.526 492.928 106.526C489.618 106.153 485.585 105.826 481.225 105.593C471.736 104.941 462.178 104.591 452.55 104.591C451.407 104.591 450.288 104.614 449.146 104.637C445.835 104.591 443.784 104.591 443.784 104.591C443.784 104.591 443.481 104.637 443.038 104.707C424.224 105.127 405.69 106.806 387.575 109.673C387.575 109.673 331.833 114.033 280.917 141.682C270.356 146.508 260.028 151.754 249.957 157.419L249.863 157.489C241.004 162.455 232.355 167.747 223.915 173.342C217.854 177.352 211.886 181.525 206.057 185.838C206.057 185.838 206.057 185.838 206.057 185.815C206.057 185.815 205.545 186.188 204.659 186.84C204.589 186.887 204.519 186.957 204.426 187.004C197.222 192.389 167.777 214.77 155.91 229.574C152.46 233.117 149.056 236.684 145.722 240.344C145.722 240.344 145.676 240.391 145.676 240.414C145.536 240.578 145.023 241.137 144.207 242.07C135.068 252.234 126.419 262.865 118.329 273.892C108.281 287.251 97.6503 302.801 90.4931 317.115V317.162C81.8439 332.619 74.1738 348.682 67.5295 365.281C55.9427 391.602 50.4641 417.969 50.4641 417.969C50.4641 417.969 50.4641 417.969 50.4641 417.992C42.3511 450.328 38.0381 484.179 38.0381 519.032C38.0381 586.338 54.101 649.89 82.5666 706.099C94.13 737.059 113.643 768.252 146.282 798.326C146.305 798.326 146.329 798.373 146.352 798.396C222.144 881.392 331.227 933.474 452.48 933.474C510.646 933.474 565.992 921.467 616.209 899.856H616.256L616.466 899.739C629.498 894.121 642.204 887.826 654.513 880.949L654.77 880.832C654.77 880.832 654.746 880.832 654.723 880.832C686.01 863.301 714.802 841.852 740.4 817.117C747.254 810.752 750.984 806.533 750.984 806.533L751.147 806.346C756.253 801.031 761.218 795.622 766.044 790.05C770.8 784.851 773.155 781.611 773.155 781.611L773.015 781.774C781.128 771.889 788.798 761.631 795.979 751C799.546 745.755 802.973 740.393 806.283 734.984C806.283 734.961 806.33 734.914 806.33 734.914C844.773 672.038 866.944 598.135 866.944 519.032C866.944 509.754 866.618 500.568 866.012 491.453H866.082Z" fill="url(#paint25_radial_16_1637)"/>
<path style="mix-blend-mode:screen" opacity="0.5" fill-rule="evenodd" clip-rule="evenodd" d="M866.082 491.453C866.688 493.504 867.014 494.717 867.014 494.717C866.688 493.528 866.385 492.292 866.059 491.056C865.522 482.99 864.776 474.993 863.774 467.067V467.09C862.818 454.757 860.067 440.583 856.733 426.968C852.42 407.991 846.802 389.527 839.994 371.622C839.668 370.689 839.481 370.2 839.481 370.2H839.458C821.274 322.967 794.696 279.884 761.545 242.816C761.755 243.026 761.871 243.165 761.871 243.165L761.288 242.536C757.791 238.643 754.224 234.796 750.588 231.042L750.121 230.53C749.026 229.317 747.79 228.058 746.461 226.823C739.724 220.039 732.73 213.488 725.526 207.193C725.549 207.193 725.596 207.24 725.596 207.24C725.596 207.24 712.563 210.993 712.47 210.923C649.035 155.391 581.496 115.082 492.788 106.526C492.882 106.526 492.928 106.526 492.928 106.526C489.618 106.153 485.585 105.826 481.225 105.593C471.736 104.941 462.178 104.591 452.55 104.591C451.407 104.591 450.288 104.614 449.146 104.637C445.835 104.591 443.784 104.591 443.784 104.591C443.784 104.591 443.481 104.637 443.038 104.707C424.224 105.127 405.69 106.806 387.575 109.673C387.575 109.673 331.833 114.033 280.917 141.682C270.356 146.508 260.028 151.754 249.957 157.419L249.863 157.489C241.004 162.455 232.355 167.747 223.915 173.342C217.854 177.352 211.886 181.525 206.057 185.838C206.057 185.838 206.057 185.838 206.057 185.815C206.057 185.815 205.545 186.188 204.659 186.84C204.589 186.887 204.519 186.957 204.426 187.004C197.222 192.389 167.777 214.77 155.91 229.574C152.46 233.117 149.056 236.684 145.722 240.344C145.722 240.344 145.676 240.391 145.676 240.414C145.536 240.578 145.023 241.137 144.207 242.07C135.068 252.234 126.419 262.865 118.329 273.892C108.281 287.251 97.6503 302.801 90.4931 317.115V317.162C81.8439 332.619 74.1738 348.682 67.5295 365.281C55.9427 391.602 50.4641 417.969 50.4641 417.969C50.4641 417.969 50.4641 417.969 50.4641 417.992C42.3511 450.328 38.0381 484.179 38.0381 519.032C38.0381 586.338 54.101 649.89 82.5666 706.099C94.13 737.059 113.643 768.252 146.282 798.326C146.305 798.326 146.329 798.373 146.352 798.396C222.144 881.392 331.227 933.474 452.48 933.474C510.646 933.474 565.992 921.467 616.209 899.856H616.256L616.466 899.739C629.498 894.121 642.204 887.826 654.513 880.949L651.622 865.725C651.622 865.725 654.746 880.832 654.723 880.832C686.01 863.301 714.802 841.852 740.4 817.117C747.254 810.752 750.984 806.533 750.984 806.533L751.147 806.346C756.253 801.031 761.218 795.622 766.044 790.05C770.8 784.851 773.155 781.611 773.155 781.611L773.015 781.774C781.128 771.889 788.798 761.631 795.979 751C799.546 745.755 802.973 740.393 806.283 734.984C806.283 734.961 806.33 734.914 806.33 734.914C844.773 672.038 866.944 598.135 866.944 519.032C866.944 509.754 866.618 500.568 866.012 491.453H866.082Z" fill="url(#paint26_radial_16_1637)"/>
<path style="mix-blend-mode:screen" d="M923.382 508.542C986.505 472.097 980.588 343.672 910.165 221.695C839.741 99.7189 731.48 30.3815 668.357 66.8259C605.233 103.27 611.151 231.696 681.574 353.672C751.997 475.649 860.258 544.986 923.382 508.542Z" fill="url(#paint27_radial_16_1637)"/>
<defs>
<radialGradient id="paint0_radial_16_1637" cx="0" cy="0" r="1" gradientUnits="userSpaceOnUse" gradientTransform="translate(462.644 512.645) scale(462.49 462.49)">
<stop offset="0.85" stop-color="#00CEFF"/>
<stop offset="0.86" stop-color="#00A7CE"/>
<stop offset="0.88" stop-color="#00809E"/>
<stop offset="0.89" stop-color="#005D74"/>
<stop offset="0.91" stop-color="#004050"/>
<stop offset="0.92" stop-color="#002933"/>
<stop offset="0.94" stop-color="#00161C"/>
<stop offset="0.95" stop-color="#000A0C"/>
<stop offset="0.97" stop-color="#000202"/>
<stop offset="1"/>
</radialGradient>
<radialGradient id="paint1_radial_16_1637" cx="0" cy="0" r="1" gradientUnits="userSpaceOnUse" gradientTransform="translate(368.738 298.962) scale(579.78 649.353)">
<stop offset="0.06" stop-color="#00CDFF"/>
<stop offset="0.52" stop-color="#004DB3"/>
<stop offset="0.6" stop-color="#0031A0"/>
<stop offset="0.71" stop-color="#00168F"/>
<stop offset="0.81" stop-color="#000584"/>
<stop offset="0.88" stop-color="#000081"/>
<stop offset="1" stop-color="#8972FF"/>
</radialGradient>
<linearGradient id="paint2_linear_16_1637" x1="381.49" y1="906.594" x2="630.127" y2="145.646" gradientUnits="userSpaceOnUse">
<stop offset="0.01"/>
<stop offset="0.1" stop-color="#020606"/>
<stop offset="0.23" stop-color="#0A1919"/>
<stop offset="0.38" stop-color="#163939"/>
<stop offset="0.54" stop-color="#286565"/>
<stop offset="0.72" stop-color="#3E9D9D"/>
<stop offset="0.91" stop-color="#58E0E0"/>
<stop offset="0.99" stop-color="#65FFFF"/>
</linearGradient>
<linearGradient id="paint3_linear_16_1637" x1="546.339" y1="592.703" x2="678.083" y2="189.498" gradientUnits="userSpaceOnUse">
<stop offset="0.01"/>
<stop offset="0.1" stop-color="#020606"/>
<stop offset="0.23" stop-color="#0A1919"/>
<stop offset="0.38" stop-color="#163939"/>
<stop offset="0.54" stop-color="#286565"/>
<stop offset="0.72" stop-color="#3E9D9D"/>
<stop offset="0.91" stop-color="#58E0E0"/>
<stop offset="0.99" stop-color="#65FFFF"/>
</linearGradient>
<linearGradient id="paint4_linear_16_1637" x1="453.552" y1="893.445" x2="684.284" y2="187.307" gradientUnits="userSpaceOnUse">
<stop stop-color="white"/>
<stop offset="0.99" stop-color="#A411A4"/>
</linearGradient>
<linearGradient id="paint5_linear_16_1637" x1="453.552" y1="893.445" x2="684.284" y2="187.307" gradientUnits="userSpaceOnUse">
<stop stop-color="white"/>
<stop offset="0.99" stop-color="#A411A4"/>
</linearGradient>
<linearGradient id="paint6_linear_16_1637" x1="285.439" y1="997.609" x2="494.816" y2="356.795" gradientUnits="userSpaceOnUse">
<stop stop-color="#65FFFF"/>
<stop offset="0.09" stop-color="#58E0E0"/>
<stop offset="0.28" stop-color="#3E9D9D"/>
<stop offset="0.46" stop-color="#286565"/>
<stop offset="0.62" stop-color="#163939"/>
<stop offset="0.77" stop-color="#0A1919"/>
<stop offset="0.9" stop-color="#020606"/>
<stop offset="0.99"/>
</linearGradient>
<linearGradient id="paint7_linear_16_1637" x1="286.052" y1="237.104" x2="234.638" y2="842.586" gradientUnits="userSpaceOnUse">
<stop stop-color="white"/>
<stop offset="0.99" stop-color="#A411A4"/>
</linearGradient>
<linearGradient id="paint8_linear_16_1637" x1="286.052" y1="237.104" x2="234.638" y2="842.586" gradientUnits="userSpaceOnUse">
<stop stop-color="white"/>
<stop offset="0.99" stop-color="#A411A4"/>
</linearGradient>
<linearGradient id="paint9_linear_16_1637" x1="723.591" y1="482.174" x2="805.49" y2="231.509" gradientUnits="userSpaceOnUse">
<stop offset="0.01"/>
<stop offset="0.1" stop-color="#020606"/>
<stop offset="0.23" stop-color="#0A1919"/>
<stop offset="0.38" stop-color="#163939"/>
<stop offset="0.54" stop-color="#286565"/>
<stop offset="0.72" stop-color="#3E9D9D"/>
<stop offset="0.91" stop-color="#58E0E0"/>
<stop offset="0.99" stop-color="#65FFFF"/>
</linearGradient>
<linearGradient id="paint10_linear_16_1637" x1="565.246" y1="680.477" x2="722.402" y2="199.476" gradientUnits="userSpaceOnUse">
<stop offset="0.01"/>
<stop offset="0.1" stop-color="#020606"/>
<stop offset="0.23" stop-color="#0A1919"/>
<stop offset="0.38" stop-color="#163939"/>
<stop offset="0.54" stop-color="#286565"/>
<stop offset="0.72" stop-color="#3E9D9D"/>
<stop offset="0.91" stop-color="#58E0E0"/>
<stop offset="0.99" stop-color="#65FFFF"/>
</linearGradient>
<linearGradient id="paint11_linear_16_1637" x1="578.279" y1="522.476" x2="634.749" y2="275.192" gradientUnits="userSpaceOnUse">
<stop offset="0.01"/>
<stop offset="0.1" stop-color="#020606"/>
<stop offset="0.23" stop-color="#0A1919"/>
<stop offset="0.38" stop-color="#163939"/>
<stop offset="0.54" stop-color="#286565"/>
<stop offset="0.72" stop-color="#3E9D9D"/>
<stop offset="0.91" stop-color="#58E0E0"/>
<stop offset="0.99" stop-color="#65FFFF"/>
</linearGradient>
<linearGradient id="paint12_linear_16_1637" x1="579.652" y1="496.552" x2="624.057" y2="302.11" gradientUnits="userSpaceOnUse">
<stop stop-color="#A2B3FF"/>
<stop offset="0.99" stop-color="#A411A4"/>
</linearGradient>
<linearGradient id="paint13_linear_16_1637" x1="547.97" y1="635.351" x2="627.469" y2="287.213" gradientUnits="userSpaceOnUse">
<stop stop-color="white"/>
<stop offset="0.99" stop-color="#A411A4"/>
</linearGradient>
<linearGradient id="paint14_linear_16_1637" x1="327.769" y1="602.327" x2="282.387" y2="735.67" gradientUnits="userSpaceOnUse">
<stop stop-color="#A2B3FF"/>
<stop offset="0.99" stop-color="#A411A4"/>
</linearGradient>
<linearGradient id="paint15_linear_16_1637" x1="380.703" y1="514.14" x2="299.444" y2="752.874" gradientUnits="userSpaceOnUse">
<stop stop-color="white"/>
<stop offset="0.99" stop-color="#A411A4"/>
</linearGradient>
<linearGradient id="paint16_linear_16_1637" x1="245.2" y1="976.161" x2="407.858" y2="478.327" gradientUnits="userSpaceOnUse">
<stop stop-color="#65FFFF"/>
<stop offset="0.09" stop-color="#58E0E0"/>
<stop offset="0.28" stop-color="#3E9D9D"/>
<stop offset="0.46" stop-color="#286565"/>
<stop offset="0.62" stop-color="#163939"/>
<stop offset="0.77" stop-color="#0A1919"/>
<stop offset="0.9" stop-color="#020606"/>
<stop offset="0.99"/>
</linearGradient>
<linearGradient id="paint17_linear_16_1637" x1="437.396" y1="825.813" x2="654.35" y2="161.778" gradientUnits="userSpaceOnUse">
<stop stop-color="white"/>
<stop offset="0.99" stop-color="#A411A4"/>
</linearGradient>
<linearGradient id="paint18_linear_16_1637" x1="364.611" y1="903.539" x2="573.102" y2="265.383" gradientUnits="userSpaceOnUse">
<stop stop-color="white"/>
<stop offset="0.99" stop-color="#A411A4"/>
</linearGradient>
<linearGradient id="paint19_linear_16_1637" x1="214.123" y1="868.616" x2="285.346" y2="650.613" gradientUnits="userSpaceOnUse">
<stop stop-color="#65FFFF"/>
<stop offset="0.09" stop-color="#58E0E0"/>
<stop offset="0.28" stop-color="#3E9D9D"/>
<stop offset="0.46" stop-color="#286565"/>
<stop offset="0.62" stop-color="#163939"/>
<stop offset="0.77" stop-color="#0A1919"/>
<stop offset="0.9" stop-color="#020606"/>
<stop offset="0.99"/>
</linearGradient>
<linearGradient id="paint20_linear_16_1637" x1="524.564" y1="747.527" x2="607.676" y2="493.131" gradientUnits="userSpaceOnUse">
<stop stop-color="#A411A4"/>
<stop offset="1" stop-color="white"/>
</linearGradient>
<linearGradient id="paint21_linear_16_1637" x1="566.295" y1="840.011" x2="620.312" y2="674.696" gradientUnits="userSpaceOnUse">
<stop stop-color="#A411A4"/>
<stop offset="1" stop-color="white"/>
</linearGradient>
<linearGradient id="paint22_linear_16_1637" x1="629.684" y1="675.325" x2="669.69" y2="552.907" gradientUnits="userSpaceOnUse">
<stop stop-color="#A411A4"/>
<stop offset="1" stop-color="white"/>
</linearGradient>
<linearGradient id="paint23_linear_16_1637" x1="138.425" y1="664.997" x2="285.929" y2="213.581" gradientUnits="userSpaceOnUse">
<stop offset="0.01"/>
<stop offset="0.1" stop-color="#020606"/>
<stop offset="0.23" stop-color="#0A1919"/>
<stop offset="0.38" stop-color="#163939"/>
<stop offset="0.54" stop-color="#286565"/>
<stop offset="0.72" stop-color="#3E9D9D"/>
<stop offset="0.91" stop-color="#58E0E0"/>
<stop offset="0.99" stop-color="#65FFFF"/>
</linearGradient>
<radialGradient id="paint24_radial_16_1637" cx="0" cy="0" r="1" gradientUnits="userSpaceOnUse" gradientTransform="translate(452.573 577.875) scale(457.198 457.198)">
<stop offset="0.93"/>
<stop offset="0.94" stop-color="#141219"/>
<stop offset="0.95" stop-color="#2D2839"/>
<stop offset="0.97" stop-color="#504865"/>
<stop offset="0.98" stop-color="#7C709D"/>
<stop offset="0.99" stop-color="#CAB6FF"/>
</radialGradient>
<radialGradient id="paint25_radial_16_1637" cx="0" cy="0" r="1" gradientUnits="userSpaceOnUse" gradientTransform="translate(532.444 363.486) scale(764.585 764.585)">
<stop stop-color="white"/>
<stop offset="0.21" stop-color="#FDFDFE"/>
<stop offset="0.29" stop-color="#F9F6FA"/>
<stop offset="0.34" stop-color="#F1EAF5"/>
<stop offset="0.39" stop-color="#E6D9EC"/>
<stop offset="0.42" stop-color="#D8C3E2"/>
<stop offset="0.46" stop-color="#C7A8D4"/>
<stop offset="0.49" stop-color="#B287C4"/>
<stop offset="0.51" stop-color="#9A62B2"/>
<stop offset="0.54" stop-color="#7F399E"/>
<stop offset="0.56" stop-color="#66118B"/>
<stop offset="0.66" stop-color="#66118B"/>
<stop offset="1" stop-color="white"/>
</radialGradient>
<radialGradient id="paint26_radial_16_1637" cx="0" cy="0" r="1" gradientUnits="userSpaceOnUse" gradientTransform="translate(881.492 285.293) scale(915.352 915.352)">
<stop offset="0.88"/>
<stop offset="0.89" stop-color="#220B2F"/>
<stop offset="0.91" stop-color="#4E196D"/>
<stop offset="0.94" stop-color="#7325A1"/>
<stop offset="0.96" stop-color="#902ECA"/>
<stop offset="0.97" stop-color="#A435E7"/>
<stop offset="0.99" stop-color="#B139F8"/>
<stop offset="1" stop-color="#B63BFF"/>
</radialGradient>
<radialGradient id="paint27_radial_16_1637" cx="0" cy="0" r="1" gradientUnits="userSpaceOnUse" gradientTransform="translate(794.997 288.453) rotate(-30) scale(131.545 254.969)">
<stop stop-color="#00A9FF"/>
<stop offset="0.08" stop-color="#0089CE"/>
<stop offset="0.17" stop-color="#00699E"/>
<stop offset="0.26" stop-color="#004D74"/>
<stop offset="0.36" stop-color="#003550"/>
<stop offset="0.46" stop-color="#002133"/>
<stop offset="0.57" stop-color="#00121C"/>
<stop offset="0.69" stop-color="#00080C"/>
<stop offset="0.82" stop-color="#000102"/>
<stop offset="1"/>
</radialGradient>
</defs>
</svg>
