<svg width="42" height="44" viewBox="0 0 42 44" fill="none" xmlns="http://www.w3.org/2000/svg">
<g filter="url(#filter0_d_16_1678)">
<g filter="url(#filter1_d_16_1678)">
<path d="M29.9078 14.6496C29.2383 14.9381 28.5346 15.1397 27.8138 15.2496C28.1518 15.1926 28.6448 14.5836 28.8438 14.3366C29.1551 13.9623 29.3926 13.5324 29.5438 13.0696C29.5608 13.0336 29.5748 12.9876 29.5388 12.9606C29.5208 12.9529 29.5012 12.9496 29.4817 12.9512C29.4622 12.9528 29.4434 12.9591 29.4268 12.9696C28.6421 13.3891 27.808 13.7086 26.9438 13.9206C26.9141 13.9298 26.8824 13.9304 26.8524 13.9225C26.8223 13.9145 26.7951 13.8983 26.7738 13.8756C26.7071 13.796 26.6343 13.7217 26.5558 13.6536C26.1983 13.3444 25.7931 13.0952 25.3558 12.9156C24.7716 12.6779 24.1413 12.5754 23.5118 12.6156C22.8979 12.6544 22.299 12.8217 21.7538 13.1066C21.2097 13.3905 20.7295 13.7829 20.3428 14.2596C19.9411 14.7539 19.6529 15.3305 19.4988 15.9486C19.3674 16.5343 19.3524 17.1402 19.4548 17.7316C19.4678 17.8316 19.4548 17.8446 19.3688 17.8316C16.0837 17.4979 13.0414 15.9499 10.8378 13.4906C10.7378 13.3776 10.6858 13.3776 10.6018 13.4996C10.1598 14.3171 9.99283 15.2552 10.1256 16.175C10.2583 17.0948 10.6837 17.9475 11.3388 18.6066C11.5068 18.7646 11.6788 18.9236 11.8638 19.0686C11.2897 19.0249 10.73 18.8678 10.2168 18.6066C10.1168 18.5446 10.0678 18.5806 10.0588 18.6936C10.0524 18.8584 10.0614 19.0235 10.0858 19.1866C10.1867 19.955 10.4898 20.6829 10.9642 21.2957C11.4386 21.9085 12.0672 22.3844 12.7858 22.6746C12.9613 22.7509 13.1448 22.8072 13.3328 22.8426C12.8009 22.948 12.2552 22.9645 11.7178 22.8916C11.6008 22.8696 11.5558 22.9276 11.6008 23.0406C11.8766 23.7631 12.3322 24.4033 12.9246 24.9004C13.517 25.3976 14.2264 25.7353 14.9858 25.8816C15.1408 25.9086 15.2938 25.9086 15.4478 25.9436C15.4388 25.9576 15.4298 25.9576 15.4208 25.9706C14.7618 26.565 13.9657 26.9869 13.1038 27.1986C11.9774 27.6007 10.7773 27.7545 9.58584 27.6496C9.39584 27.6206 9.35684 27.6236 9.30584 27.6496C9.25484 27.6756 9.29984 27.7266 9.36084 27.7756C9.60084 27.9336 9.84484 28.0756 10.0928 28.2106C10.8406 28.6088 11.6296 28.924 12.4458 29.1506C14.5449 29.7825 16.7731 29.8524 18.9077 29.3533C21.0423 28.8543 23.0085 27.8037 24.6098 26.3066C27.1018 23.8306 27.9758 20.4156 27.9758 16.9966C27.9758 16.8626 28.1338 16.7886 28.2278 16.7176C28.8616 16.2284 29.4202 15.6489 29.8858 14.9976C29.959 14.9034 29.9978 14.7869 29.9958 14.6676V14.6496C29.9958 14.5946 29.9958 14.6116 29.9098 14.6496" fill="white"/>
</g>
<path d="M19.5 40.3226C29.9934 40.3226 38.5 31.5922 38.5 20.8226C38.5 10.0531 29.9934 1.32263 19.5 1.32263C9.00659 1.32263 0.5 10.0531 0.5 20.8226C0.5 31.5922 9.00659 40.3226 19.5 40.3226Z" stroke="#FEFFFF"/>
</g>
<defs>
<filter id="filter0_d_16_1678" x="0" y="0.822632" width="42" height="43" filterUnits="userSpaceOnUse" color-interpolation-filters="sRGB">
<feFlood flood-opacity="0" result="BackgroundImageFix"/>
<feColorMatrix in="SourceAlpha" type="matrix" values="0 0 0 0 0 0 0 0 0 0 0 0 0 0 0 0 0 0 127 0" result="hardAlpha"/>
<feOffset dx="2" dy="2"/>
<feGaussianBlur stdDeviation="0.5"/>
<feComposite in2="hardAlpha" operator="out"/>
<feColorMatrix type="matrix" values="0 0 0 0 0.416667 0 0 0 0 0.371528 0 0 0 0 0.371528 0 0 0 0.61 0"/>
<feBlend mode="normal" in2="BackgroundImageFix" result="effect1_dropShadow_16_1678"/>
<feBlend mode="normal" in="SourceGraphic" in2="effect1_dropShadow_16_1678" result="shape"/>
</filter>
<filter id="filter1_d_16_1678" x="9.28369" y="12.6071" width="23.7124" height="20.0752" filterUnits="userSpaceOnUse" color-interpolation-filters="sRGB">
<feFlood flood-opacity="0" result="BackgroundImageFix"/>
<feColorMatrix in="SourceAlpha" type="matrix" values="0 0 0 0 0 0 0 0 0 0 0 0 0 0 0 0 0 0 127 0" result="hardAlpha"/>
<feOffset dx="2" dy="2"/>
<feGaussianBlur stdDeviation="0.5"/>
<feComposite in2="hardAlpha" operator="out"/>
<feColorMatrix type="matrix" values="0 0 0 0 0.416667 0 0 0 0 0.371528 0 0 0 0 0.371528 0 0 0 0.61 0"/>
<feBlend mode="normal" in2="BackgroundImageFix" result="effect1_dropShadow_16_1678"/>
<feBlend mode="normal" in="SourceGraphic" in2="effect1_dropShadow_16_1678" result="shape"/>
</filter>
</defs>
</svg>
