<svg width="67" height="55" viewBox="0 0 67 55" fill="none" xmlns="http://www.w3.org/2000/svg">
<g clip-path="url(#clip0_21_497)">
<g opacity="0.2">
<path d="M35.2501 54.86C27.1201 54.61 20.2101 47.37 20.9901 40.17C20.8201 38.39 21.0701 36.6 21.7301 34.94C19.0401 33.47 16.0401 32.66 12.9701 32.58C7.7901 32.37 4.4701 28.38 4.9201 23.13C5.2801 18.88 9.8101 15.44 14.4701 16.41C16.3001 16.79 18.0101 18.3 19.5001 19.61C21.7901 21.64 23.5401 24.38 26.0401 26.03C26.8401 26.56 27.6901 27.03 28.5601 27.42C30.6201 26.27 32.9301 25.64 35.2901 25.58C37.8601 25.54 40.3901 26.16 42.6501 27.39C45.9201 25.9 48.7301 23.54 50.7601 20.58C51.4101 19.55 52.2001 18.62 53.1201 17.82C55.5301 15.83 58.9001 15.5 61.6401 17C64.5601 18.29 66.3701 21.26 66.1701 24.45C66.2901 28.83 62.8501 32.48 58.4701 32.6C58.4301 32.6 58.3901 32.6 58.3501 32.6C55.1301 32.62 51.9801 33.48 49.1901 35.09C49.7501 36.68 50.0401 38.34 50.0501 40.02C50.2301 48.03 43.8801 54.68 35.8701 54.86C35.8101 54.86 35.7501 54.86 35.6901 54.86C35.5401 54.87 35.3901 54.86 35.2401 54.86H35.2501Z" fill="#DDDDDD"/>
<path d="M35.49 19.67C30.98 19.66 27.3 16.04 27.23 11.52C27.25 6.89001 31.01 3.16001 35.64 3.18001C35.67 3.18001 35.7 3.18001 35.73 3.18001C40.16 3.35001 43.69 6.93001 43.79 11.36C43.84 15.9 40.2 19.62 35.65 19.67C35.6 19.67 35.55 19.67 35.5 19.67" fill="#DDDDDD"/>
</g>
<path d="M30.3701 51.81C20.9501 51.19 13.0501 41.39 16.8501 31.88C14.1601 30.41 11.1601 29.6 8.09011 29.52C2.92011 29.32 -0.409891 25.33 0.0401091 20.08C0.400109 15.83 4.93011 12.4 9.59011 13.36C11.4201 13.74 13.1301 15.25 14.6201 16.56C16.9101 18.59 18.6601 21.33 21.1601 22.98C21.9601 23.51 22.8101 23.98 23.6801 24.37C25.7401 23.22 28.0501 22.59 30.4101 22.53C32.9801 22.49 35.5101 23.11 37.7701 24.34C41.0401 22.85 43.8501 20.49 45.8801 17.53C46.5301 16.5 47.3201 15.57 48.2401 14.77C50.6501 12.78 54.0201 12.45 56.7601 13.95C59.6801 15.24 61.4901 18.21 61.2901 21.4C61.4101 25.78 57.9701 29.42 53.5901 29.55H53.4701C50.2501 29.57 47.0901 30.43 44.3101 32.05C44.8701 33.64 45.1601 35.3 45.1701 36.98C45.3501 44.99 39.0001 51.64 30.9901 51.82H30.8101C30.6601 51.82 30.5101 51.82 30.3601 51.82" fill="white"/>
<path d="M30.6003 16.63C26.0903 16.62 22.4103 13 22.3403 8.48C22.3603 3.86 26.1203 0.120003 30.7503 0.140003H30.8403C35.2703 0.310003 38.8003 3.89 38.9003 8.32C38.9503 12.86 35.3103 16.58 30.7603 16.63H30.6103" fill="white"/>
<g opacity="0.41">
<path d="M30.6003 16.63H30.7503C32.2303 16.61 33.6903 16.19 34.9503 15.41C32.4103 14.39 30.1103 12.86 28.2003 10.9C25.1603 7.58002 25.9203 4.67002 27.4003 0.830017C24.3303 2.13002 22.3303 5.14002 22.3203 8.48002C22.4003 13 26.0803 16.62 30.5903 16.63" fill="#ADADAD"/>
</g>
<g opacity="0.41">
<path d="M41.9602 46.42C39.7202 45.86 37.4402 45.5 35.1402 45.36C31.8002 45.15 28.9202 45.04 26.3202 42.68C24.2002 40.77 22.8202 38.19 22.3902 35.38C22.1202 33.31 22.3202 31.18 21.6202 29.18C20.8902 27.13 18.7802 26.22 16.9302 25.41C13.5102 23.9 9.90021 23.57 6.93021 21.1C4.97021 19.47 3.82021 17.46 1.98021 15.86C0.880212 17.01 0.200212 18.5 0.0402124 20.08C-0.409788 25.33 2.91021 29.32 8.09021 29.53C11.1602 29.6 14.1602 30.41 16.8502 31.89C13.0502 41.4 20.9502 51.2 30.3702 51.82C30.5202 51.82 30.6702 51.82 30.8202 51.82H31.0002C35.2702 51.72 39.2702 49.75 41.9502 46.43" fill="#ADADAD"/>
</g>
<g opacity="0.41">
<path d="M60.2301 25.7C59.4101 25.56 58.5901 25.42 57.7601 25.29C56.1301 24.98 54.4701 24.92 52.8201 25.11C51.1801 25.34 50.2701 26.17 48.9901 27.15C47.9301 27.96 46.8201 28.71 45.7401 29.49C45.0101 30.16 44.5301 31.06 44.3901 32.04C47.1701 30.43 50.3301 29.57 53.5501 29.55H53.6701C56.3701 29.47 58.8501 28.03 60.2301 25.71" fill="#ADADAD"/>
</g>
</g>
<defs>
<clipPath id="clip0_21_497">
<rect width="66.2" height="54.72" fill="white" transform="translate(0 0.140015)"/>
</clipPath>
</defs>
</svg>
